<svg xmlns="http://www.w3.org/2000/svg" fill="none" viewBox="0.86 0.93 16.14 16.14">
  <path d="M17 8.9982C17 13.4201 13.3438 17.0685 8.92969 17.0685C4.51562 17.0685 0.859375 13.4201 0.859375 8.9982C0.859375 8.55914 1.21915 8.2032 1.65821 8.2032C2.09728 8.2032 2.45312 8.55914 2.45312 8.9982C2.45312 12.592 5.33594 15.4826 8.92969 15.4826C12.5234 15.4826 15.4141 12.592 15.4141 8.9982C15.4062 5.40445 12.5156 2.52164 8.92188 2.52164C8.48281 2.52164 8.12687 2.16571 8.12687 1.72664C8.12687 1.28757 8.48281 0.931728 8.92188 0.931728C13.3438 0.931728 17 4.58414 17 8.9982Z" fill="currentColor" />
</svg>