<svg xmlns="http://www.w3.org/2000/svg" fill="none" viewBox="0 0 12.07 12.07">
<path d="M6.03516 12.0703C9.33609 12.0703 12.0703 9.34193 12.0703 6.03516C12.0703 2.73422 9.33609 0 6.02931 0C2.72838 0 0 2.73422 0 6.03516C0 9.34193 2.73422 12.0703 6.03516 12.0703ZM5.38665 8.92128C5.16464 8.92128 4.98353 8.82196 4.81995 8.61164L3.38857 6.87061C3.28341 6.74208 3.23082 6.60186 3.23082 6.45581C3.23082 6.15785 3.46452 5.91247 3.76832 5.91247C3.94943 5.91247 4.08965 5.98257 4.23571 6.16953L5.36329 7.60091L7.78202 3.73327C7.90471 3.52878 8.0683 3.42946 8.25525 3.42946C8.54737 3.42946 8.81028 3.63395 8.81028 3.93775C8.81028 4.07212 8.74017 4.21818 8.65837 4.34671L5.92415 8.61164C5.78978 8.81028 5.60282 8.92128 5.38665 8.92128Z" fill="#42BE65"/>
</svg>