<svg width="333" height="337" viewBox="0 0 333 337" fill="none" xmlns="http://www.w3.org/2000/svg">
<g filter="url(#filter0_d_5550_5379)">
<path d="M40 20C40 13.3726 45.3726 8 52 8H71.999C85.4727 8 87.1569 20 103.999 20H156C162.627 20 168 25.3726 168 32V104C168 110.627 162.627 116 156 116H52C45.3726 116 40 110.627 40 104V20Z" fill="#52AFE0"/>
<path d="M40 20C40 13.3726 45.3726 8 52 8H71.999C85.4727 8 87.1569 20 103.999 20H156C162.627 20 168 25.3726 168 32V104C168 110.627 162.627 116 156 116H52C45.3726 116 40 110.627 40 104V20Z" fill="url(#paint0_linear_5550_5379)" fill-opacity="0.2"/>
<g filter="url(#filter1_i_5550_5379)">
<path d="M40 104V48C40 41.3726 45.3726 36 52 36L156 36C162.627 36 168 41.3726 168 48V104C168 110.627 162.627 116 156 116H52C45.3726 116 40 110.627 40 104Z" fill="#73D0FA"/>
<path d="M40 104V48C40 41.3726 45.3726 36 52 36L156 36C162.627 36 168 41.3726 168 48V104C168 110.627 162.627 116 156 116H52C45.3726 116 40 110.627 40 104Z" fill="url(#paint1_radial_5550_5379)" fill-opacity="0.16"/>
</g>
<path d="M104 62.5V76" stroke="#52AFE0" stroke-width="4.5" stroke-linecap="round" stroke-linejoin="round"/>
<path d="M115.7 82.75L104 76" stroke="#52AFE0" stroke-width="4.5" stroke-linecap="round" stroke-linejoin="round"/>
<path d="M88.1934 68.0405H76.9434V56.7905" stroke="#52AFE0" stroke-width="4.5" stroke-linecap="round" stroke-linejoin="round"/>
<path d="M86.5059 93.4938C89.9664 96.9571 94.3764 99.3163 99.178 100.273C103.98 101.23 108.957 100.741 113.481 98.868C118.004 96.9953 121.871 93.823 124.591 89.7525C127.312 85.6819 128.764 80.896 128.764 76C128.764 71.1041 127.312 66.3181 124.591 62.2475C121.871 58.177 118.004 55.0047 113.481 53.1321C108.957 51.2594 103.98 50.7704 99.178 51.7271C94.3764 52.6837 89.9664 55.0429 86.5059 58.5063L76.9434 68.0406" stroke="#52AFE0" stroke-width="4.5" stroke-linecap="round" stroke-linejoin="round"/>
</g>
<rect x="40" y="139" width="128" height="24" rx="6" fill="#636367"/>
<g filter="url(#filter2_d_5550_5379)">
<rect x="112" y="76" width="180" height="188" rx="8" fill="#18181B" shape-rendering="crispEdges"/>
<rect x="111.5" y="75.5" width="181" height="189" rx="8.5" stroke="white" stroke-opacity="0.05" shape-rendering="crispEdges"/>
<rect x="128" y="102" width="148" height="4" rx="2" fill="#48484B"/>
<rect x="128" y="102" width="95" height="4" rx="2" fill="#0066FF"/>
<line x1="112" y1="129.5" x2="292" y2="129.5" stroke="#3A3A3B"/>
<path fill-rule="evenodd" clip-rule="evenodd" d="M148 152.187V152.229L148 154.956V157.044L148 159.773V159.823C148 160.044 148 160.265 147.999 160.486C147.997 160.686 147.995 160.886 147.99 161.087C147.978 161.523 147.952 161.963 147.875 162.394C147.796 162.832 147.668 163.24 147.465 163.637C147.267 164.028 147.007 164.386 146.697 164.696C146.387 165.006 146.03 165.266 145.639 165.465C145.242 165.668 144.835 165.796 144.398 165.875C143.966 165.952 143.527 165.978 143.091 165.99C142.891 165.995 142.691 165.997 142.49 165.999C142.27 166 142.05 166 141.829 166H141.778L134.247 166H134.205C133.981 166 133.757 166 133.533 165.999C133.332 165.997 133.132 165.995 132.931 165.99C132.495 165.978 132.054 165.952 131.622 165.875C131.184 165.796 130.776 165.668 130.377 165.465C129.986 165.266 129.628 165.006 129.318 164.696C129.007 164.386 128.747 164.028 128.548 163.637C128.345 163.24 128.217 162.832 128.138 162.395C128.06 161.963 128.034 161.523 128.023 161.087C128.017 160.886 128.015 160.686 128.014 160.486C128.012 160.262 128.012 160.039 128.012 159.815L128.012 159.773L128 157.044V152.286C128 152.159 128.004 152.015 128.007 151.873C128.01 151.749 128.013 151.627 128.014 151.517C128.015 151.317 128.017 151.117 128.023 150.917C128.034 150.481 128.06 150.042 128.138 149.611C128.216 149.174 128.345 148.767 128.548 148.369C128.747 147.979 129.007 147.622 129.318 147.312C129.628 147.002 129.986 146.743 130.378 146.544C130.776 146.342 131.184 146.214 131.622 146.135C132.054 146.058 132.494 146.032 132.931 146.02C133.132 146.015 133.332 146.012 133.533 146.011C133.754 146.01 133.975 146.01 134.196 146.01L134.247 146.01L136.956 146H139.019L141.778 146.01L141.829 146.01C142.049 146.01 142.27 146.01 142.49 146.011C142.691 146.012 142.891 146.015 143.091 146.02C143.526 146.032 143.966 146.058 144.397 146.135C144.835 146.214 145.242 146.342 145.639 146.544C146.03 146.743 146.387 147.002 146.697 147.312C147.007 147.622 147.267 147.979 147.466 148.369C147.668 148.767 147.796 149.173 147.875 149.61C147.952 150.041 147.978 150.481 147.99 150.917C147.995 151.117 147.997 151.316 147.999 151.517C148 151.74 148 151.964 148 152.187ZM143.404 161.876L139.317 155.866L143.184 150.221H140.364L137.983 153.868L135.619 150.221H132.816L136.666 155.882L132.596 161.876H135.416L137.983 157.88L140.567 161.876H143.404Z" fill="url(#paint2_linear_5550_5379)"/>
<path d="M139.317 155.866L143.404 161.876H140.567L137.983 157.88L135.416 161.876H132.596L136.666 155.882L132.816 150.221H135.619L137.983 153.868L140.364 150.221H143.184L139.317 155.866Z" fill="white"/>
<rect x="158" y="146" width="88" height="20" rx="6" fill="#48484B"/>
<g clip-path="url(#clip0_5550_5379)">
<path d="M277.795 151.546L265.795 163.546C265.69 163.651 265.566 163.734 265.429 163.791C265.293 163.848 265.146 163.877 264.998 163.877C264.85 163.877 264.703 163.848 264.567 163.791C264.43 163.734 264.306 163.651 264.201 163.546L258.951 158.296C258.847 158.191 258.764 158.067 258.707 157.93C258.65 157.794 258.621 157.647 258.621 157.499C258.621 157.351 258.65 157.205 258.707 157.068C258.764 156.931 258.847 156.807 258.951 156.702C259.056 156.598 259.18 156.515 259.317 156.458C259.454 156.401 259.6 156.372 259.748 156.372C259.896 156.372 260.043 156.401 260.179 156.458C260.316 156.515 260.44 156.598 260.545 156.702L264.999 161.156L276.203 149.954C276.414 149.743 276.701 149.624 277 149.624C277.299 149.624 277.585 149.743 277.797 149.954C278.008 150.165 278.127 150.452 278.127 150.751C278.127 151.05 278.008 151.337 277.797 151.548L277.795 151.546Z" fill="#32C356"/>
</g>
<rect width="180" height="40" transform="translate(112 176)" fill="#2C2C30"/>
<path fill-rule="evenodd" clip-rule="evenodd" d="M148 192.187V192.229L148 194.956V197.044L148 199.773V199.823C148 200.044 148 200.265 147.999 200.486C147.997 200.686 147.995 200.886 147.99 201.087C147.978 201.523 147.952 201.963 147.875 202.394C147.796 202.832 147.668 203.24 147.465 203.637C147.267 204.028 147.007 204.386 146.697 204.696C146.387 205.006 146.03 205.266 145.639 205.465C145.242 205.668 144.835 205.796 144.398 205.875C143.966 205.952 143.527 205.978 143.091 205.99C142.891 205.995 142.691 205.997 142.49 205.999C142.27 206 142.05 206 141.829 206H141.778L134.247 206H134.205C133.981 206 133.757 206 133.533 205.999C133.332 205.997 133.132 205.995 132.931 205.99C132.495 205.978 132.054 205.952 131.622 205.875C131.184 205.796 130.776 205.668 130.377 205.465C129.986 205.266 129.628 205.006 129.318 204.696C129.007 204.386 128.747 204.028 128.548 203.637C128.345 203.24 128.217 202.832 128.138 202.395C128.06 201.963 128.034 201.523 128.023 201.087C128.017 200.886 128.015 200.686 128.014 200.486C128.012 200.262 128.012 200.039 128.012 199.815L128.012 199.773L128 197.044V192.286C128 192.159 128.004 192.015 128.007 191.873C128.01 191.749 128.013 191.627 128.014 191.517C128.015 191.317 128.017 191.117 128.023 190.917C128.034 190.481 128.06 190.042 128.138 189.611C128.216 189.174 128.345 188.767 128.548 188.369C128.747 187.979 129.007 187.622 129.318 187.312C129.628 187.002 129.986 186.743 130.378 186.544C130.776 186.342 131.184 186.214 131.622 186.135C132.054 186.058 132.494 186.032 132.931 186.02C133.132 186.015 133.332 186.012 133.533 186.011C133.754 186.01 133.975 186.01 134.196 186.01L134.247 186.01L136.956 186H139.019L141.778 186.01L141.829 186.01C142.049 186.01 142.27 186.01 142.49 186.011C142.691 186.012 142.891 186.015 143.091 186.02C143.526 186.032 143.966 186.058 144.397 186.135C144.835 186.214 145.242 186.342 145.639 186.544C146.03 186.743 146.387 187.002 146.697 187.312C147.007 187.622 147.267 187.979 147.466 188.369C147.668 188.767 147.796 189.173 147.875 189.61C147.952 190.041 147.978 190.481 147.99 190.917C147.995 191.117 147.997 191.316 147.999 191.517C148 191.74 148 191.964 148 192.187ZM143.404 201.876L139.317 195.866L143.184 190.221H140.364L137.983 193.868L135.619 190.221H132.816L136.666 195.882L132.596 201.876H135.416L137.983 197.88L140.567 201.876H143.404Z" fill="url(#paint3_linear_5550_5379)"/>
<path d="M139.317 195.866L143.404 201.876H140.567L137.983 197.88L135.416 201.876H132.596L136.666 195.882L132.816 190.221H135.619L137.983 193.868L140.364 190.221H143.184L139.317 195.866Z" fill="white"/>
<rect x="158" y="186" width="86" height="20" rx="6" fill="#48484B"/>
<g clip-path="url(#clip1_5550_5379)">
<path d="M275.795 191.546L263.795 203.546C263.69 203.651 263.566 203.734 263.429 203.791C263.293 203.848 263.146 203.877 262.998 203.877C262.85 203.877 262.703 203.848 262.567 203.791C262.43 203.734 262.306 203.651 262.201 203.546L256.951 198.296C256.847 198.191 256.764 198.067 256.707 197.93C256.65 197.794 256.621 197.647 256.621 197.499C256.621 197.351 256.65 197.205 256.707 197.068C256.764 196.931 256.847 196.807 256.951 196.702C257.056 196.598 257.18 196.515 257.317 196.458C257.454 196.401 257.6 196.372 257.748 196.372C257.896 196.372 258.043 196.401 258.179 196.458C258.316 196.515 258.44 196.598 258.545 196.702L262.999 201.156L274.203 189.954C274.414 189.743 274.701 189.624 275 189.624C275.299 189.624 275.585 189.743 275.797 189.954C276.008 190.165 276.127 190.452 276.127 190.751C276.127 191.05 276.008 191.337 275.797 191.548L275.795 191.546Z" fill="#32C356"/>
</g>
<path fill-rule="evenodd" clip-rule="evenodd" d="M148 232.187V232.229L148 234.956V237.044L148 239.773V239.823C148 240.044 148 240.265 147.999 240.486C147.997 240.686 147.995 240.886 147.99 241.087C147.978 241.523 147.952 241.963 147.875 242.394C147.796 242.832 147.668 243.24 147.465 243.637C147.267 244.028 147.007 244.386 146.697 244.696C146.387 245.006 146.03 245.266 145.639 245.465C145.242 245.668 144.835 245.796 144.398 245.875C143.966 245.952 143.527 245.978 143.091 245.99C142.891 245.995 142.691 245.997 142.49 245.999C142.27 246 142.05 246 141.829 246H141.778L134.247 246H134.205C133.981 246 133.757 246 133.533 245.999C133.332 245.997 133.132 245.995 132.931 245.99C132.495 245.978 132.054 245.952 131.622 245.875C131.184 245.796 130.776 245.668 130.377 245.465C129.986 245.266 129.628 245.006 129.318 244.696C129.007 244.386 128.747 244.028 128.548 243.637C128.345 243.24 128.217 242.832 128.138 242.395C128.06 241.963 128.034 241.523 128.023 241.087C128.017 240.886 128.015 240.686 128.014 240.486C128.012 240.262 128.012 240.039 128.012 239.815L128.012 239.773L128 237.044V232.286C128 232.159 128.004 232.015 128.007 231.873C128.01 231.749 128.013 231.627 128.014 231.517C128.015 231.317 128.017 231.117 128.023 230.917C128.034 230.481 128.06 230.042 128.138 229.611C128.216 229.174 128.345 228.767 128.548 228.369C128.747 227.979 129.007 227.622 129.318 227.312C129.628 227.002 129.986 226.743 130.378 226.544C130.776 226.342 131.184 226.214 131.622 226.135C132.054 226.058 132.494 226.032 132.931 226.02C133.132 226.015 133.332 226.012 133.533 226.011C133.754 226.01 133.975 226.01 134.196 226.01L134.247 226.01L136.956 226H139.019L141.778 226.01L141.829 226.01C142.049 226.01 142.27 226.01 142.49 226.011C142.691 226.012 142.891 226.015 143.091 226.02C143.526 226.032 143.966 226.058 144.397 226.135C144.835 226.214 145.242 226.342 145.639 226.544C146.03 226.743 146.387 227.002 146.697 227.312C147.007 227.622 147.267 227.979 147.466 228.369C147.668 228.767 147.796 229.173 147.875 229.61C147.952 230.041 147.978 230.481 147.99 230.917C147.995 231.117 147.997 231.316 147.999 231.517C148 231.74 148 231.964 148 232.187ZM143.404 241.876L139.317 235.866L143.184 230.221H140.364L137.983 233.868L135.619 230.221H132.816L136.666 235.882L132.596 241.876H135.416L137.983 237.88L140.567 241.876H143.404Z" fill="url(#paint4_linear_5550_5379)"/>
<path d="M139.317 235.866L143.404 241.876H140.567L137.983 237.88L135.416 241.876H132.596L136.666 235.882L132.816 230.221H135.619L137.983 233.868L140.364 230.221H143.184L139.317 235.866Z" fill="white"/>
<rect x="158" y="226" width="64" height="20" rx="6" fill="#48484B"/>
</g>
<g filter="url(#filter3_dd_5550_5379)">
<path fill-rule="evenodd" clip-rule="evenodd" d="M235 264.03V232L258.182 255.238H244.62L243.798 255.486L235 264.03Z" fill="white"/>
<path fill-rule="evenodd" clip-rule="evenodd" d="M253.168 265.378L245.958 268.448L236.594 246.27L243.966 243.164L253.168 265.378Z" fill="white"/>
<path fill-rule="evenodd" clip-rule="evenodd" d="M250.501 264.018L246.813 265.566L240.613 250.818L244.295 249.268L250.501 264.018Z" fill="black"/>
<path fill-rule="evenodd" clip-rule="evenodd" d="M237 236.814V259.19L242.938 253.458L243.794 253.18H253.33L237 236.814Z" fill="black"/>
</g>
<defs>
<filter id="filter0_d_5550_5379" x="0" y="-8" width="208" height="208" filterUnits="userSpaceOnUse" color-interpolation-filters="sRGB">
<feFlood flood-opacity="0" result="BackgroundImageFix"/>
<feColorMatrix in="SourceAlpha" type="matrix" values="0 0 0 0 0 0 0 0 0 0 0 0 0 0 0 0 0 0 127 0" result="hardAlpha"/>
<feOffset dy="32"/>
<feGaussianBlur stdDeviation="20"/>
<feComposite in2="hardAlpha" operator="out"/>
<feColorMatrix type="matrix" values="0 0 0 0 0 0 0 0 0 0 0 0 0 0 0 0 0 0 0.04 0"/>
<feBlend mode="normal" in2="BackgroundImageFix" result="effect1_dropShadow_5550_5379"/>
<feBlend mode="normal" in="SourceGraphic" in2="effect1_dropShadow_5550_5379" result="shape"/>
</filter>
<filter id="filter1_i_5550_5379" x="40" y="28" width="128" height="87.9998" filterUnits="userSpaceOnUse" color-interpolation-filters="sRGB">
<feFlood flood-opacity="0" result="BackgroundImageFix"/>
<feBlend mode="normal" in="SourceGraphic" in2="BackgroundImageFix" result="shape"/>
<feColorMatrix in="SourceAlpha" type="matrix" values="0 0 0 0 0 0 0 0 0 0 0 0 0 0 0 0 0 0 127 0" result="hardAlpha"/>
<feOffset dy="-8"/>
<feGaussianBlur stdDeviation="4"/>
<feComposite in2="hardAlpha" operator="arithmetic" k2="-1" k3="1"/>
<feColorMatrix type="matrix" values="0 0 0 0 0.321569 0 0 0 0 0.686275 0 0 0 0 0.878431 0 0 0 0.32 0"/>
<feBlend mode="normal" in2="shape" result="effect1_innerShadow_5550_5379"/>
</filter>
<filter id="filter2_d_5550_5379" x="71" y="67" width="262" height="270" filterUnits="userSpaceOnUse" color-interpolation-filters="sRGB">
<feFlood flood-opacity="0" result="BackgroundImageFix"/>
<feColorMatrix in="SourceAlpha" type="matrix" values="0 0 0 0 0 0 0 0 0 0 0 0 0 0 0 0 0 0 127 0" result="hardAlpha"/>
<feOffset dy="32"/>
<feGaussianBlur stdDeviation="20"/>
<feComposite in2="hardAlpha" operator="out"/>
<feColorMatrix type="matrix" values="0 0 0 0 0 0 0 0 0 0 0 0 0 0 0 0 0 0 0.08 0"/>
<feBlend mode="normal" in2="BackgroundImageFix" result="effect1_dropShadow_5550_5379"/>
<feBlend mode="normal" in="SourceGraphic" in2="effect1_dropShadow_5550_5379" result="shape"/>
</filter>
<filter id="filter3_dd_5550_5379" x="197" y="219" width="100" height="114" filterUnits="userSpaceOnUse" color-interpolation-filters="sRGB">
<feFlood flood-opacity="0" result="BackgroundImageFix"/>
<feColorMatrix in="SourceAlpha" type="matrix" values="0 0 0 0 0 0 0 0 0 0 0 0 0 0 0 0 0 0 127 0" result="hardAlpha"/>
<feMorphology radius="12" operator="erode" in="SourceAlpha" result="effect1_dropShadow_5550_5379"/>
<feOffset dy="25"/>
<feGaussianBlur stdDeviation="25"/>
<feComposite in2="hardAlpha" operator="out"/>
<feColorMatrix type="matrix" values="0 0 0 0 0 0 0 0 0 0 0 0 0 0 0 0 0 0 0.25 0"/>
<feBlend mode="normal" in2="BackgroundImageFix" result="effect1_dropShadow_5550_5379"/>
<feColorMatrix in="SourceAlpha" type="matrix" values="0 0 0 0 0 0 0 0 0 0 0 0 0 0 0 0 0 0 127 0" result="hardAlpha"/>
<feMorphology radius="6" operator="erode" in="SourceAlpha" result="effect2_dropShadow_5550_5379"/>
<feOffset dy="8"/>
<feGaussianBlur stdDeviation="5"/>
<feComposite in2="hardAlpha" operator="out"/>
<feColorMatrix type="matrix" values="0 0 0 0 0 0 0 0 0 0 0 0 0 0 0 0 0 0 0.1 0"/>
<feBlend mode="normal" in2="effect1_dropShadow_5550_5379" result="effect2_dropShadow_5550_5379"/>
<feBlend mode="normal" in="SourceGraphic" in2="effect2_dropShadow_5550_5379" result="shape"/>
</filter>
<linearGradient id="paint0_linear_5550_5379" x1="103.999" y1="28" x2="103.999" y2="52" gradientUnits="userSpaceOnUse">
<stop stop-color="#52AFE0"/>
<stop offset="1" stop-color="#00529E" stop-opacity="0.1"/>
</linearGradient>
<radialGradient id="paint1_radial_5550_5379" cx="0" cy="0" r="1" gradientUnits="userSpaceOnUse" gradientTransform="translate(104 52) rotate(90) scale(48 76.8001)">
<stop stop-color="white"/>
<stop offset="1" stop-color="white" stop-opacity="0"/>
</radialGradient>
<linearGradient id="paint2_linear_5550_5379" x1="138" y1="146.059" x2="138" y2="166.039" gradientUnits="userSpaceOnUse">
<stop stop-color="#0066FF"/>
<stop offset="1" stop-color="#073477"/>
</linearGradient>
<linearGradient id="paint3_linear_5550_5379" x1="138" y1="186.059" x2="138" y2="206.039" gradientUnits="userSpaceOnUse">
<stop stop-color="#0066FF"/>
<stop offset="1" stop-color="#073477"/>
</linearGradient>
<linearGradient id="paint4_linear_5550_5379" x1="138" y1="226.059" x2="138" y2="246.039" gradientUnits="userSpaceOnUse">
<stop stop-color="#0066FF"/>
<stop offset="1" stop-color="#073477"/>
</linearGradient>
<clipPath id="clip0_5550_5379">
<rect width="24" height="24" fill="white" transform="translate(256 144)"/>
</clipPath>
<clipPath id="clip1_5550_5379">
<rect width="24" height="24" fill="white" transform="translate(254 184)"/>
</clipPath>
</defs>
</svg>
