<svg width="333" height="377" viewBox="0 0 333 377" fill="none" xmlns="http://www.w3.org/2000/svg">
<g filter="url(#filter0_d_3023_19071)">
<path d="M40 20C40 13.3726 45.3726 8 52 8H71.999C85.4727 8 87.1569 20 103.999 20H156C162.627 20 168 25.3726 168 32V104C168 110.627 162.627 116 156 116H52C45.3726 116 40 110.627 40 104V20Z" fill="#52AFE0"/>
<path d="M40 20C40 13.3726 45.3726 8 52 8H71.999C85.4727 8 87.1569 20 103.999 20H156C162.627 20 168 25.3726 168 32V104C168 110.627 162.627 116 156 116H52C45.3726 116 40 110.627 40 104V20Z" fill="url(#paint0_linear_3023_19071)" fill-opacity="0.2"/>
<g filter="url(#filter1_i_3023_19071)">
<path d="M40 104V48C40 41.3726 45.3726 36 52 36L156 36C162.627 36 168 41.3726 168 48V104C168 110.627 162.627 116 156 116H52C45.3726 116 40 110.627 40 104Z" fill="#73D0FA"/>
<path d="M40 104V48C40 41.3726 45.3726 36 52 36L156 36C162.627 36 168 41.3726 168 48V104C168 110.627 162.627 116 156 116H52C45.3726 116 40 110.627 40 104Z" fill="url(#paint1_radial_3023_19071)" fill-opacity="0.16"/>
</g>
</g>
<rect x="40" y="139" width="128" height="24" rx="6" fill="#D1D1D7"/>
<g filter="url(#filter2_d_3023_19071)">
<rect x="112" y="76" width="180" height="228" rx="8" fill="white" shape-rendering="crispEdges"/>
<rect x="128" y="94" width="128" height="20" rx="6" fill="#E5E5EB"/>
<rect x="128" y="134" width="80" height="20" rx="6" fill="#E5E5EB"/>
<line x1="112" y1="169.5" x2="292" y2="169.5" stroke="#E5E5EB"/>
<rect x="128" y="186" width="20" height="20" rx="4" fill="#001B42"/>
<rect x="158" y="186" width="88" height="20" rx="6" fill="#E5E5EB"/>
<rect width="180" height="40" transform="translate(112 216)" fill="#F3F3F8"/>
<rect x="128" y="226" width="20" height="20" rx="4" fill="#001B42"/>
<rect x="158" y="226" width="112" height="20" rx="6" fill="#E5E5EB"/>
<rect x="128" y="266" width="20" height="20" rx="4" fill="#001B42"/>
<rect x="158" y="266" width="64" height="20" rx="6" fill="#E5E5EB"/>
<rect x="111.5" y="75.5" width="181" height="229" rx="8.5" stroke="black" stroke-opacity="0.05" shape-rendering="crispEdges"/>
</g>
<g filter="url(#filter3_dd_3023_19071)">
<path fill-rule="evenodd" clip-rule="evenodd" d="M235 264.03V232L258.182 255.238H244.62L243.798 255.486L235 264.03Z" fill="white"/>
<path fill-rule="evenodd" clip-rule="evenodd" d="M253.168 265.378L245.958 268.448L236.594 246.27L243.966 243.164L253.168 265.378Z" fill="white"/>
<path fill-rule="evenodd" clip-rule="evenodd" d="M250.501 264.018L246.813 265.566L240.613 250.818L244.295 249.268L250.501 264.018Z" fill="black"/>
<path fill-rule="evenodd" clip-rule="evenodd" d="M237 236.814V259.19L242.938 253.458L243.794 253.18H253.33L237 236.814Z" fill="black"/>
</g>
<defs>
<filter id="filter0_d_3023_19071" x="0" y="-8" width="208" height="208" filterUnits="userSpaceOnUse" color-interpolation-filters="sRGB">
<feFlood flood-opacity="0" result="BackgroundImageFix"/>
<feColorMatrix in="SourceAlpha" type="matrix" values="0 0 0 0 0 0 0 0 0 0 0 0 0 0 0 0 0 0 127 0" result="hardAlpha"/>
<feOffset dy="32"/>
<feGaussianBlur stdDeviation="20"/>
<feComposite in2="hardAlpha" operator="out"/>
<feColorMatrix type="matrix" values="0 0 0 0 0 0 0 0 0 0 0 0 0 0 0 0 0 0 0.04 0"/>
<feBlend mode="normal" in2="BackgroundImageFix" result="effect1_dropShadow_3023_19071"/>
<feBlend mode="normal" in="SourceGraphic" in2="effect1_dropShadow_3023_19071" result="shape"/>
</filter>
<filter id="filter1_i_3023_19071" x="40" y="28" width="128" height="88" filterUnits="userSpaceOnUse" color-interpolation-filters="sRGB">
<feFlood flood-opacity="0" result="BackgroundImageFix"/>
<feBlend mode="normal" in="SourceGraphic" in2="BackgroundImageFix" result="shape"/>
<feColorMatrix in="SourceAlpha" type="matrix" values="0 0 0 0 0 0 0 0 0 0 0 0 0 0 0 0 0 0 127 0" result="hardAlpha"/>
<feOffset dy="-8"/>
<feGaussianBlur stdDeviation="4"/>
<feComposite in2="hardAlpha" operator="arithmetic" k2="-1" k3="1"/>
<feColorMatrix type="matrix" values="0 0 0 0 0.321569 0 0 0 0 0.686275 0 0 0 0 0.878431 0 0 0 0.32 0"/>
<feBlend mode="normal" in2="shape" result="effect1_innerShadow_3023_19071"/>
</filter>
<filter id="filter2_d_3023_19071" x="71" y="67" width="262" height="310" filterUnits="userSpaceOnUse" color-interpolation-filters="sRGB">
<feFlood flood-opacity="0" result="BackgroundImageFix"/>
<feColorMatrix in="SourceAlpha" type="matrix" values="0 0 0 0 0 0 0 0 0 0 0 0 0 0 0 0 0 0 127 0" result="hardAlpha"/>
<feOffset dy="32"/>
<feGaussianBlur stdDeviation="20"/>
<feComposite in2="hardAlpha" operator="out"/>
<feColorMatrix type="matrix" values="0 0 0 0 0 0 0 0 0 0 0 0 0 0 0 0 0 0 0.08 0"/>
<feBlend mode="normal" in2="BackgroundImageFix" result="effect1_dropShadow_3023_19071"/>
<feBlend mode="normal" in="SourceGraphic" in2="effect1_dropShadow_3023_19071" result="shape"/>
</filter>
<filter id="filter3_dd_3023_19071" x="197" y="219" width="100" height="114" filterUnits="userSpaceOnUse" color-interpolation-filters="sRGB">
<feFlood flood-opacity="0" result="BackgroundImageFix"/>
<feColorMatrix in="SourceAlpha" type="matrix" values="0 0 0 0 0 0 0 0 0 0 0 0 0 0 0 0 0 0 127 0" result="hardAlpha"/>
<feMorphology radius="12" operator="erode" in="SourceAlpha" result="effect1_dropShadow_3023_19071"/>
<feOffset dy="25"/>
<feGaussianBlur stdDeviation="25"/>
<feComposite in2="hardAlpha" operator="out"/>
<feColorMatrix type="matrix" values="0 0 0 0 0 0 0 0 0 0 0 0 0 0 0 0 0 0 0.25 0"/>
<feBlend mode="normal" in2="BackgroundImageFix" result="effect1_dropShadow_3023_19071"/>
<feColorMatrix in="SourceAlpha" type="matrix" values="0 0 0 0 0 0 0 0 0 0 0 0 0 0 0 0 0 0 127 0" result="hardAlpha"/>
<feMorphology radius="6" operator="erode" in="SourceAlpha" result="effect2_dropShadow_3023_19071"/>
<feOffset dy="8"/>
<feGaussianBlur stdDeviation="5"/>
<feComposite in2="hardAlpha" operator="out"/>
<feColorMatrix type="matrix" values="0 0 0 0 0 0 0 0 0 0 0 0 0 0 0 0 0 0 0.1 0"/>
<feBlend mode="normal" in2="effect1_dropShadow_3023_19071" result="effect2_dropShadow_3023_19071"/>
<feBlend mode="normal" in="SourceGraphic" in2="effect2_dropShadow_3023_19071" result="shape"/>
</filter>
<linearGradient id="paint0_linear_3023_19071" x1="103.999" y1="28" x2="103.999" y2="52" gradientUnits="userSpaceOnUse">
<stop stop-color="#52AFE0"/>
<stop offset="1" stop-color="#00529E" stop-opacity="0.1"/>
</linearGradient>
<radialGradient id="paint1_radial_3023_19071" cx="0" cy="0" r="1" gradientUnits="userSpaceOnUse" gradientTransform="translate(104 52) rotate(90) scale(48 76.8001)">
<stop stop-color="white"/>
<stop offset="1" stop-color="white" stop-opacity="0"/>
</radialGradient>
</defs>
</svg>
