<svg width="215" height="265" viewBox="0 0 215 265" fill="none" xmlns="http://www.w3.org/2000/svg">
<g clip-path="url(#clip0_5494_991)">
<path d="M147.5 20H67.5C65.3783 20 63.3434 20.8429 61.8431 22.3431C60.3429 23.8434 59.5 25.8783 59.5 28V56C59.5 82.36 72.26 98.335 82.965 107.095C94.495 116.525 105.965 119.725 106.465 119.86C107.153 120.047 107.877 120.047 108.565 119.86C109.065 119.725 120.52 116.525 132.065 107.095C142.74 98.335 155.5 82.36 155.5 56V28C155.5 25.8783 154.657 23.8434 153.157 22.3431C151.657 20.8429 149.622 20 147.5 20ZM130.34 54.83L102.34 82.83C101.969 83.2019 101.527 83.4969 101.042 83.6982C100.556 83.8995 100.036 84.0031 99.51 84.0031C98.9843 84.0031 98.4638 83.8995 97.9782 83.6982C97.4926 83.4969 97.0515 83.2019 96.68 82.83L84.68 70.83C83.9294 70.0794 83.5078 69.0615 83.5078 68C83.5078 66.9385 83.9294 65.9206 84.68 65.17C85.4306 64.4194 86.4485 63.9978 87.51 63.9978C88.5715 63.9978 89.5894 64.4194 90.34 65.17L99.5 74.345L124.67 49.17C125.042 48.7984 125.483 48.5036 125.968 48.3024C126.454 48.1013 126.974 47.9978 127.5 47.9978C128.026 47.9978 128.546 48.1013 129.032 48.3024C129.517 48.5036 129.958 48.7984 130.33 49.17C130.702 49.5416 130.996 49.9828 131.198 50.4684C131.399 50.954 131.502 51.4744 131.502 52C131.502 52.5256 131.399 53.046 131.198 53.5316C130.996 54.0172 130.702 54.4584 130.33 54.83H130.34Z" fill="#32C356"/>
</g>
<rect x="23.5" y="139" width="128" height="24" rx="6" fill="#D1D1D7"/>
<path d="M185.875 153.813H187.75C187.999 153.813 188.237 153.714 188.413 153.538C188.589 153.362 188.688 153.124 188.688 152.875C188.688 152.626 188.589 152.388 188.413 152.212C188.237 152.036 187.999 151.938 187.75 151.938H185.875V150.063H187.75C187.999 150.063 188.237 149.964 188.413 149.788C188.589 149.612 188.688 149.374 188.688 149.125C188.688 148.876 188.589 148.638 188.413 148.462C188.237 148.286 187.999 148.188 187.75 148.188H185.828C185.621 146.13 184.737 144.199 183.316 142.697L185.601 140.413C185.777 140.237 185.876 139.999 185.876 139.75C185.876 139.501 185.777 139.263 185.601 139.087C185.425 138.911 185.186 138.812 184.938 138.812C184.689 138.812 184.45 138.911 184.274 139.087L181.896 141.466C180.318 140.349 178.433 139.75 176.5 139.75C174.567 139.75 172.682 140.349 171.104 141.466L168.726 139.087C168.55 138.911 168.311 138.812 168.062 138.812C167.814 138.812 167.575 138.911 167.399 139.087C167.223 139.263 167.124 139.501 167.124 139.75C167.124 139.999 167.223 140.237 167.399 140.413L169.684 142.697C168.263 144.199 167.379 146.13 167.172 148.188H165.25C165.001 148.188 164.763 148.286 164.587 148.462C164.411 148.638 164.312 148.876 164.312 149.125C164.312 149.374 164.411 149.612 164.587 149.788C164.763 149.964 165.001 150.063 165.25 150.063H167.125V151.938H165.25C165.001 151.938 164.763 152.036 164.587 152.212C164.411 152.388 164.312 152.626 164.312 152.875C164.312 153.124 164.411 153.362 164.587 153.538C164.763 153.714 165.001 153.813 165.25 153.813H167.125V154.75C167.125 155.066 167.141 155.379 167.172 155.688H165.25C165.001 155.688 164.763 155.786 164.587 155.962C164.411 156.138 164.312 156.376 164.312 156.625C164.312 156.874 164.411 157.112 164.587 157.288C164.763 157.464 165.001 157.563 165.25 157.563H167.556C168.154 159.466 169.344 161.129 170.953 162.31C172.561 163.49 174.505 164.127 176.5 164.127C178.495 164.127 180.439 163.49 182.047 162.31C183.656 161.129 184.846 159.466 185.444 157.563H187.75C187.999 157.563 188.237 157.464 188.413 157.288C188.589 157.112 188.688 156.874 188.688 156.625C188.688 156.376 188.589 156.138 188.413 155.962C188.237 155.786 187.999 155.688 187.75 155.688H185.828C185.859 155.379 185.875 155.066 185.875 154.75V153.813ZM176.5 141.625C178.326 141.627 180.088 142.295 181.458 143.503C182.827 144.711 183.709 146.376 183.939 148.188H169.056C169.286 146.375 170.169 144.709 171.539 143.501C172.91 142.293 174.673 141.626 176.5 141.625ZM177.438 162.189V152.875C177.438 152.626 177.339 152.388 177.163 152.212C176.987 152.036 176.749 151.938 176.5 151.938C176.251 151.938 176.013 152.036 175.837 152.212C175.661 152.388 175.562 152.626 175.562 152.875V162.189C173.751 161.959 172.086 161.077 170.878 159.708C169.67 158.338 169.002 156.576 169 154.75V150.063H184V154.75C183.998 156.576 183.33 158.338 182.122 159.708C180.914 161.077 179.249 161.959 177.438 162.189Z" fill="black"/>
<g filter="url(#filter0_d_5494_991)">
<path d="M114.428 195.449L109.085 190.551C108.284 189.816 106.716 189.816 105.915 190.551L100.573 195.449C100.173 195.816 99.5805 196 98.9883 196L116.013 196C115.421 196 114.828 195.816 114.428 195.449Z" fill="#2C2C30"/>
</g>
<g filter="url(#filter1_d_5494_991)">
<rect x="24.5" y="196" width="166" height="33" rx="6" fill="#2C2C30" shape-rendering="crispEdges"/>
<path d="M37.704 218V207.92H38.894L44.676 216.404L44.508 216.432V207.92H45.6V218H44.41L38.628 209.516L38.796 209.488V218H37.704ZM50.8966 218.14C50.1966 218.14 49.5806 217.977 49.0486 217.65C48.5166 217.323 48.1013 216.88 47.8026 216.32C47.5133 215.751 47.3686 215.111 47.3686 214.402C47.3686 213.683 47.5179 213.049 47.8166 212.498C48.1153 211.947 48.5259 211.513 49.0486 211.196C49.5806 210.879 50.1966 210.72 50.8966 210.72C51.6059 210.72 52.2219 210.879 52.7446 211.196C53.2766 211.513 53.6873 211.947 53.9766 212.498C54.2753 213.049 54.4246 213.683 54.4246 214.402C54.4246 215.111 54.2753 215.751 53.9766 216.32C53.6873 216.88 53.2766 217.323 52.7446 217.65C52.2219 217.977 51.6059 218.14 50.8966 218.14ZM50.8966 217.188C51.3819 217.188 51.8019 217.071 52.1566 216.838C52.5113 216.595 52.7866 216.264 52.9826 215.844C53.1786 215.424 53.2766 214.939 53.2766 214.388C53.2766 213.567 53.0573 212.909 52.6186 212.414C52.1893 211.919 51.6153 211.672 50.8966 211.672C50.1873 211.672 49.6133 211.919 49.1746 212.414C48.7359 212.909 48.5166 213.567 48.5166 214.388C48.5166 214.939 48.6146 215.424 48.8106 215.844C49.0066 216.264 49.2819 216.595 49.6366 216.838C50.0006 217.071 50.4206 217.188 50.8966 217.188ZM61.7631 218.126C60.9698 218.126 60.3911 217.949 60.0271 217.594C59.6724 217.23 59.4951 216.707 59.4951 216.026V209.194L60.6151 208.774V216.012C60.6151 216.413 60.7178 216.707 60.9231 216.894C61.1284 217.081 61.4644 217.174 61.9311 217.174C62.1178 217.174 62.2764 217.165 62.4071 217.146C62.5471 217.118 62.6591 217.085 62.7431 217.048V218C62.6498 218.037 62.5144 218.065 62.3371 218.084C62.1691 218.112 61.9778 218.126 61.7631 218.126ZM58.0251 211.812V210.86H62.7431V211.812H58.0251ZM64.1845 218V207.92H65.3045V218H64.1845ZM69.2945 218V213.324C69.2945 212.783 69.1591 212.377 68.8885 212.106C68.6178 211.835 68.2165 211.7 67.6845 211.7C67.2178 211.7 66.8025 211.803 66.4385 212.008C66.0838 212.213 65.8038 212.498 65.5985 212.862C65.4025 213.226 65.3045 213.651 65.3045 214.136L65.1225 212.442C65.3651 211.91 65.7338 211.49 66.2285 211.182C66.7325 210.874 67.3018 210.72 67.9365 210.72C68.6831 210.72 69.2805 210.935 69.7285 211.364C70.1858 211.784 70.4145 212.339 70.4145 213.03V218H69.2945ZM72.5653 218V210.86H73.6153V212.68H73.6853V218H72.5653ZM73.6853 214.276L73.5033 212.582C73.6713 211.975 73.97 211.513 74.3993 211.196C74.8286 210.879 75.3233 210.72 75.8833 210.72C76.1166 210.72 76.2753 210.739 76.3593 210.776V211.854C76.3126 211.835 76.2473 211.826 76.1633 211.826C76.0793 211.817 75.9766 211.812 75.8553 211.812C75.146 211.812 74.6046 212.027 74.2313 212.456C73.8673 212.876 73.6853 213.483 73.6853 214.276ZM80.4952 218.14C79.8139 218.14 79.2119 217.981 78.6892 217.664C78.1666 217.337 77.7559 216.894 77.4572 216.334C77.1586 215.774 77.0092 215.13 77.0092 214.402C77.0092 213.674 77.1539 213.035 77.4432 212.484C77.7419 211.924 78.1572 211.49 78.6892 211.182C79.2212 210.874 79.8326 210.72 80.5232 210.72C81.1859 210.72 81.7599 210.865 82.2452 211.154C82.7399 211.443 83.1179 211.849 83.3792 212.372C83.6499 212.895 83.7852 213.511 83.7852 214.22C83.7852 214.313 83.7806 214.402 83.7712 214.486C83.7712 214.57 83.7619 214.663 83.7432 214.766H77.8492V213.828H83.0572L82.6932 214.346C82.6932 213.487 82.5019 212.829 82.1192 212.372C81.7459 211.905 81.2139 211.672 80.5232 211.672C79.8139 211.672 79.2399 211.919 78.8012 212.414C78.3719 212.899 78.1572 213.557 78.1572 214.388C78.1572 215.237 78.3719 215.919 78.8012 216.432C79.2399 216.936 79.8232 217.188 80.5512 217.188C81.0086 217.188 81.4099 217.09 81.7552 216.894C82.1006 216.689 82.3526 216.399 82.5112 216.026H83.5752C83.3419 216.679 82.9499 217.197 82.3992 217.58C81.8579 217.953 81.2232 218.14 80.4952 218.14ZM89.8125 218C89.7752 217.841 89.7472 217.659 89.7285 217.454C89.7192 217.249 89.7145 216.987 89.7145 216.67H89.6445V213.254C89.6445 212.713 89.5185 212.316 89.2665 212.064C89.0239 211.803 88.6272 211.672 88.0765 211.672C87.5352 211.672 87.1012 211.784 86.7745 212.008C86.4572 212.223 86.2799 212.531 86.2425 212.932H85.1645C85.2112 212.241 85.5005 211.7 86.0325 211.308C86.5645 210.916 87.2599 210.72 88.1185 210.72C89.0052 210.72 89.6632 210.93 90.0925 211.35C90.5219 211.77 90.7365 212.4 90.7365 213.24V216.67C90.7365 216.875 90.7505 217.09 90.7785 217.314C90.8065 217.529 90.8439 217.757 90.8905 218H89.8125ZM87.3625 218.14C86.6252 218.14 86.0372 217.963 85.5985 217.608C85.1692 217.244 84.9545 216.749 84.9545 216.124C84.9545 215.499 85.1692 215.013 85.5985 214.668C86.0279 214.323 86.6532 214.08 87.4745 213.94L89.9665 213.52V214.444L87.6425 214.808C87.1199 214.892 86.7232 215.032 86.4525 215.228C86.1819 215.424 86.0465 215.709 86.0465 216.082C86.0465 216.446 86.1679 216.721 86.4105 216.908C86.6625 217.095 87.0312 217.188 87.5165 217.188C88.1419 217.188 88.6505 217.048 89.0425 216.768C89.4439 216.479 89.6445 216.105 89.6445 215.648L89.8265 216.642C89.6772 217.118 89.3832 217.487 88.9445 217.748C88.5152 218.009 87.9879 218.14 87.3625 218.14ZM95.56 218.126C94.7667 218.126 94.188 217.949 93.824 217.594C93.4693 217.23 93.292 216.707 93.292 216.026V209.194L94.412 208.774V216.012C94.412 216.413 94.5147 216.707 94.72 216.894C94.9253 217.081 95.2613 217.174 95.728 217.174C95.9147 217.174 96.0733 217.165 96.204 217.146C96.344 217.118 96.456 217.085 96.54 217.048V218C96.4467 218.037 96.3113 218.065 96.134 218.084C95.966 218.112 95.7747 218.126 95.56 218.126ZM91.822 211.812V210.86H96.54V211.812H91.822ZM100.376 218.14C99.4987 218.14 98.7987 217.939 98.276 217.538C97.7533 217.127 97.4547 216.549 97.38 215.802H98.458C98.5233 216.259 98.724 216.609 99.06 216.852C99.396 217.095 99.844 217.216 100.404 217.216C100.899 217.216 101.286 217.123 101.566 216.936C101.846 216.749 101.986 216.483 101.986 216.138C101.986 215.895 101.907 215.685 101.748 215.508C101.589 215.321 101.272 215.167 100.796 215.046L99.648 214.752C98.9947 214.584 98.5047 214.327 98.178 213.982C97.8513 213.627 97.688 213.207 97.688 212.722C97.688 212.106 97.9167 211.621 98.374 211.266C98.8313 210.902 99.452 210.72 100.236 210.72C101.011 210.72 101.641 210.907 102.126 211.28C102.611 211.653 102.887 212.171 102.952 212.834H101.874C101.809 212.451 101.631 212.157 101.342 211.952C101.053 211.747 100.67 211.644 100.194 211.644C99.7367 211.644 99.382 211.733 99.13 211.91C98.878 212.078 98.752 212.321 98.752 212.638C98.752 212.881 98.8407 213.091 99.018 213.268C99.2047 213.445 99.5127 213.595 99.942 213.716L101.062 214.024C101.725 214.201 102.224 214.472 102.56 214.836C102.896 215.2 103.064 215.639 103.064 216.152C103.064 216.777 102.826 217.267 102.35 217.622C101.874 217.967 101.216 218.14 100.376 218.14ZM108.83 218L106.646 210.86H107.78L109.46 216.978H109.18L111.196 210.86H112.106L114.136 216.978H113.856L115.522 210.86H116.6L114.416 218H113.506L111.49 212.022H111.784L109.74 218H108.83ZM120.896 218.14C120.214 218.14 119.612 217.981 119.09 217.664C118.567 217.337 118.156 216.894 117.858 216.334C117.559 215.774 117.41 215.13 117.41 214.402C117.41 213.674 117.554 213.035 117.844 212.484C118.142 211.924 118.558 211.49 119.09 211.182C119.622 210.874 120.233 210.72 120.924 210.72C121.586 210.72 122.16 210.865 122.646 211.154C123.14 211.443 123.518 211.849 123.78 212.372C124.05 212.895 124.186 213.511 124.186 214.22C124.186 214.313 124.181 214.402 124.172 214.486C124.172 214.57 124.162 214.663 124.144 214.766H118.25V213.828H123.458L123.094 214.346C123.094 213.487 122.902 212.829 122.52 212.372C122.146 211.905 121.614 211.672 120.924 211.672C120.214 211.672 119.64 211.919 119.202 212.414C118.772 212.899 118.558 213.557 118.558 214.388C118.558 215.237 118.772 215.919 119.202 216.432C119.64 216.936 120.224 217.188 120.952 217.188C121.409 217.188 121.81 217.09 122.156 216.894C122.501 216.689 122.753 216.399 122.912 216.026H123.976C123.742 216.679 123.35 217.197 122.8 217.58C122.258 217.953 121.624 218.14 120.896 218.14ZM125.872 218V210.86H126.922V212.68H126.992V218H125.872ZM126.992 214.276L126.81 212.582C126.978 211.975 127.277 211.513 127.706 211.196C128.135 210.879 128.63 210.72 129.19 210.72C129.423 210.72 129.582 210.739 129.666 210.776V211.854C129.619 211.835 129.554 211.826 129.47 211.826C129.386 211.817 129.283 211.812 129.162 211.812C128.453 211.812 127.911 212.027 127.538 212.456C127.174 212.876 126.992 213.483 126.992 214.276ZM133.802 218.14C133.121 218.14 132.519 217.981 131.996 217.664C131.473 217.337 131.063 216.894 130.764 216.334C130.465 215.774 130.316 215.13 130.316 214.402C130.316 213.674 130.461 213.035 130.75 212.484C131.049 211.924 131.464 211.49 131.996 211.182C132.528 210.874 133.139 210.72 133.83 210.72C134.493 210.72 135.067 210.865 135.552 211.154C136.047 211.443 136.425 211.849 136.686 212.372C136.957 212.895 137.092 213.511 137.092 214.22C137.092 214.313 137.087 214.402 137.078 214.486C137.078 214.57 137.069 214.663 137.05 214.766H131.156V213.828H136.364L136 214.346C136 213.487 135.809 212.829 135.426 212.372C135.053 211.905 134.521 211.672 133.83 211.672C133.121 211.672 132.547 211.919 132.108 212.414C131.679 212.899 131.464 213.557 131.464 214.388C131.464 215.237 131.679 215.919 132.108 216.432C132.547 216.936 133.13 217.188 133.858 217.188C134.315 217.188 134.717 217.09 135.062 216.894C135.407 216.689 135.659 216.399 135.818 216.026H136.882C136.649 216.679 136.257 217.197 135.706 217.58C135.165 217.953 134.53 218.14 133.802 218.14ZM142.169 218V209.852C142.169 209.199 142.356 208.69 142.729 208.326C143.112 207.962 143.69 207.78 144.465 207.78C144.652 207.78 144.796 207.789 144.899 207.808C145.011 207.827 145.104 207.85 145.179 207.878V208.76C145.114 208.741 145.02 208.723 144.899 208.704C144.787 208.685 144.666 208.676 144.535 208.676C144.106 208.676 143.788 208.783 143.583 208.998C143.387 209.213 143.289 209.516 143.289 209.908V218H142.169ZM140.699 211.812V210.86H145.025V211.812H140.699ZM149.225 218.14C148.525 218.14 147.909 217.977 147.377 217.65C146.845 217.323 146.429 216.88 146.131 216.32C145.841 215.751 145.697 215.111 145.697 214.402C145.697 213.683 145.846 213.049 146.145 212.498C146.443 211.947 146.854 211.513 147.377 211.196C147.909 210.879 148.525 210.72 149.225 210.72C149.934 210.72 150.55 210.879 151.073 211.196C151.605 211.513 152.015 211.947 152.305 212.498C152.603 213.049 152.753 213.683 152.753 214.402C152.753 215.111 152.603 215.751 152.305 216.32C152.015 216.88 151.605 217.323 151.073 217.65C150.55 217.977 149.934 218.14 149.225 218.14ZM149.225 217.188C149.71 217.188 150.13 217.071 150.485 216.838C150.839 216.595 151.115 216.264 151.311 215.844C151.507 215.424 151.605 214.939 151.605 214.388C151.605 213.567 151.385 212.909 150.947 212.414C150.517 211.919 149.943 211.672 149.225 211.672C148.515 211.672 147.941 211.919 147.503 212.414C147.064 212.909 146.845 213.567 146.845 214.388C146.845 214.939 146.943 215.424 147.139 215.844C147.335 216.264 147.61 216.595 147.965 216.838C148.329 217.071 148.749 217.188 149.225 217.188ZM156.757 218.14C156.29 218.14 155.875 218.047 155.511 217.86C155.147 217.664 154.862 217.393 154.657 217.048C154.451 216.693 154.349 216.287 154.349 215.83V210.86H155.469V215.536C155.469 216.077 155.599 216.483 155.861 216.754C156.131 217.025 156.514 217.16 157.008 217.16C157.457 217.16 157.853 217.057 158.199 216.852C158.544 216.647 158.815 216.362 159.011 215.998C159.216 215.625 159.319 215.2 159.319 214.724L159.501 216.418C159.267 216.95 158.903 217.37 158.409 217.678C157.914 217.986 157.363 218.14 156.757 218.14ZM159.389 218V216.32H159.319V210.86H160.439V218H159.389ZM162.677 218V210.86H163.727V212.54H163.797V218H162.677ZM167.787 218V213.324C167.787 212.783 167.651 212.377 167.381 212.106C167.11 211.835 166.709 211.7 166.177 211.7C165.71 211.7 165.295 211.803 164.931 212.008C164.576 212.213 164.296 212.498 164.091 212.862C163.895 213.226 163.797 213.651 163.797 214.136L163.615 212.442C163.857 211.91 164.226 211.49 164.721 211.182C165.225 210.874 165.794 210.72 166.429 210.72C167.175 210.72 167.773 210.935 168.221 211.364C168.678 211.784 168.907 212.339 168.907 213.03V218H167.787ZM176.252 218V216.334L176.392 216.376C176.214 216.917 175.888 217.347 175.412 217.664C174.945 217.981 174.385 218.14 173.732 218.14C173.088 218.14 172.523 217.986 172.038 217.678C171.562 217.37 171.188 216.941 170.918 216.39C170.656 215.839 170.526 215.195 170.526 214.458C170.526 213.711 170.661 213.058 170.932 212.498C171.202 211.938 171.58 211.504 172.066 211.196C172.551 210.888 173.12 210.734 173.774 210.734C174.446 210.734 175.01 210.897 175.468 211.224C175.925 211.551 176.238 212.013 176.406 212.61L176.182 212.638V207.92H177.302V218H176.252ZM173.942 217.16C174.66 217.16 175.22 216.917 175.622 216.432C176.032 215.937 176.238 215.265 176.238 214.416C176.238 213.585 176.032 212.927 175.622 212.442C175.211 211.957 174.651 211.714 173.942 211.714C173.232 211.714 172.677 211.957 172.276 212.442C171.874 212.927 171.674 213.599 171.674 214.458C171.674 215.298 171.874 215.961 172.276 216.446C172.677 216.922 173.232 217.16 173.942 217.16Z" fill="white"/>
</g>
<defs>
<filter id="filter0_d_5494_991" x="74.9883" y="174" width="65.0254" height="54" filterUnits="userSpaceOnUse" color-interpolation-filters="sRGB">
<feFlood flood-opacity="0" result="BackgroundImageFix"/>
<feColorMatrix in="SourceAlpha" type="matrix" values="0 0 0 0 0 0 0 0 0 0 0 0 0 0 0 0 0 0 127 0" result="hardAlpha"/>
<feOffset dy="8"/>
<feGaussianBlur stdDeviation="12"/>
<feComposite in2="hardAlpha" operator="out"/>
<feColorMatrix type="matrix" values="0 0 0 0 0 0 0 0 0 0 0 0 0 0 0 0 0 0 0.06 0"/>
<feBlend mode="normal" in2="BackgroundImageFix" result="effect1_dropShadow_5494_991"/>
<feBlend mode="normal" in="SourceGraphic" in2="effect1_dropShadow_5494_991" result="shape"/>
</filter>
<filter id="filter1_d_5494_991" x="0.5" y="184" width="214" height="81" filterUnits="userSpaceOnUse" color-interpolation-filters="sRGB">
<feFlood flood-opacity="0" result="BackgroundImageFix"/>
<feColorMatrix in="SourceAlpha" type="matrix" values="0 0 0 0 0 0 0 0 0 0 0 0 0 0 0 0 0 0 127 0" result="hardAlpha"/>
<feOffset dy="12"/>
<feGaussianBlur stdDeviation="12"/>
<feComposite in2="hardAlpha" operator="out"/>
<feColorMatrix type="matrix" values="0 0 0 0 0 0 0 0 0 0 0 0 0 0 0 0 0 0 0.06 0"/>
<feBlend mode="normal" in2="BackgroundImageFix" result="effect1_dropShadow_5494_991"/>
<feBlend mode="normal" in="SourceGraphic" in2="effect1_dropShadow_5494_991" result="shape"/>
</filter>
<clipPath id="clip0_5494_991">
<rect width="128" height="128" fill="white" transform="translate(43.5)"/>
</clipPath>
</defs>
</svg>
