<svg width="214" height="266" viewBox="0 0 214 266" fill="none" xmlns="http://www.w3.org/2000/svg">
<g clip-path="url(#clip0_5550_5458)">
<path d="M147 20.2554H67C64.8783 20.2554 62.8434 21.0982 61.3431 22.5985C59.8429 24.0988 59 26.1336 59 28.2554V56.2554C59 82.6154 71.76 98.5904 82.465 107.35C93.995 116.78 105.465 119.98 105.965 120.115C106.653 120.302 107.377 120.302 108.065 120.115C108.565 119.98 120.02 116.78 131.565 107.35C142.24 98.5904 155 82.6154 155 56.2554V28.2554C155 26.1336 154.157 24.0988 152.657 22.5985C151.157 21.0982 149.122 20.2554 147 20.2554ZM129.84 55.0854L101.84 83.0854C101.469 83.4573 101.027 83.7523 100.542 83.9536C100.056 84.1549 99.5357 84.2585 99.01 84.2585C98.4843 84.2585 97.9638 84.1549 97.4782 83.9536C96.9926 83.7523 96.5515 83.4573 96.18 83.0854L84.18 71.0854C83.4294 70.3348 83.0078 69.3168 83.0078 68.2554C83.0078 67.1939 83.4294 66.1759 84.18 65.4254C84.9306 64.6748 85.9485 64.2531 87.01 64.2531C88.0715 64.2531 89.0894 64.6748 89.84 65.4254L99 74.6004L124.17 49.4254C124.542 49.0537 124.983 48.7589 125.468 48.5578C125.954 48.3567 126.474 48.2531 127 48.2531C127.526 48.2531 128.046 48.3567 128.532 48.5578C129.017 48.7589 129.458 49.0537 129.83 49.4254C130.202 49.797 130.496 50.2382 130.698 50.7238C130.899 51.2094 131.002 51.7298 131.002 52.2554C131.002 52.781 130.899 53.3014 130.698 53.787C130.496 54.2725 130.202 54.7137 129.83 55.0854H129.84Z" fill="#48D06A"/>
</g>
<rect x="23" y="139.255" width="128" height="24" rx="6" fill="#636367"/>
<path d="M185.375 154.068H187.25C187.499 154.068 187.737 153.969 187.913 153.793C188.089 153.618 188.188 153.379 188.188 153.13C188.188 152.882 188.089 152.643 187.913 152.467C187.737 152.292 187.499 152.193 187.25 152.193H185.375V150.318H187.25C187.499 150.318 187.737 150.219 187.913 150.043C188.089 149.868 188.188 149.629 188.188 149.38C188.188 149.132 188.089 148.893 187.913 148.717C187.737 148.542 187.499 148.443 187.25 148.443H185.328C185.121 146.385 184.237 144.454 182.816 142.953L185.101 140.669C185.277 140.493 185.376 140.254 185.376 140.005C185.376 139.757 185.277 139.518 185.101 139.342C184.925 139.166 184.686 139.067 184.438 139.067C184.189 139.067 183.95 139.166 183.774 139.342L181.396 141.721C179.818 140.605 177.933 140.005 176 140.005C174.067 140.005 172.182 140.605 170.604 141.721L168.226 139.342C168.05 139.166 167.811 139.067 167.562 139.067C167.314 139.067 167.075 139.166 166.899 139.342C166.723 139.518 166.624 139.757 166.624 140.005C166.624 140.254 166.723 140.493 166.899 140.669L169.184 142.953C167.763 144.454 166.879 146.385 166.672 148.443H164.75C164.501 148.443 164.263 148.542 164.087 148.717C163.911 148.893 163.812 149.132 163.812 149.38C163.812 149.629 163.911 149.868 164.087 150.043C164.263 150.219 164.501 150.318 164.75 150.318H166.625V152.193H164.75C164.501 152.193 164.263 152.292 164.087 152.467C163.911 152.643 163.812 152.882 163.812 153.13C163.812 153.379 163.911 153.618 164.087 153.793C164.263 153.969 164.501 154.068 164.75 154.068H166.625V155.005C166.625 155.322 166.641 155.635 166.672 155.943H164.75C164.501 155.943 164.263 156.042 164.087 156.217C163.911 156.393 163.812 156.632 163.812 156.88C163.812 157.129 163.911 157.368 164.087 157.543C164.263 157.719 164.501 157.818 164.75 157.818H167.056C167.654 159.721 168.844 161.384 170.453 162.565C172.061 163.746 174.005 164.382 176 164.382C177.995 164.382 179.939 163.746 181.547 162.565C183.156 161.384 184.346 159.721 184.944 157.818H187.25C187.499 157.818 187.737 157.719 187.913 157.543C188.089 157.368 188.188 157.129 188.188 156.88C188.188 156.632 188.089 156.393 187.913 156.217C187.737 156.042 187.499 155.943 187.25 155.943H185.328C185.359 155.635 185.375 155.322 185.375 155.005V154.068ZM176 141.88C177.826 141.883 179.588 142.55 180.958 143.758C182.327 144.966 183.209 146.632 183.439 148.443H168.556C168.786 146.631 169.669 144.965 171.039 143.757C172.41 142.549 174.173 141.882 176 141.88ZM176.938 162.444V153.13C176.938 152.882 176.839 152.643 176.663 152.467C176.487 152.292 176.249 152.193 176 152.193C175.751 152.193 175.513 152.292 175.337 152.467C175.161 152.643 175.062 152.882 175.062 153.13V162.444C173.251 162.214 171.586 161.332 170.378 159.963C169.17 158.594 168.502 156.831 168.5 155.005V150.318H183.5V155.005C183.498 156.831 182.83 158.594 181.622 159.963C180.414 161.332 178.749 162.214 176.938 162.444Z" fill="white"/>
<g filter="url(#filter0_d_5550_5458)">
<g filter="url(#filter1_d_5550_5458)">
<rect x="24" y="196.255" width="166" height="33" rx="6" fill="white" shape-rendering="crispEdges"/>
<path d="M37.204 218.255V208.175H38.394L44.176 216.659L44.008 216.687V208.175H45.1V218.255H43.91L38.128 209.771L38.296 209.743V218.255H37.204ZM50.3966 218.395C49.6966 218.395 49.0806 218.232 48.5486 217.905C48.0166 217.579 47.6013 217.135 47.3026 216.575C47.0133 216.006 46.8686 215.367 46.8686 214.657C46.8686 213.939 47.0179 213.304 47.3166 212.753C47.6153 212.203 48.0259 211.769 48.5486 211.451C49.0806 211.134 49.6966 210.975 50.3966 210.975C51.1059 210.975 51.7219 211.134 52.2446 211.451C52.7766 211.769 53.1873 212.203 53.4766 212.753C53.7753 213.304 53.9246 213.939 53.9246 214.657C53.9246 215.367 53.7753 216.006 53.4766 216.575C53.1873 217.135 52.7766 217.579 52.2446 217.905C51.7219 218.232 51.1059 218.395 50.3966 218.395ZM50.3966 217.443C50.8819 217.443 51.3019 217.327 51.6566 217.093C52.0113 216.851 52.2866 216.519 52.4826 216.099C52.6786 215.679 52.7766 215.194 52.7766 214.643C52.7766 213.822 52.5573 213.164 52.1186 212.669C51.6893 212.175 51.1153 211.927 50.3966 211.927C49.6873 211.927 49.1133 212.175 48.6746 212.669C48.2359 213.164 48.0166 213.822 48.0166 214.643C48.0166 215.194 48.1146 215.679 48.3106 216.099C48.5066 216.519 48.7819 216.851 49.1366 217.093C49.5006 217.327 49.9206 217.443 50.3966 217.443ZM61.2631 218.381C60.4698 218.381 59.8911 218.204 59.5271 217.849C59.1724 217.485 58.9951 216.963 58.9951 216.281V209.449L60.1151 209.029V216.267C60.1151 216.669 60.2178 216.963 60.4231 217.149C60.6284 217.336 60.9644 217.429 61.4311 217.429C61.6178 217.429 61.7764 217.42 61.9071 217.401C62.0471 217.373 62.1591 217.341 62.2431 217.303V218.255C62.1498 218.293 62.0144 218.321 61.8371 218.339C61.6691 218.367 61.4778 218.381 61.2631 218.381ZM57.5251 212.067V211.115H62.2431V212.067H57.5251ZM63.6845 218.255V208.175H64.8045V218.255H63.6845ZM68.7945 218.255V213.579C68.7945 213.038 68.6591 212.632 68.3885 212.361C68.1178 212.091 67.7165 211.955 67.1845 211.955C66.7178 211.955 66.3025 212.058 65.9385 212.263C65.5838 212.469 65.3038 212.753 65.0985 213.117C64.9025 213.481 64.8045 213.906 64.8045 214.391L64.6225 212.697C64.8651 212.165 65.2338 211.745 65.7285 211.437C66.2325 211.129 66.8018 210.975 67.4365 210.975C68.1831 210.975 68.7805 211.19 69.2285 211.619C69.6858 212.039 69.9145 212.595 69.9145 213.285V218.255H68.7945ZM72.0653 218.255V211.115H73.1153V212.935H73.1853V218.255H72.0653ZM73.1853 214.531L73.0033 212.837C73.1713 212.231 73.47 211.769 73.8993 211.451C74.3286 211.134 74.8233 210.975 75.3833 210.975C75.6166 210.975 75.7753 210.994 75.8593 211.031V212.109C75.8126 212.091 75.7473 212.081 75.6633 212.081C75.5793 212.072 75.4766 212.067 75.3553 212.067C74.646 212.067 74.1046 212.282 73.7313 212.711C73.3673 213.131 73.1853 213.738 73.1853 214.531ZM79.9952 218.395C79.3139 218.395 78.7119 218.237 78.1892 217.919C77.6666 217.593 77.2559 217.149 76.9572 216.589C76.6586 216.029 76.5092 215.385 76.5092 214.657C76.5092 213.929 76.6539 213.29 76.9432 212.739C77.2419 212.179 77.6572 211.745 78.1892 211.437C78.7212 211.129 79.3326 210.975 80.0232 210.975C80.6859 210.975 81.2599 211.12 81.7452 211.409C82.2399 211.699 82.6179 212.105 82.8792 212.627C83.1499 213.15 83.2852 213.766 83.2852 214.475C83.2852 214.569 83.2806 214.657 83.2712 214.741C83.2712 214.825 83.2619 214.919 83.2432 215.021H77.3492V214.083H82.5572L82.1932 214.601C82.1932 213.743 82.0019 213.085 81.6192 212.627C81.2459 212.161 80.7139 211.927 80.0232 211.927C79.3139 211.927 78.7399 212.175 78.3012 212.669C77.8719 213.155 77.6572 213.813 77.6572 214.643C77.6572 215.493 77.8719 216.174 78.3012 216.687C78.7399 217.191 79.3232 217.443 80.0512 217.443C80.5086 217.443 80.9099 217.345 81.2552 217.149C81.6006 216.944 81.8526 216.655 82.0112 216.281H83.0752C82.8419 216.935 82.4499 217.453 81.8992 217.835C81.3579 218.209 80.7232 218.395 79.9952 218.395ZM89.3125 218.255C89.2752 218.097 89.2472 217.915 89.2285 217.709C89.2192 217.504 89.2145 217.243 89.2145 216.925H89.1445V213.509C89.1445 212.968 89.0185 212.571 88.7665 212.319C88.5239 212.058 88.1272 211.927 87.5765 211.927C87.0352 211.927 86.6012 212.039 86.2745 212.263C85.9572 212.478 85.7799 212.786 85.7425 213.187H84.6645C84.7112 212.497 85.0005 211.955 85.5325 211.563C86.0645 211.171 86.7599 210.975 87.6185 210.975C88.5052 210.975 89.1632 211.185 89.5925 211.605C90.0219 212.025 90.2365 212.655 90.2365 213.495V216.925C90.2365 217.131 90.2505 217.345 90.2785 217.569C90.3065 217.784 90.3439 218.013 90.3905 218.255H89.3125ZM86.8625 218.395C86.1252 218.395 85.5372 218.218 85.0985 217.863C84.6692 217.499 84.4545 217.005 84.4545 216.379C84.4545 215.754 84.6692 215.269 85.0985 214.923C85.5279 214.578 86.1532 214.335 86.9745 214.195L89.4665 213.775V214.699L87.1425 215.063C86.6199 215.147 86.2232 215.287 85.9525 215.483C85.6819 215.679 85.5465 215.964 85.5465 216.337C85.5465 216.701 85.6679 216.977 85.9105 217.163C86.1625 217.35 86.5312 217.443 87.0165 217.443C87.6419 217.443 88.1505 217.303 88.5425 217.023C88.9439 216.734 89.1445 216.361 89.1445 215.903L89.3265 216.897C89.1772 217.373 88.8832 217.742 88.4445 218.003C88.0152 218.265 87.4879 218.395 86.8625 218.395ZM95.06 218.381C94.2667 218.381 93.688 218.204 93.324 217.849C92.9693 217.485 92.792 216.963 92.792 216.281V209.449L93.912 209.029V216.267C93.912 216.669 94.0147 216.963 94.22 217.149C94.4253 217.336 94.7613 217.429 95.228 217.429C95.4147 217.429 95.5733 217.42 95.704 217.401C95.844 217.373 95.956 217.341 96.04 217.303V218.255C95.9467 218.293 95.8113 218.321 95.634 218.339C95.466 218.367 95.2747 218.381 95.06 218.381ZM91.322 212.067V211.115H96.04V212.067H91.322ZM99.876 218.395C98.9987 218.395 98.2987 218.195 97.776 217.793C97.2533 217.383 96.9547 216.804 96.88 216.057H97.958C98.0233 216.515 98.224 216.865 98.56 217.107C98.896 217.35 99.344 217.471 99.904 217.471C100.399 217.471 100.786 217.378 101.066 217.191C101.346 217.005 101.486 216.739 101.486 216.393C101.486 216.151 101.407 215.941 101.248 215.763C101.089 215.577 100.772 215.423 100.296 215.301L99.148 215.007C98.4947 214.839 98.0047 214.583 97.678 214.237C97.3513 213.883 97.188 213.463 97.188 212.977C97.188 212.361 97.4167 211.876 97.874 211.521C98.3313 211.157 98.952 210.975 99.736 210.975C100.511 210.975 101.141 211.162 101.626 211.535C102.111 211.909 102.387 212.427 102.452 213.089H101.374C101.309 212.707 101.131 212.413 100.842 212.207C100.553 212.002 100.17 211.899 99.694 211.899C99.2367 211.899 98.882 211.988 98.63 212.165C98.378 212.333 98.252 212.576 98.252 212.893C98.252 213.136 98.3407 213.346 98.518 213.523C98.7047 213.701 99.0127 213.85 99.442 213.971L100.562 214.279C101.225 214.457 101.724 214.727 102.06 215.091C102.396 215.455 102.564 215.894 102.564 216.407C102.564 217.033 102.326 217.523 101.85 217.877C101.374 218.223 100.716 218.395 99.876 218.395ZM108.33 218.255L106.146 211.115H107.28L108.96 217.233H108.68L110.696 211.115H111.606L113.636 217.233H113.356L115.022 211.115H116.1L113.916 218.255H113.006L110.99 212.277H111.284L109.24 218.255H108.33ZM120.396 218.395C119.714 218.395 119.112 218.237 118.59 217.919C118.067 217.593 117.656 217.149 117.358 216.589C117.059 216.029 116.91 215.385 116.91 214.657C116.91 213.929 117.054 213.29 117.344 212.739C117.642 212.179 118.058 211.745 118.59 211.437C119.122 211.129 119.733 210.975 120.424 210.975C121.086 210.975 121.66 211.12 122.146 211.409C122.64 211.699 123.018 212.105 123.28 212.627C123.55 213.15 123.686 213.766 123.686 214.475C123.686 214.569 123.681 214.657 123.672 214.741C123.672 214.825 123.662 214.919 123.644 215.021H117.75V214.083H122.958L122.594 214.601C122.594 213.743 122.402 213.085 122.02 212.627C121.646 212.161 121.114 211.927 120.424 211.927C119.714 211.927 119.14 212.175 118.702 212.669C118.272 213.155 118.058 213.813 118.058 214.643C118.058 215.493 118.272 216.174 118.702 216.687C119.14 217.191 119.724 217.443 120.452 217.443C120.909 217.443 121.31 217.345 121.656 217.149C122.001 216.944 122.253 216.655 122.412 216.281H123.476C123.242 216.935 122.85 217.453 122.3 217.835C121.758 218.209 121.124 218.395 120.396 218.395ZM125.372 218.255V211.115H126.422V212.935H126.492V218.255H125.372ZM126.492 214.531L126.31 212.837C126.478 212.231 126.777 211.769 127.206 211.451C127.635 211.134 128.13 210.975 128.69 210.975C128.923 210.975 129.082 210.994 129.166 211.031V212.109C129.119 212.091 129.054 212.081 128.97 212.081C128.886 212.072 128.783 212.067 128.662 212.067C127.953 212.067 127.411 212.282 127.038 212.711C126.674 213.131 126.492 213.738 126.492 214.531ZM133.302 218.395C132.621 218.395 132.019 218.237 131.496 217.919C130.973 217.593 130.563 217.149 130.264 216.589C129.965 216.029 129.816 215.385 129.816 214.657C129.816 213.929 129.961 213.29 130.25 212.739C130.549 212.179 130.964 211.745 131.496 211.437C132.028 211.129 132.639 210.975 133.33 210.975C133.993 210.975 134.567 211.12 135.052 211.409C135.547 211.699 135.925 212.105 136.186 212.627C136.457 213.15 136.592 213.766 136.592 214.475C136.592 214.569 136.587 214.657 136.578 214.741C136.578 214.825 136.569 214.919 136.55 215.021H130.656V214.083H135.864L135.5 214.601C135.5 213.743 135.309 213.085 134.926 212.627C134.553 212.161 134.021 211.927 133.33 211.927C132.621 211.927 132.047 212.175 131.608 212.669C131.179 213.155 130.964 213.813 130.964 214.643C130.964 215.493 131.179 216.174 131.608 216.687C132.047 217.191 132.63 217.443 133.358 217.443C133.815 217.443 134.217 217.345 134.562 217.149C134.907 216.944 135.159 216.655 135.318 216.281H136.382C136.149 216.935 135.757 217.453 135.206 217.835C134.665 218.209 134.03 218.395 133.302 218.395ZM141.669 218.255V210.107C141.669 209.454 141.856 208.945 142.229 208.581C142.612 208.217 143.19 208.035 143.965 208.035C144.152 208.035 144.296 208.045 144.399 208.063C144.511 208.082 144.604 208.105 144.679 208.133V209.015C144.614 208.997 144.52 208.978 144.399 208.959C144.287 208.941 144.166 208.931 144.035 208.931C143.606 208.931 143.288 209.039 143.083 209.253C142.887 209.468 142.789 209.771 142.789 210.163V218.255H141.669ZM140.199 212.067V211.115H144.525V212.067H140.199ZM148.725 218.395C148.025 218.395 147.409 218.232 146.877 217.905C146.345 217.579 145.929 217.135 145.631 216.575C145.341 216.006 145.197 215.367 145.197 214.657C145.197 213.939 145.346 213.304 145.645 212.753C145.943 212.203 146.354 211.769 146.877 211.451C147.409 211.134 148.025 210.975 148.725 210.975C149.434 210.975 150.05 211.134 150.573 211.451C151.105 211.769 151.515 212.203 151.805 212.753C152.103 213.304 152.253 213.939 152.253 214.657C152.253 215.367 152.103 216.006 151.805 216.575C151.515 217.135 151.105 217.579 150.573 217.905C150.05 218.232 149.434 218.395 148.725 218.395ZM148.725 217.443C149.21 217.443 149.63 217.327 149.985 217.093C150.339 216.851 150.615 216.519 150.811 216.099C151.007 215.679 151.105 215.194 151.105 214.643C151.105 213.822 150.885 213.164 150.447 212.669C150.017 212.175 149.443 211.927 148.725 211.927C148.015 211.927 147.441 212.175 147.003 212.669C146.564 213.164 146.345 213.822 146.345 214.643C146.345 215.194 146.443 215.679 146.639 216.099C146.835 216.519 147.11 216.851 147.465 217.093C147.829 217.327 148.249 217.443 148.725 217.443ZM156.257 218.395C155.79 218.395 155.375 218.302 155.011 218.115C154.647 217.919 154.362 217.649 154.157 217.303C153.951 216.949 153.849 216.543 153.849 216.085V211.115H154.969V215.791C154.969 216.333 155.099 216.739 155.361 217.009C155.631 217.28 156.014 217.415 156.508 217.415C156.957 217.415 157.353 217.313 157.699 217.107C158.044 216.902 158.315 216.617 158.511 216.253C158.716 215.88 158.819 215.455 158.819 214.979L159.001 216.673C158.767 217.205 158.403 217.625 157.909 217.933C157.414 218.241 156.863 218.395 156.257 218.395ZM158.889 218.255V216.575H158.819V211.115H159.939V218.255H158.889ZM162.177 218.255V211.115H163.227V212.795H163.297V218.255H162.177ZM167.287 218.255V213.579C167.287 213.038 167.151 212.632 166.881 212.361C166.61 212.091 166.209 211.955 165.677 211.955C165.21 211.955 164.795 212.058 164.431 212.263C164.076 212.469 163.796 212.753 163.591 213.117C163.395 213.481 163.297 213.906 163.297 214.391L163.115 212.697C163.357 212.165 163.726 211.745 164.221 211.437C164.725 211.129 165.294 210.975 165.929 210.975C166.675 210.975 167.273 211.19 167.721 211.619C168.178 212.039 168.407 212.595 168.407 213.285V218.255H167.287ZM175.752 218.255V216.589L175.892 216.631C175.714 217.173 175.388 217.602 174.912 217.919C174.445 218.237 173.885 218.395 173.232 218.395C172.588 218.395 172.023 218.241 171.538 217.933C171.062 217.625 170.688 217.196 170.418 216.645C170.156 216.095 170.026 215.451 170.026 214.713C170.026 213.967 170.161 213.313 170.432 212.753C170.702 212.193 171.08 211.759 171.566 211.451C172.051 211.143 172.62 210.989 173.274 210.989C173.946 210.989 174.51 211.153 174.968 211.479C175.425 211.806 175.738 212.268 175.906 212.865L175.682 212.893V208.175H176.802V218.255H175.752ZM173.442 217.415C174.16 217.415 174.72 217.173 175.122 216.687C175.532 216.193 175.738 215.521 175.738 214.671C175.738 213.841 175.532 213.183 175.122 212.697C174.711 212.212 174.151 211.969 173.442 211.969C172.732 211.969 172.177 212.212 171.776 212.697C171.374 213.183 171.174 213.855 171.174 214.713C171.174 215.553 171.374 216.216 171.776 216.701C172.177 217.177 172.732 217.415 173.442 217.415Z" fill="#3A3A3B"/>
</g>
<g filter="url(#filter2_d_5550_5458)">
<path d="M113.928 195.705L108.585 190.806C107.784 190.072 106.216 190.072 105.415 190.806L100.073 195.705C99.6728 196.072 99.0805 196.255 98.4883 196.255L115.513 196.255C114.921 196.255 114.328 196.072 113.928 195.705Z" fill="white"/>
</g>
</g>
<defs>
<filter id="filter0_d_5550_5458" x="23" y="189.255" width="168" height="41" filterUnits="userSpaceOnUse" color-interpolation-filters="sRGB">
<feFlood flood-opacity="0" result="BackgroundImageFix"/>
<feColorMatrix in="SourceAlpha" type="matrix" values="0 0 0 0 0 0 0 0 0 0 0 0 0 0 0 0 0 0 127 0" result="hardAlpha"/>
<feOffset/>
<feGaussianBlur stdDeviation="0.5"/>
<feComposite in2="hardAlpha" operator="out"/>
<feColorMatrix type="matrix" values="0 0 0 0 0 0 0 0 0 0 0 0 0 0 0 0 0 0 0.16 0"/>
<feBlend mode="normal" in2="BackgroundImageFix" result="effect1_dropShadow_5550_5458"/>
<feBlend mode="normal" in="SourceGraphic" in2="effect1_dropShadow_5550_5458" result="shape"/>
</filter>
<filter id="filter1_d_5550_5458" x="0" y="184.255" width="214" height="81" filterUnits="userSpaceOnUse" color-interpolation-filters="sRGB">
<feFlood flood-opacity="0" result="BackgroundImageFix"/>
<feColorMatrix in="SourceAlpha" type="matrix" values="0 0 0 0 0 0 0 0 0 0 0 0 0 0 0 0 0 0 127 0" result="hardAlpha"/>
<feOffset dy="12"/>
<feGaussianBlur stdDeviation="12"/>
<feComposite in2="hardAlpha" operator="out"/>
<feColorMatrix type="matrix" values="0 0 0 0 0 0 0 0 0 0 0 0 0 0 0 0 0 0 0.12 0"/>
<feBlend mode="normal" in2="BackgroundImageFix" result="effect1_dropShadow_5550_5458"/>
<feBlend mode="normal" in="SourceGraphic" in2="effect1_dropShadow_5550_5458" result="shape"/>
</filter>
<filter id="filter2_d_5550_5458" x="74.4883" y="174.255" width="65.0254" height="54" filterUnits="userSpaceOnUse" color-interpolation-filters="sRGB">
<feFlood flood-opacity="0" result="BackgroundImageFix"/>
<feColorMatrix in="SourceAlpha" type="matrix" values="0 0 0 0 0 0 0 0 0 0 0 0 0 0 0 0 0 0 127 0" result="hardAlpha"/>
<feOffset dy="8"/>
<feGaussianBlur stdDeviation="12"/>
<feComposite in2="hardAlpha" operator="out"/>
<feColorMatrix type="matrix" values="0 0 0 0 0 0 0 0 0 0 0 0 0 0 0 0 0 0 0.12 0"/>
<feBlend mode="normal" in2="BackgroundImageFix" result="effect1_dropShadow_5550_5458"/>
<feBlend mode="normal" in="SourceGraphic" in2="effect1_dropShadow_5550_5458" result="shape"/>
</filter>
<clipPath id="clip0_5550_5458">
<rect width="128" height="128" fill="white" transform="translate(43 0.255371)"/>
</clipPath>
</defs>
</svg>
