<svg width="251" height="265" viewBox="0 0 251 265" fill="none" xmlns="http://www.w3.org/2000/svg">
<g filter="url(#filter0_d_5810_11541)">
<path d="M61.5 20C61.5 13.3726 66.8726 8 73.5 8H93.499C106.973 8 108.657 20 125.499 20H177.5C184.127 20 189.5 25.3726 189.5 32V104C189.5 110.627 184.127 116 177.5 116H73.5C66.8726 116 61.5 110.627 61.5 104V20Z" fill="#52AFE0"/>
<path d="M61.5 20C61.5 13.3726 66.8726 8 73.5 8H93.499C106.973 8 108.657 20 125.499 20H177.5C184.127 20 189.5 25.3726 189.5 32V104C189.5 110.627 184.127 116 177.5 116H73.5C66.8726 116 61.5 110.627 61.5 104V20Z" fill="url(#paint0_linear_5810_11541)" fill-opacity="0.2"/>
<g filter="url(#filter1_i_5810_11541)">
<path d="M61.5 104V48C61.5 41.3726 66.8726 36 73.5 36L177.5 36C184.127 36 189.5 41.3726 189.5 48V104C189.5 110.627 184.127 116 177.5 116H73.5C66.8726 116 61.5 110.627 61.5 104Z" fill="#73D0FA"/>
<path d="M61.5 104V48C61.5 41.3726 66.8726 36 73.5 36L177.5 36C184.127 36 189.5 41.3726 189.5 48V104C189.5 110.627 184.127 116 177.5 116H73.5C66.8726 116 61.5 110.627 61.5 104Z" fill="url(#paint1_radial_5810_11541)" fill-opacity="0.16"/>
</g>
</g>
<rect x="40.7676" y="139" width="128" height="24" rx="6" fill="#48484B"/>
<g clip-path="url(#clip0_5810_11541)">
<path d="M197.827 156.547V158.562H204.085C207.927 158.562 210.23 156.247 210.23 153.218C210.23 150.69 208.716 148.612 206.275 147.624C206.3 142.042 202.283 138.012 197.164 138.012C193.772 138.012 191.356 139.826 189.854 142.017C187.013 141.253 183.421 143.456 183.359 146.973C180.53 147.411 178.766 149.726 178.766 152.68C178.766 155.934 181.206 158.562 185.311 158.562H191.281V156.547H185.299C182.333 156.547 180.781 154.833 180.781 152.68C180.781 150.29 182.295 148.512 184.948 148.512C185.124 148.512 185.186 148.412 185.186 148.25C185.186 144.407 187.952 143.343 190.53 144.094C190.681 144.144 190.768 144.119 190.843 143.982C192.057 141.816 193.922 140.027 197.164 140.027C201.269 140.027 204.11 143.281 204.323 147.01C204.36 147.574 204.323 148.25 204.272 148.838C204.26 149 204.323 149.101 204.473 149.126C206.751 149.626 208.215 151.053 208.215 153.218C208.215 155.146 206.813 156.547 204.072 156.547H197.827ZM194.56 165.997C194.811 165.997 195.011 165.897 195.274 165.659L199.504 161.704C199.704 161.529 199.804 161.316 199.804 161.04C199.804 160.54 199.404 160.164 198.891 160.164C198.653 160.164 198.403 160.277 198.215 160.465L196.313 162.367L195.474 163.243L195.549 161.378V150.64C195.549 150.114 195.098 149.664 194.56 149.664C194.022 149.664 193.559 150.114 193.559 150.64V161.378L193.634 163.256L192.796 162.367L190.893 160.465C190.706 160.277 190.443 160.164 190.205 160.164C189.679 160.164 189.304 160.54 189.304 161.04C189.304 161.316 189.404 161.529 189.604 161.704L193.834 165.659C194.097 165.897 194.297 165.997 194.56 165.997Z" fill="white" fill-opacity="0.85"/>
</g>
<g filter="url(#filter2_d_5810_11541)">
<path fill-rule="evenodd" clip-rule="evenodd" d="M190.466 112C192.444 109.04 193.5 105.56 193.5 102C193.495 97.2277 191.597 92.6524 188.222 89.2779C184.848 85.9034 180.272 84.0053 175.5 84C171.94 84 168.46 85.0557 165.5 87.0335C162.54 89.0114 160.233 91.8226 158.87 95.1117C157.508 98.4008 157.151 102.02 157.846 105.512C158.54 109.003 160.255 112.211 162.772 114.728C165.289 117.245 168.497 118.96 171.988 119.654C175.48 120.349 179.099 119.992 182.388 118.63C185.677 117.267 188.489 114.96 190.466 112ZM184.017 97.2347C183.916 96.9916 183.768 96.7708 183.582 96.585C183.396 96.3987 183.176 96.2508 182.933 96.1497C182.691 96.0487 182.431 95.9964 182.168 95.9959C181.905 95.9955 181.645 96.0468 181.402 96.147C181.159 96.2472 180.938 96.3944 180.752 96.58L172.833 104.5L170.248 101.918C170.062 101.732 169.841 101.585 169.598 101.484C169.355 101.383 169.095 101.332 168.832 101.332C168.569 101.332 168.308 101.383 168.065 101.484C167.822 101.585 167.601 101.732 167.415 101.918C167.229 102.104 167.081 102.325 166.981 102.568C166.88 102.811 166.828 103.072 166.828 103.335C166.828 103.598 166.88 103.859 166.981 104.102C167.081 104.345 167.229 104.566 167.415 104.752L171.415 108.752C171.601 108.938 171.822 109.086 172.065 109.187C172.308 109.288 172.568 109.34 172.832 109.34C173.095 109.34 173.356 109.288 173.599 109.187C173.842 109.086 174.063 108.938 174.248 108.752L183.582 99.4183C183.768 99.2325 183.916 99.0117 184.017 98.7686C184.118 98.5255 184.17 98.2649 184.17 98.0017C184.17 97.7384 184.118 97.4778 184.017 97.2347Z" fill="#34CB5A"/>
<path d="M183.582 96.585C183.768 96.7708 183.916 96.9916 184.017 97.2347C184.118 97.4778 184.17 97.7384 184.17 98.0017C184.17 98.2649 184.118 98.5255 184.017 98.7686C183.916 99.0117 183.768 99.2325 183.582 99.4183L174.248 108.752C174.063 108.938 173.842 109.086 173.599 109.187C173.356 109.288 173.095 109.34 172.832 109.34C172.568 109.34 172.308 109.288 172.065 109.187C171.822 109.086 171.601 108.938 171.415 108.752L167.415 104.752C167.229 104.566 167.081 104.345 166.981 104.102C166.88 103.859 166.828 103.598 166.828 103.335C166.828 103.072 166.88 102.811 166.981 102.568C167.081 102.325 167.229 102.104 167.415 101.918C167.601 101.732 167.822 101.585 168.065 101.484C168.308 101.383 168.569 101.332 168.832 101.332C169.095 101.332 169.355 101.383 169.598 101.484C169.841 101.585 170.062 101.732 170.248 101.918L172.833 104.5L180.752 96.58C180.938 96.3944 181.159 96.2472 181.402 96.147C181.645 96.0468 181.905 95.9955 182.168 95.9959C182.431 95.9964 182.691 96.0487 182.933 96.1497C183.176 96.2508 183.396 96.3987 183.582 96.585Z" fill="white"/>
<path d="M195 102C195 105.857 193.857 109.627 191.714 112.834C189.571 116.041 186.525 118.54 182.962 120.016C179.399 121.491 175.478 121.877 171.695 121.125C167.913 120.373 164.438 118.516 161.711 115.789C158.984 113.062 157.127 109.587 156.375 105.805C155.623 102.022 156.009 98.1012 157.484 94.5381C158.96 90.975 161.459 87.9288 164.666 85.7861C167.873 83.6434 171.643 82.5 175.5 82.5H175.502L175.985 82.5068C180.979 82.636 185.742 84.6756 189.283 88.2168C192.939 91.8721 194.994 96.8286 195 101.998V102Z" stroke="white" stroke-width="3"/>
</g>
<g filter="url(#filter3_d_5810_11541)">
<g filter="url(#filter4_d_5810_11541)">
<rect x="24" y="196" width="203" height="33" rx="6" fill="white" shape-rendering="crispEdges"/>
<path d="M36.504 218L40.396 207.92H41.404L37.61 218H36.504ZM44.512 218L40.718 207.92H41.796L45.688 218H44.512ZM38.436 213.926H43.7V214.934H38.436V213.926ZM48.4482 218L45.4942 210.86H46.6982L49.1622 217.244H48.7142L51.1642 210.86H52.3122L49.3582 218H48.4482ZM57.8536 218C57.8162 217.841 57.7882 217.659 57.7696 217.454C57.7602 217.249 57.7556 216.987 57.7556 216.67H57.6856V213.254C57.6856 212.713 57.5596 212.316 57.3076 212.064C57.0649 211.803 56.6682 211.672 56.1176 211.672C55.5762 211.672 55.1422 211.784 54.8156 212.008C54.4982 212.223 54.3209 212.531 54.2836 212.932H53.2056C53.2522 212.241 53.5416 211.7 54.0736 211.308C54.6056 210.916 55.3009 210.72 56.1596 210.72C57.0462 210.72 57.7042 210.93 58.1336 211.35C58.5629 211.77 58.7776 212.4 58.7776 213.24V216.67C58.7776 216.875 58.7916 217.09 58.8196 217.314C58.8476 217.529 58.8849 217.757 58.9316 218H57.8536ZM55.4036 218.14C54.6662 218.14 54.0782 217.963 53.6396 217.608C53.2102 217.244 52.9956 216.749 52.9956 216.124C52.9956 215.499 53.2102 215.013 53.6396 214.668C54.0689 214.323 54.6942 214.08 55.5156 213.94L58.0076 213.52V214.444L55.6836 214.808C55.1609 214.892 54.7642 215.032 54.4936 215.228C54.2229 215.424 54.0876 215.709 54.0876 216.082C54.0876 216.446 54.2089 216.721 54.4516 216.908C54.7036 217.095 55.0722 217.188 55.5576 217.188C56.1829 217.188 56.6916 217.048 57.0836 216.768C57.4849 216.479 57.6856 216.105 57.6856 215.648L57.8676 216.642C57.7182 217.118 57.4242 217.487 56.9856 217.748C56.5562 218.009 56.0289 218.14 55.4036 218.14ZM60.9364 218V210.86H62.0564V218H60.9364ZM60.8524 209.236V207.92H62.1404V209.236H60.8524ZM64.2997 218V207.92H65.4197V218H64.2997ZM72.045 218C72.0076 217.841 71.9796 217.659 71.961 217.454C71.9516 217.249 71.947 216.987 71.947 216.67H71.877V213.254C71.877 212.713 71.751 212.316 71.499 212.064C71.2563 211.803 70.8596 211.672 70.309 211.672C69.7676 211.672 69.3336 211.784 69.007 212.008C68.6896 212.223 68.5123 212.531 68.475 212.932H67.397C67.4436 212.241 67.733 211.7 68.265 211.308C68.797 210.916 69.4923 210.72 70.351 210.72C71.2376 210.72 71.8956 210.93 72.325 211.35C72.7543 211.77 72.969 212.4 72.969 213.24V216.67C72.969 216.875 72.983 217.09 73.011 217.314C73.039 217.529 73.0763 217.757 73.123 218H72.045ZM69.595 218.14C68.8576 218.14 68.2696 217.963 67.831 217.608C67.4016 217.244 67.187 216.749 67.187 216.124C67.187 215.499 67.4016 215.013 67.831 214.668C68.2603 214.323 68.8856 214.08 69.707 213.94L72.199 213.52V214.444L69.875 214.808C69.3523 214.892 68.9556 215.032 68.685 215.228C68.4143 215.424 68.279 215.709 68.279 216.082C68.279 216.446 68.4003 216.721 68.643 216.908C68.895 217.095 69.2636 217.188 69.749 217.188C70.3743 217.188 70.883 217.048 71.275 216.768C71.6763 216.479 71.877 216.105 71.877 215.648L72.059 216.642C71.9096 217.118 71.6156 217.487 71.177 217.748C70.7476 218.009 70.2203 218.14 69.595 218.14ZM78.6558 218.126C77.9838 218.126 77.4191 217.963 76.9618 217.636C76.5045 217.309 76.1918 216.847 76.0238 216.25L76.1778 216.222V218H75.1278V207.92H76.2478V212.526L76.0938 212.484C76.2711 211.933 76.5931 211.504 77.0598 211.196C77.5358 210.879 78.1005 210.72 78.7538 210.72C79.3885 210.72 79.9391 210.874 80.4058 211.182C80.8818 211.49 81.2505 211.919 81.5118 212.47C81.7731 213.021 81.9038 213.665 81.9038 214.402C81.9038 215.149 81.7685 215.802 81.4978 216.362C81.2271 216.922 80.8491 217.356 80.3638 217.664C79.8785 217.972 79.3091 218.126 78.6558 218.126ZM78.4878 217.146C79.1971 217.146 79.7525 216.903 80.1538 216.418C80.5551 215.923 80.7558 215.251 80.7558 214.402C80.7558 213.562 80.5551 212.904 80.1538 212.428C79.7525 211.943 79.1971 211.7 78.4878 211.7C77.7785 211.7 77.2185 211.947 76.8078 212.442C76.3971 212.927 76.1918 213.595 76.1918 214.444C76.1918 215.275 76.3971 215.933 76.8078 216.418C77.2185 216.903 77.7785 217.146 78.4878 217.146ZM83.618 218V207.92H84.738V218H83.618ZM89.9073 218.14C89.226 218.14 88.624 217.981 88.1013 217.664C87.5787 217.337 87.168 216.894 86.8693 216.334C86.5707 215.774 86.4213 215.13 86.4213 214.402C86.4213 213.674 86.566 213.035 86.8553 212.484C87.154 211.924 87.5693 211.49 88.1013 211.182C88.6333 210.874 89.2447 210.72 89.9353 210.72C90.598 210.72 91.172 210.865 91.6573 211.154C92.152 211.443 92.53 211.849 92.7913 212.372C93.062 212.895 93.1973 213.511 93.1973 214.22C93.1973 214.313 93.1927 214.402 93.1833 214.486C93.1833 214.57 93.174 214.663 93.1553 214.766H87.2613V213.828H92.4693L92.1053 214.346C92.1053 213.487 91.914 212.829 91.5313 212.372C91.158 211.905 90.626 211.672 89.9353 211.672C89.226 211.672 88.652 211.919 88.2133 212.414C87.784 212.899 87.5693 213.557 87.5693 214.388C87.5693 215.237 87.784 215.919 88.2133 216.432C88.652 216.936 89.2353 217.188 89.9633 217.188C90.4207 217.188 90.822 217.09 91.1673 216.894C91.5127 216.689 91.7647 216.399 91.9233 216.026H92.9873C92.754 216.679 92.362 217.197 91.8113 217.58C91.27 217.953 90.6353 218.14 89.9073 218.14ZM99.1424 218L96.9584 210.86H98.0924L99.7724 216.978H99.4924L101.508 210.86H102.418L104.448 216.978H104.168L105.834 210.86H106.912L104.728 218H103.818L101.802 212.022H102.096L100.052 218H99.1424ZM108.419 218V207.92H109.539V218H108.419ZM113.529 218V213.324C113.529 212.783 113.393 212.377 113.123 212.106C112.852 211.835 112.451 211.7 111.919 211.7C111.452 211.7 111.037 211.803 110.673 212.008C110.318 212.213 110.038 212.498 109.833 212.862C109.637 213.226 109.539 213.651 109.539 214.136L109.357 212.442C109.599 211.91 109.968 211.49 110.463 211.182C110.967 210.874 111.536 210.72 112.171 210.72C112.917 210.72 113.515 210.935 113.963 211.364C114.42 211.784 114.649 212.339 114.649 213.03V218H113.529ZM116.8 218V210.86H117.92V218H116.8ZM116.716 209.236V207.92H118.004V209.236H116.716ZM120.163 218V207.92H121.283V218H120.163ZM126.452 218.14C125.771 218.14 125.169 217.981 124.646 217.664C124.124 217.337 123.713 216.894 123.414 216.334C123.116 215.774 122.966 215.13 122.966 214.402C122.966 213.674 123.111 213.035 123.4 212.484C123.699 211.924 124.114 211.49 124.646 211.182C125.178 210.874 125.79 210.72 126.48 210.72C127.143 210.72 127.717 210.865 128.202 211.154C128.697 211.443 129.075 211.849 129.336 212.372C129.607 212.895 129.742 213.511 129.742 214.22C129.742 214.313 129.738 214.402 129.728 214.486C129.728 214.57 129.719 214.663 129.7 214.766H123.806V213.828H129.014L128.65 214.346C128.65 213.487 128.459 212.829 128.076 212.372C127.703 211.905 127.171 211.672 126.48 211.672C125.771 211.672 125.197 211.919 124.758 212.414C124.329 212.899 124.114 213.557 124.114 214.388C124.114 215.237 124.329 215.919 124.758 216.432C125.197 216.936 125.78 217.188 126.508 217.188C126.966 217.188 127.367 217.09 127.712 216.894C128.058 216.689 128.31 216.399 128.468 216.026H129.532C129.299 216.679 128.907 217.197 128.356 217.58C127.815 217.953 127.18 218.14 126.452 218.14ZM134.847 220.87L136.443 217.16L136.695 216.768L139.033 210.86H140.181L136.037 220.87H134.847ZM136.569 218.07L133.363 210.86H134.595L137.353 217.314L136.569 218.07ZM144.35 218.14C143.65 218.14 143.034 217.977 142.502 217.65C141.97 217.323 141.554 216.88 141.256 216.32C140.966 215.751 140.822 215.111 140.822 214.402C140.822 213.683 140.971 213.049 141.27 212.498C141.568 211.947 141.979 211.513 142.502 211.196C143.034 210.879 143.65 210.72 144.35 210.72C145.059 210.72 145.675 210.879 146.198 211.196C146.73 211.513 147.14 211.947 147.43 212.498C147.728 213.049 147.878 213.683 147.878 214.402C147.878 215.111 147.728 215.751 147.43 216.32C147.14 216.88 146.73 217.323 146.198 217.65C145.675 217.977 145.059 218.14 144.35 218.14ZM144.35 217.188C144.835 217.188 145.255 217.071 145.61 216.838C145.964 216.595 146.24 216.264 146.436 215.844C146.632 215.424 146.73 214.939 146.73 214.388C146.73 213.567 146.51 212.909 146.072 212.414C145.642 211.919 145.068 211.672 144.35 211.672C143.64 211.672 143.066 211.919 142.628 212.414C142.189 212.909 141.97 213.567 141.97 214.388C141.97 214.939 142.068 215.424 142.264 215.844C142.46 216.264 142.735 216.595 143.09 216.838C143.454 217.071 143.874 217.188 144.35 217.188ZM151.882 218.14C151.415 218.14 151 218.047 150.636 217.86C150.272 217.664 149.987 217.393 149.782 217.048C149.576 216.693 149.474 216.287 149.474 215.83V210.86H150.594V215.536C150.594 216.077 150.724 216.483 150.986 216.754C151.256 217.025 151.639 217.16 152.133 217.16C152.582 217.16 152.978 217.057 153.324 216.852C153.669 216.647 153.94 216.362 154.136 215.998C154.341 215.625 154.444 215.2 154.444 214.724L154.626 216.418C154.392 216.95 154.028 217.37 153.534 217.678C153.039 217.986 152.488 218.14 151.882 218.14ZM154.514 218V216.32H154.444V210.86H155.564V218H154.514ZM157.206 211.07L156.856 209.222C156.819 209.035 156.791 208.863 156.772 208.704C156.754 208.536 156.744 208.391 156.744 208.27C156.744 208.121 156.772 207.99 156.828 207.878C156.894 207.757 156.978 207.663 157.08 207.598C157.183 207.533 157.304 207.5 157.444 207.5C157.584 207.5 157.706 207.533 157.808 207.598C157.92 207.663 158.004 207.757 158.06 207.878C158.116 207.99 158.144 208.121 158.144 208.27C158.144 208.391 158.135 208.536 158.116 208.704C158.098 208.863 158.07 209.035 158.032 209.222L157.682 211.07H157.206ZM160.194 218V210.86H161.244V212.68H161.314V218H160.194ZM161.314 214.276L161.132 212.582C161.3 211.975 161.599 211.513 162.028 211.196C162.458 210.879 162.952 210.72 163.512 210.72C163.746 210.72 163.904 210.739 163.988 210.776V211.854C163.942 211.835 163.876 211.826 163.792 211.826C163.708 211.817 163.606 211.812 163.484 211.812C162.775 211.812 162.234 212.027 161.86 212.456C161.496 212.876 161.314 213.483 161.314 214.276ZM168.124 218.14C167.443 218.14 166.841 217.981 166.318 217.664C165.795 217.337 165.385 216.894 165.086 216.334C164.787 215.774 164.638 215.13 164.638 214.402C164.638 213.674 164.783 213.035 165.072 212.484C165.371 211.924 165.786 211.49 166.318 211.182C166.85 210.874 167.461 210.72 168.152 210.72C168.815 210.72 169.389 210.865 169.874 211.154C170.369 211.443 170.747 211.849 171.008 212.372C171.279 212.895 171.414 213.511 171.414 214.22C171.414 214.313 171.409 214.402 171.4 214.486C171.4 214.57 171.391 214.663 171.372 214.766H165.478V213.828H170.686L170.322 214.346C170.322 213.487 170.131 212.829 169.748 212.372C169.375 211.905 168.843 211.672 168.152 211.672C167.443 211.672 166.869 211.919 166.43 212.414C166.001 212.899 165.786 213.557 165.786 214.388C165.786 215.237 166.001 215.919 166.43 216.432C166.869 216.936 167.452 217.188 168.18 217.188C168.637 217.188 169.039 217.09 169.384 216.894C169.729 216.689 169.981 216.399 170.14 216.026H171.204C170.971 216.679 170.579 217.197 170.028 217.58C169.487 217.953 168.852 218.14 168.124 218.14ZM178.871 218.14C178.171 218.14 177.555 217.977 177.023 217.65C176.491 217.323 176.076 216.88 175.777 216.32C175.488 215.751 175.343 215.111 175.343 214.402C175.343 213.683 175.493 213.049 175.791 212.498C176.09 211.947 176.501 211.513 177.023 211.196C177.555 210.879 178.171 210.72 178.871 210.72C179.581 210.72 180.197 210.879 180.719 211.196C181.251 211.513 181.662 211.947 181.951 212.498C182.25 213.049 182.399 213.683 182.399 214.402C182.399 215.111 182.25 215.751 181.951 216.32C181.662 216.88 181.251 217.323 180.719 217.65C180.197 217.977 179.581 218.14 178.871 218.14ZM178.871 217.188C179.357 217.188 179.777 217.071 180.131 216.838C180.486 216.595 180.761 216.264 180.957 215.844C181.153 215.424 181.251 214.939 181.251 214.388C181.251 213.567 181.032 212.909 180.593 212.414C180.164 211.919 179.59 211.672 178.871 211.672C178.162 211.672 177.588 211.919 177.149 212.414C176.711 212.909 176.491 213.567 176.491 214.388C176.491 214.939 176.589 215.424 176.785 215.844C176.981 216.264 177.257 216.595 177.611 216.838C177.975 217.071 178.395 217.188 178.871 217.188ZM184.079 218V210.86H185.129V212.54H185.199V218H184.079ZM189.189 218V213.324C189.189 212.783 189.054 212.377 188.783 212.106C188.512 211.835 188.111 211.7 187.579 211.7C187.112 211.7 186.697 211.803 186.333 212.008C185.978 212.213 185.698 212.498 185.493 212.862C185.297 213.226 185.199 213.651 185.199 214.136L185.017 212.442C185.26 211.91 185.628 211.49 186.123 211.182C186.627 210.874 187.196 210.72 187.831 210.72C188.578 210.72 189.175 210.935 189.623 211.364C190.08 211.784 190.309 212.339 190.309 213.03V218H189.189ZM192.46 218V207.92H193.58V218H192.46ZM195.823 218V210.86H196.943V218H195.823ZM195.739 209.236V207.92H197.027V209.236H195.739ZM199.186 218V210.86H200.236V212.54H200.306V218H199.186ZM204.296 218V213.324C204.296 212.783 204.161 212.377 203.89 212.106C203.62 211.835 203.218 211.7 202.686 211.7C202.22 211.7 201.804 211.803 201.44 212.008C201.086 212.213 200.806 212.498 200.6 212.862C200.404 213.226 200.306 213.651 200.306 214.136L200.124 212.442C200.367 211.91 200.736 211.49 201.23 211.182C201.734 210.874 202.304 210.72 202.938 210.72C203.685 210.72 204.282 210.935 204.73 211.364C205.188 211.784 205.416 212.339 205.416 213.03V218H204.296ZM210.493 218.14C209.812 218.14 209.21 217.981 208.687 217.664C208.165 217.337 207.754 216.894 207.455 216.334C207.157 215.774 207.007 215.13 207.007 214.402C207.007 213.674 207.152 213.035 207.441 212.484C207.74 211.924 208.155 211.49 208.687 211.182C209.219 210.874 209.831 210.72 210.521 210.72C211.184 210.72 211.758 210.865 212.243 211.154C212.738 211.443 213.116 211.849 213.377 212.372C213.648 212.895 213.783 213.511 213.783 214.22C213.783 214.313 213.779 214.402 213.769 214.486C213.769 214.57 213.76 214.663 213.741 214.766H207.847V213.828H213.055L212.691 214.346C212.691 213.487 212.5 212.829 212.117 212.372C211.744 211.905 211.212 211.672 210.521 211.672C209.812 211.672 209.238 211.919 208.799 212.414C208.37 212.899 208.155 213.557 208.155 214.388C208.155 215.237 208.37 215.919 208.799 216.432C209.238 216.936 209.821 217.188 210.549 217.188C211.007 217.188 211.408 217.09 211.753 216.894C212.099 216.689 212.351 216.399 212.509 216.026H213.573C213.34 216.679 212.948 217.197 212.397 217.58C211.856 217.953 211.221 218.14 210.493 218.14Z" fill="#262626"/>
</g>
<g filter="url(#filter5_d_5810_11541)">
<path d="M132.428 195.449L127.085 190.551C126.284 189.816 124.716 189.816 123.915 190.551L118.573 195.449C118.173 195.816 117.581 196 116.988 196L134.013 196C133.421 196 132.828 195.816 132.428 195.449Z" fill="white"/>
</g>
</g>
<defs>
<filter id="filter0_d_5810_11541" x="21.5" y="-8" width="208" height="208" filterUnits="userSpaceOnUse" color-interpolation-filters="sRGB">
<feFlood flood-opacity="0" result="BackgroundImageFix"/>
<feColorMatrix in="SourceAlpha" type="matrix" values="0 0 0 0 0 0 0 0 0 0 0 0 0 0 0 0 0 0 127 0" result="hardAlpha"/>
<feOffset dy="32"/>
<feGaussianBlur stdDeviation="20"/>
<feComposite in2="hardAlpha" operator="out"/>
<feColorMatrix type="matrix" values="0 0 0 0 0 0 0 0 0 0 0 0 0 0 0 0 0 0 0.04 0"/>
<feBlend mode="normal" in2="BackgroundImageFix" result="effect1_dropShadow_5810_11541"/>
<feBlend mode="normal" in="SourceGraphic" in2="effect1_dropShadow_5810_11541" result="shape"/>
</filter>
<filter id="filter1_i_5810_11541" x="61.5" y="28" width="128" height="87.9998" filterUnits="userSpaceOnUse" color-interpolation-filters="sRGB">
<feFlood flood-opacity="0" result="BackgroundImageFix"/>
<feBlend mode="normal" in="SourceGraphic" in2="BackgroundImageFix" result="shape"/>
<feColorMatrix in="SourceAlpha" type="matrix" values="0 0 0 0 0 0 0 0 0 0 0 0 0 0 0 0 0 0 127 0" result="hardAlpha"/>
<feOffset dy="-8"/>
<feGaussianBlur stdDeviation="4"/>
<feComposite in2="hardAlpha" operator="arithmetic" k2="-1" k3="1"/>
<feColorMatrix type="matrix" values="0 0 0 0 0.321569 0 0 0 0 0.686275 0 0 0 0 0.878431 0 0 0 0.32 0"/>
<feBlend mode="normal" in2="shape" result="effect1_innerShadow_5810_11541"/>
</filter>
<filter id="filter2_d_5810_11541" x="142.5" y="73" width="66" height="66" filterUnits="userSpaceOnUse" color-interpolation-filters="sRGB">
<feFlood flood-opacity="0" result="BackgroundImageFix"/>
<feColorMatrix in="SourceAlpha" type="matrix" values="0 0 0 0 0 0 0 0 0 0 0 0 0 0 0 0 0 0 127 0" result="hardAlpha"/>
<feOffset dy="4"/>
<feGaussianBlur stdDeviation="6"/>
<feComposite in2="hardAlpha" operator="out"/>
<feColorMatrix type="matrix" values="0 0 0 0 0 0 0 0 0 0 0 0 0 0 0 0 0 0 0.25 0"/>
<feBlend mode="normal" in2="BackgroundImageFix" result="effect1_dropShadow_5810_11541"/>
<feBlend mode="normal" in="SourceGraphic" in2="effect1_dropShadow_5810_11541" result="shape"/>
</filter>
<filter id="filter3_d_5810_11541" x="23" y="189" width="205" height="41" filterUnits="userSpaceOnUse" color-interpolation-filters="sRGB">
<feFlood flood-opacity="0" result="BackgroundImageFix"/>
<feColorMatrix in="SourceAlpha" type="matrix" values="0 0 0 0 0 0 0 0 0 0 0 0 0 0 0 0 0 0 127 0" result="hardAlpha"/>
<feOffset/>
<feGaussianBlur stdDeviation="0.5"/>
<feComposite in2="hardAlpha" operator="out"/>
<feColorMatrix type="matrix" values="0 0 0 0 0 0 0 0 0 0 0 0 0 0 0 0 0 0 0.16 0"/>
<feBlend mode="normal" in2="BackgroundImageFix" result="effect1_dropShadow_5810_11541"/>
<feBlend mode="normal" in="SourceGraphic" in2="effect1_dropShadow_5810_11541" result="shape"/>
</filter>
<filter id="filter4_d_5810_11541" x="0" y="184" width="251" height="81" filterUnits="userSpaceOnUse" color-interpolation-filters="sRGB">
<feFlood flood-opacity="0" result="BackgroundImageFix"/>
<feColorMatrix in="SourceAlpha" type="matrix" values="0 0 0 0 0 0 0 0 0 0 0 0 0 0 0 0 0 0 127 0" result="hardAlpha"/>
<feOffset dy="12"/>
<feGaussianBlur stdDeviation="12"/>
<feComposite in2="hardAlpha" operator="out"/>
<feColorMatrix type="matrix" values="0 0 0 0 0 0 0 0 0 0 0 0 0 0 0 0 0 0 0.12 0"/>
<feBlend mode="normal" in2="BackgroundImageFix" result="effect1_dropShadow_5810_11541"/>
<feBlend mode="normal" in="SourceGraphic" in2="effect1_dropShadow_5810_11541" result="shape"/>
</filter>
<filter id="filter5_d_5810_11541" x="92.9883" y="174" width="65.0254" height="54" filterUnits="userSpaceOnUse" color-interpolation-filters="sRGB">
<feFlood flood-opacity="0" result="BackgroundImageFix"/>
<feColorMatrix in="SourceAlpha" type="matrix" values="0 0 0 0 0 0 0 0 0 0 0 0 0 0 0 0 0 0 127 0" result="hardAlpha"/>
<feOffset dy="8"/>
<feGaussianBlur stdDeviation="12"/>
<feComposite in2="hardAlpha" operator="out"/>
<feColorMatrix type="matrix" values="0 0 0 0 0 0 0 0 0 0 0 0 0 0 0 0 0 0 0.12 0"/>
<feBlend mode="normal" in2="BackgroundImageFix" result="effect1_dropShadow_5810_11541"/>
<feBlend mode="normal" in="SourceGraphic" in2="effect1_dropShadow_5810_11541" result="shape"/>
</filter>
<linearGradient id="paint0_linear_5810_11541" x1="125.499" y1="28" x2="125.499" y2="52" gradientUnits="userSpaceOnUse">
<stop stop-color="#52AFE0"/>
<stop offset="1" stop-color="#00529E" stop-opacity="0.1"/>
</linearGradient>
<radialGradient id="paint1_radial_5810_11541" cx="0" cy="0" r="1" gradientUnits="userSpaceOnUse" gradientTransform="translate(125.5 52) rotate(90) scale(48 76.8001)">
<stop stop-color="white"/>
<stop offset="1" stop-color="white" stop-opacity="0"/>
</radialGradient>
<clipPath id="clip0_5810_11541">
<rect width="31.4644" height="30" fill="white" transform="translate(178.768 136)"/>
</clipPath>
</defs>
</svg>
