<svg width="290" height="265" viewBox="0 0 290 265" fill="none" xmlns="http://www.w3.org/2000/svg">
<g filter="url(#filter0_d_5810_11567)">
<path d="M81 20C81 13.3726 86.3726 8 93 8H112.999C126.473 8 128.157 20 144.999 20H197C203.627 20 209 25.3726 209 32V104C209 110.627 203.627 116 197 116H93C86.3726 116 81 110.627 81 104V20Z" fill="#52AFE0"/>
<path d="M81 20C81 13.3726 86.3726 8 93 8H112.999C126.473 8 128.157 20 144.999 20H197C203.627 20 209 25.3726 209 32V104C209 110.627 203.627 116 197 116H93C86.3726 116 81 110.627 81 104V20Z" fill="url(#paint0_linear_5810_11567)" fill-opacity="0.2"/>
<g filter="url(#filter1_i_5810_11567)">
<path d="M81 104V48C81 41.3726 86.3726 36 93 36L197 36C203.627 36 209 41.3726 209 48V104C209 110.627 203.627 116 197 116H93C86.3726 116 81 110.627 81 104Z" fill="#73D0FA"/>
<path d="M81 104V48C81 41.3726 86.3726 36 93 36L197 36C203.627 36 209 41.3726 209 48V104C209 110.627 203.627 116 197 116H93C86.3726 116 81 110.627 81 104Z" fill="url(#paint1_radial_5810_11567)" fill-opacity="0.16"/>
</g>
</g>
<rect x="60.2676" y="139" width="128" height="24" rx="6" fill="#48484B"/>
<g clip-path="url(#clip0_5810_11567)">
<path d="M217.327 156.547V158.562H223.585C227.427 158.562 229.73 156.247 229.73 153.218C229.73 150.69 228.216 148.612 225.775 147.624C225.8 142.042 221.783 138.012 216.664 138.012C213.272 138.012 210.856 139.826 209.354 142.017C206.513 141.253 202.921 143.456 202.859 146.973C200.03 147.411 198.266 149.726 198.266 152.68C198.266 155.934 200.706 158.562 204.811 158.562H210.781V156.547H204.799C201.833 156.547 200.281 154.833 200.281 152.68C200.281 150.29 201.795 148.512 204.448 148.512C204.624 148.512 204.686 148.412 204.686 148.25C204.686 144.407 207.452 143.343 210.03 144.094C210.181 144.144 210.268 144.119 210.343 143.982C211.557 141.816 213.422 140.027 216.664 140.027C220.769 140.027 223.61 143.281 223.823 147.01C223.86 147.574 223.823 148.25 223.772 148.838C223.76 149 223.823 149.101 223.973 149.126C226.251 149.626 227.715 151.053 227.715 153.218C227.715 155.146 226.313 156.547 223.572 156.547H217.327ZM214.06 165.997C214.311 165.997 214.511 165.897 214.774 165.659L219.004 161.704C219.204 161.529 219.304 161.316 219.304 161.04C219.304 160.54 218.904 160.164 218.391 160.164C218.153 160.164 217.903 160.277 217.715 160.465L215.813 162.367L214.974 163.243L215.049 161.378V150.64C215.049 150.114 214.598 149.664 214.06 149.664C213.522 149.664 213.059 150.114 213.059 150.64V161.378L213.134 163.256L212.296 162.367L210.393 160.465C210.206 160.277 209.943 160.164 209.705 160.164C209.179 160.164 208.804 160.54 208.804 161.04C208.804 161.316 208.904 161.529 209.104 161.704L213.334 165.659C213.597 165.897 213.797 165.997 214.06 165.997Z" fill="white" fill-opacity="0.85"/>
</g>
<g filter="url(#filter2_d_5810_11567)">
<path fill-rule="evenodd" clip-rule="evenodd" d="M209.966 112C211.944 109.04 213 105.56 213 102C212.995 97.2277 211.097 92.6524 207.722 89.2779C204.348 85.9034 199.772 84.0053 195 84C191.44 84 187.96 85.0557 185 87.0335C182.04 89.0114 179.733 91.8226 178.37 95.1117C177.008 98.4008 176.651 102.02 177.346 105.512C178.04 109.003 179.755 112.211 182.272 114.728C184.789 117.245 187.997 118.96 191.488 119.654C194.98 120.349 198.599 119.992 201.888 118.63C205.177 117.267 207.989 114.96 209.966 112ZM203.517 97.2347C203.416 96.9916 203.268 96.7708 203.082 96.585C202.896 96.3987 202.676 96.2508 202.433 96.1497C202.191 96.0487 201.931 95.9964 201.668 95.9959C201.405 95.9955 201.145 96.0468 200.902 96.147C200.659 96.2472 200.438 96.3944 200.252 96.58L192.333 104.5L189.748 101.918C189.562 101.732 189.341 101.585 189.098 101.484C188.855 101.383 188.595 101.332 188.332 101.332C188.069 101.332 187.808 101.383 187.565 101.484C187.322 101.585 187.101 101.732 186.915 101.918C186.729 102.104 186.581 102.325 186.481 102.568C186.38 102.811 186.328 103.072 186.328 103.335C186.328 103.598 186.38 103.859 186.481 104.102C186.581 104.345 186.729 104.566 186.915 104.752L190.915 108.752C191.101 108.938 191.322 109.086 191.565 109.187C191.808 109.288 192.068 109.34 192.332 109.34C192.595 109.34 192.856 109.288 193.099 109.187C193.342 109.086 193.563 108.938 193.748 108.752L203.082 99.4183C203.268 99.2325 203.416 99.0117 203.517 98.7686C203.618 98.5255 203.67 98.2649 203.67 98.0017C203.67 97.7384 203.618 97.4778 203.517 97.2347Z" fill="#34CB5A"/>
<path d="M203.082 96.585C203.268 96.7708 203.416 96.9916 203.517 97.2347C203.618 97.4778 203.67 97.7384 203.67 98.0017C203.67 98.2649 203.618 98.5255 203.517 98.7686C203.416 99.0117 203.268 99.2325 203.082 99.4183L193.748 108.752C193.563 108.938 193.342 109.086 193.099 109.187C192.856 109.288 192.595 109.34 192.332 109.34C192.068 109.34 191.808 109.288 191.565 109.187C191.322 109.086 191.101 108.938 190.915 108.752L186.915 104.752C186.729 104.566 186.581 104.345 186.481 104.102C186.38 103.859 186.328 103.598 186.328 103.335C186.328 103.072 186.38 102.811 186.481 102.568C186.581 102.325 186.729 102.104 186.915 101.918C187.101 101.732 187.322 101.585 187.565 101.484C187.808 101.383 188.069 101.332 188.332 101.332C188.595 101.332 188.855 101.383 189.098 101.484C189.341 101.585 189.562 101.732 189.748 101.918L192.333 104.5L200.252 96.58C200.438 96.3944 200.659 96.2472 200.902 96.147C201.145 96.0468 201.405 95.9955 201.668 95.9959C201.931 95.9964 202.191 96.0487 202.433 96.1497C202.676 96.2508 202.896 96.3987 203.082 96.585Z" fill="white"/>
<path d="M214.5 102C214.5 105.857 213.357 109.627 211.214 112.834C209.071 116.041 206.025 118.54 202.462 120.016C198.899 121.491 194.978 121.877 191.195 121.125C187.413 120.373 183.938 118.516 181.211 115.789C178.484 113.062 176.627 109.587 175.875 105.805C175.123 102.022 175.509 98.1012 176.984 94.5381C178.46 90.975 180.959 87.9288 184.166 85.7861C187.373 83.6434 191.143 82.5 195 82.5H195.002L195.485 82.5068C200.479 82.636 205.242 84.6756 208.783 88.2168C212.439 91.8721 214.494 96.8286 214.5 101.998V102Z" stroke="white" stroke-width="3"/>
</g>
<g filter="url(#filter3_d_5810_11567)">
<g filter="url(#filter4_d_5810_11567)">
<rect x="24" y="196" width="242" height="33" rx="6" fill="white" shape-rendering="crispEdges"/>
<path d="M37.89 218V216.992H40.592C41.432 216.992 42.1553 216.824 42.762 216.488C43.3687 216.143 43.8353 215.662 44.162 215.046C44.4887 214.43 44.652 213.716 44.652 212.904C44.652 212.101 44.4887 211.401 44.162 210.804C43.8353 210.207 43.3687 209.745 42.762 209.418C42.1647 209.091 41.4413 208.928 40.592 208.928H37.89V207.92H40.592C41.6467 207.92 42.566 208.13 43.35 208.55C44.134 208.961 44.7407 209.544 45.17 210.3C45.6087 211.047 45.828 211.924 45.828 212.932C45.828 213.94 45.6087 214.827 45.17 215.592C44.7313 216.348 44.12 216.941 43.336 217.37C42.5613 217.79 41.6513 218 40.606 218H37.89ZM37.204 218V207.92H38.352V218H37.204ZM47.6473 218V210.86H48.7673V218H47.6473ZM47.5633 209.236V207.92H48.8513V209.236H47.5633ZM53.4326 218.14C52.5553 218.14 51.8553 217.939 51.3326 217.538C50.81 217.127 50.5113 216.549 50.4366 215.802H51.5146C51.58 216.259 51.7806 216.609 52.1166 216.852C52.4526 217.095 52.9006 217.216 53.4606 217.216C53.9553 217.216 54.3426 217.123 54.6226 216.936C54.9026 216.749 55.0426 216.483 55.0426 216.138C55.0426 215.895 54.9633 215.685 54.8046 215.508C54.646 215.321 54.3286 215.167 53.8526 215.046L52.7046 214.752C52.0513 214.584 51.5613 214.327 51.2346 213.982C50.908 213.627 50.7446 213.207 50.7446 212.722C50.7446 212.106 50.9733 211.621 51.4306 211.266C51.888 210.902 52.5086 210.72 53.2926 210.72C54.0673 210.72 54.6973 210.907 55.1826 211.28C55.668 211.653 55.9433 212.171 56.0086 212.834H54.9306C54.8653 212.451 54.688 212.157 54.3986 211.952C54.1093 211.747 53.7266 211.644 53.2506 211.644C52.7933 211.644 52.4386 211.733 52.1866 211.91C51.9346 212.078 51.8086 212.321 51.8086 212.638C51.8086 212.881 51.8973 213.091 52.0746 213.268C52.2613 213.445 52.5693 213.595 52.9986 213.716L54.1186 214.024C54.7813 214.201 55.2806 214.472 55.6166 214.836C55.9526 215.2 56.1206 215.639 56.1206 216.152C56.1206 216.777 55.8826 217.267 55.4066 217.622C54.9306 217.967 54.2726 218.14 53.4326 218.14ZM61.1558 218.126C60.4838 218.126 59.9191 217.963 59.4618 217.636C59.0045 217.309 58.6918 216.847 58.5238 216.25L58.7478 216.222V220.87H57.6278V210.86H58.6778V212.526L58.5238 212.484C58.7011 211.933 59.0371 211.504 59.5318 211.196C60.0265 210.879 60.6005 210.72 61.2538 210.72C61.8885 210.72 62.4391 210.874 62.9058 211.182C63.3818 211.49 63.7505 211.919 64.0118 212.47C64.2731 213.021 64.4038 213.665 64.4038 214.402C64.4038 215.149 64.2685 215.802 63.9978 216.362C63.7271 216.922 63.3491 217.356 62.8638 217.664C62.3785 217.972 61.8091 218.126 61.1558 218.126ZM60.9878 217.146C61.6971 217.146 62.2525 216.903 62.6538 216.418C63.0551 215.923 63.2558 215.251 63.2558 214.402C63.2558 213.562 63.0551 212.904 62.6538 212.428C62.2525 211.943 61.6971 211.7 60.9878 211.7C60.2785 211.7 59.7185 211.947 59.3078 212.442C58.8971 212.927 58.6918 213.595 58.6918 214.444C58.6918 215.275 58.8971 215.933 59.3078 216.418C59.7185 216.903 60.2785 217.146 60.9878 217.146ZM69.086 218.14C68.386 218.14 67.77 217.977 67.238 217.65C66.706 217.323 66.2907 216.88 65.992 216.32C65.7027 215.751 65.558 215.111 65.558 214.402C65.558 213.683 65.7074 213.049 66.006 212.498C66.3047 211.947 66.7154 211.513 67.238 211.196C67.77 210.879 68.386 210.72 69.086 210.72C69.7954 210.72 70.4114 210.879 70.934 211.196C71.466 211.513 71.8767 211.947 72.166 212.498C72.4647 213.049 72.614 213.683 72.614 214.402C72.614 215.111 72.4647 215.751 72.166 216.32C71.8767 216.88 71.466 217.323 70.934 217.65C70.4114 217.977 69.7954 218.14 69.086 218.14ZM69.086 217.188C69.5714 217.188 69.9914 217.071 70.346 216.838C70.7007 216.595 70.976 216.264 71.172 215.844C71.368 215.424 71.466 214.939 71.466 214.388C71.466 213.567 71.2467 212.909 70.808 212.414C70.3787 211.919 69.8047 211.672 69.086 211.672C68.3767 211.672 67.8027 211.919 67.364 212.414C66.9254 212.909 66.706 213.567 66.706 214.388C66.706 214.939 66.804 215.424 67 215.844C67.196 216.264 67.4714 216.595 67.826 216.838C68.19 217.071 68.61 217.188 69.086 217.188ZM74.2938 218V210.86H75.3438V212.54H75.4138V218H74.2938ZM79.4038 218V213.324C79.4038 212.783 79.2685 212.377 78.9978 212.106C78.7272 211.835 78.3258 211.7 77.7938 211.7C77.3272 211.7 76.9118 211.803 76.5478 212.008C76.1932 212.213 75.9132 212.498 75.7078 212.862C75.5118 213.226 75.4138 213.651 75.4138 214.136L75.2318 212.442C75.4745 211.91 75.8432 211.49 76.3378 211.182C76.8418 210.874 77.4112 210.72 78.0458 210.72C78.7925 210.72 79.3898 210.935 79.8378 211.364C80.2952 211.784 80.5238 212.339 80.5238 213.03V218H79.4038ZM82.6747 218V210.86H83.7947V218H82.6747ZM82.5907 209.236V207.92H83.8787V209.236H82.5907ZM89.566 218.126C88.894 218.126 88.3293 217.963 87.872 217.636C87.4146 217.309 87.102 216.847 86.934 216.25L87.088 216.222V218H86.038V207.92H87.158V212.526L87.004 212.484C87.1813 211.933 87.5033 211.504 87.97 211.196C88.446 210.879 89.0106 210.72 89.664 210.72C90.2986 210.72 90.8493 210.874 91.316 211.182C91.792 211.49 92.1606 211.919 92.422 212.47C92.6833 213.021 92.814 213.665 92.814 214.402C92.814 215.149 92.6786 215.802 92.408 216.362C92.1373 216.922 91.7593 217.356 91.274 217.664C90.7886 217.972 90.2193 218.126 89.566 218.126ZM89.398 217.146C90.1073 217.146 90.6626 216.903 91.064 216.418C91.4653 215.923 91.666 215.251 91.666 214.402C91.666 213.562 91.4653 212.904 91.064 212.428C90.6626 211.943 90.1073 211.7 89.398 211.7C88.6886 211.7 88.1286 211.947 87.718 212.442C87.3073 212.927 87.102 213.595 87.102 214.444C87.102 215.275 87.3073 215.933 87.718 216.418C88.1286 216.903 88.6886 217.146 89.398 217.146ZM94.5282 218V207.92H95.6482V218H94.5282ZM100.817 218.14C100.136 218.14 99.5342 217.981 99.0115 217.664C98.4888 217.337 98.0782 216.894 97.7795 216.334C97.4808 215.774 97.3315 215.13 97.3315 214.402C97.3315 213.674 97.4762 213.035 97.7655 212.484C98.0642 211.924 98.4795 211.49 99.0115 211.182C99.5435 210.874 100.155 210.72 100.845 210.72C101.508 210.72 102.082 210.865 102.567 211.154C103.062 211.443 103.44 211.849 103.701 212.372C103.972 212.895 104.107 213.511 104.107 214.22C104.107 214.313 104.103 214.402 104.093 214.486C104.093 214.57 104.084 214.663 104.065 214.766H98.1715V213.828H103.379L103.015 214.346C103.015 213.487 102.824 212.829 102.441 212.372C102.068 211.905 101.536 211.672 100.845 211.672C100.136 211.672 99.5622 211.919 99.1235 212.414C98.6942 212.899 98.4795 213.557 98.4795 214.388C98.4795 215.237 98.6942 215.919 99.1235 216.432C99.5622 216.936 100.145 217.188 100.873 217.188C101.331 217.188 101.732 217.09 102.077 216.894C102.423 216.689 102.675 216.399 102.833 216.026H103.897C103.664 216.679 103.272 217.197 102.721 217.58C102.18 217.953 101.545 218.14 100.817 218.14ZM108.597 218V210.86H109.647V212.54H109.717V218H108.597ZM113.413 218V213.268C113.413 212.727 113.291 212.33 113.049 212.078C112.806 211.826 112.456 211.7 111.999 211.7C111.569 211.7 111.182 211.803 110.837 212.008C110.491 212.213 110.216 212.498 110.011 212.862C109.815 213.226 109.717 213.651 109.717 214.136L109.535 212.442C109.777 211.91 110.141 211.49 110.627 211.182C111.112 210.874 111.639 210.72 112.209 210.72C112.899 210.72 113.459 210.925 113.889 211.336C114.318 211.737 114.533 212.283 114.533 212.974V218H113.413ZM118.229 218V213.268C118.229 212.727 118.107 212.33 117.865 212.078C117.622 211.826 117.272 211.7 116.815 211.7C116.385 211.7 115.998 211.803 115.653 212.008C115.307 212.213 115.032 212.498 114.827 212.862C114.631 213.226 114.533 213.651 114.533 214.136L114.253 212.442C114.495 211.91 114.869 211.49 115.373 211.182C115.877 210.874 116.418 210.72 116.997 210.72C117.687 210.72 118.252 210.925 118.691 211.336C119.129 211.737 119.349 212.283 119.349 212.974V218H118.229ZM121.503 218V210.86H122.623V218H121.503ZM121.419 209.236V207.92H122.707V209.236H121.419ZM127.765 218.14C127.083 218.14 126.481 217.981 125.959 217.664C125.436 217.337 125.025 216.894 124.727 216.334C124.428 215.774 124.279 215.13 124.279 214.402C124.279 213.674 124.423 213.035 124.713 212.484C125.011 211.924 125.427 211.49 125.959 211.182C126.491 210.874 127.102 210.72 127.793 210.72C128.455 210.72 129.029 210.865 129.515 211.154C130.009 211.443 130.387 211.849 130.649 212.372C130.919 212.895 131.055 213.511 131.055 214.22C131.055 214.313 131.05 214.402 131.041 214.486C131.041 214.57 131.031 214.663 131.013 214.766H125.119V213.828H130.327L129.963 214.346C129.963 213.487 129.771 212.829 129.389 212.372C129.015 211.905 128.483 211.672 127.793 211.672C127.083 211.672 126.509 211.919 126.071 212.414C125.641 212.899 125.427 213.557 125.427 214.388C125.427 215.237 125.641 215.919 126.071 216.432C126.509 216.936 127.093 217.188 127.821 217.188C128.278 217.188 128.679 217.09 129.025 216.894C129.37 216.689 129.622 216.399 129.781 216.026H130.845C130.611 216.679 130.219 217.197 129.669 217.58C129.127 217.953 128.493 218.14 127.765 218.14ZM132.741 218V210.86H133.791V212.54H133.861V218H132.741ZM137.851 218V213.324C137.851 212.783 137.716 212.377 137.445 212.106C137.174 211.835 136.773 211.7 136.241 211.7C135.774 211.7 135.359 211.803 134.995 212.008C134.64 212.213 134.36 212.498 134.155 212.862C133.959 213.226 133.861 213.651 133.861 214.136L133.679 212.442C133.922 211.91 134.29 211.49 134.785 211.182C135.289 210.874 135.858 210.72 136.493 210.72C137.24 210.72 137.837 210.935 138.285 211.364C138.742 211.784 138.971 212.339 138.971 213.03V218H137.851ZM143.787 218.126C142.993 218.126 142.415 217.949 142.051 217.594C141.696 217.23 141.519 216.707 141.519 216.026V209.194L142.639 208.774V216.012C142.639 216.413 142.741 216.707 142.947 216.894C143.152 217.081 143.488 217.174 143.955 217.174C144.141 217.174 144.3 217.165 144.431 217.146C144.571 217.118 144.683 217.085 144.767 217.048V218C144.673 218.037 144.538 218.065 144.361 218.084C144.193 218.112 144.001 218.126 143.787 218.126ZM140.049 211.812V210.86H144.767V211.812H140.049ZM146.208 218V210.86H147.258V212.68H147.328V218H146.208ZM147.328 214.276L147.146 212.582C147.314 211.975 147.613 211.513 148.042 211.196C148.471 210.879 148.966 210.72 149.526 210.72C149.759 210.72 149.918 210.739 150.002 210.776V211.854C149.955 211.835 149.89 211.826 149.806 211.826C149.722 211.817 149.619 211.812 149.498 211.812C148.789 211.812 148.247 212.027 147.874 212.456C147.51 212.876 147.328 213.483 147.328 214.276ZM155.635 218C155.597 217.841 155.569 217.659 155.551 217.454C155.541 217.249 155.537 216.987 155.537 216.67H155.467V213.254C155.467 212.713 155.341 212.316 155.089 212.064C154.846 211.803 154.449 211.672 153.899 211.672C153.357 211.672 152.923 211.784 152.597 212.008C152.279 212.223 152.102 212.531 152.065 212.932H150.987C151.033 212.241 151.323 211.7 151.855 211.308C152.387 210.916 153.082 210.72 153.941 210.72C154.827 210.72 155.485 210.93 155.915 211.35C156.344 211.77 156.559 212.4 156.559 213.24V216.67C156.559 216.875 156.573 217.09 156.601 217.314C156.629 217.529 156.666 217.757 156.713 218H155.635ZM153.185 218.14C152.447 218.14 151.859 217.963 151.421 217.608C150.991 217.244 150.777 216.749 150.777 216.124C150.777 215.499 150.991 215.013 151.421 214.668C151.85 214.323 152.475 214.08 153.297 213.94L155.789 213.52V214.444L153.465 214.808C152.942 214.892 152.545 215.032 152.275 215.228C152.004 215.424 151.869 215.709 151.869 216.082C151.869 216.446 151.99 216.721 152.233 216.908C152.485 217.095 152.853 217.188 153.339 217.188C153.964 217.188 154.473 217.048 154.865 216.768C155.266 216.479 155.467 216.105 155.467 215.648L155.649 216.642C155.499 217.118 155.205 217.487 154.767 217.748C154.337 218.009 153.81 218.14 153.185 218.14ZM161.112 218.14C160.235 218.14 159.535 217.939 159.012 217.538C158.49 217.127 158.191 216.549 158.116 215.802H159.194C159.26 216.259 159.46 216.609 159.796 216.852C160.132 217.095 160.58 217.216 161.14 217.216C161.635 217.216 162.022 217.123 162.302 216.936C162.582 216.749 162.722 216.483 162.722 216.138C162.722 215.895 162.643 215.685 162.484 215.508C162.326 215.321 162.008 215.167 161.532 215.046L160.384 214.752C159.731 214.584 159.241 214.327 158.914 213.982C158.588 213.627 158.424 213.207 158.424 212.722C158.424 212.106 158.653 211.621 159.11 211.266C159.568 210.902 160.188 210.72 160.972 210.72C161.747 210.72 162.377 210.907 162.862 211.28C163.348 211.653 163.623 212.171 163.688 212.834H162.61C162.545 212.451 162.368 212.157 162.078 211.952C161.789 211.747 161.406 211.644 160.93 211.644C160.473 211.644 160.118 211.733 159.866 211.91C159.614 212.078 159.488 212.321 159.488 212.638C159.488 212.881 159.577 213.091 159.754 213.268C159.941 213.445 160.249 213.595 160.678 213.716L161.798 214.024C162.461 214.201 162.96 214.472 163.296 214.836C163.632 215.2 163.8 215.639 163.8 216.152C163.8 216.777 163.562 217.267 163.086 217.622C162.61 217.967 161.952 218.14 161.112 218.14ZM171.036 218.14C170.355 218.14 169.753 217.981 169.23 217.664C168.708 217.337 168.297 216.894 167.998 216.334C167.7 215.774 167.55 215.13 167.55 214.402C167.55 213.674 167.695 213.035 167.984 212.484C168.283 211.924 168.698 211.49 169.23 211.182C169.762 210.874 170.374 210.72 171.064 210.72C171.727 210.72 172.301 210.865 172.786 211.154C173.281 211.443 173.659 211.849 173.92 212.372C174.191 212.895 174.326 213.511 174.326 214.22C174.326 214.313 174.322 214.402 174.312 214.486C174.312 214.57 174.303 214.663 174.284 214.766H168.39V213.828H173.598L173.234 214.346C173.234 213.487 173.043 212.829 172.66 212.372C172.287 211.905 171.755 211.672 171.064 211.672C170.355 211.672 169.781 211.919 169.342 212.414C168.913 212.899 168.698 213.557 168.698 214.388C168.698 215.237 168.913 215.919 169.342 216.432C169.781 216.936 170.364 217.188 171.092 217.188C171.55 217.188 171.951 217.09 172.296 216.894C172.642 216.689 172.894 216.399 173.052 216.026H174.116C173.883 216.679 173.491 217.197 172.94 217.58C172.399 217.953 171.764 218.14 171.036 218.14ZM178.435 218.14C177.557 218.14 176.857 217.939 176.335 217.538C175.812 217.127 175.513 216.549 175.439 215.802H176.517C176.582 216.259 176.783 216.609 177.119 216.852C177.455 217.095 177.903 217.216 178.463 217.216C178.957 217.216 179.345 217.123 179.625 216.936C179.905 216.749 180.045 216.483 180.045 216.138C180.045 215.895 179.965 215.685 179.807 215.508C179.648 215.321 179.331 215.167 178.855 215.046L177.707 214.752C177.053 214.584 176.563 214.327 176.237 213.982C175.91 213.627 175.747 213.207 175.747 212.722C175.747 212.106 175.975 211.621 176.433 211.266C176.89 210.902 177.511 210.72 178.295 210.72C179.069 210.72 179.699 210.907 180.185 211.28C180.67 211.653 180.945 212.171 181.011 212.834H179.933C179.867 212.451 179.69 212.157 179.401 211.952C179.111 211.747 178.729 211.644 178.253 211.644C177.795 211.644 177.441 211.733 177.189 211.91C176.937 212.078 176.811 212.321 176.811 212.638C176.811 212.881 176.899 213.091 177.077 213.268C177.263 213.445 177.571 213.595 178.001 213.716L179.121 214.024C179.783 214.201 180.283 214.472 180.619 214.836C180.955 215.2 181.123 215.639 181.123 216.152C181.123 216.777 180.885 217.267 180.409 217.622C179.933 217.967 179.275 218.14 178.435 218.14ZM185.486 218.126C184.692 218.126 184.114 217.949 183.75 217.594C183.395 217.23 183.218 216.707 183.218 216.026V209.194L184.338 208.774V216.012C184.338 216.413 184.44 216.707 184.646 216.894C184.851 217.081 185.187 217.174 185.654 217.174C185.84 217.174 185.999 217.165 186.13 217.146C186.27 217.118 186.382 217.085 186.466 217.048V218C186.372 218.037 186.237 218.065 186.06 218.084C185.892 218.112 185.7 218.126 185.486 218.126ZM181.748 211.812V210.86H186.466V211.812H181.748ZM190.669 218.14C189.988 218.14 189.386 217.981 188.863 217.664C188.34 217.337 187.93 216.894 187.631 216.334C187.332 215.774 187.183 215.13 187.183 214.402C187.183 213.674 187.328 213.035 187.617 212.484C187.916 211.924 188.331 211.49 188.863 211.182C189.395 210.874 190.006 210.72 190.697 210.72C191.36 210.72 191.934 210.865 192.419 211.154C192.914 211.443 193.292 211.849 193.553 212.372C193.824 212.895 193.959 213.511 193.959 214.22C193.959 214.313 193.954 214.402 193.945 214.486C193.945 214.57 193.936 214.663 193.917 214.766H188.023V213.828H193.231L192.867 214.346C192.867 213.487 192.676 212.829 192.293 212.372C191.92 211.905 191.388 211.672 190.697 211.672C189.988 211.672 189.414 211.919 188.975 212.414C188.546 212.899 188.331 213.557 188.331 214.388C188.331 215.237 188.546 215.919 188.975 216.432C189.414 216.936 189.997 217.188 190.725 217.188C191.182 217.188 191.584 217.09 191.929 216.894C192.274 216.689 192.526 216.399 192.685 216.026H193.749C193.516 216.679 193.124 217.197 192.573 217.58C192.032 217.953 191.397 218.14 190.669 218.14ZM190.669 209.838H189.605L191.187 207.64H192.909L190.669 209.838ZM198.067 218.14C197.19 218.14 196.49 217.939 195.967 217.538C195.445 217.127 195.146 216.549 195.071 215.802H196.149C196.215 216.259 196.415 216.609 196.751 216.852C197.087 217.095 197.535 217.216 198.095 217.216C198.59 217.216 198.977 217.123 199.257 216.936C199.537 216.749 199.677 216.483 199.677 216.138C199.677 215.895 199.598 215.685 199.439 215.508C199.281 215.321 198.963 215.167 198.487 215.046L197.339 214.752C196.686 214.584 196.196 214.327 195.869 213.982C195.543 213.627 195.379 213.207 195.379 212.722C195.379 212.106 195.608 211.621 196.065 211.266C196.523 210.902 197.143 210.72 197.927 210.72C198.702 210.72 199.332 210.907 199.817 211.28C200.303 211.653 200.578 212.171 200.643 212.834H199.565C199.5 212.451 199.323 212.157 199.033 211.952C198.744 211.747 198.361 211.644 197.885 211.644C197.428 211.644 197.073 211.733 196.821 211.91C196.569 212.078 196.443 212.321 196.443 212.638C196.443 212.881 196.532 213.091 196.709 213.268C196.896 213.445 197.204 213.595 197.633 213.716L198.753 214.024C199.416 214.201 199.915 214.472 200.251 214.836C200.587 215.2 200.755 215.639 200.755 216.152C200.755 216.777 200.517 217.267 200.041 217.622C199.565 217.967 198.907 218.14 198.067 218.14ZM207.991 218.14C207.31 218.14 206.708 217.981 206.185 217.664C205.663 217.337 205.252 216.894 204.953 216.334C204.655 215.774 204.505 215.13 204.505 214.402C204.505 213.674 204.65 213.035 204.939 212.484C205.238 211.924 205.653 211.49 206.185 211.182C206.717 210.874 207.329 210.72 208.019 210.72C208.682 210.72 209.256 210.865 209.741 211.154C210.236 211.443 210.614 211.849 210.875 212.372C211.146 212.895 211.281 213.511 211.281 214.22C211.281 214.313 211.277 214.402 211.267 214.486C211.267 214.57 211.258 214.663 211.239 214.766H205.345V213.828H210.553L210.189 214.346C210.189 213.487 209.998 212.829 209.615 212.372C209.242 211.905 208.71 211.672 208.019 211.672C207.31 211.672 206.736 211.919 206.297 212.414C205.868 212.899 205.653 213.557 205.653 214.388C205.653 215.237 205.868 215.919 206.297 216.432C206.736 216.936 207.319 217.188 208.047 217.188C208.505 217.188 208.906 217.09 209.251 216.894C209.597 216.689 209.849 216.399 210.007 216.026H211.071C210.838 216.679 210.446 217.197 209.895 217.58C209.354 217.953 208.719 218.14 207.991 218.14ZM212.968 218V210.86H214.018V212.54H214.088V218H212.968ZM218.078 218V213.324C218.078 212.783 217.942 212.377 217.672 212.106C217.401 211.835 217 211.7 216.468 211.7C216.001 211.7 215.586 211.803 215.222 212.008C214.867 212.213 214.587 212.498 214.382 212.862C214.186 213.226 214.088 213.651 214.088 214.136L213.906 212.442C214.148 211.91 214.517 211.49 215.012 211.182C215.516 210.874 216.085 210.72 216.72 210.72C217.466 210.72 218.064 210.935 218.512 211.364C218.969 211.784 219.198 212.339 219.198 213.03V218H218.078ZM224.151 218V207.92H225.271V218H224.151ZM227.515 218V210.86H228.635V218H227.515ZM228.019 209.838H226.955L228.537 207.64H230.259L228.019 209.838ZM230.878 218V210.86H231.928V212.54H231.998V218H230.878ZM235.988 218V213.324C235.988 212.783 235.852 212.377 235.582 212.106C235.311 211.835 234.91 211.7 234.378 211.7C233.911 211.7 233.496 211.803 233.132 212.008C232.777 212.213 232.497 212.498 232.292 212.862C232.096 213.226 231.998 213.651 231.998 214.136L231.816 212.442C232.058 211.91 232.427 211.49 232.922 211.182C233.426 210.874 233.995 210.72 234.63 210.72C235.376 210.72 235.974 210.935 236.422 211.364C236.879 211.784 237.108 212.339 237.108 213.03V218H235.988ZM242.185 218.14C241.503 218.14 240.901 217.981 240.379 217.664C239.856 217.337 239.445 216.894 239.147 216.334C238.848 215.774 238.699 215.13 238.699 214.402C238.699 213.674 238.843 213.035 239.133 212.484C239.431 211.924 239.847 211.49 240.379 211.182C240.911 210.874 241.522 210.72 242.213 210.72C242.875 210.72 243.449 210.865 243.935 211.154C244.429 211.443 244.807 211.849 245.069 212.372C245.339 212.895 245.475 213.511 245.475 214.22C245.475 214.313 245.47 214.402 245.461 214.486C245.461 214.57 245.451 214.663 245.433 214.766H239.539V213.828H244.747L244.383 214.346C244.383 213.487 244.191 212.829 243.809 212.372C243.435 211.905 242.903 211.672 242.213 211.672C241.503 211.672 240.929 211.919 240.491 212.414C240.061 212.899 239.847 213.557 239.847 214.388C239.847 215.237 240.061 215.919 240.491 216.432C240.929 216.936 241.513 217.188 242.241 217.188C242.698 217.188 243.099 217.09 243.445 216.894C243.79 216.689 244.042 216.399 244.201 216.026H245.265C245.031 216.679 244.639 217.197 244.089 217.58C243.547 217.953 242.913 218.14 242.185 218.14ZM251.502 218C251.465 217.841 251.437 217.659 251.418 217.454C251.409 217.249 251.404 216.987 251.404 216.67H251.334V213.254C251.334 212.713 251.208 212.316 250.956 212.064C250.713 211.803 250.317 211.672 249.766 211.672C249.225 211.672 248.791 211.784 248.464 212.008C248.147 212.223 247.969 212.531 247.932 212.932H246.854C246.901 212.241 247.19 211.7 247.722 211.308C248.254 210.916 248.949 210.72 249.808 210.72C250.695 210.72 251.353 210.93 251.782 211.35C252.211 211.77 252.426 212.4 252.426 213.24V216.67C252.426 216.875 252.44 217.09 252.468 217.314C252.496 217.529 252.533 217.757 252.58 218H251.502ZM249.052 218.14C248.315 218.14 247.727 217.963 247.288 217.608C246.859 217.244 246.644 216.749 246.644 216.124C246.644 215.499 246.859 215.013 247.288 214.668C247.717 214.323 248.343 214.08 249.164 213.94L251.656 213.52V214.444L249.332 214.808C248.809 214.892 248.413 215.032 248.142 215.228C247.871 215.424 247.736 215.709 247.736 216.082C247.736 216.446 247.857 216.721 248.1 216.908C248.352 217.095 248.721 217.188 249.206 217.188C249.831 217.188 250.34 217.048 250.732 216.768C251.133 216.479 251.334 216.105 251.334 215.648L251.516 216.642C251.367 217.118 251.073 217.487 250.634 217.748C250.205 218.009 249.677 218.14 249.052 218.14Z" fill="#262626"/>
</g>
<g filter="url(#filter5_d_5810_11567)">
<path d="M151.928 195.449L146.585 190.551C145.784 189.816 144.216 189.816 143.415 190.551L138.073 195.449C137.673 195.816 137.081 196 136.488 196L153.513 196C152.921 196 152.328 195.816 151.928 195.449Z" fill="white"/>
</g>
</g>
<defs>
<filter id="filter0_d_5810_11567" x="41" y="-8" width="208" height="208" filterUnits="userSpaceOnUse" color-interpolation-filters="sRGB">
<feFlood flood-opacity="0" result="BackgroundImageFix"/>
<feColorMatrix in="SourceAlpha" type="matrix" values="0 0 0 0 0 0 0 0 0 0 0 0 0 0 0 0 0 0 127 0" result="hardAlpha"/>
<feOffset dy="32"/>
<feGaussianBlur stdDeviation="20"/>
<feComposite in2="hardAlpha" operator="out"/>
<feColorMatrix type="matrix" values="0 0 0 0 0 0 0 0 0 0 0 0 0 0 0 0 0 0 0.04 0"/>
<feBlend mode="normal" in2="BackgroundImageFix" result="effect1_dropShadow_5810_11567"/>
<feBlend mode="normal" in="SourceGraphic" in2="effect1_dropShadow_5810_11567" result="shape"/>
</filter>
<filter id="filter1_i_5810_11567" x="81" y="28" width="128" height="87.9998" filterUnits="userSpaceOnUse" color-interpolation-filters="sRGB">
<feFlood flood-opacity="0" result="BackgroundImageFix"/>
<feBlend mode="normal" in="SourceGraphic" in2="BackgroundImageFix" result="shape"/>
<feColorMatrix in="SourceAlpha" type="matrix" values="0 0 0 0 0 0 0 0 0 0 0 0 0 0 0 0 0 0 127 0" result="hardAlpha"/>
<feOffset dy="-8"/>
<feGaussianBlur stdDeviation="4"/>
<feComposite in2="hardAlpha" operator="arithmetic" k2="-1" k3="1"/>
<feColorMatrix type="matrix" values="0 0 0 0 0.321569 0 0 0 0 0.686275 0 0 0 0 0.878431 0 0 0 0.32 0"/>
<feBlend mode="normal" in2="shape" result="effect1_innerShadow_5810_11567"/>
</filter>
<filter id="filter2_d_5810_11567" x="162" y="73" width="66" height="66" filterUnits="userSpaceOnUse" color-interpolation-filters="sRGB">
<feFlood flood-opacity="0" result="BackgroundImageFix"/>
<feColorMatrix in="SourceAlpha" type="matrix" values="0 0 0 0 0 0 0 0 0 0 0 0 0 0 0 0 0 0 127 0" result="hardAlpha"/>
<feOffset dy="4"/>
<feGaussianBlur stdDeviation="6"/>
<feComposite in2="hardAlpha" operator="out"/>
<feColorMatrix type="matrix" values="0 0 0 0 0 0 0 0 0 0 0 0 0 0 0 0 0 0 0.25 0"/>
<feBlend mode="normal" in2="BackgroundImageFix" result="effect1_dropShadow_5810_11567"/>
<feBlend mode="normal" in="SourceGraphic" in2="effect1_dropShadow_5810_11567" result="shape"/>
</filter>
<filter id="filter3_d_5810_11567" x="23" y="189" width="244" height="41" filterUnits="userSpaceOnUse" color-interpolation-filters="sRGB">
<feFlood flood-opacity="0" result="BackgroundImageFix"/>
<feColorMatrix in="SourceAlpha" type="matrix" values="0 0 0 0 0 0 0 0 0 0 0 0 0 0 0 0 0 0 127 0" result="hardAlpha"/>
<feOffset/>
<feGaussianBlur stdDeviation="0.5"/>
<feComposite in2="hardAlpha" operator="out"/>
<feColorMatrix type="matrix" values="0 0 0 0 0 0 0 0 0 0 0 0 0 0 0 0 0 0 0.16 0"/>
<feBlend mode="normal" in2="BackgroundImageFix" result="effect1_dropShadow_5810_11567"/>
<feBlend mode="normal" in="SourceGraphic" in2="effect1_dropShadow_5810_11567" result="shape"/>
</filter>
<filter id="filter4_d_5810_11567" x="0" y="184" width="290" height="81" filterUnits="userSpaceOnUse" color-interpolation-filters="sRGB">
<feFlood flood-opacity="0" result="BackgroundImageFix"/>
<feColorMatrix in="SourceAlpha" type="matrix" values="0 0 0 0 0 0 0 0 0 0 0 0 0 0 0 0 0 0 127 0" result="hardAlpha"/>
<feOffset dy="12"/>
<feGaussianBlur stdDeviation="12"/>
<feComposite in2="hardAlpha" operator="out"/>
<feColorMatrix type="matrix" values="0 0 0 0 0 0 0 0 0 0 0 0 0 0 0 0 0 0 0.12 0"/>
<feBlend mode="normal" in2="BackgroundImageFix" result="effect1_dropShadow_5810_11567"/>
<feBlend mode="normal" in="SourceGraphic" in2="effect1_dropShadow_5810_11567" result="shape"/>
</filter>
<filter id="filter5_d_5810_11567" x="112.488" y="174" width="65.0254" height="54" filterUnits="userSpaceOnUse" color-interpolation-filters="sRGB">
<feFlood flood-opacity="0" result="BackgroundImageFix"/>
<feColorMatrix in="SourceAlpha" type="matrix" values="0 0 0 0 0 0 0 0 0 0 0 0 0 0 0 0 0 0 127 0" result="hardAlpha"/>
<feOffset dy="8"/>
<feGaussianBlur stdDeviation="12"/>
<feComposite in2="hardAlpha" operator="out"/>
<feColorMatrix type="matrix" values="0 0 0 0 0 0 0 0 0 0 0 0 0 0 0 0 0 0 0.12 0"/>
<feBlend mode="normal" in2="BackgroundImageFix" result="effect1_dropShadow_5810_11567"/>
<feBlend mode="normal" in="SourceGraphic" in2="effect1_dropShadow_5810_11567" result="shape"/>
</filter>
<linearGradient id="paint0_linear_5810_11567" x1="144.999" y1="28" x2="144.999" y2="52" gradientUnits="userSpaceOnUse">
<stop stop-color="#52AFE0"/>
<stop offset="1" stop-color="#00529E" stop-opacity="0.1"/>
</linearGradient>
<radialGradient id="paint1_radial_5810_11567" cx="0" cy="0" r="1" gradientUnits="userSpaceOnUse" gradientTransform="translate(145 52) rotate(90) scale(48 76.8001)">
<stop stop-color="white"/>
<stop offset="1" stop-color="white" stop-opacity="0"/>
</radialGradient>
<clipPath id="clip0_5810_11567">
<rect width="31.4644" height="30" fill="white" transform="translate(198.268 136)"/>
</clipPath>
</defs>
</svg>
