<svg width="268" height="282" viewBox="0 0 268 282" fill="none" xmlns="http://www.w3.org/2000/svg">
<g filter="url(#filter0_d_5810_11593)">
<path d="M70 20C70 13.3726 75.3726 8 82 8H101.999C115.473 8 117.157 20 133.999 20H186C192.627 20 198 25.3726 198 32V104C198 110.627 192.627 116 186 116H82C75.3726 116 70 110.627 70 104V20Z" fill="#52AFE0"/>
<path d="M70 20C70 13.3726 75.3726 8 82 8H101.999C115.473 8 117.157 20 133.999 20H186C192.627 20 198 25.3726 198 32V104C198 110.627 192.627 116 186 116H82C75.3726 116 70 110.627 70 104V20Z" fill="url(#paint0_linear_5810_11593)" fill-opacity="0.2"/>
<g filter="url(#filter1_i_5810_11593)">
<path d="M70 104V48C70 41.3726 75.3726 36 82 36L186 36C192.627 36 198 41.3726 198 48V104C198 110.627 192.627 116 186 116H82C75.3726 116 70 110.627 70 104Z" fill="#73D0FA"/>
<path d="M70 104V48C70 41.3726 75.3726 36 82 36L186 36C192.627 36 198 41.3726 198 48V104C198 110.627 192.627 116 186 116H82C75.3726 116 70 110.627 70 104Z" fill="url(#paint1_radial_5810_11593)" fill-opacity="0.16"/>
</g>
</g>
<rect x="49.2676" y="139" width="128" height="24" rx="6" fill="#48484B"/>
<g clip-path="url(#clip0_5810_11593)">
<path d="M206.327 156.547V158.562H212.585C216.427 158.562 218.73 156.247 218.73 153.218C218.73 150.69 217.216 148.612 214.775 147.624C214.8 142.042 210.783 138.012 205.664 138.012C202.272 138.012 199.856 139.826 198.354 142.017C195.513 141.253 191.921 143.456 191.859 146.973C189.03 147.411 187.266 149.726 187.266 152.68C187.266 155.934 189.706 158.562 193.811 158.562H199.781V156.547H193.799C190.833 156.547 189.281 154.833 189.281 152.68C189.281 150.29 190.795 148.512 193.448 148.512C193.624 148.512 193.686 148.412 193.686 148.25C193.686 144.407 196.452 143.343 199.03 144.094C199.181 144.144 199.268 144.119 199.343 143.982C200.557 141.816 202.422 140.027 205.664 140.027C209.769 140.027 212.61 143.281 212.823 147.01C212.86 147.574 212.823 148.25 212.772 148.838C212.76 149 212.823 149.101 212.973 149.126C215.251 149.626 216.715 151.053 216.715 153.218C216.715 155.146 215.313 156.547 212.572 156.547H206.327ZM203.06 165.997C203.311 165.997 203.511 165.897 203.774 165.659L208.004 161.704C208.204 161.529 208.304 161.316 208.304 161.04C208.304 160.54 207.904 160.164 207.391 160.164C207.153 160.164 206.903 160.277 206.715 160.465L204.813 162.367L203.974 163.243L204.049 161.378V150.64C204.049 150.114 203.598 149.664 203.06 149.664C202.522 149.664 202.059 150.114 202.059 150.64V161.378L202.134 163.256L201.296 162.367L199.393 160.465C199.206 160.277 198.943 160.164 198.705 160.164C198.179 160.164 197.804 160.54 197.804 161.04C197.804 161.316 197.904 161.529 198.104 161.704L202.334 165.659C202.597 165.897 202.797 165.997 203.06 165.997Z" fill="white" fill-opacity="0.85"/>
</g>
<g filter="url(#filter2_d_5810_11593)">
<path fill-rule="evenodd" clip-rule="evenodd" d="M198.966 112C200.944 109.04 202 105.56 202 102C201.995 97.2277 200.097 92.6524 196.722 89.2779C193.348 85.9034 188.772 84.0053 184 84C180.44 84 176.96 85.0557 174 87.0335C171.04 89.0114 168.733 91.8226 167.37 95.1117C166.008 98.4008 165.651 102.02 166.346 105.512C167.04 109.003 168.755 112.211 171.272 114.728C173.789 117.245 176.997 118.96 180.488 119.654C183.98 120.349 187.599 119.992 190.888 118.63C194.177 117.267 196.989 114.96 198.966 112ZM192.517 97.2347C192.416 96.9916 192.268 96.7708 192.082 96.585C191.896 96.3987 191.676 96.2508 191.433 96.1497C191.191 96.0487 190.931 95.9964 190.668 95.9959C190.405 95.9955 190.145 96.0468 189.902 96.147C189.659 96.2472 189.438 96.3944 189.252 96.58L181.333 104.5L178.748 101.918C178.562 101.732 178.341 101.585 178.098 101.484C177.855 101.383 177.595 101.332 177.332 101.332C177.069 101.332 176.808 101.383 176.565 101.484C176.322 101.585 176.101 101.732 175.915 101.918C175.729 102.104 175.581 102.325 175.481 102.568C175.38 102.811 175.328 103.072 175.328 103.335C175.328 103.598 175.38 103.859 175.481 104.102C175.581 104.345 175.729 104.566 175.915 104.752L179.915 108.752C180.101 108.938 180.322 109.086 180.565 109.187C180.808 109.288 181.068 109.34 181.332 109.34C181.595 109.34 181.856 109.288 182.099 109.187C182.342 109.086 182.563 108.938 182.748 108.752L192.082 99.4183C192.268 99.2325 192.416 99.0117 192.517 98.7686C192.618 98.5255 192.67 98.2649 192.67 98.0017C192.67 97.7384 192.618 97.4778 192.517 97.2347Z" fill="#34CB5A"/>
<path d="M192.082 96.585C192.268 96.7708 192.416 96.9916 192.517 97.2347C192.618 97.4778 192.67 97.7384 192.67 98.0017C192.67 98.2649 192.618 98.5255 192.517 98.7686C192.416 99.0117 192.268 99.2325 192.082 99.4183L182.748 108.752C182.563 108.938 182.342 109.086 182.099 109.187C181.856 109.288 181.595 109.34 181.332 109.34C181.068 109.34 180.808 109.288 180.565 109.187C180.322 109.086 180.101 108.938 179.915 108.752L175.915 104.752C175.729 104.566 175.581 104.345 175.481 104.102C175.38 103.859 175.328 103.598 175.328 103.335C175.328 103.072 175.38 102.811 175.481 102.568C175.581 102.325 175.729 102.104 175.915 101.918C176.101 101.732 176.322 101.585 176.565 101.484C176.808 101.383 177.069 101.332 177.332 101.332C177.595 101.332 177.855 101.383 178.098 101.484C178.341 101.585 178.562 101.732 178.748 101.918L181.333 104.5L189.252 96.58C189.438 96.3944 189.659 96.2472 189.902 96.147C190.145 96.0468 190.405 95.9955 190.668 95.9959C190.931 95.9964 191.191 96.0487 191.433 96.1497C191.676 96.2508 191.896 96.3987 192.082 96.585Z" fill="white"/>
<path d="M203.5 102C203.5 105.857 202.357 109.627 200.214 112.834C198.071 116.041 195.025 118.54 191.462 120.016C187.899 121.491 183.978 121.877 180.195 121.125C176.413 120.373 172.938 118.516 170.211 115.789C167.484 113.062 165.627 109.587 164.875 105.805C164.123 102.022 164.509 98.1012 165.984 94.5381C167.46 90.975 169.959 87.9288 173.166 85.7861C176.373 83.6434 180.143 82.5 184 82.5H184.002L184.485 82.5068C189.479 82.636 194.242 84.6756 197.783 88.2168C201.439 91.8721 203.494 96.8286 203.5 101.998V102Z" stroke="white" stroke-width="3"/>
</g>
<g filter="url(#filter3_d_5810_11593)">
<g filter="url(#filter4_d_5810_11593)">
<rect x="24" y="196" width="220" height="50" rx="6" fill="white" shape-rendering="crispEdges"/>
<path d="M42.8666 218V216.992H45.5686C46.4086 216.992 47.1319 216.824 47.7386 216.488C48.3452 216.143 48.8119 215.662 49.1386 215.046C49.4652 214.43 49.6286 213.716 49.6286 212.904C49.6286 212.101 49.4652 211.401 49.1386 210.804C48.8119 210.207 48.3452 209.745 47.7386 209.418C47.1412 209.091 46.4179 208.928 45.5686 208.928H42.8666V207.92H45.5686C46.6232 207.92 47.5426 208.13 48.3266 208.55C49.1106 208.961 49.7172 209.544 50.1466 210.3C50.5852 211.047 50.8046 211.924 50.8046 212.932C50.8046 213.94 50.5852 214.827 50.1466 215.592C49.7079 216.348 49.0966 216.941 48.3126 217.37C47.5379 217.79 46.6279 218 45.5826 218H42.8666ZM42.1806 218V207.92H43.3286V218H42.1806ZM52.6239 218V210.86H53.7439V218H52.6239ZM52.5399 209.236V207.92H53.8279V209.236H52.5399ZM58.4092 218.14C57.5319 218.14 56.8319 217.939 56.3092 217.538C55.7865 217.127 55.4879 216.549 55.4132 215.802H56.4912C56.5565 216.259 56.7572 216.609 57.0932 216.852C57.4292 217.095 57.8772 217.216 58.4372 217.216C58.9319 217.216 59.3192 217.123 59.5992 216.936C59.8792 216.749 60.0192 216.483 60.0192 216.138C60.0192 215.895 59.9399 215.685 59.7812 215.508C59.6225 215.321 59.3052 215.167 58.8292 215.046L57.6812 214.752C57.0279 214.584 56.5379 214.327 56.2112 213.982C55.8845 213.627 55.7212 213.207 55.7212 212.722C55.7212 212.106 55.9499 211.621 56.4072 211.266C56.8645 210.902 57.4852 210.72 58.2692 210.72C59.0439 210.72 59.6739 210.907 60.1592 211.28C60.6445 211.653 60.9199 212.171 60.9852 212.834H59.9072C59.8419 212.451 59.6645 212.157 59.3752 211.952C59.0859 211.747 58.7032 211.644 58.2272 211.644C57.7699 211.644 57.4152 211.733 57.1632 211.91C56.9112 212.078 56.7852 212.321 56.7852 212.638C56.7852 212.881 56.8739 213.091 57.0512 213.268C57.2379 213.445 57.5459 213.595 57.9752 213.716L59.0952 214.024C59.7579 214.201 60.2572 214.472 60.5932 214.836C60.9292 215.2 61.0972 215.639 61.0972 216.152C61.0972 216.777 60.8592 217.267 60.3832 217.622C59.9072 217.967 59.2492 218.14 58.4092 218.14ZM66.1324 218.126C65.4604 218.126 64.8957 217.963 64.4384 217.636C63.981 217.309 63.6684 216.847 63.5004 216.25L63.7244 216.222V220.87H62.6044V210.86H63.6544V212.526L63.5004 212.484C63.6777 211.933 64.0137 211.504 64.5084 211.196C65.003 210.879 65.577 210.72 66.2304 210.72C66.865 210.72 67.4157 210.874 67.8824 211.182C68.3584 211.49 68.727 211.919 68.9884 212.47C69.2497 213.021 69.3804 213.665 69.3804 214.402C69.3804 215.149 69.245 215.802 68.9744 216.362C68.7037 216.922 68.3257 217.356 67.8404 217.664C67.355 217.972 66.7857 218.126 66.1324 218.126ZM65.9644 217.146C66.6737 217.146 67.229 216.903 67.6304 216.418C68.0317 215.923 68.2324 215.251 68.2324 214.402C68.2324 213.562 68.0317 212.904 67.6304 212.428C67.229 211.943 66.6737 211.7 65.9644 211.7C65.255 211.7 64.695 211.947 64.2844 212.442C63.8737 212.927 63.6684 213.595 63.6684 214.444C63.6684 215.275 63.8737 215.933 64.2844 216.418C64.695 216.903 65.255 217.146 65.9644 217.146ZM74.0626 218.14C73.3626 218.14 72.7466 217.977 72.2146 217.65C71.6826 217.323 71.2673 216.88 70.9686 216.32C70.6793 215.751 70.5346 215.111 70.5346 214.402C70.5346 213.683 70.6839 213.049 70.9826 212.498C71.2813 211.947 71.6919 211.513 72.2146 211.196C72.7466 210.879 73.3626 210.72 74.0626 210.72C74.7719 210.72 75.3879 210.879 75.9106 211.196C76.4426 211.513 76.8533 211.947 77.1426 212.498C77.4413 213.049 77.5906 213.683 77.5906 214.402C77.5906 215.111 77.4413 215.751 77.1426 216.32C76.8533 216.88 76.4426 217.323 75.9106 217.65C75.3879 217.977 74.7719 218.14 74.0626 218.14ZM74.0626 217.188C74.5479 217.188 74.9679 217.071 75.3226 216.838C75.6773 216.595 75.9526 216.264 76.1486 215.844C76.3446 215.424 76.4426 214.939 76.4426 214.388C76.4426 213.567 76.2233 212.909 75.7846 212.414C75.3553 211.919 74.7813 211.672 74.0626 211.672C73.3533 211.672 72.7793 211.919 72.3406 212.414C71.9019 212.909 71.6826 213.567 71.6826 214.388C71.6826 214.939 71.7806 215.424 71.9766 215.844C72.1726 216.264 72.4479 216.595 72.8026 216.838C73.1666 217.071 73.5866 217.188 74.0626 217.188ZM79.2704 218V210.86H80.3204V212.54H80.3904V218H79.2704ZM84.3804 218V213.324C84.3804 212.783 84.2451 212.377 83.9744 212.106C83.7037 211.835 83.3024 211.7 82.7704 211.7C82.3037 211.7 81.8884 211.803 81.5244 212.008C81.1697 212.213 80.8897 212.498 80.6844 212.862C80.4884 213.226 80.3904 213.651 80.3904 214.136L80.2084 212.442C80.4511 211.91 80.8197 211.49 81.3144 211.182C81.8184 210.874 82.3877 210.72 83.0224 210.72C83.7691 210.72 84.3664 210.935 84.8144 211.364C85.2717 211.784 85.5004 212.339 85.5004 213.03V218H84.3804ZM87.6513 218V210.86H88.7713V218H87.6513ZM87.5673 209.236V207.92H88.8553V209.236H87.5673ZM94.5425 218.126C93.8705 218.126 93.3059 217.963 92.8485 217.636C92.3912 217.309 92.0785 216.847 91.9105 216.25L92.0645 216.222V218H91.0145V207.92H92.1345V212.526L91.9805 212.484C92.1579 211.933 92.4799 211.504 92.9465 211.196C93.4225 210.879 93.9872 210.72 94.6405 210.72C95.2752 210.72 95.8259 210.874 96.2925 211.182C96.7685 211.49 97.1372 211.919 97.3985 212.47C97.6599 213.021 97.7905 213.665 97.7905 214.402C97.7905 215.149 97.6552 215.802 97.3845 216.362C97.1139 216.922 96.7359 217.356 96.2505 217.664C95.7652 217.972 95.1959 218.126 94.5425 218.126ZM94.3745 217.146C95.0839 217.146 95.6392 216.903 96.0405 216.418C96.4419 215.923 96.6425 215.251 96.6425 214.402C96.6425 213.562 96.4419 212.904 96.0405 212.428C95.6392 211.943 95.0839 211.7 94.3745 211.7C93.6652 211.7 93.1052 211.947 92.6945 212.442C92.2839 212.927 92.0785 213.595 92.0785 214.444C92.0785 215.275 92.2839 215.933 92.6945 216.418C93.1052 216.903 93.6652 217.146 94.3745 217.146ZM99.5048 218V207.92H100.625V218H99.5048ZM105.794 218.14C105.113 218.14 104.511 217.981 103.988 217.664C103.465 217.337 103.055 216.894 102.756 216.334C102.457 215.774 102.308 215.13 102.308 214.402C102.308 213.674 102.453 213.035 102.742 212.484C103.041 211.924 103.456 211.49 103.988 211.182C104.52 210.874 105.131 210.72 105.822 210.72C106.485 210.72 107.059 210.865 107.544 211.154C108.039 211.443 108.417 211.849 108.678 212.372C108.949 212.895 109.084 213.511 109.084 214.22C109.084 214.313 109.079 214.402 109.07 214.486C109.07 214.57 109.061 214.663 109.042 214.766H103.148V213.828H108.356L107.992 214.346C107.992 213.487 107.801 212.829 107.418 212.372C107.045 211.905 106.513 211.672 105.822 211.672C105.113 211.672 104.539 211.919 104.1 212.414C103.671 212.899 103.456 213.557 103.456 214.388C103.456 215.237 103.671 215.919 104.1 216.432C104.539 216.936 105.122 217.188 105.85 217.188C106.307 217.188 106.709 217.09 107.054 216.894C107.399 216.689 107.651 216.399 107.81 216.026H108.874C108.641 216.679 108.249 217.197 107.698 217.58C107.157 217.953 106.522 218.14 105.794 218.14ZM117.101 218.126C116.429 218.126 115.864 217.963 115.407 217.636C114.95 217.309 114.637 216.847 114.469 216.25L114.693 216.222V220.87H113.573V210.86H114.623V212.526L114.469 212.484C114.646 211.933 114.982 211.504 115.477 211.196C115.972 210.879 116.546 210.72 117.199 210.72C117.834 210.72 118.384 210.874 118.851 211.182C119.327 211.49 119.696 211.919 119.957 212.47C120.218 213.021 120.349 213.665 120.349 214.402C120.349 215.149 120.214 215.802 119.943 216.362C119.672 216.922 119.294 217.356 118.809 217.664C118.324 217.972 117.754 218.126 117.101 218.126ZM116.933 217.146C117.642 217.146 118.198 216.903 118.599 216.418C119 215.923 119.201 215.251 119.201 214.402C119.201 213.562 119 212.904 118.599 212.428C118.198 211.943 117.642 211.7 116.933 211.7C116.224 211.7 115.664 211.947 115.253 212.442C114.842 212.927 114.637 213.595 114.637 214.444C114.637 215.275 114.842 215.933 115.253 216.418C115.664 216.903 116.224 217.146 116.933 217.146ZM124.989 218.14C124.308 218.14 123.706 217.981 123.183 217.664C122.661 217.337 122.25 216.894 121.951 216.334C121.653 215.774 121.503 215.13 121.503 214.402C121.503 213.674 121.648 213.035 121.937 212.484C122.236 211.924 122.651 211.49 123.183 211.182C123.715 210.874 124.327 210.72 125.017 210.72C125.68 210.72 126.254 210.865 126.739 211.154C127.234 211.443 127.612 211.849 127.873 212.372C128.144 212.895 128.279 213.511 128.279 214.22C128.279 214.313 128.275 214.402 128.265 214.486C128.265 214.57 128.256 214.663 128.237 214.766H122.343V213.828H127.551L127.187 214.346C127.187 213.487 126.996 212.829 126.613 212.372C126.24 211.905 125.708 211.672 125.017 211.672C124.308 211.672 123.734 211.919 123.295 212.414C122.866 212.899 122.651 213.557 122.651 214.388C122.651 215.237 122.866 215.919 123.295 216.432C123.734 216.936 124.317 217.188 125.045 217.188C125.503 217.188 125.904 217.09 126.249 216.894C126.595 216.689 126.847 216.399 127.005 216.026H128.069C127.836 216.679 127.444 217.197 126.893 217.58C126.352 217.953 125.717 218.14 124.989 218.14ZM129.966 218V210.86H131.016V212.54H131.086V218H129.966ZM135.076 218V213.324C135.076 212.783 134.94 212.377 134.67 212.106C134.399 211.835 133.998 211.7 133.466 211.7C132.999 211.7 132.584 211.803 132.22 212.008C131.865 212.213 131.585 212.498 131.38 212.862C131.184 213.226 131.086 213.651 131.086 214.136L130.904 212.442C131.146 211.91 131.515 211.49 132.01 211.182C132.514 210.874 133.083 210.72 133.718 210.72C134.464 210.72 135.062 210.935 135.51 211.364C135.967 211.784 136.196 212.339 136.196 213.03V218H135.076ZM143.541 218V216.334L143.681 216.376C143.503 216.917 143.177 217.347 142.701 217.664C142.234 217.981 141.674 218.14 141.021 218.14C140.377 218.14 139.812 217.986 139.327 217.678C138.851 217.37 138.477 216.941 138.207 216.39C137.945 215.839 137.815 215.195 137.815 214.458C137.815 213.711 137.95 213.058 138.221 212.498C138.491 211.938 138.869 211.504 139.355 211.196C139.84 210.888 140.409 210.734 141.063 210.734C141.735 210.734 142.299 210.897 142.757 211.224C143.214 211.551 143.527 212.013 143.695 212.61L143.471 212.638V207.92H144.591V218H143.541ZM141.231 217.16C141.949 217.16 142.509 216.917 142.911 216.432C143.321 215.937 143.527 215.265 143.527 214.416C143.527 213.585 143.321 212.927 142.911 212.442C142.5 211.957 141.94 211.714 141.231 211.714C140.521 211.714 139.966 211.957 139.565 212.442C139.163 212.927 138.963 213.599 138.963 214.458C138.963 215.298 139.163 215.961 139.565 216.446C139.966 216.922 140.521 217.16 141.231 217.16ZM151.219 218C151.181 217.841 151.153 217.659 151.135 217.454C151.125 217.249 151.121 216.987 151.121 216.67H151.051V213.254C151.051 212.713 150.925 212.316 150.673 212.064C150.43 211.803 150.033 211.672 149.483 211.672C148.941 211.672 148.507 211.784 148.181 212.008C147.863 212.223 147.686 212.531 147.649 212.932H146.571C146.617 212.241 146.907 211.7 147.439 211.308C147.971 210.916 148.666 210.72 149.525 210.72C150.411 210.72 151.069 210.93 151.499 211.35C151.928 211.77 152.143 212.4 152.143 213.24V216.67C152.143 216.875 152.157 217.09 152.185 217.314C152.213 217.529 152.25 217.757 152.297 218H151.219ZM148.769 218.14C148.031 218.14 147.443 217.963 147.005 217.608C146.575 217.244 146.361 216.749 146.361 216.124C146.361 215.499 146.575 215.013 147.005 214.668C147.434 214.323 148.059 214.08 148.881 213.94L151.373 213.52V214.444L149.049 214.808C148.526 214.892 148.129 215.032 147.859 215.228C147.588 215.424 147.453 215.709 147.453 216.082C147.453 216.446 147.574 216.721 147.817 216.908C148.069 217.095 148.437 217.188 148.923 217.188C149.548 217.188 150.057 217.048 150.449 216.768C150.85 216.479 151.051 216.105 151.051 215.648L151.233 216.642C151.083 217.118 150.789 217.487 150.351 217.748C149.921 218.009 149.394 218.14 148.769 218.14ZM154.302 218V210.86H155.352V212.54H155.422V218H154.302ZM159.412 218V213.324C159.412 212.783 159.276 212.377 159.006 212.106C158.735 211.835 158.334 211.7 157.802 211.7C157.335 211.7 156.92 211.803 156.556 212.008C156.201 212.213 155.921 212.498 155.716 212.862C155.52 213.226 155.422 213.651 155.422 214.136L155.24 212.442C155.482 211.91 155.851 211.49 156.346 211.182C156.85 210.874 157.419 210.72 158.054 210.72C158.8 210.72 159.398 210.935 159.846 211.364C160.303 211.784 160.532 212.339 160.532 213.03V218H159.412ZM165.347 218.126C164.554 218.126 163.975 217.949 163.611 217.594C163.256 217.23 163.079 216.707 163.079 216.026V209.194L164.199 208.774V216.012C164.199 216.413 164.302 216.707 164.507 216.894C164.712 217.081 165.048 217.174 165.515 217.174C165.702 217.174 165.86 217.165 165.991 217.146C166.131 217.118 166.243 217.085 166.327 217.048V218C166.234 218.037 166.098 218.065 165.921 218.084C165.753 218.112 165.562 218.126 165.347 218.126ZM161.609 211.812V210.86H166.327V211.812H161.609ZM175.695 220.87V216.334L175.905 216.376C175.728 216.917 175.401 217.347 174.925 217.664C174.459 217.981 173.899 218.14 173.245 218.14C172.601 218.14 172.037 217.991 171.551 217.692C171.075 217.384 170.702 216.955 170.431 216.404C170.17 215.844 170.039 215.195 170.039 214.458C170.039 213.711 170.175 213.058 170.445 212.498C170.716 211.938 171.094 211.504 171.579 211.196C172.065 210.888 172.634 210.734 173.287 210.734C173.959 210.734 174.524 210.897 174.981 211.224C175.439 211.551 175.751 212.013 175.919 212.61L175.765 212.638V210.86H176.815V220.87H175.695ZM173.455 217.16C174.174 217.16 174.734 216.917 175.135 216.432C175.546 215.937 175.751 215.265 175.751 214.416C175.751 213.585 175.546 212.927 175.135 212.442C174.725 211.957 174.165 211.714 173.455 211.714C172.746 211.714 172.191 211.957 171.789 212.442C171.388 212.927 171.187 213.599 171.187 214.458C171.187 215.298 171.388 215.961 171.789 216.446C172.191 216.922 172.746 217.16 173.455 217.16ZM181.385 218.14C180.919 218.14 180.503 218.047 180.139 217.86C179.775 217.664 179.491 217.393 179.285 217.048C179.08 216.693 178.977 216.287 178.977 215.83V210.86H180.097V215.536C180.097 216.077 180.228 216.483 180.489 216.754C180.76 217.025 181.143 217.16 181.637 217.16C182.085 217.16 182.482 217.057 182.827 216.852C183.173 216.647 183.443 216.362 183.639 215.998C183.845 215.625 183.947 215.2 183.947 214.724L184.129 216.418C183.896 216.95 183.532 217.37 183.037 217.678C182.543 217.986 181.992 218.14 181.385 218.14ZM184.017 218V216.32H183.947V210.86H185.067V218H184.017ZM190.204 218.14C189.523 218.14 188.921 217.981 188.398 217.664C187.876 217.337 187.465 216.894 187.166 216.334C186.868 215.774 186.718 215.13 186.718 214.402C186.718 213.674 186.863 213.035 187.152 212.484C187.451 211.924 187.866 211.49 188.398 211.182C188.93 210.874 189.542 210.72 190.232 210.72C190.895 210.72 191.469 210.865 191.954 211.154C192.449 211.443 192.827 211.849 193.088 212.372C193.359 212.895 193.494 213.511 193.494 214.22C193.494 214.313 193.49 214.402 193.48 214.486C193.48 214.57 193.471 214.663 193.452 214.766H187.558V213.828H192.766L192.402 214.346C192.402 213.487 192.211 212.829 191.828 212.372C191.455 211.905 190.923 211.672 190.232 211.672C189.523 211.672 188.949 211.919 188.51 212.414C188.081 212.899 187.866 213.557 187.866 214.388C187.866 215.237 188.081 215.919 188.51 216.432C188.949 216.936 189.532 217.188 190.26 217.188C190.718 217.188 191.119 217.09 191.464 216.894C191.81 216.689 192.062 216.399 192.22 216.026H193.284C193.051 216.679 192.659 217.197 192.108 217.58C191.567 217.953 190.932 218.14 190.204 218.14ZM200.069 218L197.115 210.86H198.319L200.783 217.244H200.335L202.785 210.86H203.933L200.979 218H200.069ZM208.102 218.14C207.402 218.14 206.786 217.977 206.254 217.65C205.722 217.323 205.306 216.88 205.008 216.32C204.718 215.751 204.574 215.111 204.574 214.402C204.574 213.683 204.723 213.049 205.022 212.498C205.32 211.947 205.731 211.513 206.254 211.196C206.786 210.879 207.402 210.72 208.102 210.72C208.811 210.72 209.427 210.879 209.95 211.196C210.482 211.513 210.892 211.947 211.182 212.498C211.48 213.049 211.63 213.683 211.63 214.402C211.63 215.111 211.48 215.751 211.182 216.32C210.892 216.88 210.482 217.323 209.95 217.65C209.427 217.977 208.811 218.14 208.102 218.14ZM208.102 217.188C208.587 217.188 209.007 217.071 209.362 216.838C209.716 216.595 209.992 216.264 210.188 215.844C210.384 215.424 210.482 214.939 210.482 214.388C210.482 213.567 210.262 212.909 209.824 212.414C209.394 211.919 208.82 211.672 208.102 211.672C207.392 211.672 206.818 211.919 206.38 212.414C205.941 212.909 205.722 213.567 205.722 214.388C205.722 214.939 205.82 215.424 206.016 215.844C206.212 216.264 206.487 216.595 206.842 216.838C207.206 217.071 207.626 217.188 208.102 217.188ZM215.633 218.14C215.167 218.14 214.751 218.047 214.387 217.86C214.023 217.664 213.739 217.393 213.533 217.048C213.328 216.693 213.225 216.287 213.225 215.83V210.86H214.345V215.536C214.345 216.077 214.476 216.483 214.737 216.754C215.008 217.025 215.391 217.16 215.885 217.16C216.333 217.16 216.73 217.057 217.075 216.852C217.421 216.647 217.691 216.362 217.887 215.998C218.093 215.625 218.195 215.2 218.195 214.724L218.377 216.418C218.144 216.95 217.78 217.37 217.285 217.678C216.791 217.986 216.24 218.14 215.633 218.14ZM218.265 218V216.32H218.195V210.86H219.315V218H218.265ZM223.948 218.14C223.071 218.14 222.371 217.939 221.848 217.538C221.326 217.127 221.027 216.549 220.952 215.802H222.03C222.096 216.259 222.296 216.609 222.632 216.852C222.968 217.095 223.416 217.216 223.976 217.216C224.471 217.216 224.858 217.123 225.138 216.936C225.418 216.749 225.558 216.483 225.558 216.138C225.558 215.895 225.479 215.685 225.32 215.508C225.162 215.321 224.844 215.167 224.368 215.046L223.22 214.752C222.567 214.584 222.077 214.327 221.75 213.982C221.424 213.627 221.26 213.207 221.26 212.722C221.26 212.106 221.489 211.621 221.946 211.266C222.404 210.902 223.024 210.72 223.808 210.72C224.583 210.72 225.213 210.907 225.698 211.28C226.184 211.653 226.459 212.171 226.524 212.834H225.446C225.381 212.451 225.204 212.157 224.914 211.952C224.625 211.747 224.242 211.644 223.766 211.644C223.309 211.644 222.954 211.733 222.702 211.91C222.45 212.078 222.324 212.321 222.324 212.638C222.324 212.881 222.413 213.091 222.59 213.268C222.777 213.445 223.085 213.595 223.514 213.716L224.634 214.024C225.297 214.201 225.796 214.472 226.132 214.836C226.468 215.2 226.636 215.639 226.636 216.152C226.636 216.777 226.398 217.267 225.922 217.622C225.446 217.967 224.788 218.14 223.948 218.14ZM97.6319 235.14C96.9506 235.14 96.3486 234.981 95.8259 234.664C95.3033 234.337 94.8926 233.894 94.5939 233.334C94.2953 232.774 94.1459 232.13 94.1459 231.402C94.1459 230.674 94.2906 230.035 94.5799 229.484C94.8786 228.924 95.2939 228.49 95.8259 228.182C96.3579 227.874 96.9693 227.72 97.6599 227.72C98.3226 227.72 98.8966 227.865 99.3819 228.154C99.8766 228.443 100.255 228.849 100.516 229.372C100.787 229.895 100.922 230.511 100.922 231.22C100.922 231.313 100.917 231.402 100.908 231.486C100.908 231.57 100.899 231.663 100.88 231.766H94.9859V230.828H100.194L99.8299 231.346C99.8299 230.487 99.6386 229.829 99.2559 229.372C98.8826 228.905 98.3506 228.672 97.6599 228.672C96.9506 228.672 96.3766 228.919 95.9379 229.414C95.5086 229.899 95.2939 230.557 95.2939 231.388C95.2939 232.237 95.5086 232.919 95.9379 233.432C96.3766 233.936 96.9599 234.188 97.6879 234.188C98.1453 234.188 98.5466 234.09 98.8919 233.894C99.2373 233.689 99.4893 233.399 99.6479 233.026H100.712C100.479 233.679 100.087 234.197 99.5359 234.58C98.9946 234.953 98.3599 235.14 97.6319 235.14ZM95.0979 226.838L97.0859 224.64H98.2899L100.278 226.838H99.2279L97.1279 224.92H98.2479L96.1479 226.838H95.0979ZM105.382 235.126C104.589 235.126 104.01 234.949 103.646 234.594C103.292 234.23 103.114 233.707 103.114 233.026V226.194L104.234 225.774V233.012C104.234 233.413 104.337 233.707 104.542 233.894C104.748 234.081 105.084 234.174 105.55 234.174C105.737 234.174 105.896 234.165 106.026 234.146C106.166 234.118 106.278 234.085 106.362 234.048V235C106.269 235.037 106.134 235.065 105.956 235.084C105.788 235.112 105.597 235.126 105.382 235.126ZM101.644 228.812V227.86H106.362V228.812H101.644ZM110.579 235.14C109.898 235.14 109.296 234.981 108.773 234.664C108.251 234.337 107.84 233.894 107.541 233.334C107.243 232.774 107.093 232.13 107.093 231.402C107.093 230.674 107.238 230.035 107.527 229.484C107.826 228.924 108.241 228.49 108.773 228.182C109.305 227.874 109.917 227.72 110.607 227.72C111.27 227.72 111.844 227.865 112.329 228.154C112.824 228.443 113.202 228.849 113.463 229.372C113.734 229.895 113.869 230.511 113.869 231.22C113.869 231.313 113.865 231.402 113.855 231.486C113.855 231.57 113.846 231.663 113.827 231.766H107.933V230.828H113.141L112.777 231.346C112.777 230.487 112.586 229.829 112.203 229.372C111.83 228.905 111.298 228.672 110.607 228.672C109.898 228.672 109.324 228.919 108.885 229.414C108.456 229.899 108.241 230.557 108.241 231.388C108.241 232.237 108.456 232.919 108.885 233.432C109.324 233.936 109.907 234.188 110.635 234.188C111.093 234.188 111.494 234.09 111.839 233.894C112.185 233.689 112.437 233.399 112.595 233.026H113.659C113.426 233.679 113.034 234.197 112.483 234.58C111.942 234.953 111.307 235.14 110.579 235.14ZM117.978 235.14C117.1 235.14 116.4 234.939 115.878 234.538C115.355 234.127 115.056 233.549 114.982 232.802H116.06C116.125 233.259 116.326 233.609 116.662 233.852C116.998 234.095 117.446 234.216 118.006 234.216C118.5 234.216 118.888 234.123 119.168 233.936C119.448 233.749 119.588 233.483 119.588 233.138C119.588 232.895 119.508 232.685 119.35 232.508C119.191 232.321 118.874 232.167 118.398 232.046L117.25 231.752C116.596 231.584 116.106 231.327 115.78 230.982C115.453 230.627 115.29 230.207 115.29 229.722C115.29 229.106 115.518 228.621 115.976 228.266C116.433 227.902 117.054 227.72 117.838 227.72C118.612 227.72 119.242 227.907 119.728 228.28C120.213 228.653 120.488 229.171 120.554 229.834H119.476C119.41 229.451 119.233 229.157 118.944 228.952C118.654 228.747 118.272 228.644 117.796 228.644C117.338 228.644 116.984 228.733 116.732 228.91C116.48 229.078 116.354 229.321 116.354 229.638C116.354 229.881 116.442 230.091 116.62 230.268C116.806 230.445 117.114 230.595 117.544 230.716L118.664 231.024C119.326 231.201 119.826 231.472 120.162 231.836C120.498 232.2 120.666 232.639 120.666 233.152C120.666 233.777 120.428 234.267 119.952 234.622C119.476 234.967 118.818 235.14 117.978 235.14ZM127.901 235.14C127.22 235.14 126.618 234.981 126.095 234.664C125.573 234.337 125.162 233.894 124.863 233.334C124.565 232.774 124.415 232.13 124.415 231.402C124.415 230.674 124.56 230.035 124.849 229.484C125.148 228.924 125.563 228.49 126.095 228.182C126.627 227.874 127.239 227.72 127.929 227.72C128.592 227.72 129.166 227.865 129.651 228.154C130.146 228.443 130.524 228.849 130.785 229.372C131.056 229.895 131.191 230.511 131.191 231.22C131.191 231.313 131.187 231.402 131.177 231.486C131.177 231.57 131.168 231.663 131.149 231.766H125.255V230.828H130.463L130.099 231.346C130.099 230.487 129.908 229.829 129.525 229.372C129.152 228.905 128.62 228.672 127.929 228.672C127.22 228.672 126.646 228.919 126.207 229.414C125.778 229.899 125.563 230.557 125.563 231.388C125.563 232.237 125.778 232.919 126.207 233.432C126.646 233.936 127.229 234.188 127.957 234.188C128.415 234.188 128.816 234.09 129.161 233.894C129.507 233.689 129.759 233.399 129.917 233.026H130.981C130.748 233.679 130.356 234.197 129.805 234.58C129.264 234.953 128.629 235.14 127.901 235.14ZM132.878 235V227.86H133.928V229.54H133.998V235H132.878ZM137.988 235V230.324C137.988 229.783 137.852 229.377 137.582 229.106C137.311 228.835 136.91 228.7 136.378 228.7C135.911 228.7 135.496 228.803 135.132 229.008C134.777 229.213 134.497 229.498 134.292 229.862C134.096 230.226 133.998 230.651 133.998 231.136L133.816 229.442C134.058 228.91 134.427 228.49 134.922 228.182C135.426 227.874 135.995 227.72 136.63 227.72C137.376 227.72 137.974 227.935 138.422 228.364C138.879 228.784 139.108 229.339 139.108 230.03V235H137.988ZM144.061 235V224.92H145.181V235H144.061ZM147.425 235V227.86H148.545V235H147.425ZM147.341 226.236V224.92H148.629V226.236H147.341ZM153.603 238.01C152.753 238.01 152.044 237.809 151.475 237.408C150.915 237.016 150.574 236.493 150.453 235.84H151.517C151.619 236.213 151.848 236.507 152.203 236.722C152.567 236.946 153.057 237.058 153.673 237.058C154.401 237.058 154.951 236.857 155.325 236.456C155.698 236.064 155.885 235.485 155.885 234.72V233.194L156.025 233.222C155.866 233.763 155.549 234.197 155.073 234.524C154.597 234.841 154.032 235 153.379 235C152.753 235 152.203 234.851 151.727 234.552C151.251 234.244 150.882 233.819 150.621 233.278C150.359 232.737 150.229 232.107 150.229 231.388C150.229 230.66 150.364 230.021 150.635 229.47C150.905 228.919 151.283 228.495 151.769 228.196C152.263 227.888 152.837 227.734 153.491 227.734C154.163 227.734 154.723 227.897 155.171 228.224C155.628 228.551 155.931 229.017 156.081 229.624L155.955 229.638V227.86H157.005V234.72C157.005 235.737 156.701 236.54 156.095 237.128C155.488 237.716 154.657 238.01 153.603 238.01ZM153.659 234.034C154.359 234.034 154.914 233.791 155.325 233.306C155.735 232.821 155.941 232.163 155.941 231.332C155.941 230.52 155.735 229.881 155.325 229.414C154.914 228.938 154.359 228.7 153.659 228.7C152.949 228.7 152.389 228.938 151.979 229.414C151.577 229.89 151.377 230.543 151.377 231.374C151.377 232.186 151.582 232.835 151.993 233.32C152.403 233.796 152.959 234.034 153.659 234.034ZM159.251 235V227.86H160.301V229.54H160.371V235H159.251ZM164.361 235V230.324C164.361 229.783 164.226 229.377 163.955 229.106C163.684 228.835 163.283 228.7 162.751 228.7C162.284 228.7 161.869 228.803 161.505 229.008C161.15 229.213 160.87 229.498 160.665 229.862C160.469 230.226 160.371 230.651 160.371 231.136L160.189 229.442C160.432 228.91 160.8 228.49 161.295 228.182C161.799 227.874 162.368 227.72 163.003 227.72C163.75 227.72 164.347 227.935 164.795 228.364C165.252 228.784 165.481 229.339 165.481 230.03V235H164.361ZM170.558 235.14C169.876 235.14 169.274 234.981 168.752 234.664C168.229 234.337 167.818 233.894 167.52 233.334C167.221 232.774 167.072 232.13 167.072 231.402C167.072 230.674 167.216 230.035 167.506 229.484C167.804 228.924 168.22 228.49 168.752 228.182C169.284 227.874 169.895 227.72 170.586 227.72C171.248 227.72 171.822 227.865 172.308 228.154C172.802 228.443 173.18 228.849 173.442 229.372C173.712 229.895 173.848 230.511 173.848 231.22C173.848 231.313 173.843 231.402 173.834 231.486C173.834 231.57 173.824 231.663 173.806 231.766H167.912V230.828H173.12L172.756 231.346C172.756 230.487 172.564 229.829 172.182 229.372C171.808 228.905 171.276 228.672 170.586 228.672C169.876 228.672 169.302 228.919 168.864 229.414C168.434 229.899 168.22 230.557 168.22 231.388C168.22 232.237 168.434 232.919 168.864 233.432C169.302 233.936 169.886 234.188 170.614 234.188C171.071 234.188 171.472 234.09 171.818 233.894C172.163 233.689 172.415 233.399 172.574 233.026H173.638C173.404 233.679 173.012 234.197 172.462 234.58C171.92 234.953 171.286 235.14 170.558 235.14Z" fill="#262626"/>
</g>
<g filter="url(#filter5_d_5810_11593)">
<path d="M140.928 195.449L135.585 190.551C134.784 189.816 133.216 189.816 132.415 190.551L127.073 195.449C126.673 195.816 126.081 196 125.488 196L142.513 196C141.921 196 141.328 195.816 140.928 195.449Z" fill="white"/>
</g>
</g>
<defs>
<filter id="filter0_d_5810_11593" x="30" y="-8" width="208" height="208" filterUnits="userSpaceOnUse" color-interpolation-filters="sRGB">
<feFlood flood-opacity="0" result="BackgroundImageFix"/>
<feColorMatrix in="SourceAlpha" type="matrix" values="0 0 0 0 0 0 0 0 0 0 0 0 0 0 0 0 0 0 127 0" result="hardAlpha"/>
<feOffset dy="32"/>
<feGaussianBlur stdDeviation="20"/>
<feComposite in2="hardAlpha" operator="out"/>
<feColorMatrix type="matrix" values="0 0 0 0 0 0 0 0 0 0 0 0 0 0 0 0 0 0 0.04 0"/>
<feBlend mode="normal" in2="BackgroundImageFix" result="effect1_dropShadow_5810_11593"/>
<feBlend mode="normal" in="SourceGraphic" in2="effect1_dropShadow_5810_11593" result="shape"/>
</filter>
<filter id="filter1_i_5810_11593" x="70" y="28" width="128" height="87.9998" filterUnits="userSpaceOnUse" color-interpolation-filters="sRGB">
<feFlood flood-opacity="0" result="BackgroundImageFix"/>
<feBlend mode="normal" in="SourceGraphic" in2="BackgroundImageFix" result="shape"/>
<feColorMatrix in="SourceAlpha" type="matrix" values="0 0 0 0 0 0 0 0 0 0 0 0 0 0 0 0 0 0 127 0" result="hardAlpha"/>
<feOffset dy="-8"/>
<feGaussianBlur stdDeviation="4"/>
<feComposite in2="hardAlpha" operator="arithmetic" k2="-1" k3="1"/>
<feColorMatrix type="matrix" values="0 0 0 0 0.321569 0 0 0 0 0.686275 0 0 0 0 0.878431 0 0 0 0.32 0"/>
<feBlend mode="normal" in2="shape" result="effect1_innerShadow_5810_11593"/>
</filter>
<filter id="filter2_d_5810_11593" x="151" y="73" width="66" height="66" filterUnits="userSpaceOnUse" color-interpolation-filters="sRGB">
<feFlood flood-opacity="0" result="BackgroundImageFix"/>
<feColorMatrix in="SourceAlpha" type="matrix" values="0 0 0 0 0 0 0 0 0 0 0 0 0 0 0 0 0 0 127 0" result="hardAlpha"/>
<feOffset dy="4"/>
<feGaussianBlur stdDeviation="6"/>
<feComposite in2="hardAlpha" operator="out"/>
<feColorMatrix type="matrix" values="0 0 0 0 0 0 0 0 0 0 0 0 0 0 0 0 0 0 0.25 0"/>
<feBlend mode="normal" in2="BackgroundImageFix" result="effect1_dropShadow_5810_11593"/>
<feBlend mode="normal" in="SourceGraphic" in2="effect1_dropShadow_5810_11593" result="shape"/>
</filter>
<filter id="filter3_d_5810_11593" x="23" y="189" width="222" height="58" filterUnits="userSpaceOnUse" color-interpolation-filters="sRGB">
<feFlood flood-opacity="0" result="BackgroundImageFix"/>
<feColorMatrix in="SourceAlpha" type="matrix" values="0 0 0 0 0 0 0 0 0 0 0 0 0 0 0 0 0 0 127 0" result="hardAlpha"/>
<feOffset/>
<feGaussianBlur stdDeviation="0.5"/>
<feComposite in2="hardAlpha" operator="out"/>
<feColorMatrix type="matrix" values="0 0 0 0 0 0 0 0 0 0 0 0 0 0 0 0 0 0 0.16 0"/>
<feBlend mode="normal" in2="BackgroundImageFix" result="effect1_dropShadow_5810_11593"/>
<feBlend mode="normal" in="SourceGraphic" in2="effect1_dropShadow_5810_11593" result="shape"/>
</filter>
<filter id="filter4_d_5810_11593" x="0" y="184" width="268" height="98" filterUnits="userSpaceOnUse" color-interpolation-filters="sRGB">
<feFlood flood-opacity="0" result="BackgroundImageFix"/>
<feColorMatrix in="SourceAlpha" type="matrix" values="0 0 0 0 0 0 0 0 0 0 0 0 0 0 0 0 0 0 127 0" result="hardAlpha"/>
<feOffset dy="12"/>
<feGaussianBlur stdDeviation="12"/>
<feComposite in2="hardAlpha" operator="out"/>
<feColorMatrix type="matrix" values="0 0 0 0 0 0 0 0 0 0 0 0 0 0 0 0 0 0 0.12 0"/>
<feBlend mode="normal" in2="BackgroundImageFix" result="effect1_dropShadow_5810_11593"/>
<feBlend mode="normal" in="SourceGraphic" in2="effect1_dropShadow_5810_11593" result="shape"/>
</filter>
<filter id="filter5_d_5810_11593" x="101.488" y="174" width="65.0254" height="54" filterUnits="userSpaceOnUse" color-interpolation-filters="sRGB">
<feFlood flood-opacity="0" result="BackgroundImageFix"/>
<feColorMatrix in="SourceAlpha" type="matrix" values="0 0 0 0 0 0 0 0 0 0 0 0 0 0 0 0 0 0 127 0" result="hardAlpha"/>
<feOffset dy="8"/>
<feGaussianBlur stdDeviation="12"/>
<feComposite in2="hardAlpha" operator="out"/>
<feColorMatrix type="matrix" values="0 0 0 0 0 0 0 0 0 0 0 0 0 0 0 0 0 0 0.12 0"/>
<feBlend mode="normal" in2="BackgroundImageFix" result="effect1_dropShadow_5810_11593"/>
<feBlend mode="normal" in="SourceGraphic" in2="effect1_dropShadow_5810_11593" result="shape"/>
</filter>
<linearGradient id="paint0_linear_5810_11593" x1="133.999" y1="28" x2="133.999" y2="52" gradientUnits="userSpaceOnUse">
<stop stop-color="#52AFE0"/>
<stop offset="1" stop-color="#00529E" stop-opacity="0.1"/>
</linearGradient>
<radialGradient id="paint1_radial_5810_11593" cx="0" cy="0" r="1" gradientUnits="userSpaceOnUse" gradientTransform="translate(134 52) rotate(90) scale(48 76.8001)">
<stop stop-color="white"/>
<stop offset="1" stop-color="white" stop-opacity="0"/>
</radialGradient>
<clipPath id="clip0_5810_11593">
<rect width="31.4644" height="30" fill="white" transform="translate(187.268 136)"/>
</clipPath>
</defs>
</svg>
