<svg width="384" height="192" viewBox="0 0 384 192" fill="none" xmlns="http://www.w3.org/2000/svg">
<g filter="url(#filter0_d_3173_19799)">
<path d="M50 27.75C50 25.6789 51.6789 24 53.75 24H80.4053C83.3714 24 86.2409 25.0548 88.5009 26.9758L105.596 41.5063C108.39 43.8813 110 47.3634 110 51.0305V100.25C110 102.321 108.321 104 106.25 104H53.75C51.6789 104 50 102.321 50 100.25V27.75Z" fill="#FCFCFD"/>
<path d="M106.25 103.5H53.75C51.9551 103.5 50.5 102.045 50.5 100.25V27.75C50.5 25.9551 51.9551 24.5 53.75 24.5H80.4053C83.2528 24.5 86.0075 25.5126 88.1771 27.3567L105.272 41.8872C107.954 44.1672 109.5 47.5101 109.5 51.0305V100.25C109.5 102.045 108.045 103.5 106.25 103.5Z" stroke="#E5E5EB"/>
<path d="M83.3336 25.533C82.9225 25.0946 82.3683 24.7029 81.75 24.5587V24.5129C83.8731 24.6224 85.9067 25.4269 87.5335 26.8097L105.867 42.3927C108.044 44.2438 109.35 46.91 109.488 49.75H109.441C109.297 49.1318 108.905 48.5775 108.467 48.1665C107.918 47.6516 107.176 47.25 106.5 47.25H87.5C85.7051 47.25 84.25 45.7949 84.25 44V27.5C84.25 26.8238 83.8484 26.0822 83.3336 25.533Z" fill="#F3F3F8" stroke="#E5E5EB"/>
<mask id="path-4-inside-1_3173_19799" fill="white">
<path d="M53.75 104H106.25C108.321 104 110 102.321 110 100.25V97.75C110 99.8211 108.321 101.5 106.25 101.5H53.75C51.6789 101.5 50 99.8211 50 97.75V100.25C50 102.321 51.6789 104 53.75 104Z"/>
</mask>
<path d="M53.75 104H106.25C108.321 104 110 102.321 110 100.25V97.75C110 99.8211 108.321 101.5 106.25 101.5H53.75C51.6789 101.5 50 99.8211 50 97.75V100.25C50 102.321 51.6789 104 53.75 104Z" fill="#E5E5EB"/>
<path d="M106.25 101.5H53.75V106.5H106.25V101.5ZM53.75 101.5C53.0596 101.5 52.5 100.94 52.5 100.25H47.5C47.5 103.702 50.2982 106.5 53.75 106.5V101.5ZM107.5 100.25C107.5 100.94 106.94 101.5 106.25 101.5V106.5C109.702 106.5 112.5 103.702 112.5 100.25H107.5ZM106.25 99H53.75V104H106.25V99ZM53.75 99C53.0596 99 52.5 98.4404 52.5 97.75H47.5C47.5 101.202 50.2982 104 53.75 104V99ZM107.5 97.75C107.5 98.4404 106.94 99 106.25 99V104C109.702 104 112.5 101.202 112.5 97.75H107.5ZM52.5 100.25V97.75H47.5V100.25H52.5ZM112.5 100.25V97.75H107.5V100.25H112.5Z" fill="#E5E5EB" mask="url(#path-4-inside-1_3173_19799)"/>
<path d="M150 13.25C150 10.3505 152.351 8 155.25 8H192.567C196.72 8 200.737 9.47665 203.901 12.1661L227.834 32.5088C231.746 35.8338 234 40.7088 234 45.8427V114.75C234 117.649 231.649 120 228.75 120H155.25C152.351 120 150 117.649 150 114.75V13.25Z" fill="#FCFCFD"/>
<path d="M228.75 119.3H155.25C152.737 119.3 150.7 117.263 150.7 114.75V13.25C150.7 10.7371 152.737 8.7 155.25 8.7H192.567C196.554 8.7 200.41 10.1176 203.448 12.6994L227.38 33.0421C231.136 36.2341 233.3 40.9141 233.3 45.8427V114.75C233.3 117.263 231.263 119.3 228.75 119.3Z" stroke="#E5E5EB" stroke-width="1.4"/>
<path d="M196.667 10.1462C196.092 9.53241 195.316 8.98408 194.45 8.78224V8.71804C197.422 8.87135 200.269 9.99765 202.547 11.9336L228.213 33.7498C231.262 36.3413 233.09 40.074 233.283 44.05H233.218C233.016 43.1845 232.468 42.4085 231.854 41.8331C231.085 41.1122 230.047 40.55 229.1 40.55H202.5C199.987 40.55 197.95 38.5129 197.95 36V12.9C197.95 11.9534 197.388 10.9151 196.667 10.1462Z" fill="#F3F3F8" stroke="#E5E5EB" stroke-width="1.4"/>
<mask id="path-9-inside-2_3173_19799" fill="white">
<path d="M155.25 120H228.75C231.649 120 234 117.649 234 114.75V111.25C234 114.149 231.649 116.5 228.75 116.5H155.25C152.351 116.5 150 114.149 150 111.25V114.75C150 117.649 152.351 120 155.25 120Z"/>
</mask>
<path d="M155.25 120H228.75C231.649 120 234 117.649 234 114.75V111.25C234 114.149 231.649 116.5 228.75 116.5H155.25C152.351 116.5 150 114.149 150 111.25V114.75C150 117.649 152.351 120 155.25 120Z" fill="#E5E5EB"/>
<path d="M228.75 116.5H155.25V123.5H228.75V116.5ZM155.25 116.5C154.284 116.5 153.5 115.716 153.5 114.75H146.5C146.5 119.582 150.418 123.5 155.25 123.5V116.5ZM230.5 114.75C230.5 115.716 229.716 116.5 228.75 116.5V123.5C233.582 123.5 237.5 119.582 237.5 114.75H230.5ZM228.75 113H155.25V120H228.75V113ZM155.25 113C154.284 113 153.5 112.216 153.5 111.25H146.5C146.5 116.082 150.418 120 155.25 120V113ZM230.5 111.25C230.5 112.216 229.716 113 228.75 113V120C233.582 120 237.5 116.082 237.5 111.25H230.5ZM153.5 114.75V111.25H146.5V114.75H153.5ZM237.5 114.75V111.25H230.5V114.75H237.5Z" fill="#E5E5EB" mask="url(#path-9-inside-2_3173_19799)"/>
<g filter="url(#filter1_dd_3173_19799)">
<path fill-rule="evenodd" clip-rule="evenodd" d="M212 72.4004C212 76.356 210.827 80.2228 208.629 83.5118C206.432 86.8008 203.308 89.3642 199.654 90.878C195.999 92.3917 191.978 92.7878 188.098 92.0161C184.219 91.2444 180.655 89.3396 177.858 86.5425C175.061 83.7455 173.156 80.1818 172.384 76.3022C171.613 72.4226 172.009 68.4012 173.522 64.7467C175.036 61.0922 177.6 57.9686 180.889 55.771C184.178 53.5734 188.044 52.4004 192 52.4004C197.303 52.4063 202.386 54.5153 206.136 58.2648C209.885 62.0142 211.994 67.0979 212 72.4004ZM199.536 78.0047C199.459 77.8179 199.346 77.6482 199.203 77.5053L194.136 72.4399L199.203 67.3745C199.346 67.2316 199.459 67.0619 199.536 66.8751C199.614 66.6883 199.654 66.4882 199.654 66.286C199.654 66.0839 199.614 65.8837 199.536 65.697C199.459 65.5102 199.346 65.3405 199.203 65.1976C199.06 65.0546 198.89 64.9413 198.703 64.8639C198.517 64.7865 198.316 64.7467 198.114 64.7467C197.912 64.7467 197.712 64.7865 197.525 64.8639C197.339 64.9413 197.169 65.0546 197.026 65.1976L191.961 70.2649L186.895 65.1976C186.606 64.9089 186.215 64.7467 185.807 64.7467C185.398 64.7467 185.007 64.9089 184.718 65.1976C184.43 65.4863 184.267 65.8778 184.267 66.286C184.267 66.6943 184.43 67.0858 184.718 67.3745L189.786 72.4399L184.718 77.5053C184.575 77.6482 184.462 77.8179 184.385 78.0047C184.307 78.1914 184.267 78.3916 184.267 78.5937C184.267 78.7959 184.307 78.996 184.385 79.1828C184.462 79.3696 184.575 79.5392 184.718 79.6822C184.861 79.8251 185.031 79.9385 185.218 80.0159C185.404 80.0932 185.605 80.133 185.807 80.133C186.009 80.133 186.209 80.0932 186.396 80.0159C186.582 79.9385 186.752 79.8251 186.895 79.6822L191.961 74.6149L197.026 79.6822C197.169 79.8251 197.339 79.9385 197.525 80.0159C197.712 80.0932 197.912 80.133 198.114 80.133C198.316 80.133 198.517 80.0932 198.703 80.0159C198.89 79.9385 199.06 79.8251 199.203 79.6822C199.346 79.5392 199.459 79.3696 199.536 79.1828C199.614 78.996 199.654 78.7959 199.654 78.5937C199.654 78.3916 199.614 78.1914 199.536 78.0047Z" fill="#FF0D00"/>
<path d="M198.115 78.5937L198.115 78.5938L198.115 78.5937ZM198.115 78.5937L198.115 78.5934L198.115 78.5937ZM213.667 72.4004L213.667 72.3985C213.66 66.6546 211.376 61.1478 207.314 57.0862C203.253 53.0247 197.746 50.7401 192.002 50.7337H192C187.715 50.7337 183.526 52.0045 179.963 54.3852C176.4 56.766 173.623 60.1498 171.983 64.1089C170.343 68.068 169.914 72.4244 170.75 76.6273C171.586 80.8303 173.649 84.6909 176.679 87.721C179.709 90.7512 183.57 92.8147 187.773 93.6507C191.976 94.4867 196.332 94.0577 200.291 92.4178C204.251 90.7779 207.634 88.0008 210.015 84.4377C212.396 80.8747 213.667 76.6856 213.667 72.4004ZM198.114 78.5941L198.114 78.594L198.024 78.6838L198.024 78.684L198.114 78.5944L198.114 78.5941ZM185.807 66.2856L185.806 66.2858L190.964 71.2612L190.964 71.2611L185.897 66.196L186.894 65.1988L185.897 66.1958L185.896 66.1958L185.808 66.2846L185.807 66.2856ZM198.115 66.2858L198.114 66.2857L198.115 66.2858ZM198.114 66.2856L198.114 66.2853L198.114 66.2856ZM198.113 66.2846L198.025 66.1958L198.024 66.1958L198.113 66.2846ZM185.806 78.5938L185.806 78.5939L185.806 78.5938ZM185.807 78.594L185.807 78.5941L185.807 78.594ZM185.807 78.5944L185.896 78.684L185.897 78.684L186.894 79.6809L185.897 78.6838L190.964 73.6186L190.964 73.6186L185.807 78.5944Z" stroke="white" stroke-width="3.33333"/>
</g>
<path d="M274 27.75C274 25.6789 275.679 24 277.75 24H304.405C307.371 24 310.241 25.0548 312.501 26.9758L329.596 41.5063C332.39 43.8813 334 47.3634 334 51.0305V100.25C334 102.321 332.321 104 330.25 104H277.75C275.679 104 274 102.321 274 100.25V27.75Z" fill="#FCFCFD"/>
<path d="M330.25 103.5H277.75C275.955 103.5 274.5 102.045 274.5 100.25V27.75C274.5 25.9551 275.955 24.5 277.75 24.5H304.405C307.253 24.5 310.007 25.5126 312.177 27.3567L329.272 41.8872C331.954 44.1672 333.5 47.5101 333.5 51.0305V100.25C333.5 102.045 332.045 103.5 330.25 103.5Z" stroke="#E5E5EB"/>
<path d="M307.334 25.533C306.923 25.0946 306.368 24.7029 305.75 24.5587V24.5129C307.873 24.6224 309.907 25.4269 311.534 26.8097L329.867 42.3927C332.044 44.2438 333.35 46.91 333.488 49.75H333.441C333.297 49.1318 332.905 48.5775 332.467 48.1665C331.918 47.6516 331.176 47.25 330.5 47.25H311.5C309.705 47.25 308.25 45.7949 308.25 44V27.5C308.25 26.8238 307.848 26.0822 307.334 25.533Z" fill="#F3F3F8" stroke="#E5E5EB"/>
<mask id="path-16-inside-3_3173_19799" fill="white">
<path d="M277.75 104H330.25C332.321 104 334 102.321 334 100.25V97.75C334 99.8211 332.321 101.5 330.25 101.5H277.75C275.679 101.5 274 99.8211 274 97.75V100.25C274 102.321 275.679 104 277.75 104Z"/>
</mask>
<path d="M277.75 104H330.25C332.321 104 334 102.321 334 100.25V97.75C334 99.8211 332.321 101.5 330.25 101.5H277.75C275.679 101.5 274 99.8211 274 97.75V100.25C274 102.321 275.679 104 277.75 104Z" fill="#E5E5EB"/>
<path d="M330.25 101.5H277.75V106.5H330.25V101.5ZM277.75 101.5C277.06 101.5 276.5 100.94 276.5 100.25H271.5C271.5 103.702 274.298 106.5 277.75 106.5V101.5ZM331.5 100.25C331.5 100.94 330.94 101.5 330.25 101.5V106.5C333.702 106.5 336.5 103.702 336.5 100.25H331.5ZM330.25 99H277.75V104H330.25V99ZM277.75 99C277.06 99 276.5 98.4404 276.5 97.75H271.5C271.5 101.202 274.298 104 277.75 104V99ZM331.5 97.75C331.5 98.4404 330.94 99 330.25 99V104C333.702 104 336.5 101.202 336.5 97.75H331.5ZM276.5 100.25V97.75H271.5V100.25H276.5ZM336.5 100.25V97.75H331.5V100.25H336.5Z" fill="#E5E5EB" mask="url(#path-16-inside-3_3173_19799)"/>
</g>
<defs>
<filter id="filter0_d_3173_19799" x="-8" y="0" width="400" height="192" filterUnits="userSpaceOnUse" color-interpolation-filters="sRGB">
<feFlood flood-opacity="0" result="BackgroundImageFix"/>
<feColorMatrix in="SourceAlpha" type="matrix" values="0 0 0 0 0 0 0 0 0 0 0 0 0 0 0 0 0 0 127 0" result="hardAlpha"/>
<feOffset dy="32"/>
<feGaussianBlur stdDeviation="20"/>
<feComposite in2="hardAlpha" operator="out"/>
<feColorMatrix type="matrix" values="0 0 0 0 0 0 0 0 0 0 0 0 0 0 0 0 0 0 0.08 0"/>
<feBlend mode="normal" in2="BackgroundImageFix" result="effect1_dropShadow_3173_19799"/>
<feBlend mode="normal" in="SourceGraphic" in2="effect1_dropShadow_3173_19799" result="shape"/>
</filter>
<filter id="filter1_dd_3173_19799" x="161.523" y="47.6383" width="60.9537" height="60.9527" filterUnits="userSpaceOnUse" color-interpolation-filters="sRGB">
<feFlood flood-opacity="0" result="BackgroundImageFix"/>
<feColorMatrix in="SourceAlpha" type="matrix" values="0 0 0 0 0 0 0 0 0 0 0 0 0 0 0 0 0 0 127 0" result="hardAlpha"/>
<feMorphology radius="1.42857" operator="erode" in="SourceAlpha" result="effect1_dropShadow_3173_19799"/>
<feOffset dy="5.71429"/>
<feGaussianBlur stdDeviation="4.28571"/>
<feComposite in2="hardAlpha" operator="out"/>
<feColorMatrix type="matrix" values="0 0 0 0 0 0 0 0 0 0 0 0 0 0 0 0 0 0 0.1 0"/>
<feBlend mode="normal" in2="BackgroundImageFix" result="effect1_dropShadow_3173_19799"/>
<feColorMatrix in="SourceAlpha" type="matrix" values="0 0 0 0 0 0 0 0 0 0 0 0 0 0 0 0 0 0 127 0" result="hardAlpha"/>
<feMorphology radius="2.85714" operator="erode" in="SourceAlpha" result="effect2_dropShadow_3173_19799"/>
<feOffset dy="2.85714"/>
<feGaussianBlur stdDeviation="2.85714"/>
<feComposite in2="hardAlpha" operator="out"/>
<feColorMatrix type="matrix" values="0 0 0 0 0 0 0 0 0 0 0 0 0 0 0 0 0 0 0.1 0"/>
<feBlend mode="normal" in2="effect1_dropShadow_3173_19799" result="effect2_dropShadow_3173_19799"/>
<feBlend mode="normal" in="SourceGraphic" in2="effect2_dropShadow_3173_19799" result="shape"/>
</filter>
</defs>
</svg>
