<svg width="28" height="28" viewBox="0 0 139 139" fill="none" xmlns="http://www.w3.org/2000/svg">
<path d="M0 29.0909C0 13.0244 13.0244 0 29.0909 0H109.091C125.157 0 138.182 13.0244 138.182 29.0909V109.091C138.182 125.157 125.157 138.182 109.091 138.182H29.0909C13.0244 138.182 0 125.157 0 109.091V29.0909Z" fill="#091E42"/>
<path d="M51.2954 36.8485H38.6553L87.4101 106.369H101.856L51.2954 36.8485Z" fill="#FAFBFC"/>
<path fill-rule="evenodd" clip-rule="evenodd" d="M100.049 36.8485H87.409L74.4079 54.725L81.18 63.7545L100.049 36.8485ZM76.0849 71.0197L69.3496 61.6801L62.587 70.9788L69.3538 80.6178L76.0849 71.0197ZM64.1991 87.9679L57.2447 78.3244L36.8484 106.369H51.2943L64.1991 87.9679Z" fill="#FAFBFC"/>
</svg>
