<svg width="118" height="104" viewBox="0 0 118 104" fill="none" xmlns="http://www.w3.org/2000/svg">
<path d="M86.8866 61H75.7728C75.1596 61 74.6594 60.4996 74.6594 59.886V51.1491C74.6594 50.5355 75.1596 50.0351 75.7728 50.0351H79.1467C79.4959 50.0351 79.8274 50.2019 80.0358 50.4839L80.5101 51.2285H86.8866C87.4999 51.2285 88 51.7289 88 52.3424V59.888C87.998 60.4996 87.4979 61 86.8866 61ZM76.0904 59.5703H86.5671V52.6602H80.3374C79.9921 52.6602 79.6627 52.4953 79.4523 52.2193L78.972 51.4668H76.0904V59.5703ZM65.0559 61H53.9421C53.3289 61 52.8307 60.4996 52.8307 59.886V51.1491C52.8307 50.5355 53.3289 50.0351 53.9421 50.0351H57.3159C57.6632 50.0351 57.9947 50.2019 58.2031 50.4799L58.6813 51.2285H65.0559C65.6692 51.2285 66.1693 51.7289 66.1693 52.3424V59.888C66.1673 60.4996 65.6672 61 65.0559 61ZM54.2596 59.5703H64.7384V52.6602H58.5067C58.1634 52.6602 57.8319 52.4953 57.6216 52.2193L57.1413 51.4668H54.2596V59.5703ZM43.2252 61H32.1114C31.4981 61 31 60.4996 31 59.886V51.1491C31 50.5355 31.4981 50.0351 32.1114 50.0351H35.4852C35.8325 50.0351 36.164 50.2019 36.3723 50.4799L36.8506 51.2285H43.2252C43.8384 51.2285 44.3366 51.7289 44.3366 52.3424V59.888C44.3366 60.4996 43.8384 61 43.2252 61ZM32.4289 59.5703H42.9077V52.6602H36.676C36.3326 52.6602 36.0012 52.4953 35.7908 52.2193L35.3106 51.4687H32.4289V59.5703ZM85.1342 55.043H83.3143V53.6133H85.1342V55.043ZM63.3035 55.043H61.4836V53.6133H63.3035V55.043ZM41.4728 55.043H39.6529V53.6133H41.4728V55.043ZM82.0442 48.3711H80.6153V40.1504H63.1229C62.8332 41.6138 61.6781 42.7695 60.2155 43.0594V48.3711H58.7865V43.0594C57.3219 42.7695 56.1668 41.6138 55.8791 40.1504H38.3828V48.3711H36.9538V39.4355C36.9538 39.0404 37.2734 38.7207 37.6683 38.7207H55.8771C56.1668 37.2573 57.3219 36.1016 58.7845 35.8117V33.2005H45.6067C45.2118 33.2005 44.8923 32.8808 44.8923 32.4857V16.6003C44.8923 16.2051 45.2118 15.8854 45.6067 15.8854H45.6683C45.182 15.2599 44.8923 14.4736 44.8923 13.6217C44.8923 11.8267 46.1783 10.3255 47.8791 9.9959C47.8732 9.88073 47.8692 9.76556 47.8692 9.65039C47.8692 6.51898 50.4154 3.97135 53.5452 3.97135C54.1326 3.97135 54.7161 4.06667 55.2857 4.25928C56.27 1.71364 58.7131 0 61.4836 0C64.2204 0 66.6595 1.69775 67.6577 4.21559C68.2353 4.05277 68.8267 3.97135 69.4221 3.97135C73.0995 3.97135 76.0904 6.96377 76.0904 10.6432C76.0904 12.7679 75.0921 14.6622 73.5421 15.8854H75.3759C75.7708 15.8854 76.0904 16.2051 76.0904 16.6003V32.4857C76.0904 32.8808 75.7708 33.2005 75.3759 33.2005H60.2135V35.8097C61.6781 36.0996 62.8332 37.2553 63.1209 38.7187H81.3297C81.7247 38.7187 82.0442 39.0384 82.0442 39.4336V48.3711ZM59.499 37.1719C58.2527 37.1719 57.2366 38.1866 57.2366 39.4355C57.2366 40.6845 58.2527 41.6992 59.499 41.6992C60.7453 41.6992 61.7615 40.6845 61.7615 39.4355C61.7615 38.1866 60.7453 37.1719 59.499 37.1719ZM46.3212 31.7708H74.6614V25.2578H46.3212V31.7708ZM46.3212 23.8281H74.6614V17.3151H46.3212V23.8281ZM48.5836 15.8854H69.4221C72.3117 15.8854 74.6614 13.5324 74.6614 10.6432C74.6614 7.75407 72.3117 5.40104 69.4221 5.40104C68.7632 5.40104 68.1083 5.53011 67.4771 5.78626C67.2906 5.85973 67.0743 5.85378 66.8917 5.76243C66.7091 5.67109 66.5741 5.50628 66.5186 5.3097C65.9014 3.02617 63.8314 1.42969 61.4836 1.42969C59.0941 1.42969 57.0143 3.05794 56.4229 5.38913C56.3693 5.59762 56.2244 5.77236 56.0299 5.86172C55.8354 5.95306 55.6092 5.95107 55.4147 5.85378C54.8054 5.55394 54.1763 5.40104 53.5452 5.40104C51.2033 5.40104 49.2981 7.30729 49.2981 9.65039C49.2981 9.9403 49.3279 10.2302 49.3854 10.5082C49.4291 10.7207 49.3735 10.9451 49.2326 11.1118C49.0917 11.2786 48.8416 11.3601 48.665 11.366C48.6591 11.366 48.6531 11.366 48.6472 11.366C47.3254 11.366 46.3212 12.3787 46.3212 13.6198C46.3212 14.8687 47.3373 15.8854 48.5836 15.8854ZM71.4067 29.2292H67.6022V27.7995H71.4067V29.2292ZM61.4836 29.2292H49.576V27.7995H61.4836V29.2292ZM71.4067 21.2865H67.6022V19.8568H71.4067V21.2865ZM61.4836 21.2865H49.576V19.8568H61.4836V21.2865Z" fill="url(#paint0_linear)"/>
<path d="M2.95898 78.4902C3.20312 78.4902 3.44238 78.4658 3.67676 78.4121C3.90625 78.3584 4.12109 78.2754 4.32129 78.1631C4.52148 78.0508 4.69727 77.9141 4.84863 77.7578C4.99512 77.6016 5.1123 77.416 5.2002 77.1963C5.28809 76.9766 5.33203 76.7373 5.33203 76.4834C5.33203 76.21 5.28809 75.9658 5.2002 75.751C5.04883 75.3994 4.74609 75.1016 4.29688 74.8574C4.10645 74.7598 3.7207 74.5938 3.13477 74.3643L3.12988 74.3594H3.125H3.12012L3.11523 74.3545H3.11035L3.10547 74.3496C2.59277 74.1543 2.25098 73.998 2.08008 73.8809C1.76758 73.6758 1.61133 73.417 1.61621 73.0947C1.61621 72.8799 1.6748 72.6943 1.79688 72.5381C1.91406 72.3818 2.07031 72.2646 2.25586 72.1865C2.44141 72.1084 2.65137 72.0693 2.87598 72.0693C3.14941 72.0693 3.43262 72.1279 3.73535 72.2451C4.03809 72.3623 4.32617 72.5381 4.60449 72.7627L5.12695 72.0889C4.78516 71.8203 4.42383 71.6152 4.04297 71.4688C3.65723 71.3271 3.27148 71.2588 2.88086 71.2588C2.48047 71.2588 2.11426 71.3418 1.78223 71.5078C1.4502 71.6738 1.18652 71.8984 0.996094 72.1865C0.805664 72.4746 0.712891 72.792 0.712891 73.1387C0.712891 73.3096 0.732422 73.4707 0.776367 73.6221C0.820312 73.7734 0.874023 73.9053 0.942383 74.0176C1.01074 74.1348 1.09863 74.2422 1.21582 74.3496C1.33301 74.457 1.44531 74.5449 1.55273 74.6182C1.66016 74.6914 1.79199 74.7646 1.95312 74.8428C2.11426 74.9209 2.25586 74.9844 2.37793 75.0332C2.5 75.082 2.65137 75.1406 2.83203 75.209L2.8418 75.2139H2.84668H2.85156L2.85645 75.2188H2.86133L2.86621 75.2236H2.87109H2.87598L2.88086 75.2285H2.88574H2.89062L2.89551 75.2334H2.90039L2.90527 75.2383H2.91016H2.91504L2.91992 75.2432H2.9248L2.92969 75.248H2.93457H2.93945L2.94434 75.2529H2.94922H2.9541L2.95898 75.2578H2.96387L2.96875 75.2627H2.97363H2.97852L2.9834 75.2676C3.47168 75.4531 3.80371 75.6045 3.97949 75.7266C4.27246 75.9365 4.42383 76.2197 4.42383 76.5811C4.42383 76.918 4.28711 77.1816 4.02344 77.377C3.75977 77.5723 3.4082 77.665 2.96875 77.665C2.60742 77.665 2.25098 77.5869 1.89941 77.4258C1.54785 77.2646 1.24512 77.0303 0.996094 76.7227L0.444336 77.3916C0.786133 77.7627 1.17188 78.0361 1.61133 78.2168C2.0459 78.4023 2.49512 78.4902 2.95898 78.4902Z" fill="url(#paint1_linear)"/>
<path d="M7.94922 78.4902C8.125 78.4902 8.2959 78.4756 8.45215 78.4463C8.6084 78.417 8.73047 78.3779 8.82812 78.3389C8.9209 78.2998 9.01855 78.2461 9.12598 78.1875L8.91113 77.4795C8.61816 77.6455 8.34473 77.7285 8.09082 77.7285C7.86621 77.7285 7.71484 77.6602 7.62695 77.5234C7.53906 77.3867 7.49512 77.1621 7.49512 76.8545V74.2617H9.10645V73.5586H7.49512V71.8057L6.68457 71.8936V73.5586H6.06445V74.2617H6.68457V76.9766C6.68457 77.9873 7.10449 78.4902 7.94922 78.4902Z" fill="url(#paint2_linear)"/>
<path d="M13.7793 73.5586V74.2812H13.7598C13.5547 74.0273 13.3105 73.8369 13.0225 73.7002C12.7344 73.5684 12.4219 73.5 12.0898 73.5C11.6357 73.5 11.2256 73.6123 10.8643 73.832C10.498 74.0518 10.2148 74.3545 10.0098 74.7354C9.80469 75.1211 9.70703 75.5508 9.70703 76.0244C9.70703 76.3906 9.76562 76.7275 9.89258 77.0352C10.0146 77.3477 10.1807 77.6064 10.3955 77.8164C10.6104 78.0312 10.8643 78.1973 11.1572 78.3145C11.4502 78.4316 11.7627 78.4902 12.0947 78.4902C12.4463 78.4902 12.7686 78.417 13.0615 78.2705C13.3545 78.124 13.5986 77.9189 13.7988 77.6553H13.8135V78.4268H14.5898V73.5586H13.7793ZM12.1729 77.748C11.6846 77.748 11.2891 77.5869 10.9863 77.2646C10.6836 76.9424 10.5322 76.5273 10.5322 76.0293C10.5322 75.4971 10.6885 75.0674 11.001 74.7354C11.3135 74.4082 11.709 74.2422 12.1826 74.2422C12.4072 74.2422 12.6221 74.291 12.8271 74.3838C13.0273 74.4766 13.1982 74.6035 13.3447 74.7598C13.4863 74.9209 13.5986 75.1113 13.6816 75.3311C13.7646 75.5508 13.8086 75.7852 13.8086 76.0293C13.8086 76.2832 13.7646 76.5176 13.6768 76.7324C13.5889 76.9473 13.4668 77.1328 13.3203 77.2793C13.1689 77.4258 12.9932 77.543 12.7979 77.626C12.5977 77.709 12.3877 77.748 12.1729 77.748Z" fill="url(#paint3_linear)"/>
<path d="M18.4961 73.5C18.1641 73.5 17.8662 73.583 17.5928 73.7393C17.3193 73.8955 17.0947 74.1201 16.9141 74.4082H16.8945V73.5586H16.084V78.4268H16.8945V76.0781C16.8945 75.7559 16.9531 75.4629 17.0703 75.209C17.1875 74.9551 17.3584 74.7549 17.583 74.6084C17.8076 74.4619 18.0713 74.3887 18.374 74.3887C18.4717 74.3887 18.5791 74.3936 18.6963 74.4033V73.5098C18.6572 73.5049 18.5889 73.5 18.4961 73.5Z" fill="url(#paint4_linear)"/>
<path d="M21.0352 78.4902C21.2109 78.4902 21.3818 78.4756 21.5381 78.4463C21.6943 78.417 21.8164 78.3779 21.9141 78.3389C22.0068 78.2998 22.1045 78.2461 22.2119 78.1875L21.9971 77.4795C21.7041 77.6455 21.4307 77.7285 21.1768 77.7285C20.9521 77.7285 20.8008 77.6602 20.7129 77.5234C20.625 77.3867 20.5811 77.1621 20.5811 76.8545V74.2617H22.1924V73.5586H20.5811V71.8057L19.7705 71.8936V73.5586H19.1504V74.2617H19.7705V76.9766C19.7705 77.9873 20.1904 78.4902 21.0352 78.4902Z" fill="url(#paint5_linear)"/>
<path d="M31.8506 73.5586L30.6104 77.1963H30.5908L29.4678 73.5586H28.7646L27.6562 77.1914H27.6367L26.3965 73.5586H25.5713L27.2607 78.4268H28.0078L29.1064 74.8818H29.126L30.2197 78.4268H30.9863L32.6758 73.5586H31.8506Z" fill="url(#paint6_linear)"/>
<path d="M34.2236 72.6553C34.3799 72.6553 34.5166 72.6016 34.6289 72.4893C34.7412 72.3818 34.7998 72.2451 34.7998 72.0889C34.7998 71.9863 34.7705 71.8887 34.7217 71.8008C34.668 71.7129 34.5996 71.6445 34.5117 71.5957C34.4238 71.5469 34.3262 71.5176 34.2236 71.5176C34.0576 71.5176 33.9209 71.5762 33.8135 71.6836C33.7012 71.7959 33.6475 71.9326 33.6475 72.0889C33.6475 72.2451 33.7012 72.3818 33.8135 72.4893C33.9209 72.6016 34.0576 72.6553 34.2236 72.6553ZM33.8135 78.4268H34.6191V73.5586H33.8135V78.4268Z" fill="url(#paint7_linear)"/>
<path d="M37.5684 78.4902C37.7441 78.4902 37.915 78.4756 38.0713 78.4463C38.2275 78.417 38.3496 78.3779 38.4473 78.3389C38.54 78.2998 38.6377 78.2461 38.7451 78.1875L38.5303 77.4795C38.2373 77.6455 37.9639 77.7285 37.71 77.7285C37.4854 77.7285 37.334 77.6602 37.2461 77.5234C37.1582 77.3867 37.1143 77.1621 37.1143 76.8545V74.2617H38.7256V73.5586H37.1143V71.8057L36.3037 71.8936V73.5586H35.6836V74.2617H36.3037V76.9766C36.3037 77.9873 36.7236 78.4902 37.5684 78.4902Z" fill="url(#paint8_linear)"/>
<path d="M42.4561 73.5C42.2705 73.5 42.0898 73.5195 41.9189 73.5537C41.748 73.5928 41.5869 73.6465 41.4355 73.7148C41.2793 73.7881 41.1377 73.876 41.0107 73.9834C40.8789 74.0908 40.7617 74.2129 40.6641 74.3496H40.6445V71.0635H39.834V78.4268H40.6445V75.9756C40.6445 75.4336 40.7812 75.0088 41.0645 74.7012C41.3477 74.3984 41.7334 74.2422 42.2217 74.2422C43.0127 74.2422 43.4131 74.7402 43.4131 75.7363V78.4316H44.2236V75.5068C44.2236 74.8379 44.0625 74.335 43.75 74.0029C43.4375 73.6709 43.0029 73.5 42.4561 73.5Z" fill="url(#paint9_linear)"/>
<path d="M48.6426 78.4268H49.4482V74.2617H50.8301V73.5586H49.4482V72.6504C49.4482 72.0547 49.668 71.7568 50.1123 71.7568C50.3516 71.7568 50.6348 71.8398 50.9619 72.0059L51.1426 71.3076C50.8008 71.1025 50.4199 71 50.0098 71C49.5703 71 49.2285 71.1367 48.9941 71.4004C48.7598 71.6641 48.6426 72.0547 48.6426 72.5723V73.5586H48.0469V74.2617H48.6426V78.4268Z" fill="url(#paint10_linear)"/>
<path d="M55.0977 73.5586V75.917C55.0977 76.2002 55.0586 76.4541 54.9805 76.6885C54.9023 76.9229 54.7949 77.1182 54.6631 77.2695C54.5312 77.4209 54.3799 77.5381 54.2041 77.6211C54.0283 77.7041 53.8477 77.7432 53.6523 77.7432C53.252 77.7432 52.9541 77.626 52.7588 77.3916C52.5635 77.1572 52.4658 76.7666 52.4658 76.2246V73.5586H51.6553V76.459C51.6553 77.1377 51.8115 77.6455 52.1338 77.9824C52.4561 78.3242 52.9053 78.4902 53.4814 78.4902C53.7939 78.4902 54.0918 78.417 54.375 78.2656C54.6533 78.1191 54.8877 77.9043 55.083 77.6211H55.0977V78.4268H55.9082V73.5586H55.0977Z" fill="url(#paint11_linear)"/>
<path d="M57.4756 78.4268H58.2812V71.0635H57.4756V78.4268Z" fill="url(#paint12_linear)"/>
<path d="M59.9756 78.4268H60.7812V71.0635H59.9756V78.4268Z" fill="url(#paint13_linear)"/>
<path d="M66.6406 78.4902C66.9238 78.4902 67.1777 78.4561 67.4023 78.3828C67.627 78.3096 67.8125 78.207 67.9541 78.0801C68.0957 77.9531 68.2031 77.8018 68.2764 77.6357C68.3496 77.4697 68.3887 77.2891 68.3887 77.0938C68.3887 76.8887 68.3545 76.7129 68.291 76.5615C68.1836 76.3223 67.9639 76.1172 67.6318 75.9512C67.5244 75.9023 67.207 75.7754 66.6895 75.5703C66.5332 75.5117 66.4111 75.4629 66.3184 75.4189C66.2207 75.375 66.1279 75.3213 66.0352 75.2578C65.9424 75.1992 65.874 75.1309 65.8301 75.0527C65.7861 74.9795 65.7666 74.8965 65.7666 74.8037C65.7666 74.6377 65.8398 74.501 65.9912 74.3936C66.1426 74.2861 66.3184 74.2324 66.5137 74.2324C66.9824 74.2324 67.417 74.4033 67.8076 74.7402L68.2275 74.1006C67.7393 73.7002 67.1777 73.5 66.5527 73.5C66.0889 73.5 65.7031 73.627 65.4004 73.876C65.0928 74.125 64.9414 74.4326 64.9414 74.8037C64.9414 74.9795 64.9658 75.1357 65.0195 75.2773C65.0732 75.4238 65.1416 75.541 65.2246 75.6387C65.3027 75.7363 65.415 75.8291 65.5518 75.917C65.6885 76.0049 65.8154 76.0732 65.9424 76.127C66.0693 76.1855 66.2207 76.2441 66.4062 76.3027C66.4307 76.3125 66.4697 76.3271 66.5234 76.3418C66.626 76.3809 66.7041 76.4102 66.7529 76.4297C66.8018 76.4492 66.8701 76.4736 66.9531 76.5029C67.0312 76.5322 67.0947 76.5615 67.1338 76.5811C67.1729 76.6006 67.2217 76.6299 67.2803 76.6592C67.3389 76.6934 67.3779 76.7227 67.4072 76.752C67.4316 76.7812 67.4609 76.8105 67.4902 76.8496C67.5195 76.8887 67.5391 76.9277 67.5488 76.9668C67.5586 77.0107 67.5635 77.0547 67.5635 77.1035C67.5635 77.2891 67.4805 77.4453 67.3145 77.5674C67.1484 77.6943 66.9238 77.7529 66.6406 77.7529C66.3184 77.7529 66.04 77.7041 65.8057 77.6064C65.5713 77.5088 65.3564 77.3672 65.1514 77.1719L64.7314 77.7871C65.2588 78.2559 65.8936 78.4902 66.6406 78.4902Z" fill="url(#paint14_linear)"/>
<path d="M72.7979 73.5586L71.3281 77.2646H71.3037L69.7217 73.5586H68.8574L70.9131 78.2363L70.0439 80.4043H70.9033L73.6572 73.5586H72.7979Z" fill="url(#paint15_linear)"/>
<path d="M77.2705 73.5C76.9043 73.5 76.5674 73.5781 76.2646 73.7344C75.957 73.8906 75.7031 74.1104 75.5029 74.3984H75.4883V73.5586H74.6777V78.4268H75.4883V75.9951C75.4883 75.458 75.625 75.0283 75.9033 74.7158C76.1816 74.4033 76.5527 74.2422 77.0166 74.2422C77.2021 74.2422 77.3633 74.2715 77.5049 74.3203C77.6416 74.374 77.7686 74.457 77.876 74.5742C77.9834 74.6914 78.0615 74.8525 78.1201 75.0479C78.1787 75.248 78.208 75.4873 78.208 75.7656V78.4316H79.0186V75.541C79.0186 74.8672 78.8623 74.3545 78.5498 74.0127C78.2373 73.6709 77.8125 73.5 77.2705 73.5Z" fill="url(#paint16_linear)"/>
<path d="M82.5879 78.4902C83.0029 78.4902 83.3887 78.417 83.7402 78.2607C84.0918 78.1094 84.3799 77.9092 84.5996 77.665L84.0381 77.1621C83.8818 77.3379 83.6816 77.4795 83.4375 77.5869C83.1934 77.6943 82.9297 77.7432 82.6562 77.7432C82.168 77.7432 81.7676 77.582 81.46 77.2598C81.1523 76.9375 81.001 76.5127 81.001 75.9951C81.001 75.4775 81.1523 75.0576 81.46 74.7305C81.7676 74.4082 82.168 74.2422 82.6562 74.2422C82.9346 74.2422 83.1934 74.3008 83.4277 74.4082C83.6621 74.5156 83.8623 74.667 84.0186 74.8525L84.5801 74.3643C84.3457 74.0859 84.0527 73.8711 83.7012 73.7197C83.3496 73.5732 82.9883 73.4951 82.6172 73.4951C82.1436 73.4951 81.7236 73.6025 81.3525 73.8125C80.9814 74.0273 80.6934 74.3203 80.4883 74.7012C80.2832 75.082 80.1807 75.5166 80.1807 76C80.1807 76.4883 80.2832 76.918 80.4883 77.2988C80.6934 77.6797 80.9766 77.9727 81.3428 78.1777C81.709 78.3877 82.124 78.4902 82.5879 78.4902Z" fill="url(#paint17_linear)"/>
<path d="M90.9619 73.5C90.625 73.5 90.3125 73.5684 90.0244 73.7002C89.7363 73.8369 89.4922 74.0273 89.292 74.2812H89.2725V71.0635H88.4619V78.4268H89.2383V77.6553H89.2529C89.4482 77.9238 89.6924 78.1289 89.9854 78.2754C90.2783 78.4219 90.6006 78.4902 90.957 78.4902C91.2891 78.4902 91.6016 78.4316 91.8945 78.3145C92.1875 78.1973 92.4365 78.0312 92.6514 77.8164C92.8662 77.6064 93.0322 77.3477 93.1592 77.0352C93.2812 76.7275 93.3447 76.3906 93.3447 76.0244C93.3447 75.5508 93.2422 75.1211 93.0371 74.7354C92.832 74.3545 92.5488 74.0518 92.1875 73.832C91.8213 73.6123 91.4111 73.5 90.9619 73.5ZM90.8789 77.748C90.6592 77.748 90.4492 77.709 90.2539 77.626C90.0537 77.543 89.8779 77.4258 89.7314 77.2793C89.5801 77.1328 89.4629 76.9473 89.375 76.7324C89.2871 76.5176 89.2432 76.2832 89.2432 76.0293C89.2432 75.7021 89.3115 75.3994 89.4531 75.126C89.5898 74.8525 89.7852 74.6377 90.0342 74.4814C90.2832 74.3252 90.5615 74.2422 90.8691 74.2422C91.3379 74.2422 91.7334 74.4082 92.0459 74.7354C92.3584 75.0674 92.5195 75.4971 92.5195 76.0293C92.5195 76.5273 92.3682 76.9424 92.0654 77.2646C91.7627 77.5869 91.3672 77.748 90.8789 77.748Z" fill="url(#paint18_linear)"/>
<path d="M97.9297 73.5586V75.917C97.9297 76.2002 97.8906 76.4541 97.8125 76.6885C97.7344 76.9229 97.627 77.1182 97.4951 77.2695C97.3633 77.4209 97.2119 77.5381 97.0361 77.6211C96.8604 77.7041 96.6797 77.7432 96.4844 77.7432C96.084 77.7432 95.7861 77.626 95.5908 77.3916C95.3955 77.1572 95.2979 76.7666 95.2979 76.2246V73.5586H94.4873V76.459C94.4873 77.1377 94.6436 77.6455 94.9658 77.9824C95.2881 78.3242 95.7373 78.4902 96.3135 78.4902C96.626 78.4902 96.9238 78.417 97.207 78.2656C97.4854 78.1191 97.7197 77.9043 97.915 77.6211H97.9297V78.4268H98.7402V73.5586H97.9297Z" fill="url(#paint19_linear)"/>
<path d="M101.611 78.4902C101.787 78.4902 101.958 78.4756 102.114 78.4463C102.271 78.417 102.393 78.3779 102.49 78.3389C102.583 78.2998 102.681 78.2461 102.788 78.1875L102.573 77.4795C102.28 77.6455 102.007 77.7285 101.753 77.7285C101.528 77.7285 101.377 77.6602 101.289 77.5234C101.201 77.3867 101.157 77.1621 101.157 76.8545V74.2617H102.769V73.5586H101.157V71.8057L100.347 71.8936V73.5586H99.7266V74.2617H100.347V76.9766C100.347 77.9873 100.767 78.4902 101.611 78.4902Z" fill="url(#paint20_linear)"/>
<path d="M105.254 78.4902C105.43 78.4902 105.601 78.4756 105.757 78.4463C105.913 78.417 106.035 78.3779 106.133 78.3389C106.226 78.2998 106.323 78.2461 106.431 78.1875L106.216 77.4795C105.923 77.6455 105.649 77.7285 105.396 77.7285C105.171 77.7285 105.02 77.6602 104.932 77.5234C104.844 77.3867 104.8 77.1621 104.8 76.8545V74.2617H106.411V73.5586H104.8V71.8057L103.989 71.8936V73.5586H103.369V74.2617H103.989V76.9766C103.989 77.9873 104.409 78.4902 105.254 78.4902Z" fill="url(#paint21_linear)"/>
<path d="M109.512 78.4902C109.985 78.4902 110.415 78.3877 110.796 78.1777C111.177 77.9727 111.475 77.6748 111.689 77.2939C111.904 76.9131 112.017 76.4834 112.017 76C112.017 75.5166 111.904 75.082 111.689 74.7012C111.475 74.3203 111.177 74.0225 110.796 73.8125C110.415 73.6074 109.985 73.5 109.512 73.5C109.141 73.5 108.794 73.5684 108.481 73.6953C108.164 73.8223 107.896 73.998 107.681 74.2227C107.466 74.4473 107.295 74.7109 107.173 75.0186C107.051 75.3262 106.992 75.6533 106.992 76C106.992 76.3516 107.051 76.6787 107.173 76.9814C107.295 77.2842 107.466 77.5479 107.681 77.7725C107.896 77.9971 108.164 78.1729 108.481 78.2998C108.794 78.4268 109.141 78.4902 109.512 78.4902ZM109.512 77.7432C109.18 77.7432 108.887 77.665 108.628 77.5088C108.364 77.3525 108.164 77.1426 108.022 76.8789C107.881 76.6152 107.812 76.3223 107.812 76C107.812 75.6777 107.881 75.3848 108.022 75.1162C108.159 74.8525 108.359 74.6377 108.623 74.4814C108.882 74.3252 109.18 74.2471 109.512 74.2471C109.824 74.2471 110.107 74.3203 110.361 74.4668C110.615 74.6133 110.82 74.8232 110.972 75.0918C111.118 75.3604 111.196 75.6631 111.196 76C111.196 76.3369 111.118 76.6396 110.972 76.9033C110.82 77.1719 110.615 77.377 110.361 77.5234C110.103 77.6699 109.819 77.7432 109.512 77.7432Z" fill="url(#paint22_linear)"/>
<path d="M115.854 73.5C115.488 73.5 115.151 73.5781 114.849 73.7344C114.541 73.8906 114.287 74.1104 114.087 74.3984H114.072V73.5586H113.262V78.4268H114.072V75.9951C114.072 75.458 114.209 75.0283 114.487 74.7158C114.766 74.4033 115.137 74.2422 115.601 74.2422C115.786 74.2422 115.947 74.2715 116.089 74.3203C116.226 74.374 116.353 74.457 116.46 74.5742C116.567 74.6914 116.646 74.8525 116.704 75.0479C116.763 75.248 116.792 75.4873 116.792 75.7656V78.4316H117.603V75.541C117.603 74.8672 117.446 74.3545 117.134 74.0127C116.821 73.6709 116.396 73.5 115.854 73.5Z" fill="url(#paint23_linear)"/>
<path fill-rule="evenodd" clip-rule="evenodd" d="M58.5 85.925V85H59.5V85.925H58.5ZM58.5 89.625V87.775H59.5V89.625H58.5ZM58.5 93.325V91.475H59.5V93.325H58.5ZM58.5 97.025V95.175H59.5V97.025H58.5ZM58.5 100.725V98.875H59.5V100.725H58.5ZM58.5 103.5V102.575H59.5V103.5H58.5Z" fill="url(#paint24_linear)"/>
<defs>
<linearGradient id="paint0_linear" x1="59.5" y1="0" x2="59.5" y2="61" gradientUnits="userSpaceOnUse">
<stop stop-color="#0BC4FF"/>
<stop offset="1" stop-color="#0046F9"/>
</linearGradient>
<linearGradient id="paint1_linear" x1="24" y1="54.9267" x2="100.5" y2="106.427" gradientUnits="userSpaceOnUse">
<stop stop-color="#1087FF"/>
<stop offset="1" stop-color="#0016DF"/>
</linearGradient>
<linearGradient id="paint2_linear" x1="24" y1="54.9267" x2="100.5" y2="106.427" gradientUnits="userSpaceOnUse">
<stop stop-color="#1087FF"/>
<stop offset="1" stop-color="#0016DF"/>
</linearGradient>
<linearGradient id="paint3_linear" x1="24" y1="54.9267" x2="100.5" y2="106.427" gradientUnits="userSpaceOnUse">
<stop stop-color="#1087FF"/>
<stop offset="1" stop-color="#0016DF"/>
</linearGradient>
<linearGradient id="paint4_linear" x1="24" y1="54.9267" x2="100.5" y2="106.427" gradientUnits="userSpaceOnUse">
<stop stop-color="#1087FF"/>
<stop offset="1" stop-color="#0016DF"/>
</linearGradient>
<linearGradient id="paint5_linear" x1="24" y1="54.9267" x2="100.5" y2="106.427" gradientUnits="userSpaceOnUse">
<stop stop-color="#1087FF"/>
<stop offset="1" stop-color="#0016DF"/>
</linearGradient>
<linearGradient id="paint6_linear" x1="24" y1="54.9267" x2="100.5" y2="106.427" gradientUnits="userSpaceOnUse">
<stop stop-color="#1087FF"/>
<stop offset="1" stop-color="#0016DF"/>
</linearGradient>
<linearGradient id="paint7_linear" x1="24" y1="54.9267" x2="100.5" y2="106.427" gradientUnits="userSpaceOnUse">
<stop stop-color="#1087FF"/>
<stop offset="1" stop-color="#0016DF"/>
</linearGradient>
<linearGradient id="paint8_linear" x1="24" y1="54.9267" x2="100.5" y2="106.427" gradientUnits="userSpaceOnUse">
<stop stop-color="#1087FF"/>
<stop offset="1" stop-color="#0016DF"/>
</linearGradient>
<linearGradient id="paint9_linear" x1="24" y1="54.9267" x2="100.5" y2="106.427" gradientUnits="userSpaceOnUse">
<stop stop-color="#1087FF"/>
<stop offset="1" stop-color="#0016DF"/>
</linearGradient>
<linearGradient id="paint10_linear" x1="24" y1="54.9267" x2="100.5" y2="106.427" gradientUnits="userSpaceOnUse">
<stop stop-color="#1087FF"/>
<stop offset="1" stop-color="#0016DF"/>
</linearGradient>
<linearGradient id="paint11_linear" x1="24" y1="54.9267" x2="100.5" y2="106.427" gradientUnits="userSpaceOnUse">
<stop stop-color="#1087FF"/>
<stop offset="1" stop-color="#0016DF"/>
</linearGradient>
<linearGradient id="paint12_linear" x1="24" y1="54.9267" x2="100.5" y2="106.427" gradientUnits="userSpaceOnUse">
<stop stop-color="#1087FF"/>
<stop offset="1" stop-color="#0016DF"/>
</linearGradient>
<linearGradient id="paint13_linear" x1="24" y1="54.9267" x2="100.5" y2="106.427" gradientUnits="userSpaceOnUse">
<stop stop-color="#1087FF"/>
<stop offset="1" stop-color="#0016DF"/>
</linearGradient>
<linearGradient id="paint14_linear" x1="24" y1="54.9267" x2="100.5" y2="106.427" gradientUnits="userSpaceOnUse">
<stop stop-color="#1087FF"/>
<stop offset="1" stop-color="#0016DF"/>
</linearGradient>
<linearGradient id="paint15_linear" x1="24" y1="54.9267" x2="100.5" y2="106.427" gradientUnits="userSpaceOnUse">
<stop stop-color="#1087FF"/>
<stop offset="1" stop-color="#0016DF"/>
</linearGradient>
<linearGradient id="paint16_linear" x1="24" y1="54.9267" x2="100.5" y2="106.427" gradientUnits="userSpaceOnUse">
<stop stop-color="#1087FF"/>
<stop offset="1" stop-color="#0016DF"/>
</linearGradient>
<linearGradient id="paint17_linear" x1="24" y1="54.9267" x2="100.5" y2="106.427" gradientUnits="userSpaceOnUse">
<stop stop-color="#1087FF"/>
<stop offset="1" stop-color="#0016DF"/>
</linearGradient>
<linearGradient id="paint18_linear" x1="24" y1="54.9267" x2="100.5" y2="106.427" gradientUnits="userSpaceOnUse">
<stop stop-color="#1087FF"/>
<stop offset="1" stop-color="#0016DF"/>
</linearGradient>
<linearGradient id="paint19_linear" x1="24" y1="54.9267" x2="100.5" y2="106.427" gradientUnits="userSpaceOnUse">
<stop stop-color="#1087FF"/>
<stop offset="1" stop-color="#0016DF"/>
</linearGradient>
<linearGradient id="paint20_linear" x1="24" y1="54.9267" x2="100.5" y2="106.427" gradientUnits="userSpaceOnUse">
<stop stop-color="#1087FF"/>
<stop offset="1" stop-color="#0016DF"/>
</linearGradient>
<linearGradient id="paint21_linear" x1="24" y1="54.9267" x2="100.5" y2="106.427" gradientUnits="userSpaceOnUse">
<stop stop-color="#1087FF"/>
<stop offset="1" stop-color="#0016DF"/>
</linearGradient>
<linearGradient id="paint22_linear" x1="24" y1="54.9267" x2="100.5" y2="106.427" gradientUnits="userSpaceOnUse">
<stop stop-color="#1087FF"/>
<stop offset="1" stop-color="#0016DF"/>
</linearGradient>
<linearGradient id="paint23_linear" x1="24" y1="54.9267" x2="100.5" y2="106.427" gradientUnits="userSpaceOnUse">
<stop stop-color="#1087FF"/>
<stop offset="1" stop-color="#0016DF"/>
</linearGradient>
<linearGradient id="paint24_linear" x1="39.5" y1="77.5" x2="68" y2="114" gradientUnits="userSpaceOnUse">
<stop stop-color="#25B1FF"/>
<stop offset="1" stop-color="#0032B3"/>
</linearGradient>
</defs>
</svg>
