<svg width="101" height="112" viewBox="0 0 101 112" fill="none" xmlns="http://www.w3.org/2000/svg">
<path d="M80.3616 67.6863H68.0296C67.3492 67.6863 66.7942 67.131 66.7942 66.4502V56.7555C66.7942 56.0747 67.3492 55.5195 68.0296 55.5195H71.7733C72.1609 55.5195 72.5286 55.7046 72.7598 56.0174L73.2862 56.8437H80.3616C81.0421 56.8437 81.5971 57.3989 81.5971 58.0797V66.4524C81.5949 67.131 81.0399 67.6863 80.3616 67.6863ZM68.382 66.0999H80.0071V58.4323H73.0946C72.7114 58.4323 72.3458 58.2494 72.1124 57.9431L71.5795 57.1081H68.382V66.0999ZM56.1381 67.6863H43.806C43.1256 67.6863 42.5728 67.131 42.5728 66.4502V56.7555C42.5728 56.0747 43.1256 55.5195 43.806 55.5195H47.5497C47.9351 55.5195 48.3028 55.7046 48.534 56.013L49.0648 56.8437H56.1381C56.8185 56.8437 57.3735 57.3989 57.3735 58.0797V66.4524C57.3713 67.131 56.8163 67.6863 56.1381 67.6863ZM44.1584 66.0999H55.7857V58.4323H48.871C48.49 58.4323 48.1222 58.2494 47.8888 57.9431L47.3559 57.1081H44.1584V66.0999ZM31.9145 67.6863H19.5824C18.902 67.6863 18.3492 67.131 18.3492 66.4502V56.7555C18.3492 56.0747 18.902 55.5195 19.5824 55.5195H23.3261C23.7115 55.5195 24.0792 55.7046 24.3105 56.013L24.8412 56.8437H31.9145C32.5949 56.8437 33.1477 57.3989 33.1477 58.0797V66.4524C33.1477 67.131 32.5949 67.6863 31.9145 67.6863ZM19.9348 66.0999H31.5621V58.4323H24.6474C24.2664 58.4323 23.8986 58.2494 23.6652 57.9431L23.1323 57.1103H19.9348V66.0999ZM78.4172 61.0763H76.3978V59.4899H78.4172V61.0763ZM54.1936 61.0763H52.1742V59.4899H54.1936V61.0763ZM29.97 61.0763H27.9506V59.4899H29.97V61.0763ZM74.9884 53.6731H73.4029V44.5513H53.9932C53.6717 46.1752 52.39 47.4575 50.767 47.7792V53.6731H49.1815V47.7792C47.5563 47.4575 46.2746 46.1752 45.9553 44.5513H26.5412V53.6731H24.9557V43.7581C24.9557 43.3196 25.3102 42.9649 25.7485 42.9649H45.9531C46.2746 41.3411 47.5563 40.0587 49.1793 39.737V36.8397H34.557C34.1188 36.8397 33.7643 36.4849 33.7643 36.0465V18.4198C33.7643 17.9814 34.1188 17.6266 34.557 17.6266H34.6253C34.0858 16.9326 33.7643 16.0601 33.7643 15.1148C33.7643 13.123 35.1912 11.4573 37.0785 11.0916C37.0719 10.9638 37.0675 10.836 37.0675 10.7082C37.0675 7.23353 39.8928 4.40666 43.3656 4.40666C44.0174 4.40666 44.6649 4.51242 45.2969 4.72614C46.3892 1.90147 49.1 0 52.1742 0C55.2109 0 57.9174 1.88385 59.0251 4.67767C59.6659 4.49699 60.3221 4.40666 60.9828 4.40666C65.0633 4.40666 68.382 7.72707 68.382 11.8098C68.382 14.1674 67.2743 16.2694 65.5544 17.6266H67.5892C68.0274 17.6266 68.382 17.9814 68.382 18.4198V36.0465C68.382 36.4849 68.0274 36.8397 67.5892 36.8397H50.7648V39.7348C52.39 40.0565 53.6717 41.3389 53.991 42.9627H74.1956C74.6339 42.9627 74.9884 43.3174 74.9884 43.7559V53.6731ZM49.972 41.2463C48.5891 41.2463 47.4616 42.3722 47.4616 43.7581C47.4616 45.144 48.5891 46.2699 49.972 46.2699C51.355 46.2699 52.4825 45.144 52.4825 43.7581C52.4825 42.3722 51.355 41.2463 49.972 41.2463ZM35.3498 35.2533H66.7964V28.0263H35.3498V35.2533ZM35.3498 26.4399H66.7964V19.213H35.3498V26.4399ZM37.8602 17.6266H60.9828C64.1891 17.6266 66.7964 15.0157 66.7964 11.8098C66.7964 8.604 64.1891 5.99305 60.9828 5.99305C60.2517 5.99305 59.525 6.13627 58.8247 6.4205C58.6177 6.50202 58.3776 6.49541 58.175 6.39406C57.9724 6.29271 57.8227 6.10983 57.761 5.8917C57.0762 3.35787 54.7793 1.5864 52.1742 1.5864C49.5228 1.5864 47.215 3.39313 46.5587 5.97983C46.4993 6.21118 46.3385 6.40508 46.1227 6.50423C45.9069 6.60558 45.6558 6.60338 45.44 6.49541C44.764 6.16271 44.0659 5.99305 43.3656 5.99305C40.7671 5.99305 38.653 8.10825 38.653 10.7082C38.653 11.0299 38.6861 11.3516 38.7499 11.66C38.7984 11.8958 38.7367 12.1447 38.5803 12.3298C38.424 12.5149 38.1465 12.6052 37.9505 12.6119C37.9439 12.6119 37.9373 12.6119 37.9307 12.6119C36.4641 12.6119 35.3498 13.7356 35.3498 15.1126C35.3498 16.4985 36.4773 17.6266 37.8602 17.6266ZM63.1849 32.433H58.9634V30.8466H63.1849V32.433ZM52.1742 32.433H38.9613V30.8466H52.1742V32.433ZM63.1849 23.6197H58.9634V22.0333H63.1849V23.6197ZM52.1742 23.6197H38.9613V22.0333H52.1742V23.6197Z" fill="url(#paint0_linear)"/>
<path fill-rule="evenodd" clip-rule="evenodd" d="M50 92.3433V91.3169H51.1096V92.3433H50ZM50 96.4488V94.3961H51.1096V96.4488H50ZM50 100.554V98.5016H51.1096V100.554H50ZM50 104.66V102.607H51.1096V104.66H50ZM50 108.766V106.713H51.1096V108.766H50ZM50 111.845V110.818H51.1096V111.845H50Z" fill="url(#paint1_linear)"/>
<path d="M2.51465 81.4268C2.75879 81.4268 2.99805 81.4023 3.23242 81.3486C3.46191 81.2949 3.67676 81.2119 3.87695 81.0996C4.07715 80.9873 4.25293 80.8506 4.4043 80.6943C4.55078 80.5381 4.66797 80.3525 4.75586 80.1328C4.84375 79.9131 4.8877 79.6738 4.8877 79.4199C4.8877 79.1465 4.84375 78.9023 4.75586 78.6875C4.60449 78.3359 4.30176 78.0381 3.85254 77.7939C3.66211 77.6963 3.27637 77.5303 2.69043 77.3008L2.68555 77.2959H2.68066H2.67578L2.6709 77.291H2.66602L2.66113 77.2861C2.14844 77.0908 1.80664 76.9346 1.63574 76.8174C1.32324 76.6123 1.16699 76.3535 1.17188 76.0312C1.17188 75.8164 1.23047 75.6309 1.35254 75.4746C1.46973 75.3184 1.62598 75.2012 1.81152 75.123C1.99707 75.0449 2.20703 75.0059 2.43164 75.0059C2.70508 75.0059 2.98828 75.0645 3.29102 75.1816C3.59375 75.2988 3.88184 75.4746 4.16016 75.6992L4.68262 75.0254C4.34082 74.7568 3.97949 74.5518 3.59863 74.4053C3.21289 74.2637 2.82715 74.1953 2.43652 74.1953C2.03613 74.1953 1.66992 74.2783 1.33789 74.4443C1.00586 74.6104 0.742188 74.835 0.551758 75.123C0.361328 75.4111 0.268555 75.7285 0.268555 76.0752C0.268555 76.2461 0.288086 76.4072 0.332031 76.5586C0.375977 76.71 0.429688 76.8418 0.498047 76.9541C0.566406 77.0713 0.654297 77.1787 0.771484 77.2861C0.888672 77.3936 1.00098 77.4814 1.1084 77.5547C1.21582 77.6279 1.34766 77.7012 1.50879 77.7793C1.66992 77.8574 1.81152 77.9209 1.93359 77.9697C2.05566 78.0186 2.20703 78.0771 2.3877 78.1455L2.39746 78.1504H2.40234H2.40723L2.41211 78.1553H2.41699L2.42188 78.1602H2.42676H2.43164L2.43652 78.165H2.44141H2.44629L2.45117 78.1699H2.45605L2.46094 78.1748H2.46582H2.4707L2.47559 78.1797H2.48047L2.48535 78.1846H2.49023H2.49512L2.5 78.1895H2.50488H2.50977L2.51465 78.1943H2.51953L2.52441 78.1992H2.5293H2.53418L2.53906 78.2041C3.02734 78.3896 3.35938 78.541 3.53516 78.6631C3.82812 78.873 3.97949 79.1562 3.97949 79.5176C3.97949 79.8545 3.84277 80.1182 3.5791 80.3135C3.31543 80.5088 2.96387 80.6016 2.52441 80.6016C2.16309 80.6016 1.80664 80.5234 1.45508 80.3623C1.10352 80.2012 0.800781 79.9668 0.551758 79.6592L0 80.3281C0.341797 80.6992 0.727539 80.9727 1.16699 81.1533C1.60156 81.3389 2.05078 81.4268 2.51465 81.4268Z" fill="url(#paint2_linear)"/>
<path d="M7.50488 81.4268C7.68066 81.4268 7.85156 81.4121 8.00781 81.3828C8.16406 81.3535 8.28613 81.3145 8.38379 81.2754C8.47656 81.2363 8.57422 81.1826 8.68164 81.124L8.4668 80.416C8.17383 80.582 7.90039 80.665 7.64648 80.665C7.42188 80.665 7.27051 80.5967 7.18262 80.46C7.09473 80.3232 7.05078 80.0986 7.05078 79.791V77.1982H8.66211V76.4951H7.05078V74.7422L6.24023 74.8301V76.4951H5.62012V77.1982H6.24023V79.9131C6.24023 80.9238 6.66016 81.4268 7.50488 81.4268Z" fill="url(#paint3_linear)"/>
<path d="M13.335 76.4951V77.2178H13.3154C13.1104 76.9639 12.8662 76.7734 12.5781 76.6367C12.29 76.5049 11.9775 76.4365 11.6455 76.4365C11.1914 76.4365 10.7812 76.5488 10.4199 76.7686C10.0537 76.9883 9.77051 77.291 9.56543 77.6719C9.36035 78.0576 9.2627 78.4873 9.2627 78.9609C9.2627 79.3271 9.32129 79.6641 9.44824 79.9717C9.57031 80.2842 9.73633 80.543 9.95117 80.7529C10.166 80.9678 10.4199 81.1338 10.7129 81.251C11.0059 81.3682 11.3184 81.4268 11.6504 81.4268C12.002 81.4268 12.3242 81.3535 12.6172 81.207C12.9102 81.0605 13.1543 80.8555 13.3545 80.5918H13.3691V81.3633H14.1455V76.4951H13.335ZM11.7285 80.6846C11.2402 80.6846 10.8447 80.5234 10.542 80.2012C10.2393 79.8789 10.0879 79.4639 10.0879 78.9658C10.0879 78.4336 10.2441 78.0039 10.5566 77.6719C10.8691 77.3447 11.2646 77.1787 11.7383 77.1787C11.9629 77.1787 12.1777 77.2275 12.3828 77.3203C12.583 77.4131 12.7539 77.54 12.9004 77.6963C13.042 77.8574 13.1543 78.0479 13.2373 78.2676C13.3203 78.4873 13.3643 78.7217 13.3643 78.9658C13.3643 79.2197 13.3203 79.4541 13.2324 79.6689C13.1445 79.8838 13.0225 80.0693 12.876 80.2158C12.7246 80.3623 12.5488 80.4795 12.3535 80.5625C12.1533 80.6455 11.9434 80.6846 11.7285 80.6846Z" fill="url(#paint4_linear)"/>
<path d="M18.0518 76.4365C17.7197 76.4365 17.4219 76.5195 17.1484 76.6758C16.875 76.832 16.6504 77.0566 16.4697 77.3447H16.4502V76.4951H15.6396V81.3633H16.4502V79.0146C16.4502 78.6924 16.5088 78.3994 16.626 78.1455C16.7432 77.8916 16.9141 77.6914 17.1387 77.5449C17.3633 77.3984 17.627 77.3252 17.9297 77.3252C18.0273 77.3252 18.1348 77.3301 18.252 77.3398V76.4463C18.2129 76.4414 18.1445 76.4365 18.0518 76.4365Z" fill="url(#paint5_linear)"/>
<path d="M20.5908 81.4268C20.7666 81.4268 20.9375 81.4121 21.0938 81.3828C21.25 81.3535 21.3721 81.3145 21.4697 81.2754C21.5625 81.2363 21.6602 81.1826 21.7676 81.124L21.5527 80.416C21.2598 80.582 20.9863 80.665 20.7324 80.665C20.5078 80.665 20.3564 80.5967 20.2686 80.46C20.1807 80.3232 20.1367 80.0986 20.1367 79.791V77.1982H21.748V76.4951H20.1367V74.7422L19.3262 74.8301V76.4951H18.7061V77.1982H19.3262V79.9131C19.3262 80.9238 19.7461 81.4268 20.5908 81.4268Z" fill="url(#paint6_linear)"/>
<path d="M31.4062 76.4951L30.166 80.1328H30.1465L29.0234 76.4951H28.3203L27.2119 80.1279H27.1924L25.9521 76.4951H25.127L26.8164 81.3633H27.5635L28.6621 77.8184H28.6816L29.7754 81.3633H30.542L32.2314 76.4951H31.4062Z" fill="url(#paint7_linear)"/>
<path d="M33.7793 75.5918C33.9355 75.5918 34.0723 75.5381 34.1846 75.4258C34.2969 75.3184 34.3555 75.1816 34.3555 75.0254C34.3555 74.9229 34.3262 74.8252 34.2773 74.7373C34.2236 74.6494 34.1553 74.5811 34.0674 74.5322C33.9795 74.4834 33.8818 74.4541 33.7793 74.4541C33.6133 74.4541 33.4766 74.5127 33.3691 74.6201C33.2568 74.7324 33.2031 74.8691 33.2031 75.0254C33.2031 75.1816 33.2568 75.3184 33.3691 75.4258C33.4766 75.5381 33.6133 75.5918 33.7793 75.5918ZM33.3691 81.3633H34.1748V76.4951H33.3691V81.3633Z" fill="url(#paint8_linear)"/>
<path d="M37.124 81.4268C37.2998 81.4268 37.4707 81.4121 37.627 81.3828C37.7832 81.3535 37.9053 81.3145 38.0029 81.2754C38.0957 81.2363 38.1934 81.1826 38.3008 81.124L38.0859 80.416C37.793 80.582 37.5195 80.665 37.2656 80.665C37.041 80.665 36.8896 80.5967 36.8018 80.46C36.7139 80.3232 36.6699 80.0986 36.6699 79.791V77.1982H38.2812V76.4951H36.6699V74.7422L35.8594 74.8301V76.4951H35.2393V77.1982H35.8594V79.9131C35.8594 80.9238 36.2793 81.4268 37.124 81.4268Z" fill="url(#paint9_linear)"/>
<path d="M42.0117 76.4365C41.8262 76.4365 41.6455 76.4561 41.4746 76.4902C41.3037 76.5293 41.1426 76.583 40.9912 76.6514C40.835 76.7246 40.6934 76.8125 40.5664 76.9199C40.4346 77.0273 40.3174 77.1494 40.2197 77.2861H40.2002V74H39.3896V81.3633H40.2002V78.9121C40.2002 78.3701 40.3369 77.9453 40.6201 77.6377C40.9033 77.335 41.2891 77.1787 41.7773 77.1787C42.5684 77.1787 42.9688 77.6768 42.9688 78.6729V81.3682H43.7793V78.4434C43.7793 77.7744 43.6182 77.2715 43.3057 76.9395C42.9932 76.6074 42.5586 76.4365 42.0117 76.4365Z" fill="url(#paint10_linear)"/>
<path d="M49.4775 81.4268C49.7607 81.4268 50.0146 81.3926 50.2393 81.3193C50.4639 81.2461 50.6494 81.1436 50.791 81.0166C50.9326 80.8896 51.04 80.7383 51.1133 80.5723C51.1865 80.4062 51.2256 80.2256 51.2256 80.0303C51.2256 79.8252 51.1914 79.6494 51.1279 79.498C51.0205 79.2588 50.8008 79.0537 50.4688 78.8877C50.3613 78.8389 50.0439 78.7119 49.5264 78.5068C49.3701 78.4482 49.248 78.3994 49.1553 78.3555C49.0576 78.3115 48.9648 78.2578 48.8721 78.1943C48.7793 78.1357 48.7109 78.0674 48.667 77.9893C48.623 77.916 48.6035 77.833 48.6035 77.7402C48.6035 77.5742 48.6768 77.4375 48.8281 77.3301C48.9795 77.2227 49.1553 77.1689 49.3506 77.1689C49.8193 77.1689 50.2539 77.3398 50.6445 77.6768L51.0645 77.0371C50.5762 76.6367 50.0146 76.4365 49.3896 76.4365C48.9258 76.4365 48.54 76.5635 48.2373 76.8125C47.9297 77.0615 47.7783 77.3691 47.7783 77.7402C47.7783 77.916 47.8027 78.0723 47.8564 78.2139C47.9102 78.3604 47.9785 78.4775 48.0615 78.5752C48.1396 78.6729 48.252 78.7656 48.3887 78.8535C48.5254 78.9414 48.6523 79.0098 48.7793 79.0635C48.9062 79.1221 49.0576 79.1807 49.2432 79.2393C49.2676 79.249 49.3066 79.2637 49.3604 79.2783C49.4629 79.3174 49.541 79.3467 49.5898 79.3662C49.6387 79.3857 49.707 79.4102 49.79 79.4395C49.8682 79.4688 49.9316 79.498 49.9707 79.5176C50.0098 79.5371 50.0586 79.5664 50.1172 79.5957C50.1758 79.6299 50.2148 79.6592 50.2441 79.6885C50.2686 79.7178 50.2979 79.7471 50.3271 79.7861C50.3564 79.8252 50.376 79.8643 50.3857 79.9033C50.3955 79.9473 50.4004 79.9912 50.4004 80.04C50.4004 80.2256 50.3174 80.3818 50.1514 80.5039C49.9854 80.6309 49.7607 80.6895 49.4775 80.6895C49.1553 80.6895 48.877 80.6406 48.6426 80.543C48.4082 80.4453 48.1934 80.3037 47.9883 80.1084L47.5684 80.7236C48.0957 81.1924 48.7305 81.4268 49.4775 81.4268Z" fill="url(#paint11_linear)"/>
<path d="M55.6348 76.4951L54.165 80.2012H54.1406L52.5586 76.4951H51.6943L53.75 81.1729L52.8809 83.3408H53.7402L56.4941 76.4951H55.6348Z" fill="url(#paint12_linear)"/>
<path d="M60.1074 76.4365C59.7412 76.4365 59.4043 76.5146 59.1016 76.6709C58.7939 76.8271 58.54 77.0469 58.3398 77.335H58.3252V76.4951H57.5146V81.3633H58.3252V78.9316C58.3252 78.3945 58.4619 77.9648 58.7402 77.6523C59.0186 77.3398 59.3896 77.1787 59.8535 77.1787C60.0391 77.1787 60.2002 77.208 60.3418 77.2568C60.4785 77.3105 60.6055 77.3936 60.7129 77.5107C60.8203 77.6279 60.8984 77.7891 60.957 77.9844C61.0156 78.1846 61.0449 78.4238 61.0449 78.7021V81.3682H61.8555V78.4775C61.8555 77.8037 61.6992 77.291 61.3867 76.9492C61.0742 76.6074 60.6494 76.4365 60.1074 76.4365Z" fill="url(#paint13_linear)"/>
<path d="M65.4248 81.4268C65.8398 81.4268 66.2256 81.3535 66.5771 81.1973C66.9287 81.0459 67.2168 80.8457 67.4365 80.6016L66.875 80.0986C66.7188 80.2744 66.5186 80.416 66.2744 80.5234C66.0303 80.6309 65.7666 80.6797 65.4932 80.6797C65.0049 80.6797 64.6045 80.5186 64.2969 80.1963C63.9893 79.874 63.8379 79.4492 63.8379 78.9316C63.8379 78.4141 63.9893 77.9941 64.2969 77.667C64.6045 77.3447 65.0049 77.1787 65.4932 77.1787C65.7715 77.1787 66.0303 77.2373 66.2646 77.3447C66.499 77.4521 66.6992 77.6035 66.8555 77.7891L67.417 77.3008C67.1826 77.0225 66.8896 76.8076 66.5381 76.6562C66.1865 76.5098 65.8252 76.4316 65.4541 76.4316C64.9805 76.4316 64.5605 76.5391 64.1895 76.749C63.8184 76.9639 63.5303 77.2568 63.3252 77.6377C63.1201 78.0186 63.0176 78.4531 63.0176 78.9365C63.0176 79.4248 63.1201 79.8545 63.3252 80.2354C63.5303 80.6162 63.8135 80.9092 64.1797 81.1143C64.5459 81.3242 64.9609 81.4268 65.4248 81.4268Z" fill="url(#paint14_linear)"/>
<path d="M73.7988 76.4365C73.4619 76.4365 73.1494 76.5049 72.8613 76.6367C72.5732 76.7734 72.3291 76.9639 72.1289 77.2178H72.1094V74H71.2988V81.3633H72.0752V80.5918H72.0898C72.2852 80.8604 72.5293 81.0654 72.8223 81.2119C73.1152 81.3584 73.4375 81.4268 73.7939 81.4268C74.126 81.4268 74.4385 81.3682 74.7314 81.251C75.0244 81.1338 75.2734 80.9678 75.4883 80.7529C75.7031 80.543 75.8691 80.2842 75.9961 79.9717C76.1182 79.6641 76.1816 79.3271 76.1816 78.9609C76.1816 78.4873 76.0791 78.0576 75.874 77.6719C75.6689 77.291 75.3857 76.9883 75.0244 76.7686C74.6582 76.5488 74.248 76.4365 73.7988 76.4365ZM73.7158 80.6846C73.4961 80.6846 73.2861 80.6455 73.0908 80.5625C72.8906 80.4795 72.7148 80.3623 72.5684 80.2158C72.417 80.0693 72.2998 79.8838 72.2119 79.6689C72.124 79.4541 72.0801 79.2197 72.0801 78.9658C72.0801 78.6387 72.1484 78.3359 72.29 78.0625C72.4268 77.7891 72.6221 77.5742 72.8711 77.418C73.1201 77.2617 73.3984 77.1787 73.7061 77.1787C74.1748 77.1787 74.5703 77.3447 74.8828 77.6719C75.1953 78.0039 75.3564 78.4336 75.3564 78.9658C75.3564 79.4639 75.2051 79.8789 74.9023 80.2012C74.5996 80.5234 74.2041 80.6846 73.7158 80.6846Z" fill="url(#paint15_linear)"/>
<path d="M80.7666 76.4951V78.8535C80.7666 79.1367 80.7275 79.3906 80.6494 79.625C80.5713 79.8594 80.4639 80.0547 80.332 80.2061C80.2002 80.3574 80.0488 80.4746 79.873 80.5576C79.6973 80.6406 79.5166 80.6797 79.3213 80.6797C78.9209 80.6797 78.623 80.5625 78.4277 80.3281C78.2324 80.0938 78.1348 79.7031 78.1348 79.1611V76.4951H77.3242V79.3955C77.3242 80.0742 77.4805 80.582 77.8027 80.9189C78.125 81.2607 78.5742 81.4268 79.1504 81.4268C79.4629 81.4268 79.7607 81.3535 80.0439 81.2021C80.3223 81.0557 80.5566 80.8408 80.752 80.5576H80.7666V81.3633H81.5771V76.4951H80.7666Z" fill="url(#paint16_linear)"/>
<path d="M84.4482 81.4268C84.624 81.4268 84.7949 81.4121 84.9512 81.3828C85.1074 81.3535 85.2295 81.3145 85.3271 81.2754C85.4199 81.2363 85.5176 81.1826 85.625 81.124L85.4102 80.416C85.1172 80.582 84.8438 80.665 84.5898 80.665C84.3652 80.665 84.2139 80.5967 84.126 80.46C84.0381 80.3232 83.9941 80.0986 83.9941 79.791V77.1982H85.6055V76.4951H83.9941V74.7422L83.1836 74.8301V76.4951H82.5635V77.1982H83.1836V79.9131C83.1836 80.9238 83.6035 81.4268 84.4482 81.4268Z" fill="url(#paint17_linear)"/>
<path d="M88.0908 81.4268C88.2666 81.4268 88.4375 81.4121 88.5938 81.3828C88.75 81.3535 88.8721 81.3145 88.9697 81.2754C89.0625 81.2363 89.1602 81.1826 89.2676 81.124L89.0527 80.416C88.7598 80.582 88.4863 80.665 88.2324 80.665C88.0078 80.665 87.8564 80.5967 87.7686 80.46C87.6807 80.3232 87.6367 80.0986 87.6367 79.791V77.1982H89.248V76.4951H87.6367V74.7422L86.8262 74.8301V76.4951H86.2061V77.1982H86.8262V79.9131C86.8262 80.9238 87.2461 81.4268 88.0908 81.4268Z" fill="url(#paint18_linear)"/>
<path d="M92.3486 81.4268C92.8223 81.4268 93.252 81.3242 93.6328 81.1143C94.0137 80.9092 94.3115 80.6113 94.5264 80.2305C94.7412 79.8496 94.8535 79.4199 94.8535 78.9365C94.8535 78.4531 94.7412 78.0186 94.5264 77.6377C94.3115 77.2568 94.0137 76.959 93.6328 76.749C93.252 76.5439 92.8223 76.4365 92.3486 76.4365C91.9775 76.4365 91.6309 76.5049 91.3184 76.6318C91.001 76.7588 90.7324 76.9346 90.5176 77.1592C90.3027 77.3838 90.1318 77.6475 90.0098 77.9551C89.8877 78.2627 89.8291 78.5898 89.8291 78.9365C89.8291 79.2881 89.8877 79.6152 90.0098 79.918C90.1318 80.2207 90.3027 80.4844 90.5176 80.709C90.7324 80.9336 91.001 81.1094 91.3184 81.2363C91.6309 81.3633 91.9775 81.4268 92.3486 81.4268ZM92.3486 80.6797C92.0166 80.6797 91.7236 80.6016 91.4648 80.4453C91.2012 80.2891 91.001 80.0791 90.8594 79.8154C90.7178 79.5518 90.6494 79.2588 90.6494 78.9365C90.6494 78.6143 90.7178 78.3213 90.8594 78.0527C90.9961 77.7891 91.1963 77.5742 91.46 77.418C91.7188 77.2617 92.0166 77.1836 92.3486 77.1836C92.6611 77.1836 92.9443 77.2568 93.1982 77.4033C93.4521 77.5498 93.6572 77.7598 93.8086 78.0283C93.9551 78.2969 94.0332 78.5996 94.0332 78.9365C94.0332 79.2734 93.9551 79.5762 93.8086 79.8398C93.6572 80.1084 93.4521 80.3135 93.1982 80.46C92.9395 80.6064 92.6562 80.6797 92.3486 80.6797Z" fill="url(#paint19_linear)"/>
<path d="M98.6914 76.4365C98.3252 76.4365 97.9883 76.5146 97.6855 76.6709C97.3779 76.8271 97.124 77.0469 96.9238 77.335H96.9092V76.4951H96.0986V81.3633H96.9092V78.9316C96.9092 78.3945 97.0459 77.9648 97.3242 77.6523C97.6025 77.3398 97.9736 77.1787 98.4375 77.1787C98.623 77.1787 98.7842 77.208 98.9258 77.2568C99.0625 77.3105 99.1895 77.3936 99.2969 77.5107C99.4043 77.6279 99.4824 77.7891 99.541 77.9844C99.5996 78.1846 99.6289 78.4238 99.6289 78.7021V81.3682H100.439V78.4775C100.439 77.8037 100.283 77.291 99.9707 76.9492C99.6582 76.6074 99.2334 76.4365 98.6914 76.4365Z" fill="url(#paint20_linear)"/>
<defs>
<linearGradient id="paint0_linear" x1="49.9731" y1="0" x2="49.9731" y2="67.6863" gradientUnits="userSpaceOnUse">
<stop stop-color="#0BC4FF"/>
<stop offset="1" stop-color="#0046F9"/>
</linearGradient>
<linearGradient id="paint1_linear" x1="28.9174" y1="82.9948" x2="60.5413" y2="123.496" gradientUnits="userSpaceOnUse">
<stop stop-color="#25B1FF"/>
<stop offset="1" stop-color="#0032B3"/>
</linearGradient>
<linearGradient id="paint2_linear" x1="25.0557" y1="64.3633" x2="93.0557" y2="105.863" gradientUnits="userSpaceOnUse">
<stop stop-color="#0F62FE"/>
<stop offset="1" stop-color="#8F20FF"/>
</linearGradient>
<linearGradient id="paint3_linear" x1="25.0557" y1="64.3633" x2="93.0557" y2="105.863" gradientUnits="userSpaceOnUse">
<stop stop-color="#0F62FE"/>
<stop offset="1" stop-color="#8F20FF"/>
</linearGradient>
<linearGradient id="paint4_linear" x1="25.0557" y1="64.3633" x2="93.0557" y2="105.863" gradientUnits="userSpaceOnUse">
<stop stop-color="#0F62FE"/>
<stop offset="1" stop-color="#8F20FF"/>
</linearGradient>
<linearGradient id="paint5_linear" x1="25.0557" y1="64.3633" x2="93.0557" y2="105.863" gradientUnits="userSpaceOnUse">
<stop stop-color="#0F62FE"/>
<stop offset="1" stop-color="#8F20FF"/>
</linearGradient>
<linearGradient id="paint6_linear" x1="25.0557" y1="64.3633" x2="93.0557" y2="105.863" gradientUnits="userSpaceOnUse">
<stop stop-color="#0F62FE"/>
<stop offset="1" stop-color="#8F20FF"/>
</linearGradient>
<linearGradient id="paint7_linear" x1="25.0557" y1="64.3633" x2="93.0557" y2="105.863" gradientUnits="userSpaceOnUse">
<stop stop-color="#0F62FE"/>
<stop offset="1" stop-color="#8F20FF"/>
</linearGradient>
<linearGradient id="paint8_linear" x1="25.0557" y1="64.3633" x2="93.0557" y2="105.863" gradientUnits="userSpaceOnUse">
<stop stop-color="#0F62FE"/>
<stop offset="1" stop-color="#8F20FF"/>
</linearGradient>
<linearGradient id="paint9_linear" x1="25.0557" y1="64.3633" x2="93.0557" y2="105.863" gradientUnits="userSpaceOnUse">
<stop stop-color="#0F62FE"/>
<stop offset="1" stop-color="#8F20FF"/>
</linearGradient>
<linearGradient id="paint10_linear" x1="25.0557" y1="64.3633" x2="93.0557" y2="105.863" gradientUnits="userSpaceOnUse">
<stop stop-color="#0F62FE"/>
<stop offset="1" stop-color="#8F20FF"/>
</linearGradient>
<linearGradient id="paint11_linear" x1="25.0557" y1="64.3633" x2="93.0557" y2="105.863" gradientUnits="userSpaceOnUse">
<stop stop-color="#0F62FE"/>
<stop offset="1" stop-color="#8F20FF"/>
</linearGradient>
<linearGradient id="paint12_linear" x1="25.0557" y1="64.3633" x2="93.0557" y2="105.863" gradientUnits="userSpaceOnUse">
<stop stop-color="#0F62FE"/>
<stop offset="1" stop-color="#8F20FF"/>
</linearGradient>
<linearGradient id="paint13_linear" x1="25.0557" y1="64.3633" x2="93.0557" y2="105.863" gradientUnits="userSpaceOnUse">
<stop stop-color="#0F62FE"/>
<stop offset="1" stop-color="#8F20FF"/>
</linearGradient>
<linearGradient id="paint14_linear" x1="25.0557" y1="64.3633" x2="93.0557" y2="105.863" gradientUnits="userSpaceOnUse">
<stop stop-color="#0F62FE"/>
<stop offset="1" stop-color="#8F20FF"/>
</linearGradient>
<linearGradient id="paint15_linear" x1="25.0557" y1="64.3633" x2="93.0557" y2="105.863" gradientUnits="userSpaceOnUse">
<stop stop-color="#0F62FE"/>
<stop offset="1" stop-color="#8F20FF"/>
</linearGradient>
<linearGradient id="paint16_linear" x1="25.0557" y1="64.3633" x2="93.0557" y2="105.863" gradientUnits="userSpaceOnUse">
<stop stop-color="#0F62FE"/>
<stop offset="1" stop-color="#8F20FF"/>
</linearGradient>
<linearGradient id="paint17_linear" x1="25.0557" y1="64.3633" x2="93.0557" y2="105.863" gradientUnits="userSpaceOnUse">
<stop stop-color="#0F62FE"/>
<stop offset="1" stop-color="#8F20FF"/>
</linearGradient>
<linearGradient id="paint18_linear" x1="25.0557" y1="64.3633" x2="93.0557" y2="105.863" gradientUnits="userSpaceOnUse">
<stop stop-color="#0F62FE"/>
<stop offset="1" stop-color="#8F20FF"/>
</linearGradient>
<linearGradient id="paint19_linear" x1="25.0557" y1="64.3633" x2="93.0557" y2="105.863" gradientUnits="userSpaceOnUse">
<stop stop-color="#0F62FE"/>
<stop offset="1" stop-color="#8F20FF"/>
</linearGradient>
<linearGradient id="paint20_linear" x1="25.0557" y1="64.3633" x2="93.0557" y2="105.863" gradientUnits="userSpaceOnUse">
<stop stop-color="#0F62FE"/>
<stop offset="1" stop-color="#8F20FF"/>
</linearGradient>
</defs>
</svg>