<svg width="214" height="265" viewBox="0 0 214 265" fill="none" xmlns="http://www.w3.org/2000/svg">
<g clip-path="url(#clip0_5821_31277)">
<path d="M147 20H67C64.8783 20 62.8434 20.8429 61.3431 22.3431C59.8429 23.8434 59 25.8783 59 28V56C59 82.36 71.76 98.335 82.465 107.095C93.995 116.525 105.465 119.725 105.965 119.86C106.653 120.047 107.377 120.047 108.065 119.86C108.565 119.725 120.02 116.525 131.565 107.095C142.24 98.335 155 82.36 155 56V28C155 25.8783 154.157 23.8434 152.657 22.3431C151.157 20.8429 149.122 20 147 20ZM129.84 54.83L101.84 82.83C101.469 83.2019 101.027 83.4969 100.542 83.6982C100.056 83.8995 99.5357 84.0031 99.01 84.0031C98.4843 84.0031 97.9638 83.8995 97.4782 83.6982C96.9926 83.4969 96.5515 83.2019 96.18 82.83L84.18 70.83C83.4294 70.0794 83.0078 69.0615 83.0078 68C83.0078 66.9385 83.4294 65.9206 84.18 65.17C84.9306 64.4194 85.9485 63.9978 87.01 63.9978C88.0715 63.9978 89.0894 64.4194 89.84 65.17L99 74.345L124.17 49.17C124.542 48.7984 124.983 48.5036 125.468 48.3024C125.954 48.1013 126.474 47.9978 127 47.9978C127.526 47.9978 128.046 48.1013 128.532 48.3024C129.017 48.5036 129.458 48.7984 129.83 49.17C130.202 49.5416 130.496 49.9828 130.698 50.4684C130.899 50.954 131.002 51.4744 131.002 52C131.002 52.5256 130.899 53.046 130.698 53.5316C130.496 54.0172 130.202 54.4584 129.83 54.83H129.84Z" fill="#48D06A"/>
</g>
<rect x="23" y="139" width="128" height="24" rx="6" fill="#48484B"/>
<path d="M185.375 153.813H187.25C187.499 153.813 187.737 153.714 187.913 153.538C188.089 153.362 188.188 153.124 188.188 152.875C188.188 152.626 188.089 152.388 187.913 152.212C187.737 152.036 187.499 151.938 187.25 151.938H185.375V150.063H187.25C187.499 150.063 187.737 149.964 187.913 149.788C188.089 149.612 188.188 149.374 188.188 149.125C188.188 148.876 188.089 148.638 187.913 148.462C187.737 148.286 187.499 148.188 187.25 148.188H185.328C185.121 146.13 184.237 144.199 182.816 142.697L185.101 140.413C185.277 140.237 185.376 139.999 185.376 139.75C185.376 139.501 185.277 139.263 185.101 139.087C184.925 138.911 184.686 138.812 184.438 138.812C184.189 138.812 183.95 138.911 183.774 139.087L181.396 141.466C179.818 140.349 177.933 139.75 176 139.75C174.067 139.75 172.182 140.349 170.604 141.466L168.226 139.087C168.05 138.911 167.811 138.812 167.562 138.812C167.314 138.812 167.075 138.911 166.899 139.087C166.723 139.263 166.624 139.501 166.624 139.75C166.624 139.999 166.723 140.237 166.899 140.413L169.184 142.697C167.763 144.199 166.879 146.13 166.672 148.188H164.75C164.501 148.188 164.263 148.286 164.087 148.462C163.911 148.638 163.812 148.876 163.812 149.125C163.812 149.374 163.911 149.612 164.087 149.788C164.263 149.964 164.501 150.063 164.75 150.063H166.625V151.938H164.75C164.501 151.938 164.263 152.036 164.087 152.212C163.911 152.388 163.812 152.626 163.812 152.875C163.812 153.124 163.911 153.362 164.087 153.538C164.263 153.714 164.501 153.813 164.75 153.813H166.625V154.75C166.625 155.066 166.641 155.379 166.672 155.688H164.75C164.501 155.688 164.263 155.786 164.087 155.962C163.911 156.138 163.812 156.376 163.812 156.625C163.812 156.874 163.911 157.112 164.087 157.288C164.263 157.464 164.501 157.563 164.75 157.563H167.056C167.654 159.466 168.844 161.129 170.453 162.31C172.061 163.49 174.005 164.127 176 164.127C177.995 164.127 179.939 163.49 181.547 162.31C183.156 161.129 184.346 159.466 184.944 157.563H187.25C187.499 157.563 187.737 157.464 187.913 157.288C188.089 157.112 188.188 156.874 188.188 156.625C188.188 156.376 188.089 156.138 187.913 155.962C187.737 155.786 187.499 155.688 187.25 155.688H185.328C185.359 155.379 185.375 155.066 185.375 154.75V153.813ZM176 141.625C177.826 141.627 179.588 142.295 180.958 143.503C182.327 144.711 183.209 146.376 183.439 148.188H168.556C168.786 146.375 169.669 144.709 171.039 143.501C172.41 142.293 174.173 141.626 176 141.625ZM176.938 162.189V152.875C176.938 152.626 176.839 152.388 176.663 152.212C176.487 152.036 176.249 151.938 176 151.938C175.751 151.938 175.513 152.036 175.337 152.212C175.161 152.388 175.062 152.626 175.062 152.875V162.189C173.251 161.959 171.586 161.077 170.378 159.708C169.17 158.338 168.502 156.576 168.5 154.75V150.063H183.5V154.75C183.498 156.576 182.83 158.338 181.622 159.708C180.414 161.077 178.749 161.959 176.938 162.189Z" fill="white"/>
<g filter="url(#filter0_d_5821_31277)">
<path d="M113.928 195.449L108.585 190.551C107.784 189.816 106.216 189.816 105.415 190.551L100.073 195.449C99.6728 195.816 99.0805 196 98.4883 196L115.513 196C114.921 196 114.328 195.816 113.928 195.449Z" fill="white"/>
</g>
<g filter="url(#filter1_d_5821_31277)">
<rect x="24" y="196" width="166" height="33" rx="6" fill="white" shape-rendering="crispEdges"/>
<path d="M37.204 218V207.92H38.394L44.176 216.404L44.008 216.432V207.92H45.1V218H43.91L38.128 209.516L38.296 209.488V218H37.204ZM50.3966 218.14C49.6966 218.14 49.0806 217.977 48.5486 217.65C48.0166 217.323 47.6013 216.88 47.3026 216.32C47.0133 215.751 46.8686 215.111 46.8686 214.402C46.8686 213.683 47.0179 213.049 47.3166 212.498C47.6153 211.947 48.0259 211.513 48.5486 211.196C49.0806 210.879 49.6966 210.72 50.3966 210.72C51.1059 210.72 51.7219 210.879 52.2446 211.196C52.7766 211.513 53.1873 211.947 53.4766 212.498C53.7753 213.049 53.9246 213.683 53.9246 214.402C53.9246 215.111 53.7753 215.751 53.4766 216.32C53.1873 216.88 52.7766 217.323 52.2446 217.65C51.7219 217.977 51.1059 218.14 50.3966 218.14ZM50.3966 217.188C50.8819 217.188 51.3019 217.071 51.6566 216.838C52.0113 216.595 52.2866 216.264 52.4826 215.844C52.6786 215.424 52.7766 214.939 52.7766 214.388C52.7766 213.567 52.5573 212.909 52.1186 212.414C51.6893 211.919 51.1153 211.672 50.3966 211.672C49.6873 211.672 49.1133 211.919 48.6746 212.414C48.2359 212.909 48.0166 213.567 48.0166 214.388C48.0166 214.939 48.1146 215.424 48.3106 215.844C48.5066 216.264 48.7819 216.595 49.1366 216.838C49.5006 217.071 49.9206 217.188 50.3966 217.188ZM61.2631 218.126C60.4698 218.126 59.8911 217.949 59.5271 217.594C59.1724 217.23 58.9951 216.707 58.9951 216.026V209.194L60.1151 208.774V216.012C60.1151 216.413 60.2178 216.707 60.4231 216.894C60.6284 217.081 60.9644 217.174 61.4311 217.174C61.6178 217.174 61.7764 217.165 61.9071 217.146C62.0471 217.118 62.1591 217.085 62.2431 217.048V218C62.1498 218.037 62.0144 218.065 61.8371 218.084C61.6691 218.112 61.4778 218.126 61.2631 218.126ZM57.5251 211.812V210.86H62.2431V211.812H57.5251ZM63.6845 218V207.92H64.8045V218H63.6845ZM68.7945 218V213.324C68.7945 212.783 68.6591 212.377 68.3885 212.106C68.1178 211.835 67.7165 211.7 67.1845 211.7C66.7178 211.7 66.3025 211.803 65.9385 212.008C65.5838 212.213 65.3038 212.498 65.0985 212.862C64.9025 213.226 64.8045 213.651 64.8045 214.136L64.6225 212.442C64.8651 211.91 65.2338 211.49 65.7285 211.182C66.2325 210.874 66.8018 210.72 67.4365 210.72C68.1831 210.72 68.7805 210.935 69.2285 211.364C69.6858 211.784 69.9145 212.339 69.9145 213.03V218H68.7945ZM72.0653 218V210.86H73.1153V212.68H73.1853V218H72.0653ZM73.1853 214.276L73.0033 212.582C73.1713 211.975 73.47 211.513 73.8993 211.196C74.3286 210.879 74.8233 210.72 75.3833 210.72C75.6166 210.72 75.7753 210.739 75.8593 210.776V211.854C75.8126 211.835 75.7473 211.826 75.6633 211.826C75.5793 211.817 75.4766 211.812 75.3553 211.812C74.646 211.812 74.1046 212.027 73.7313 212.456C73.3673 212.876 73.1853 213.483 73.1853 214.276ZM79.9952 218.14C79.3139 218.14 78.7119 217.981 78.1892 217.664C77.6666 217.337 77.2559 216.894 76.9572 216.334C76.6586 215.774 76.5092 215.13 76.5092 214.402C76.5092 213.674 76.6539 213.035 76.9432 212.484C77.2419 211.924 77.6572 211.49 78.1892 211.182C78.7212 210.874 79.3326 210.72 80.0232 210.72C80.6859 210.72 81.2599 210.865 81.7452 211.154C82.2399 211.443 82.6179 211.849 82.8792 212.372C83.1499 212.895 83.2852 213.511 83.2852 214.22C83.2852 214.313 83.2806 214.402 83.2712 214.486C83.2712 214.57 83.2619 214.663 83.2432 214.766H77.3492V213.828H82.5572L82.1932 214.346C82.1932 213.487 82.0019 212.829 81.6192 212.372C81.2459 211.905 80.7139 211.672 80.0232 211.672C79.3139 211.672 78.7399 211.919 78.3012 212.414C77.8719 212.899 77.6572 213.557 77.6572 214.388C77.6572 215.237 77.8719 215.919 78.3012 216.432C78.7399 216.936 79.3232 217.188 80.0512 217.188C80.5086 217.188 80.9099 217.09 81.2552 216.894C81.6006 216.689 81.8526 216.399 82.0112 216.026H83.0752C82.8419 216.679 82.4499 217.197 81.8992 217.58C81.3579 217.953 80.7232 218.14 79.9952 218.14ZM89.3125 218C89.2752 217.841 89.2472 217.659 89.2285 217.454C89.2192 217.249 89.2145 216.987 89.2145 216.67H89.1445V213.254C89.1445 212.713 89.0185 212.316 88.7665 212.064C88.5239 211.803 88.1272 211.672 87.5765 211.672C87.0352 211.672 86.6012 211.784 86.2745 212.008C85.9572 212.223 85.7799 212.531 85.7425 212.932H84.6645C84.7112 212.241 85.0005 211.7 85.5325 211.308C86.0645 210.916 86.7599 210.72 87.6185 210.72C88.5052 210.72 89.1632 210.93 89.5925 211.35C90.0219 211.77 90.2365 212.4 90.2365 213.24V216.67C90.2365 216.875 90.2505 217.09 90.2785 217.314C90.3065 217.529 90.3439 217.757 90.3905 218H89.3125ZM86.8625 218.14C86.1252 218.14 85.5372 217.963 85.0985 217.608C84.6692 217.244 84.4545 216.749 84.4545 216.124C84.4545 215.499 84.6692 215.013 85.0985 214.668C85.5279 214.323 86.1532 214.08 86.9745 213.94L89.4665 213.52V214.444L87.1425 214.808C86.6199 214.892 86.2232 215.032 85.9525 215.228C85.6819 215.424 85.5465 215.709 85.5465 216.082C85.5465 216.446 85.6679 216.721 85.9105 216.908C86.1625 217.095 86.5312 217.188 87.0165 217.188C87.6419 217.188 88.1505 217.048 88.5425 216.768C88.9439 216.479 89.1445 216.105 89.1445 215.648L89.3265 216.642C89.1772 217.118 88.8832 217.487 88.4445 217.748C88.0152 218.009 87.4879 218.14 86.8625 218.14ZM95.06 218.126C94.2667 218.126 93.688 217.949 93.324 217.594C92.9693 217.23 92.792 216.707 92.792 216.026V209.194L93.912 208.774V216.012C93.912 216.413 94.0147 216.707 94.22 216.894C94.4253 217.081 94.7613 217.174 95.228 217.174C95.4147 217.174 95.5733 217.165 95.704 217.146C95.844 217.118 95.956 217.085 96.04 217.048V218C95.9467 218.037 95.8113 218.065 95.634 218.084C95.466 218.112 95.2747 218.126 95.06 218.126ZM91.322 211.812V210.86H96.04V211.812H91.322ZM99.876 218.14C98.9987 218.14 98.2987 217.939 97.776 217.538C97.2533 217.127 96.9547 216.549 96.88 215.802H97.958C98.0233 216.259 98.224 216.609 98.56 216.852C98.896 217.095 99.344 217.216 99.904 217.216C100.399 217.216 100.786 217.123 101.066 216.936C101.346 216.749 101.486 216.483 101.486 216.138C101.486 215.895 101.407 215.685 101.248 215.508C101.089 215.321 100.772 215.167 100.296 215.046L99.148 214.752C98.4947 214.584 98.0047 214.327 97.678 213.982C97.3513 213.627 97.188 213.207 97.188 212.722C97.188 212.106 97.4167 211.621 97.874 211.266C98.3313 210.902 98.952 210.72 99.736 210.72C100.511 210.72 101.141 210.907 101.626 211.28C102.111 211.653 102.387 212.171 102.452 212.834H101.374C101.309 212.451 101.131 212.157 100.842 211.952C100.553 211.747 100.17 211.644 99.694 211.644C99.2367 211.644 98.882 211.733 98.63 211.91C98.378 212.078 98.252 212.321 98.252 212.638C98.252 212.881 98.3407 213.091 98.518 213.268C98.7047 213.445 99.0127 213.595 99.442 213.716L100.562 214.024C101.225 214.201 101.724 214.472 102.06 214.836C102.396 215.2 102.564 215.639 102.564 216.152C102.564 216.777 102.326 217.267 101.85 217.622C101.374 217.967 100.716 218.14 99.876 218.14ZM108.33 218L106.146 210.86H107.28L108.96 216.978H108.68L110.696 210.86H111.606L113.636 216.978H113.356L115.022 210.86H116.1L113.916 218H113.006L110.99 212.022H111.284L109.24 218H108.33ZM120.396 218.14C119.714 218.14 119.112 217.981 118.59 217.664C118.067 217.337 117.656 216.894 117.358 216.334C117.059 215.774 116.91 215.13 116.91 214.402C116.91 213.674 117.054 213.035 117.344 212.484C117.642 211.924 118.058 211.49 118.59 211.182C119.122 210.874 119.733 210.72 120.424 210.72C121.086 210.72 121.66 210.865 122.146 211.154C122.64 211.443 123.018 211.849 123.28 212.372C123.55 212.895 123.686 213.511 123.686 214.22C123.686 214.313 123.681 214.402 123.672 214.486C123.672 214.57 123.662 214.663 123.644 214.766H117.75V213.828H122.958L122.594 214.346C122.594 213.487 122.402 212.829 122.02 212.372C121.646 211.905 121.114 211.672 120.424 211.672C119.714 211.672 119.14 211.919 118.702 212.414C118.272 212.899 118.058 213.557 118.058 214.388C118.058 215.237 118.272 215.919 118.702 216.432C119.14 216.936 119.724 217.188 120.452 217.188C120.909 217.188 121.31 217.09 121.656 216.894C122.001 216.689 122.253 216.399 122.412 216.026H123.476C123.242 216.679 122.85 217.197 122.3 217.58C121.758 217.953 121.124 218.14 120.396 218.14ZM125.372 218V210.86H126.422V212.68H126.492V218H125.372ZM126.492 214.276L126.31 212.582C126.478 211.975 126.777 211.513 127.206 211.196C127.635 210.879 128.13 210.72 128.69 210.72C128.923 210.72 129.082 210.739 129.166 210.776V211.854C129.119 211.835 129.054 211.826 128.97 211.826C128.886 211.817 128.783 211.812 128.662 211.812C127.953 211.812 127.411 212.027 127.038 212.456C126.674 212.876 126.492 213.483 126.492 214.276ZM133.302 218.14C132.621 218.14 132.019 217.981 131.496 217.664C130.973 217.337 130.563 216.894 130.264 216.334C129.965 215.774 129.816 215.13 129.816 214.402C129.816 213.674 129.961 213.035 130.25 212.484C130.549 211.924 130.964 211.49 131.496 211.182C132.028 210.874 132.639 210.72 133.33 210.72C133.993 210.72 134.567 210.865 135.052 211.154C135.547 211.443 135.925 211.849 136.186 212.372C136.457 212.895 136.592 213.511 136.592 214.22C136.592 214.313 136.587 214.402 136.578 214.486C136.578 214.57 136.569 214.663 136.55 214.766H130.656V213.828H135.864L135.5 214.346C135.5 213.487 135.309 212.829 134.926 212.372C134.553 211.905 134.021 211.672 133.33 211.672C132.621 211.672 132.047 211.919 131.608 212.414C131.179 212.899 130.964 213.557 130.964 214.388C130.964 215.237 131.179 215.919 131.608 216.432C132.047 216.936 132.63 217.188 133.358 217.188C133.815 217.188 134.217 217.09 134.562 216.894C134.907 216.689 135.159 216.399 135.318 216.026H136.382C136.149 216.679 135.757 217.197 135.206 217.58C134.665 217.953 134.03 218.14 133.302 218.14ZM141.669 218V209.852C141.669 209.199 141.856 208.69 142.229 208.326C142.612 207.962 143.19 207.78 143.965 207.78C144.152 207.78 144.296 207.789 144.399 207.808C144.511 207.827 144.604 207.85 144.679 207.878V208.76C144.614 208.741 144.52 208.723 144.399 208.704C144.287 208.685 144.166 208.676 144.035 208.676C143.606 208.676 143.288 208.783 143.083 208.998C142.887 209.213 142.789 209.516 142.789 209.908V218H141.669ZM140.199 211.812V210.86H144.525V211.812H140.199ZM148.725 218.14C148.025 218.14 147.409 217.977 146.877 217.65C146.345 217.323 145.929 216.88 145.631 216.32C145.341 215.751 145.197 215.111 145.197 214.402C145.197 213.683 145.346 213.049 145.645 212.498C145.943 211.947 146.354 211.513 146.877 211.196C147.409 210.879 148.025 210.72 148.725 210.72C149.434 210.72 150.05 210.879 150.573 211.196C151.105 211.513 151.515 211.947 151.805 212.498C152.103 213.049 152.253 213.683 152.253 214.402C152.253 215.111 152.103 215.751 151.805 216.32C151.515 216.88 151.105 217.323 150.573 217.65C150.05 217.977 149.434 218.14 148.725 218.14ZM148.725 217.188C149.21 217.188 149.63 217.071 149.985 216.838C150.339 216.595 150.615 216.264 150.811 215.844C151.007 215.424 151.105 214.939 151.105 214.388C151.105 213.567 150.885 212.909 150.447 212.414C150.017 211.919 149.443 211.672 148.725 211.672C148.015 211.672 147.441 211.919 147.003 212.414C146.564 212.909 146.345 213.567 146.345 214.388C146.345 214.939 146.443 215.424 146.639 215.844C146.835 216.264 147.11 216.595 147.465 216.838C147.829 217.071 148.249 217.188 148.725 217.188ZM156.257 218.14C155.79 218.14 155.375 218.047 155.011 217.86C154.647 217.664 154.362 217.393 154.157 217.048C153.951 216.693 153.849 216.287 153.849 215.83V210.86H154.969V215.536C154.969 216.077 155.099 216.483 155.361 216.754C155.631 217.025 156.014 217.16 156.508 217.16C156.957 217.16 157.353 217.057 157.699 216.852C158.044 216.647 158.315 216.362 158.511 215.998C158.716 215.625 158.819 215.2 158.819 214.724L159.001 216.418C158.767 216.95 158.403 217.37 157.909 217.678C157.414 217.986 156.863 218.14 156.257 218.14ZM158.889 218V216.32H158.819V210.86H159.939V218H158.889ZM162.177 218V210.86H163.227V212.54H163.297V218H162.177ZM167.287 218V213.324C167.287 212.783 167.151 212.377 166.881 212.106C166.61 211.835 166.209 211.7 165.677 211.7C165.21 211.7 164.795 211.803 164.431 212.008C164.076 212.213 163.796 212.498 163.591 212.862C163.395 213.226 163.297 213.651 163.297 214.136L163.115 212.442C163.357 211.91 163.726 211.49 164.221 211.182C164.725 210.874 165.294 210.72 165.929 210.72C166.675 210.72 167.273 210.935 167.721 211.364C168.178 211.784 168.407 212.339 168.407 213.03V218H167.287ZM175.752 218V216.334L175.892 216.376C175.714 216.917 175.388 217.347 174.912 217.664C174.445 217.981 173.885 218.14 173.232 218.14C172.588 218.14 172.023 217.986 171.538 217.678C171.062 217.37 170.688 216.941 170.418 216.39C170.156 215.839 170.026 215.195 170.026 214.458C170.026 213.711 170.161 213.058 170.432 212.498C170.702 211.938 171.08 211.504 171.566 211.196C172.051 210.888 172.62 210.734 173.274 210.734C173.946 210.734 174.51 210.897 174.968 211.224C175.425 211.551 175.738 212.013 175.906 212.61L175.682 212.638V207.92H176.802V218H175.752ZM173.442 217.16C174.16 217.16 174.72 216.917 175.122 216.432C175.532 215.937 175.738 215.265 175.738 214.416C175.738 213.585 175.532 212.927 175.122 212.442C174.711 211.957 174.151 211.714 173.442 211.714C172.732 211.714 172.177 211.957 171.776 212.442C171.374 212.927 171.174 213.599 171.174 214.458C171.174 215.298 171.374 215.961 171.776 216.446C172.177 216.922 172.732 217.16 173.442 217.16Z" fill="#262626"/>
</g>
<defs>
<filter id="filter0_d_5821_31277" x="74.4883" y="174" width="65.0254" height="54" filterUnits="userSpaceOnUse" color-interpolation-filters="sRGB">
<feFlood flood-opacity="0" result="BackgroundImageFix"/>
<feColorMatrix in="SourceAlpha" type="matrix" values="0 0 0 0 0 0 0 0 0 0 0 0 0 0 0 0 0 0 127 0" result="hardAlpha"/>
<feOffset dy="8"/>
<feGaussianBlur stdDeviation="12"/>
<feComposite in2="hardAlpha" operator="out"/>
<feColorMatrix type="matrix" values="0 0 0 0 0 0 0 0 0 0 0 0 0 0 0 0 0 0 0.06 0"/>
<feBlend mode="normal" in2="BackgroundImageFix" result="effect1_dropShadow_5821_31277"/>
<feBlend mode="normal" in="SourceGraphic" in2="effect1_dropShadow_5821_31277" result="shape"/>
</filter>
<filter id="filter1_d_5821_31277" x="0" y="184" width="214" height="81" filterUnits="userSpaceOnUse" color-interpolation-filters="sRGB">
<feFlood flood-opacity="0" result="BackgroundImageFix"/>
<feColorMatrix in="SourceAlpha" type="matrix" values="0 0 0 0 0 0 0 0 0 0 0 0 0 0 0 0 0 0 127 0" result="hardAlpha"/>
<feOffset dy="12"/>
<feGaussianBlur stdDeviation="12"/>
<feComposite in2="hardAlpha" operator="out"/>
<feColorMatrix type="matrix" values="0 0 0 0 0 0 0 0 0 0 0 0 0 0 0 0 0 0 0.06 0"/>
<feBlend mode="normal" in2="BackgroundImageFix" result="effect1_dropShadow_5821_31277"/>
<feBlend mode="normal" in="SourceGraphic" in2="effect1_dropShadow_5821_31277" result="shape"/>
</filter>
<clipPath id="clip0_5821_31277">
<rect width="128" height="128" fill="white" transform="translate(43)"/>
</clipPath>
</defs>
</svg>
