<svg width="258" height="265" viewBox="0 0 258 265" fill="none" xmlns="http://www.w3.org/2000/svg">
<g clip-path="url(#clip0_5821_31237)">
<path d="M169 20H89C86.8783 20 84.8434 20.8429 83.3431 22.3431C81.8429 23.8434 81 25.8783 81 28V56C81 82.36 93.76 98.335 104.465 107.095C115.995 116.525 127.465 119.725 127.965 119.86C128.653 120.047 129.377 120.047 130.065 119.86C130.565 119.725 142.02 116.525 153.565 107.095C164.24 98.335 177 82.36 177 56V28C177 25.8783 176.157 23.8434 174.657 22.3431C173.157 20.8429 171.122 20 169 20ZM151.84 54.83L123.84 82.83C123.469 83.2019 123.027 83.4969 122.542 83.6982C122.056 83.8995 121.536 84.0031 121.01 84.0031C120.484 84.0031 119.964 83.8995 119.478 83.6982C118.993 83.4969 118.551 83.2019 118.18 82.83L106.18 70.83C105.429 70.0794 105.008 69.0615 105.008 68C105.008 66.9385 105.429 65.9206 106.18 65.17C106.931 64.4194 107.949 63.9978 109.01 63.9978C110.071 63.9978 111.089 64.4194 111.84 65.17L121 74.345L146.17 49.17C146.542 48.7984 146.983 48.5036 147.468 48.3024C147.954 48.1013 148.474 47.9978 149 47.9978C149.526 47.9978 150.046 48.1013 150.532 48.3024C151.017 48.5036 151.458 48.7984 151.83 49.17C152.202 49.5416 152.496 49.9828 152.698 50.4684C152.899 50.954 153.002 51.4744 153.002 52C153.002 52.5256 152.899 53.046 152.698 53.5316C152.496 54.0172 152.202 54.4584 151.83 54.83H151.84Z" fill="#32C356"/>
</g>
<rect x="45" y="139" width="128" height="24" rx="6" fill="#D1D1D7"/>
<path d="M207.375 153.813H209.25C209.499 153.813 209.737 153.714 209.913 153.538C210.089 153.362 210.188 153.124 210.188 152.875C210.188 152.626 210.089 152.388 209.913 152.212C209.737 152.036 209.499 151.938 209.25 151.938H207.375V150.063H209.25C209.499 150.063 209.737 149.964 209.913 149.788C210.089 149.612 210.188 149.374 210.188 149.125C210.188 148.876 210.089 148.638 209.913 148.462C209.737 148.286 209.499 148.188 209.25 148.188H207.328C207.121 146.13 206.237 144.199 204.816 142.697L207.101 140.413C207.277 140.237 207.376 139.999 207.376 139.75C207.376 139.501 207.277 139.263 207.101 139.087C206.925 138.911 206.686 138.812 206.438 138.812C206.189 138.812 205.95 138.911 205.774 139.087L203.396 141.466C201.818 140.349 199.933 139.75 198 139.75C196.067 139.75 194.182 140.349 192.604 141.466L190.226 139.087C190.05 138.911 189.811 138.812 189.562 138.812C189.314 138.812 189.075 138.911 188.899 139.087C188.723 139.263 188.624 139.501 188.624 139.75C188.624 139.999 188.723 140.237 188.899 140.413L191.184 142.697C189.763 144.199 188.879 146.13 188.672 148.188H186.75C186.501 148.188 186.263 148.286 186.087 148.462C185.911 148.638 185.812 148.876 185.812 149.125C185.812 149.374 185.911 149.612 186.087 149.788C186.263 149.964 186.501 150.063 186.75 150.063H188.625V151.938H186.75C186.501 151.938 186.263 152.036 186.087 152.212C185.911 152.388 185.812 152.626 185.812 152.875C185.812 153.124 185.911 153.362 186.087 153.538C186.263 153.714 186.501 153.813 186.75 153.813H188.625V154.75C188.625 155.066 188.641 155.379 188.672 155.688H186.75C186.501 155.688 186.263 155.786 186.087 155.962C185.911 156.138 185.812 156.376 185.812 156.625C185.812 156.874 185.911 157.112 186.087 157.288C186.263 157.464 186.501 157.563 186.75 157.563H189.056C189.654 159.466 190.844 161.129 192.453 162.31C194.061 163.49 196.005 164.127 198 164.127C199.995 164.127 201.939 163.49 203.547 162.31C205.156 161.129 206.346 159.466 206.944 157.563H209.25C209.499 157.563 209.737 157.464 209.913 157.288C210.089 157.112 210.188 156.874 210.188 156.625C210.188 156.376 210.089 156.138 209.913 155.962C209.737 155.786 209.499 155.688 209.25 155.688H207.328C207.359 155.379 207.375 155.066 207.375 154.75V153.813ZM198 141.625C199.826 141.627 201.588 142.295 202.958 143.503C204.327 144.711 205.209 146.376 205.439 148.188H190.556C190.786 146.375 191.669 144.709 193.039 143.501C194.41 142.293 196.173 141.626 198 141.625ZM198.938 162.189V152.875C198.938 152.626 198.839 152.388 198.663 152.212C198.487 152.036 198.249 151.938 198 151.938C197.751 151.938 197.513 152.036 197.337 152.212C197.161 152.388 197.062 152.626 197.062 152.875V162.189C195.251 161.959 193.586 161.077 192.378 159.708C191.17 158.338 190.502 156.576 190.5 154.75V150.063H205.5V154.75C205.498 156.576 204.83 158.338 203.622 159.708C202.414 161.077 200.749 161.959 198.938 162.189Z" fill="black"/>
<g filter="url(#filter0_d_5821_31237)">
<path d="M135.928 195.449L130.585 190.551C129.784 189.816 128.216 189.816 127.415 190.551L122.073 195.449C121.673 195.816 121.081 196 120.488 196L137.513 196C136.921 196 136.328 195.816 135.928 195.449Z" fill="#262626"/>
</g>
<g filter="url(#filter1_d_5821_31237)">
<rect x="24" y="196" width="210" height="33" rx="6" fill="#262626" shape-rendering="crispEdges"/>
<path d="M37.204 218V207.92H38.394L44.176 216.404L44.008 216.432V207.92H45.1V218H43.91L38.128 209.516L38.296 209.488V218H37.204ZM50.3966 218.14C49.6966 218.14 49.0806 217.977 48.5486 217.65C48.0166 217.323 47.6013 216.88 47.3026 216.32C47.0133 215.751 46.8686 215.111 46.8686 214.402C46.8686 213.683 47.0179 213.049 47.3166 212.498C47.6153 211.947 48.0259 211.513 48.5486 211.196C49.0806 210.879 49.6966 210.72 50.3966 210.72C51.1059 210.72 51.7219 210.879 52.2446 211.196C52.7766 211.513 53.1873 211.947 53.4766 212.498C53.7753 213.049 53.9246 213.683 53.9246 214.402C53.9246 215.111 53.7753 215.751 53.4766 216.32C53.1873 216.88 52.7766 217.323 52.2446 217.65C51.7219 217.977 51.1059 218.14 50.3966 218.14ZM50.3966 217.188C50.8819 217.188 51.3019 217.071 51.6566 216.838C52.0113 216.595 52.2866 216.264 52.4826 215.844C52.6786 215.424 52.7766 214.939 52.7766 214.388C52.7766 213.567 52.5573 212.909 52.1186 212.414C51.6893 211.919 51.1153 211.672 50.3966 211.672C49.6873 211.672 49.1133 211.919 48.6746 212.414C48.2359 212.909 48.0166 213.567 48.0166 214.388C48.0166 214.939 48.1146 215.424 48.3106 215.844C48.5066 216.264 48.7819 216.595 49.1366 216.838C49.5006 217.071 49.9206 217.188 50.3966 217.188ZM60.8291 218.14C59.9518 218.14 59.2518 217.939 58.7291 217.538C58.2064 217.127 57.9078 216.549 57.8331 215.802H58.9111C58.9764 216.259 59.1771 216.609 59.5131 216.852C59.8491 217.095 60.2971 217.216 60.8571 217.216C61.3518 217.216 61.7391 217.123 62.0191 216.936C62.2991 216.749 62.4391 216.483 62.4391 216.138C62.4391 215.895 62.3598 215.685 62.2011 215.508C62.0424 215.321 61.7251 215.167 61.2491 215.046L60.1011 214.752C59.4478 214.584 58.9578 214.327 58.6311 213.982C58.3044 213.627 58.1411 213.207 58.1411 212.722C58.1411 212.106 58.3698 211.621 58.8271 211.266C59.2844 210.902 59.9051 210.72 60.6891 210.72C61.4638 210.72 62.0938 210.907 62.5791 211.28C63.0644 211.653 63.3398 212.171 63.4051 212.834H62.3271C62.2618 212.451 62.0844 212.157 61.7951 211.952C61.5058 211.747 61.1231 211.644 60.6471 211.644C60.1898 211.644 59.8351 211.733 59.5831 211.91C59.3311 212.078 59.2051 212.321 59.2051 212.638C59.2051 212.881 59.2938 213.091 59.4711 213.268C59.6578 213.445 59.9658 213.595 60.3951 213.716L61.5151 214.024C62.1778 214.201 62.6771 214.472 63.0131 214.836C63.3491 215.2 63.5171 215.639 63.5171 216.152C63.5171 216.777 63.2791 217.267 62.8031 217.622C62.3271 217.967 61.6691 218.14 60.8291 218.14ZM68.1964 218.14C67.5151 218.14 66.9131 217.981 66.3904 217.664C65.8677 217.337 65.4571 216.894 65.1584 216.334C64.8597 215.774 64.7104 215.13 64.7104 214.402C64.7104 213.674 64.8551 213.035 65.1444 212.484C65.4431 211.924 65.8584 211.49 66.3904 211.182C66.9224 210.874 67.5337 210.72 68.2244 210.72C68.8871 210.72 69.4611 210.865 69.9464 211.154C70.4411 211.443 70.8191 211.849 71.0804 212.372C71.3511 212.895 71.4864 213.511 71.4864 214.22C71.4864 214.313 71.4817 214.402 71.4724 214.486C71.4724 214.57 71.4631 214.663 71.4444 214.766H65.5504V213.828H70.7584L70.3944 214.346C70.3944 213.487 70.2031 212.829 69.8204 212.372C69.4471 211.905 68.9151 211.672 68.2244 211.672C67.5151 211.672 66.9411 211.919 66.5024 212.414C66.0731 212.899 65.8584 213.557 65.8584 214.388C65.8584 215.237 66.0731 215.919 66.5024 216.432C66.9411 216.936 67.5244 217.188 68.2524 217.188C68.7097 217.188 69.1111 217.09 69.4564 216.894C69.8017 216.689 70.0537 216.399 70.2124 216.026H71.2764C71.0431 216.679 70.6511 217.197 70.1004 217.58C69.5591 217.953 68.9244 218.14 68.1964 218.14ZM78.9015 218.14C78.2201 218.14 77.6181 217.981 77.0955 217.664C76.5728 217.337 76.1621 216.894 75.8635 216.334C75.5648 215.774 75.4155 215.13 75.4155 214.402C75.4155 213.674 75.5601 213.035 75.8495 212.484C76.1481 211.924 76.5635 211.49 77.0955 211.182C77.6275 210.874 78.2388 210.72 78.9295 210.72C79.5921 210.72 80.1661 210.865 80.6515 211.154C81.1461 211.443 81.5241 211.849 81.7855 212.372C82.0561 212.895 82.1915 213.511 82.1915 214.22C82.1915 214.313 82.1868 214.402 82.1775 214.486C82.1775 214.57 82.1681 214.663 82.1495 214.766H76.2555V213.828H81.4635L81.0995 214.346C81.0995 213.487 80.9081 212.829 80.5255 212.372C80.1521 211.905 79.6201 211.672 78.9295 211.672C78.2201 211.672 77.6461 211.919 77.2075 212.414C76.7781 212.899 76.5635 213.557 76.5635 214.388C76.5635 215.237 76.7781 215.919 77.2075 216.432C77.6461 216.936 78.2295 217.188 78.9575 217.188C79.4148 217.188 79.8161 217.09 80.1615 216.894C80.5068 216.689 80.7588 216.399 80.9175 216.026H81.9815C81.7481 216.679 81.3561 217.197 80.8055 217.58C80.2641 217.953 79.6295 218.14 78.9015 218.14ZM83.8778 218V210.86H84.9278V212.54H84.9978V218H83.8778ZM88.9878 218V213.324C88.9878 212.783 88.8525 212.377 88.5818 212.106C88.3111 211.835 87.9098 211.7 87.3778 211.7C86.9111 211.7 86.4958 211.803 86.1318 212.008C85.7771 212.213 85.4971 212.498 85.2918 212.862C85.0958 213.226 84.9978 213.651 84.9978 214.136L84.8158 212.442C85.0585 211.91 85.4271 211.49 85.9218 211.182C86.4258 210.874 86.9951 210.72 87.6298 210.72C88.3765 210.72 88.9738 210.935 89.4218 211.364C89.8791 211.784 90.1078 212.339 90.1078 213.03V218H88.9878ZM95.0867 218.14C94.4333 218.14 93.85 217.981 93.3367 217.664C92.8327 217.337 92.4313 216.894 92.1327 216.334C91.8433 215.765 91.6987 215.121 91.6987 214.402C91.6987 213.683 91.8433 213.049 92.1327 212.498C92.4313 211.947 92.8327 211.513 93.3367 211.196C93.85 210.879 94.4287 210.72 95.0727 210.72C95.6047 210.72 96.0807 210.823 96.5007 211.028C96.93 211.233 97.28 211.527 97.5507 211.91C97.8307 212.283 98.008 212.722 98.0827 213.226H97.0467C96.9533 212.769 96.7387 212.395 96.4027 212.106C96.0667 211.817 95.6327 211.672 95.1007 211.672C94.6433 211.672 94.2467 211.784 93.9107 212.008C93.5747 212.232 93.3133 212.549 93.1267 212.96C92.94 213.371 92.8467 213.851 92.8467 214.402C92.8467 214.953 92.94 215.438 93.1267 215.858C93.3133 216.278 93.5747 216.605 93.9107 216.838C94.256 217.071 94.6573 217.188 95.1147 217.188C95.628 217.188 96.0573 217.048 96.4027 216.768C96.748 216.479 96.9673 216.105 97.0607 215.648H98.0967C98.0127 216.143 97.826 216.581 97.5367 216.964C97.2567 217.337 96.9067 217.627 96.4867 217.832C96.0667 218.037 95.6 218.14 95.0867 218.14ZM102.664 218.14C101.964 218.14 101.348 217.977 100.816 217.65C100.284 217.323 99.8688 216.88 99.5702 216.32C99.2808 215.751 99.1362 215.111 99.1362 214.402C99.1362 213.683 99.2855 213.049 99.5842 212.498C99.8828 211.947 100.294 211.513 100.816 211.196C101.348 210.879 101.964 210.72 102.664 210.72C103.374 210.72 103.99 210.879 104.512 211.196C105.044 211.513 105.455 211.947 105.744 212.498C106.043 213.049 106.192 213.683 106.192 214.402C106.192 215.111 106.043 215.751 105.744 216.32C105.455 216.88 105.044 217.323 104.512 217.65C103.99 217.977 103.374 218.14 102.664 218.14ZM102.664 217.188C103.15 217.188 103.57 217.071 103.924 216.838C104.279 216.595 104.554 216.264 104.75 215.844C104.946 215.424 105.044 214.939 105.044 214.388C105.044 213.567 104.825 212.909 104.386 212.414C103.957 211.919 103.383 211.672 102.664 211.672C101.955 211.672 101.381 211.919 100.942 212.414C100.504 212.909 100.284 213.567 100.284 214.388C100.284 214.939 100.382 215.424 100.578 215.844C100.774 216.264 101.05 216.595 101.404 216.838C101.768 217.071 102.188 217.188 102.664 217.188ZM107.872 218V210.86H108.922V212.54H108.992V218H107.872ZM112.982 218V213.324C112.982 212.783 112.847 212.377 112.576 212.106C112.305 211.835 111.904 211.7 111.372 211.7C110.905 211.7 110.49 211.803 110.126 212.008C109.771 212.213 109.491 212.498 109.286 212.862C109.09 213.226 108.992 213.651 108.992 214.136L108.81 212.442C109.053 211.91 109.421 211.49 109.916 211.182C110.42 210.874 110.989 210.72 111.624 210.72C112.371 210.72 112.968 210.935 113.416 211.364C113.873 211.784 114.102 212.339 114.102 213.03V218H112.982ZM118.917 218.126C118.124 218.126 117.545 217.949 117.181 217.594C116.827 217.23 116.649 216.707 116.649 216.026V209.194L117.769 208.774V216.012C117.769 216.413 117.872 216.707 118.077 216.894C118.283 217.081 118.619 217.174 119.085 217.174C119.272 217.174 119.431 217.165 119.561 217.146C119.701 217.118 119.813 217.085 119.897 217.048V218C119.804 218.037 119.669 218.065 119.491 218.084C119.323 218.112 119.132 218.126 118.917 218.126ZM115.179 211.812V210.86H119.897V211.812H115.179ZM121.339 218V210.86H122.389V212.68H122.459V218H121.339ZM122.459 214.276L122.277 212.582C122.445 211.975 122.743 211.513 123.173 211.196C123.602 210.879 124.097 210.72 124.657 210.72C124.89 210.72 125.049 210.739 125.133 210.776V211.854C125.086 211.835 125.021 211.826 124.937 211.826C124.853 211.817 124.75 211.812 124.629 211.812C123.919 211.812 123.378 212.027 123.005 212.456C122.641 212.876 122.459 213.483 122.459 214.276ZM130.766 218C130.728 217.841 130.7 217.659 130.682 217.454C130.672 217.249 130.668 216.987 130.668 216.67H130.598V213.254C130.598 212.713 130.472 212.316 130.22 212.064C129.977 211.803 129.58 211.672 129.03 211.672C128.488 211.672 128.054 211.784 127.728 212.008C127.41 212.223 127.233 212.531 127.196 212.932H126.118C126.164 212.241 126.454 211.7 126.986 211.308C127.518 210.916 128.213 210.72 129.072 210.72C129.958 210.72 130.616 210.93 131.046 211.35C131.475 211.77 131.69 212.4 131.69 213.24V216.67C131.69 216.875 131.704 217.09 131.732 217.314C131.76 217.529 131.797 217.757 131.844 218H130.766ZM128.316 218.14C127.578 218.14 126.99 217.963 126.552 217.608C126.122 217.244 125.908 216.749 125.908 216.124C125.908 215.499 126.122 215.013 126.552 214.668C126.981 214.323 127.606 214.08 128.428 213.94L130.92 213.52V214.444L128.596 214.808C128.073 214.892 127.676 215.032 127.406 215.228C127.135 215.424 127 215.709 127 216.082C127 216.446 127.121 216.721 127.364 216.908C127.616 217.095 127.984 217.188 128.47 217.188C129.095 217.188 129.604 217.048 129.996 216.768C130.397 216.479 130.598 216.105 130.598 215.648L130.78 216.642C130.63 217.118 130.336 217.487 129.898 217.748C129.468 218.009 128.941 218.14 128.316 218.14ZM133.849 218V210.86H134.899V212.68H134.969V218H133.849ZM134.969 214.276L134.787 212.582C134.955 211.975 135.253 211.513 135.683 211.196C136.112 210.879 136.607 210.72 137.167 210.72C137.4 210.72 137.559 210.739 137.643 210.776V211.854C137.596 211.835 137.531 211.826 137.447 211.826C137.363 211.817 137.26 211.812 137.139 211.812C136.429 211.812 135.888 212.027 135.515 212.456C135.151 212.876 134.969 213.483 134.969 214.276ZM142.067 218.14C141.367 218.14 140.751 217.977 140.219 217.65C139.687 217.323 139.271 216.88 138.973 216.32C138.683 215.751 138.539 215.111 138.539 214.402C138.539 213.683 138.688 213.049 138.987 212.498C139.285 211.947 139.696 211.513 140.219 211.196C140.751 210.879 141.367 210.72 142.067 210.72C142.776 210.72 143.392 210.879 143.915 211.196C144.447 211.513 144.857 211.947 145.147 212.498C145.445 213.049 145.595 213.683 145.595 214.402C145.595 215.111 145.445 215.751 145.147 216.32C144.857 216.88 144.447 217.323 143.915 217.65C143.392 217.977 142.776 218.14 142.067 218.14ZM142.067 217.188C142.552 217.188 142.972 217.071 143.327 216.838C143.681 216.595 143.957 216.264 144.153 215.844C144.349 215.424 144.447 214.939 144.447 214.388C144.447 213.567 144.227 212.909 143.789 212.414C143.359 211.919 142.785 211.672 142.067 211.672C141.357 211.672 140.783 211.919 140.345 212.414C139.906 212.909 139.687 213.567 139.687 214.388C139.687 214.939 139.785 215.424 139.981 215.844C140.177 216.264 140.452 216.595 140.807 216.838C141.171 217.071 141.591 217.188 142.067 217.188ZM147.274 218V210.86H148.324V212.54H148.394V218H147.274ZM152.384 218V213.324C152.384 212.783 152.249 212.377 151.978 212.106C151.708 211.835 151.306 211.7 150.774 211.7C150.308 211.7 149.892 211.803 149.528 212.008C149.174 212.213 148.894 212.498 148.688 212.862C148.492 213.226 148.394 213.651 148.394 214.136L148.212 212.442C148.455 211.91 148.824 211.49 149.318 211.182C149.822 210.874 150.392 210.72 151.026 210.72C151.773 210.72 152.37 210.935 152.818 211.364C153.276 211.784 153.504 212.339 153.504 213.03V218H152.384ZM162.84 218C162.803 217.841 162.775 217.659 162.756 217.454C162.747 217.249 162.742 216.987 162.742 216.67H162.672V213.254C162.672 212.713 162.546 212.316 162.294 212.064C162.051 211.803 161.655 211.672 161.104 211.672C160.563 211.672 160.129 211.784 159.802 212.008C159.485 212.223 159.307 212.531 159.27 212.932H158.192C158.239 212.241 158.528 211.7 159.06 211.308C159.592 210.916 160.287 210.72 161.146 210.72C162.033 210.72 162.691 210.93 163.12 211.35C163.549 211.77 163.764 212.4 163.764 213.24V216.67C163.764 216.875 163.778 217.09 163.806 217.314C163.834 217.529 163.871 217.757 163.918 218H162.84ZM160.39 218.14C159.653 218.14 159.065 217.963 158.626 217.608C158.197 217.244 157.982 216.749 157.982 216.124C157.982 215.499 158.197 215.013 158.626 214.668C159.055 214.323 159.681 214.08 160.502 213.94L162.994 213.52V214.444L160.67 214.808C160.147 214.892 159.751 215.032 159.48 215.228C159.209 215.424 159.074 215.709 159.074 216.082C159.074 216.446 159.195 216.721 159.438 216.908C159.69 217.095 160.059 217.188 160.544 217.188C161.169 217.188 161.678 217.048 162.07 216.768C162.471 216.479 162.672 216.105 162.672 215.648L162.854 216.642C162.705 217.118 162.411 217.487 161.972 217.748C161.543 218.009 161.015 218.14 160.39 218.14ZM165.923 218V210.86H166.973V212.54H167.043V218H165.923ZM170.739 218V213.268C170.739 212.727 170.617 212.33 170.375 212.078C170.132 211.826 169.782 211.7 169.325 211.7C168.895 211.7 168.508 211.803 168.163 212.008C167.817 212.213 167.542 212.498 167.337 212.862C167.141 213.226 167.043 213.651 167.043 214.136L166.861 212.442C167.103 211.91 167.467 211.49 167.953 211.182C168.438 210.874 168.965 210.72 169.535 210.72C170.225 210.72 170.785 210.925 171.215 211.336C171.644 211.737 171.859 212.283 171.859 212.974V218H170.739ZM175.555 218V213.268C175.555 212.727 175.433 212.33 175.191 212.078C174.948 211.826 174.598 211.7 174.141 211.7C173.711 211.7 173.324 211.803 172.979 212.008C172.633 212.213 172.358 212.498 172.153 212.862C171.957 213.226 171.859 213.651 171.859 214.136L171.579 212.442C171.821 211.91 172.195 211.49 172.699 211.182C173.203 210.874 173.744 210.72 174.323 210.72C175.013 210.72 175.578 210.925 176.017 211.336C176.455 211.737 176.675 212.283 176.675 212.974V218H175.555ZM181.755 218.14C181.074 218.14 180.472 217.981 179.949 217.664C179.426 217.337 179.016 216.894 178.717 216.334C178.418 215.774 178.269 215.13 178.269 214.402C178.269 213.674 178.414 213.035 178.703 212.484C179.002 211.924 179.417 211.49 179.949 211.182C180.481 210.874 181.092 210.72 181.783 210.72C182.446 210.72 183.02 210.865 183.505 211.154C184 211.443 184.378 211.849 184.639 212.372C184.91 212.895 185.045 213.511 185.045 214.22C185.045 214.313 185.04 214.402 185.031 214.486C185.031 214.57 185.022 214.663 185.003 214.766H179.109V213.828H184.317L183.953 214.346C183.953 213.487 183.762 212.829 183.379 212.372C183.006 211.905 182.474 211.672 181.783 211.672C181.074 211.672 180.5 211.919 180.061 212.414C179.632 212.899 179.417 213.557 179.417 214.388C179.417 215.237 179.632 215.919 180.061 216.432C180.5 216.936 181.083 217.188 181.811 217.188C182.268 217.188 182.67 217.09 183.015 216.894C183.36 216.689 183.612 216.399 183.771 216.026H184.835C184.602 216.679 184.21 217.197 183.659 217.58C183.118 217.953 182.483 218.14 181.755 218.14ZM186.731 218V210.86H187.781V212.54H187.851V218H186.731ZM191.841 218V213.324C191.841 212.783 191.706 212.377 191.435 212.106C191.165 211.835 190.763 211.7 190.231 211.7C189.765 211.7 189.349 211.803 188.985 212.008C188.631 212.213 188.351 212.498 188.145 212.862C187.949 213.226 187.851 213.651 187.851 214.136L187.669 212.442C187.912 211.91 188.281 211.49 188.775 211.182C189.279 210.874 189.849 210.72 190.483 210.72C191.23 210.72 191.827 210.935 192.275 211.364C192.733 211.784 192.961 212.339 192.961 213.03V218H191.841ZM199.453 218C199.416 217.841 199.388 217.659 199.369 217.454C199.36 217.249 199.355 216.987 199.355 216.67H199.285V213.254C199.285 212.713 199.159 212.316 198.907 212.064C198.665 211.803 198.268 211.672 197.717 211.672C197.176 211.672 196.742 211.784 196.415 212.008C196.098 212.223 195.921 212.531 195.883 212.932H194.805C194.852 212.241 195.141 211.7 195.673 211.308C196.205 210.916 196.901 210.72 197.759 210.72C198.646 210.72 199.304 210.93 199.733 211.35C200.163 211.77 200.377 212.4 200.377 213.24V216.67C200.377 216.875 200.391 217.09 200.419 217.314C200.447 217.529 200.485 217.757 200.531 218H199.453ZM197.003 218.14C196.266 218.14 195.678 217.963 195.239 217.608C194.81 217.244 194.595 216.749 194.595 216.124C194.595 215.499 194.81 215.013 195.239 214.668C195.669 214.323 196.294 214.08 197.115 213.94L199.607 213.52V214.444L197.283 214.808C196.761 214.892 196.364 215.032 196.093 215.228C195.823 215.424 195.687 215.709 195.687 216.082C195.687 216.446 195.809 216.721 196.051 216.908C196.303 217.095 196.672 217.188 197.157 217.188C197.783 217.188 198.291 217.048 198.683 216.768C199.085 216.479 199.285 216.105 199.285 215.648L199.467 216.642C199.318 217.118 199.024 217.487 198.585 217.748C198.156 218.009 197.629 218.14 197.003 218.14ZM201.899 218V217.188L206.239 211.294L206.659 211.812H202.039V210.86H207.303V211.672L202.963 217.566L202.543 217.048H207.443V218H201.899ZM213.398 218C213.361 217.841 213.333 217.659 213.314 217.454C213.305 217.249 213.3 216.987 213.3 216.67H213.23V213.254C213.23 212.713 213.104 212.316 212.852 212.064C212.61 211.803 212.213 211.672 211.662 211.672C211.121 211.672 210.687 211.784 210.36 212.008C210.043 212.223 209.866 212.531 209.828 212.932H208.75C208.797 212.241 209.086 211.7 209.618 211.308C210.15 210.916 210.846 210.72 211.704 210.72C212.591 210.72 213.249 210.93 213.678 211.35C214.108 211.77 214.322 212.4 214.322 213.24V216.67C214.322 216.875 214.336 217.09 214.364 217.314C214.392 217.529 214.43 217.757 214.476 218H213.398ZM210.948 218.14C210.211 218.14 209.623 217.963 209.184 217.608C208.755 217.244 208.54 216.749 208.54 216.124C208.54 215.499 208.755 215.013 209.184 214.668C209.614 214.323 210.239 214.08 211.06 213.94L213.552 213.52V214.444L211.228 214.808C210.706 214.892 210.309 215.032 210.038 215.228C209.768 215.424 209.632 215.709 209.632 216.082C209.632 216.446 209.754 216.721 209.996 216.908C210.248 217.095 210.617 217.188 211.102 217.188C211.728 217.188 212.236 217.048 212.628 216.768C213.03 216.479 213.23 216.105 213.23 215.648L213.412 216.642C213.263 217.118 212.969 217.487 212.53 217.748C212.101 218.009 211.574 218.14 210.948 218.14ZM218.876 218.14C217.999 218.14 217.299 217.939 216.776 217.538C216.253 217.127 215.955 216.549 215.88 215.802H216.958C217.023 216.259 217.224 216.609 217.56 216.852C217.896 217.095 218.344 217.216 218.904 217.216C219.399 217.216 219.786 217.123 220.066 216.936C220.346 216.749 220.486 216.483 220.486 216.138C220.486 215.895 220.407 215.685 220.248 215.508C220.089 215.321 219.772 215.167 219.296 215.046L218.148 214.752C217.495 214.584 217.005 214.327 216.678 213.982C216.351 213.627 216.188 213.207 216.188 212.722C216.188 212.106 216.417 211.621 216.874 211.266C217.331 210.902 217.952 210.72 218.736 210.72C219.511 210.72 220.141 210.907 220.626 211.28C221.111 211.653 221.387 212.171 221.452 212.834H220.374C220.309 212.451 220.131 212.157 219.842 211.952C219.553 211.747 219.17 211.644 218.694 211.644C218.237 211.644 217.882 211.733 217.63 211.91C217.378 212.078 217.252 212.321 217.252 212.638C217.252 212.881 217.341 213.091 217.518 213.268C217.705 213.445 218.013 213.595 218.442 213.716L219.562 214.024C220.225 214.201 220.724 214.472 221.06 214.836C221.396 215.2 221.564 215.639 221.564 216.152C221.564 216.777 221.326 217.267 220.85 217.622C220.374 217.967 219.716 218.14 218.876 218.14Z" fill="white"/>
</g>
<defs>
<filter id="filter0_d_5821_31237" x="96.4883" y="174" width="65.0254" height="54" filterUnits="userSpaceOnUse" color-interpolation-filters="sRGB">
<feFlood flood-opacity="0" result="BackgroundImageFix"/>
<feColorMatrix in="SourceAlpha" type="matrix" values="0 0 0 0 0 0 0 0 0 0 0 0 0 0 0 0 0 0 127 0" result="hardAlpha"/>
<feOffset dy="8"/>
<feGaussianBlur stdDeviation="12"/>
<feComposite in2="hardAlpha" operator="out"/>
<feColorMatrix type="matrix" values="0 0 0 0 0 0 0 0 0 0 0 0 0 0 0 0 0 0 0.06 0"/>
<feBlend mode="normal" in2="BackgroundImageFix" result="effect1_dropShadow_5821_31237"/>
<feBlend mode="normal" in="SourceGraphic" in2="effect1_dropShadow_5821_31237" result="shape"/>
</filter>
<filter id="filter1_d_5821_31237" x="0" y="184" width="258" height="81" filterUnits="userSpaceOnUse" color-interpolation-filters="sRGB">
<feFlood flood-opacity="0" result="BackgroundImageFix"/>
<feColorMatrix in="SourceAlpha" type="matrix" values="0 0 0 0 0 0 0 0 0 0 0 0 0 0 0 0 0 0 127 0" result="hardAlpha"/>
<feOffset dy="12"/>
<feGaussianBlur stdDeviation="12"/>
<feComposite in2="hardAlpha" operator="out"/>
<feColorMatrix type="matrix" values="0 0 0 0 0 0 0 0 0 0 0 0 0 0 0 0 0 0 0.06 0"/>
<feBlend mode="normal" in2="BackgroundImageFix" result="effect1_dropShadow_5821_31237"/>
<feBlend mode="normal" in="SourceGraphic" in2="effect1_dropShadow_5821_31237" result="shape"/>
</filter>
<clipPath id="clip0_5821_31237">
<rect width="128" height="128" fill="white" transform="translate(65)"/>
</clipPath>
</defs>
</svg>
