<svg width="281" height="265" viewBox="0 0 281 265" fill="none" xmlns="http://www.w3.org/2000/svg">
<g clip-path="url(#clip0_5821_31257)">
<path d="M180.5 20H100.5C98.3783 20 96.3434 20.8429 94.8431 22.3431C93.3429 23.8434 92.5 25.8783 92.5 28V56C92.5 82.36 105.26 98.335 115.965 107.095C127.495 116.525 138.965 119.725 139.465 119.86C140.153 120.047 140.877 120.047 141.565 119.86C142.065 119.725 153.52 116.525 165.065 107.095C175.74 98.335 188.5 82.36 188.5 56V28C188.5 25.8783 187.657 23.8434 186.157 22.3431C184.657 20.8429 182.622 20 180.5 20ZM163.34 54.83L135.34 82.83C134.969 83.2019 134.527 83.4969 134.042 83.6982C133.556 83.8995 133.036 84.0031 132.51 84.0031C131.984 84.0031 131.464 83.8995 130.978 83.6982C130.493 83.4969 130.051 83.2019 129.68 82.83L117.68 70.83C116.929 70.0794 116.508 69.0615 116.508 68C116.508 66.9385 116.929 65.9206 117.68 65.17C118.431 64.4194 119.449 63.9978 120.51 63.9978C121.571 63.9978 122.589 64.4194 123.34 65.17L132.5 74.345L157.67 49.17C158.042 48.7984 158.483 48.5036 158.968 48.3024C159.454 48.1013 159.974 47.9978 160.5 47.9978C161.026 47.9978 161.546 48.1013 162.032 48.3024C162.517 48.5036 162.958 48.7984 163.33 49.17C163.702 49.5416 163.996 49.9828 164.198 50.4684C164.399 50.954 164.502 51.4744 164.502 52C164.502 52.5256 164.399 53.046 164.198 53.5316C163.996 54.0172 163.702 54.4584 163.33 54.83H163.34Z" fill="#32C356"/>
</g>
<rect x="56.5" y="139" width="128" height="24" rx="6" fill="#D1D1D7"/>
<path d="M218.875 153.813H220.75C220.999 153.813 221.237 153.714 221.413 153.538C221.589 153.362 221.688 153.124 221.688 152.875C221.688 152.626 221.589 152.388 221.413 152.212C221.237 152.036 220.999 151.938 220.75 151.938H218.875V150.063H220.75C220.999 150.063 221.237 149.964 221.413 149.788C221.589 149.612 221.688 149.374 221.688 149.125C221.688 148.876 221.589 148.638 221.413 148.462C221.237 148.286 220.999 148.188 220.75 148.188H218.828C218.621 146.13 217.737 144.199 216.316 142.697L218.601 140.413C218.777 140.237 218.876 139.999 218.876 139.75C218.876 139.501 218.777 139.263 218.601 139.087C218.425 138.911 218.186 138.812 217.938 138.812C217.689 138.812 217.45 138.911 217.274 139.087L214.896 141.466C213.318 140.349 211.433 139.75 209.5 139.75C207.567 139.75 205.682 140.349 204.104 141.466L201.726 139.087C201.55 138.911 201.311 138.812 201.062 138.812C200.814 138.812 200.575 138.911 200.399 139.087C200.223 139.263 200.124 139.501 200.124 139.75C200.124 139.999 200.223 140.237 200.399 140.413L202.684 142.697C201.263 144.199 200.379 146.13 200.172 148.188H198.25C198.001 148.188 197.763 148.286 197.587 148.462C197.411 148.638 197.312 148.876 197.312 149.125C197.312 149.374 197.411 149.612 197.587 149.788C197.763 149.964 198.001 150.063 198.25 150.063H200.125V151.938H198.25C198.001 151.938 197.763 152.036 197.587 152.212C197.411 152.388 197.312 152.626 197.312 152.875C197.312 153.124 197.411 153.362 197.587 153.538C197.763 153.714 198.001 153.813 198.25 153.813H200.125V154.75C200.125 155.066 200.141 155.379 200.172 155.688H198.25C198.001 155.688 197.763 155.786 197.587 155.962C197.411 156.138 197.312 156.376 197.312 156.625C197.312 156.874 197.411 157.112 197.587 157.288C197.763 157.464 198.001 157.563 198.25 157.563H200.556C201.154 159.466 202.344 161.129 203.953 162.31C205.561 163.49 207.505 164.127 209.5 164.127C211.495 164.127 213.439 163.49 215.047 162.31C216.656 161.129 217.846 159.466 218.444 157.563H220.75C220.999 157.563 221.237 157.464 221.413 157.288C221.589 157.112 221.688 156.874 221.688 156.625C221.688 156.376 221.589 156.138 221.413 155.962C221.237 155.786 220.999 155.688 220.75 155.688H218.828C218.859 155.379 218.875 155.066 218.875 154.75V153.813ZM209.5 141.625C211.326 141.627 213.088 142.295 214.458 143.503C215.827 144.711 216.709 146.376 216.939 148.188H202.056C202.286 146.375 203.169 144.709 204.539 143.501C205.91 142.293 207.673 141.626 209.5 141.625ZM210.438 162.189V152.875C210.438 152.626 210.339 152.388 210.163 152.212C209.987 152.036 209.749 151.938 209.5 151.938C209.251 151.938 209.013 152.036 208.837 152.212C208.661 152.388 208.562 152.626 208.562 152.875V162.189C206.751 161.959 205.086 161.077 203.878 159.708C202.67 158.338 202.002 156.576 202 154.75V150.063H217V154.75C216.998 156.576 216.33 158.338 215.122 159.708C213.914 161.077 212.249 161.959 210.438 162.189Z" fill="black"/>
<g filter="url(#filter0_d_5821_31257)">
<path d="M147.428 195.449L142.085 190.551C141.284 189.816 139.716 189.816 138.915 190.551L133.573 195.449C133.173 195.816 132.581 196 131.988 196L149.013 196C148.421 196 147.828 195.816 147.428 195.449Z" fill="#262626"/>
</g>
<g filter="url(#filter1_d_5821_31257)">
<rect x="24" y="196" width="233" height="33" rx="6" fill="#262626" shape-rendering="crispEdges"/>
<path d="M36.504 218L40.396 207.92H41.404L37.61 218H36.504ZM44.512 218L40.718 207.92H41.796L45.688 218H44.512ZM38.436 213.926H43.7V214.934H38.436V213.926ZM49.192 218.14C48.7254 218.14 48.31 218.047 47.946 217.86C47.582 217.664 47.2974 217.393 47.092 217.048C46.8867 216.693 46.784 216.287 46.784 215.83V210.86H47.904V215.536C47.904 216.077 48.0347 216.483 48.296 216.754C48.5667 217.025 48.9494 217.16 49.444 217.16C49.892 217.16 50.2887 217.057 50.634 216.852C50.9794 216.647 51.25 216.362 51.446 215.998C51.6514 215.625 51.754 215.2 51.754 214.724L51.936 216.418C51.7027 216.95 51.3387 217.37 50.844 217.678C50.3494 217.986 49.7987 218.14 49.192 218.14ZM51.824 218V216.32H51.754V210.86H52.874V218H51.824ZM57.9128 218.14C57.2595 218.14 56.6762 217.981 56.1628 217.664C55.6588 217.337 55.2575 216.894 54.9588 216.334C54.6695 215.765 54.5248 215.121 54.5248 214.402C54.5248 213.683 54.6695 213.049 54.9588 212.498C55.2575 211.947 55.6588 211.513 56.1628 211.196C56.6762 210.879 57.2548 210.72 57.8988 210.72C58.4308 210.72 58.9068 210.823 59.3268 211.028C59.7562 211.233 60.1062 211.527 60.3768 211.91C60.6568 212.283 60.8342 212.722 60.9088 213.226H59.8728C59.7795 212.769 59.5648 212.395 59.2288 212.106C58.8928 211.817 58.4588 211.672 57.9268 211.672C57.4695 211.672 57.0728 211.784 56.7368 212.008C56.4008 212.232 56.1395 212.549 55.9528 212.96C55.7662 213.371 55.6728 213.851 55.6728 214.402C55.6728 214.953 55.7662 215.438 55.9528 215.858C56.1395 216.278 56.4008 216.605 56.7368 216.838C57.0822 217.071 57.4835 217.188 57.9408 217.188C58.4542 217.188 58.8835 217.048 59.2288 216.768C59.5742 216.479 59.7935 216.105 59.8868 215.648H60.9228C60.8388 216.143 60.6522 216.581 60.3628 216.964C60.0828 217.337 59.7328 217.627 59.3128 217.832C58.8928 218.037 58.4262 218.14 57.9128 218.14ZM64.7506 218.14C64.284 218.14 63.8686 218.047 63.5046 217.86C63.1406 217.664 62.856 217.393 62.6506 217.048C62.4453 216.693 62.3426 216.287 62.3426 215.83V210.86H63.4626V215.536C63.4626 216.077 63.5933 216.483 63.8546 216.754C64.1253 217.025 64.508 217.16 65.0026 217.16C65.4506 217.16 65.8473 217.057 66.1926 216.852C66.538 216.647 66.8086 216.362 67.0046 215.998C67.21 215.625 67.3126 215.2 67.3126 214.724L67.4946 216.418C67.2613 216.95 66.8973 217.37 66.4026 217.678C65.908 217.986 65.3573 218.14 64.7506 218.14ZM67.3826 218V216.32H67.3126V210.86H68.4326V218H67.3826ZM70.6708 218V210.86H71.7208V212.54H71.7908V218H70.6708ZM75.7808 218V213.324C75.7808 212.783 75.6454 212.377 75.3748 212.106C75.1041 211.835 74.7028 211.7 74.1708 211.7C73.7041 211.7 73.2888 211.803 72.9248 212.008C72.5701 212.213 72.2901 212.498 72.0848 212.862C71.8888 213.226 71.7908 213.651 71.7908 214.136L71.6088 212.442C71.8514 211.91 72.2201 211.49 72.7148 211.182C73.2188 210.874 73.7881 210.72 74.4228 210.72C75.1694 210.72 75.7668 210.935 76.2148 211.364C76.6721 211.784 76.9008 212.339 76.9008 213.03V218H75.7808ZM81.9776 218.14C81.2963 218.14 80.6943 217.981 80.1716 217.664C79.649 217.337 79.2383 216.894 78.9396 216.334C78.641 215.774 78.4916 215.13 78.4916 214.402C78.4916 213.674 78.6363 213.035 78.9256 212.484C79.2243 211.924 79.6396 211.49 80.1716 211.182C80.7036 210.874 81.315 210.72 82.0056 210.72C82.6683 210.72 83.2423 210.865 83.7276 211.154C84.2223 211.443 84.6003 211.849 84.8616 212.372C85.1323 212.895 85.2676 213.511 85.2676 214.22C85.2676 214.313 85.263 214.402 85.2536 214.486C85.2536 214.57 85.2443 214.663 85.2256 214.766H79.3316V213.828H84.5396L84.1756 214.346C84.1756 213.487 83.9843 212.829 83.6016 212.372C83.2283 211.905 82.6963 211.672 82.0056 211.672C81.2963 211.672 80.7223 211.919 80.2836 212.414C79.8543 212.899 79.6396 213.557 79.6396 214.388C79.6396 215.237 79.8543 215.919 80.2836 216.432C80.7223 216.936 81.3056 217.188 82.0336 217.188C82.491 217.188 82.8923 217.09 83.2376 216.894C83.583 216.689 83.835 216.399 83.9936 216.026H85.0576C84.8243 216.679 84.4323 217.197 83.8816 217.58C83.3403 217.953 82.7056 218.14 81.9776 218.14ZM89.7567 218V210.86H90.8067V212.54H90.8767V218H89.7567ZM94.5727 218V213.268C94.5727 212.727 94.4514 212.33 94.2087 212.078C93.9661 211.826 93.6161 211.7 93.1587 211.7C92.7294 211.7 92.3421 211.803 91.9967 212.008C91.6514 212.213 91.3761 212.498 91.1707 212.862C90.9747 213.226 90.8767 213.651 90.8767 214.136L90.6947 212.442C90.9374 211.91 91.3014 211.49 91.7867 211.182C92.2721 210.874 92.7994 210.72 93.3687 210.72C94.0594 210.72 94.6194 210.925 95.0487 211.336C95.4781 211.737 95.6927 212.283 95.6927 212.974V218H94.5727ZM99.3887 218V213.268C99.3887 212.727 99.2674 212.33 99.0247 212.078C98.7821 211.826 98.4321 211.7 97.9747 211.7C97.5454 211.7 97.1581 211.803 96.8127 212.008C96.4674 212.213 96.1921 212.498 95.9867 212.862C95.7907 213.226 95.6927 213.651 95.6927 214.136L95.4127 212.442C95.6554 211.91 96.0287 211.49 96.5327 211.182C97.0367 210.874 97.5781 210.72 98.1567 210.72C98.8474 210.72 99.4121 210.925 99.8507 211.336C100.289 211.737 100.509 212.283 100.509 212.974V218H99.3887ZM105.589 218.14C104.908 218.14 104.306 217.981 103.783 217.664C103.26 217.337 102.85 216.894 102.551 216.334C102.252 215.774 102.103 215.13 102.103 214.402C102.103 213.674 102.248 213.035 102.537 212.484C102.836 211.924 103.251 211.49 103.783 211.182C104.315 210.874 104.926 210.72 105.617 210.72C106.28 210.72 106.854 210.865 107.339 211.154C107.834 211.443 108.212 211.849 108.473 212.372C108.744 212.895 108.879 213.511 108.879 214.22C108.879 214.313 108.874 214.402 108.865 214.486C108.865 214.57 108.856 214.663 108.837 214.766H102.943V213.828H108.151L107.787 214.346C107.787 213.487 107.596 212.829 107.213 212.372C106.84 211.905 106.308 211.672 105.617 211.672C104.908 211.672 104.334 211.919 103.895 212.414C103.466 212.899 103.251 213.557 103.251 214.388C103.251 215.237 103.466 215.919 103.895 216.432C104.334 216.936 104.917 217.188 105.645 217.188C106.102 217.188 106.504 217.09 106.849 216.894C107.194 216.689 107.446 216.399 107.605 216.026H108.669C108.436 216.679 108.044 217.197 107.493 217.58C106.952 217.953 106.317 218.14 105.589 218.14ZM110.565 218V210.86H111.615V212.54H111.685V218H110.565ZM115.675 218V213.324C115.675 212.783 115.54 212.377 115.269 212.106C114.999 211.835 114.597 211.7 114.065 211.7C113.599 211.7 113.183 211.803 112.819 212.008C112.465 212.213 112.185 212.498 111.979 212.862C111.783 213.226 111.685 213.651 111.685 214.136L111.503 212.442C111.746 211.91 112.115 211.49 112.609 211.182C113.113 210.874 113.683 210.72 114.317 210.72C115.064 210.72 115.661 210.935 116.109 211.364C116.567 211.784 116.795 212.339 116.795 213.03V218H115.675ZM123.287 218C123.25 217.841 123.222 217.659 123.203 217.454C123.194 217.249 123.189 216.987 123.189 216.67H123.119V213.254C123.119 212.713 122.993 212.316 122.741 212.064C122.498 211.803 122.102 211.672 121.551 211.672C121.01 211.672 120.576 211.784 120.249 212.008C119.932 212.223 119.754 212.531 119.717 212.932H118.639C118.686 212.241 118.975 211.7 119.507 211.308C120.039 210.916 120.734 210.72 121.593 210.72C122.48 210.72 123.138 210.93 123.567 211.35C123.996 211.77 124.211 212.4 124.211 213.24V216.67C124.211 216.875 124.225 217.09 124.253 217.314C124.281 217.529 124.318 217.757 124.365 218H123.287ZM120.837 218.14C120.1 218.14 119.512 217.963 119.073 217.608C118.644 217.244 118.429 216.749 118.429 216.124C118.429 215.499 118.644 215.013 119.073 214.668C119.502 214.323 120.128 214.08 120.949 213.94L123.441 213.52V214.444L121.117 214.808C120.594 214.892 120.198 215.032 119.927 215.228C119.656 215.424 119.521 215.709 119.521 216.082C119.521 216.446 119.642 216.721 119.885 216.908C120.137 217.095 120.506 217.188 120.991 217.188C121.616 217.188 122.125 217.048 122.517 216.768C122.918 216.479 123.119 216.105 123.119 215.648L123.301 216.642C123.152 217.118 122.858 217.487 122.419 217.748C121.99 218.009 121.462 218.14 120.837 218.14ZM129.198 218.14C128.545 218.14 127.961 217.981 127.448 217.664C126.944 217.337 126.543 216.894 126.244 216.334C125.955 215.765 125.81 215.121 125.81 214.402C125.81 213.683 125.955 213.049 126.244 212.498C126.543 211.947 126.944 211.513 127.448 211.196C127.961 210.879 128.54 210.72 129.184 210.72C129.716 210.72 130.192 210.823 130.612 211.028C131.041 211.233 131.391 211.527 131.662 211.91C131.942 212.283 132.119 212.722 132.194 213.226H131.158C131.065 212.769 130.85 212.395 130.514 212.106C130.178 211.817 129.744 211.672 129.212 211.672C128.755 211.672 128.358 211.784 128.022 212.008C127.686 212.232 127.425 212.549 127.238 212.96C127.051 213.371 126.958 213.851 126.958 214.402C126.958 214.953 127.051 215.438 127.238 215.858C127.425 216.278 127.686 216.605 128.022 216.838C128.367 217.071 128.769 217.188 129.226 217.188C129.739 217.188 130.169 217.048 130.514 216.768C130.859 216.479 131.079 216.105 131.172 215.648H132.208C132.124 216.143 131.937 216.581 131.648 216.964C131.368 217.337 131.018 217.627 130.598 217.832C130.178 218.037 129.711 218.14 129.198 218.14ZM136.734 218.14C136.052 218.14 135.45 217.981 134.928 217.664C134.405 217.337 133.994 216.894 133.696 216.334C133.397 215.774 133.248 215.13 133.248 214.402C133.248 213.674 133.392 213.035 133.682 212.484C133.98 211.924 134.396 211.49 134.928 211.182C135.46 210.874 136.071 210.72 136.762 210.72C137.424 210.72 137.998 210.865 138.484 211.154C138.978 211.443 139.356 211.849 139.618 212.372C139.888 212.895 140.024 213.511 140.024 214.22C140.024 214.313 140.019 214.402 140.01 214.486C140.01 214.57 140 214.663 139.982 214.766H134.088V213.828H139.296L138.932 214.346C138.932 213.487 138.74 212.829 138.358 212.372C137.984 211.905 137.452 211.672 136.762 211.672C136.052 211.672 135.478 211.919 135.04 212.414C134.61 212.899 134.396 213.557 134.396 214.388C134.396 215.237 134.61 215.919 135.04 216.432C135.478 216.936 136.062 217.188 136.79 217.188C137.247 217.188 137.648 217.09 137.994 216.894C138.339 216.689 138.591 216.399 138.75 216.026H139.814C139.58 216.679 139.188 217.197 138.638 217.58C138.096 217.953 137.462 218.14 136.734 218.14ZM144.513 218V210.86H145.563V212.54H145.633V218H144.513ZM149.623 218V213.324C149.623 212.783 149.487 212.377 149.217 212.106C148.946 211.835 148.545 211.7 148.013 211.7C147.546 211.7 147.131 211.803 146.767 212.008C146.412 212.213 146.132 212.498 145.927 212.862C145.731 213.226 145.633 213.651 145.633 214.136L145.451 212.442C145.693 211.91 146.062 211.49 146.557 211.182C147.061 210.874 147.63 210.72 148.265 210.72C149.011 210.72 149.609 210.935 150.057 211.364C150.514 211.784 150.743 212.339 150.743 213.03V218H149.623ZM152.093 211.07L151.743 209.222C151.706 209.035 151.678 208.863 151.659 208.704C151.64 208.536 151.631 208.391 151.631 208.27C151.631 208.121 151.659 207.99 151.715 207.878C151.78 207.757 151.864 207.663 151.967 207.598C152.07 207.533 152.191 207.5 152.331 207.5C152.471 207.5 152.592 207.533 152.695 207.598C152.807 207.663 152.891 207.757 152.947 207.878C153.003 207.99 153.031 208.121 153.031 208.27C153.031 208.391 153.022 208.536 153.003 208.704C152.984 208.863 152.956 209.035 152.919 209.222L152.569 211.07H152.093ZM158.41 218C158.373 217.841 158.345 217.659 158.326 217.454C158.317 217.249 158.312 216.987 158.312 216.67H158.242V213.254C158.242 212.713 158.116 212.316 157.864 212.064C157.622 211.803 157.225 211.672 156.674 211.672C156.133 211.672 155.699 211.784 155.372 212.008C155.055 212.223 154.878 212.531 154.84 212.932H153.762C153.809 212.241 154.098 211.7 154.63 211.308C155.162 210.916 155.858 210.72 156.716 210.72C157.603 210.72 158.261 210.93 158.69 211.35C159.12 211.77 159.334 212.4 159.334 213.24V216.67C159.334 216.875 159.348 217.09 159.376 217.314C159.404 217.529 159.442 217.757 159.488 218H158.41ZM155.96 218.14C155.223 218.14 154.635 217.963 154.196 217.608C153.767 217.244 153.552 216.749 153.552 216.124C153.552 215.499 153.767 215.013 154.196 214.668C154.626 214.323 155.251 214.08 156.072 213.94L158.564 213.52V214.444L156.24 214.808C155.718 214.892 155.321 215.032 155.05 215.228C154.78 215.424 154.644 215.709 154.644 216.082C154.644 216.446 154.766 216.721 155.008 216.908C155.26 217.095 155.629 217.188 156.114 217.188C156.74 217.188 157.248 217.048 157.64 216.768C158.042 216.479 158.242 216.105 158.242 215.648L158.424 216.642C158.275 217.118 157.981 217.487 157.542 217.748C157.113 218.009 156.586 218.14 155.96 218.14ZM167.222 218.14C166.54 218.14 165.938 217.981 165.416 217.664C164.893 217.337 164.482 216.894 164.184 216.334C163.885 215.774 163.736 215.13 163.736 214.402C163.736 213.674 163.88 213.035 164.17 212.484C164.468 211.924 164.884 211.49 165.416 211.182C165.948 210.874 166.559 210.72 167.25 210.72C167.912 210.72 168.486 210.865 168.972 211.154C169.466 211.443 169.844 211.849 170.106 212.372C170.376 212.895 170.512 213.511 170.512 214.22C170.512 214.313 170.507 214.402 170.498 214.486C170.498 214.57 170.488 214.663 170.47 214.766H164.576V213.828H169.784L169.42 214.346C169.42 213.487 169.228 212.829 168.846 212.372C168.472 211.905 167.94 211.672 167.25 211.672C166.54 211.672 165.966 211.919 165.528 212.414C165.098 212.899 164.884 213.557 164.884 214.388C164.884 215.237 165.098 215.919 165.528 216.432C165.966 216.936 166.55 217.188 167.278 217.188C167.735 217.188 168.136 217.09 168.482 216.894C168.827 216.689 169.079 216.399 169.238 216.026H170.302C170.068 216.679 169.676 217.197 169.126 217.58C168.584 217.953 167.95 218.14 167.222 218.14ZM167.222 209.838H166.158L167.74 207.64H169.462L167.222 209.838ZM174.972 218.126C174.179 218.126 173.6 217.949 173.236 217.594C172.881 217.23 172.704 216.707 172.704 216.026V209.194L173.824 208.774V216.012C173.824 216.413 173.927 216.707 174.132 216.894C174.337 217.081 174.673 217.174 175.14 217.174C175.327 217.174 175.485 217.165 175.616 217.146C175.756 217.118 175.868 217.085 175.952 217.048V218C175.859 218.037 175.723 218.065 175.546 218.084C175.378 218.112 175.187 218.126 174.972 218.126ZM171.234 211.812V210.86H175.952V211.812H171.234ZM180.155 218.14C179.474 218.14 178.872 217.981 178.349 217.664C177.827 217.337 177.416 216.894 177.117 216.334C176.819 215.774 176.669 215.13 176.669 214.402C176.669 213.674 176.814 213.035 177.103 212.484C177.402 211.924 177.817 211.49 178.349 211.182C178.881 210.874 179.493 210.72 180.183 210.72C180.846 210.72 181.42 210.865 181.905 211.154C182.4 211.443 182.778 211.849 183.039 212.372C183.31 212.895 183.445 213.511 183.445 214.22C183.445 214.313 183.441 214.402 183.431 214.486C183.431 214.57 183.422 214.663 183.403 214.766H177.509V213.828H182.717L182.353 214.346C182.353 213.487 182.162 212.829 181.779 212.372C181.406 211.905 180.874 211.672 180.183 211.672C179.474 211.672 178.9 211.919 178.461 212.414C178.032 212.899 177.817 213.557 177.817 214.388C177.817 215.237 178.032 215.919 178.461 216.432C178.9 216.936 179.483 217.188 180.211 217.188C180.669 217.188 181.07 217.09 181.415 216.894C181.761 216.689 182.013 216.399 182.171 216.026H183.235C183.002 216.679 182.61 217.197 182.059 217.58C181.518 217.953 180.883 218.14 180.155 218.14ZM180.155 209.838H179.091L180.673 207.64H182.395L180.155 209.838ZM193.128 218V216.334L193.268 216.376C193.091 216.917 192.764 217.347 192.288 217.664C191.822 217.981 191.262 218.14 190.608 218.14C189.964 218.14 189.4 217.986 188.914 217.678C188.438 217.37 188.065 216.941 187.794 216.39C187.533 215.839 187.402 215.195 187.402 214.458C187.402 213.711 187.538 213.058 187.808 212.498C188.079 211.938 188.457 211.504 188.942 211.196C189.428 210.888 189.997 210.734 190.65 210.734C191.322 210.734 191.887 210.897 192.344 211.224C192.802 211.551 193.114 212.013 193.282 212.61L193.058 212.638V207.92H194.178V218H193.128ZM190.818 217.16C191.537 217.16 192.097 216.917 192.498 216.432C192.909 215.937 193.114 215.265 193.114 214.416C193.114 213.585 192.909 212.927 192.498 212.442C192.088 211.957 191.528 211.714 190.818 211.714C190.109 211.714 189.554 211.957 189.152 212.442C188.751 212.927 188.55 213.599 188.55 214.458C188.55 215.298 188.751 215.961 189.152 216.446C189.554 216.922 190.109 217.16 190.818 217.16ZM199.351 218.14C198.669 218.14 198.067 217.981 197.545 217.664C197.022 217.337 196.611 216.894 196.313 216.334C196.014 215.774 195.865 215.13 195.865 214.402C195.865 213.674 196.009 213.035 196.299 212.484C196.597 211.924 197.013 211.49 197.545 211.182C198.077 210.874 198.688 210.72 199.379 210.72C200.041 210.72 200.615 210.865 201.101 211.154C201.595 211.443 201.973 211.849 202.235 212.372C202.505 212.895 202.641 213.511 202.641 214.22C202.641 214.313 202.636 214.402 202.627 214.486C202.627 214.57 202.617 214.663 202.599 214.766H196.705V213.828H201.913L201.549 214.346C201.549 213.487 201.357 212.829 200.975 212.372C200.601 211.905 200.069 211.672 199.379 211.672C198.669 211.672 198.095 211.919 197.657 212.414C197.227 212.899 197.013 213.557 197.013 214.388C197.013 215.237 197.227 215.919 197.657 216.432C198.095 216.936 198.679 217.188 199.407 217.188C199.864 217.188 200.265 217.09 200.611 216.894C200.956 216.689 201.208 216.399 201.367 216.026H202.431C202.197 216.679 201.805 217.197 201.255 217.58C200.713 217.953 200.079 218.14 199.351 218.14ZM199.351 209.838H198.287L199.869 207.64H201.591L199.351 209.838ZM207.101 218.126C206.308 218.126 205.729 217.949 205.365 217.594C205.01 217.23 204.833 216.707 204.833 216.026V209.194L205.953 208.774V216.012C205.953 216.413 206.056 216.707 206.261 216.894C206.466 217.081 206.802 217.174 207.269 217.174C207.456 217.174 207.614 217.165 207.745 217.146C207.885 217.118 207.997 217.085 208.081 217.048V218C207.988 218.037 207.852 218.065 207.675 218.084C207.507 218.112 207.316 218.126 207.101 218.126ZM203.363 211.812V210.86H208.081V211.812H203.363ZM212.298 218.14C211.617 218.14 211.015 217.981 210.492 217.664C209.969 217.337 209.559 216.894 209.26 216.334C208.961 215.774 208.812 215.13 208.812 214.402C208.812 213.674 208.957 213.035 209.246 212.484C209.545 211.924 209.96 211.49 210.492 211.182C211.024 210.874 211.635 210.72 212.326 210.72C212.989 210.72 213.563 210.865 214.048 211.154C214.543 211.443 214.921 211.849 215.182 212.372C215.453 212.895 215.588 213.511 215.588 214.22C215.588 214.313 215.583 214.402 215.574 214.486C215.574 214.57 215.565 214.663 215.546 214.766H209.652V213.828H214.86L214.496 214.346C214.496 213.487 214.305 212.829 213.922 212.372C213.549 211.905 213.017 211.672 212.326 211.672C211.617 211.672 211.043 211.919 210.604 212.414C210.175 212.899 209.96 213.557 209.96 214.388C209.96 215.237 210.175 215.919 210.604 216.432C211.043 216.936 211.626 217.188 212.354 217.188C212.811 217.188 213.213 217.09 213.558 216.894C213.903 216.689 214.155 216.399 214.314 216.026H215.378C215.145 216.679 214.753 217.197 214.202 217.58C213.661 217.953 213.026 218.14 212.298 218.14ZM220.102 218.14C219.449 218.14 218.866 217.981 218.352 217.664C217.848 217.337 217.447 216.894 217.148 216.334C216.859 215.765 216.714 215.121 216.714 214.402C216.714 213.683 216.859 213.049 217.148 212.498C217.447 211.947 217.848 211.513 218.352 211.196C218.866 210.879 219.444 210.72 220.088 210.72C220.62 210.72 221.096 210.823 221.516 211.028C221.946 211.233 222.296 211.527 222.566 211.91C222.846 212.283 223.024 212.722 223.098 213.226H222.062C221.969 212.769 221.754 212.395 221.418 212.106C221.082 211.817 220.648 211.672 220.116 211.672C219.659 211.672 219.262 211.784 218.926 212.008C218.59 212.232 218.329 212.549 218.142 212.96C217.956 213.371 217.862 213.851 217.862 214.402C217.862 214.953 217.956 215.438 218.142 215.858C218.329 216.278 218.59 216.605 218.926 216.838C219.272 217.071 219.673 217.188 220.13 217.188C220.644 217.188 221.073 217.048 221.418 216.768C221.764 216.479 221.983 216.105 222.076 215.648H223.112C223.028 216.143 222.842 216.581 222.552 216.964C222.272 217.337 221.922 217.627 221.502 217.832C221.082 218.037 220.616 218.14 220.102 218.14ZM227.568 218.126C226.774 218.126 226.196 217.949 225.832 217.594C225.477 217.23 225.3 216.707 225.3 216.026V209.194L226.42 208.774V216.012C226.42 216.413 226.522 216.707 226.728 216.894C226.933 217.081 227.269 217.174 227.736 217.174C227.922 217.174 228.081 217.165 228.212 217.146C228.352 217.118 228.464 217.085 228.548 217.048V218C228.454 218.037 228.319 218.065 228.142 218.084C227.974 218.112 227.782 218.126 227.568 218.126ZM223.83 211.812V210.86H228.548V211.812H223.83ZM232.751 218.14C232.07 218.14 231.468 217.981 230.945 217.664C230.422 217.337 230.012 216.894 229.713 216.334C229.414 215.774 229.265 215.13 229.265 214.402C229.265 213.674 229.41 213.035 229.699 212.484C229.998 211.924 230.413 211.49 230.945 211.182C231.477 210.874 232.088 210.72 232.779 210.72C233.442 210.72 234.016 210.865 234.501 211.154C234.996 211.443 235.374 211.849 235.635 212.372C235.906 212.895 236.041 213.511 236.041 214.22C236.041 214.313 236.036 214.402 236.027 214.486C236.027 214.57 236.018 214.663 235.999 214.766H230.105V213.828H235.313L234.949 214.346C234.949 213.487 234.758 212.829 234.375 212.372C234.002 211.905 233.47 211.672 232.779 211.672C232.07 211.672 231.496 211.919 231.057 212.414C230.628 212.899 230.413 213.557 230.413 214.388C230.413 215.237 230.628 215.919 231.057 216.432C231.496 216.936 232.079 217.188 232.807 217.188C233.264 217.188 233.666 217.09 234.011 216.894C234.356 216.689 234.608 216.399 234.767 216.026H235.831C235.598 216.679 235.206 217.197 234.655 217.58C234.114 217.953 233.479 218.14 232.751 218.14ZM232.751 209.838H231.687L233.269 207.64H234.991L232.751 209.838ZM240.653 218.14C239.972 218.14 239.37 217.981 238.847 217.664C238.325 217.337 237.914 216.894 237.615 216.334C237.317 215.774 237.167 215.13 237.167 214.402C237.167 213.674 237.312 213.035 237.601 212.484C237.9 211.924 238.315 211.49 238.847 211.182C239.379 210.874 239.991 210.72 240.681 210.72C241.344 210.72 241.918 210.865 242.403 211.154C242.898 211.443 243.276 211.849 243.537 212.372C243.808 212.895 243.943 213.511 243.943 214.22C243.943 214.313 243.939 214.402 243.929 214.486C243.929 214.57 243.92 214.663 243.901 214.766H238.007V213.828H243.215L242.851 214.346C242.851 213.487 242.66 212.829 242.277 212.372C241.904 211.905 241.372 211.672 240.681 211.672C239.972 211.672 239.398 211.919 238.959 212.414C238.53 212.899 238.315 213.557 238.315 214.388C238.315 215.237 238.53 215.919 238.959 216.432C239.398 216.936 239.981 217.188 240.709 217.188C241.167 217.188 241.568 217.09 241.913 216.894C242.259 216.689 242.511 216.399 242.669 216.026H243.733C243.5 216.679 243.108 217.197 242.557 217.58C242.016 217.953 241.381 218.14 240.653 218.14Z" fill="white"/>
</g>
<defs>
<filter id="filter0_d_5821_31257" x="107.988" y="174" width="65.0254" height="54" filterUnits="userSpaceOnUse" color-interpolation-filters="sRGB">
<feFlood flood-opacity="0" result="BackgroundImageFix"/>
<feColorMatrix in="SourceAlpha" type="matrix" values="0 0 0 0 0 0 0 0 0 0 0 0 0 0 0 0 0 0 127 0" result="hardAlpha"/>
<feOffset dy="8"/>
<feGaussianBlur stdDeviation="12"/>
<feComposite in2="hardAlpha" operator="out"/>
<feColorMatrix type="matrix" values="0 0 0 0 0 0 0 0 0 0 0 0 0 0 0 0 0 0 0.06 0"/>
<feBlend mode="normal" in2="BackgroundImageFix" result="effect1_dropShadow_5821_31257"/>
<feBlend mode="normal" in="SourceGraphic" in2="effect1_dropShadow_5821_31257" result="shape"/>
</filter>
<filter id="filter1_d_5821_31257" x="0" y="184" width="281" height="81" filterUnits="userSpaceOnUse" color-interpolation-filters="sRGB">
<feFlood flood-opacity="0" result="BackgroundImageFix"/>
<feColorMatrix in="SourceAlpha" type="matrix" values="0 0 0 0 0 0 0 0 0 0 0 0 0 0 0 0 0 0 127 0" result="hardAlpha"/>
<feOffset dy="12"/>
<feGaussianBlur stdDeviation="12"/>
<feComposite in2="hardAlpha" operator="out"/>
<feColorMatrix type="matrix" values="0 0 0 0 0 0 0 0 0 0 0 0 0 0 0 0 0 0 0.06 0"/>
<feBlend mode="normal" in2="BackgroundImageFix" result="effect1_dropShadow_5821_31257"/>
<feBlend mode="normal" in="SourceGraphic" in2="effect1_dropShadow_5821_31257" result="shape"/>
</filter>
<clipPath id="clip0_5821_31257">
<rect width="128" height="128" fill="white" transform="translate(76.5)"/>
</clipPath>
</defs>
</svg>
