<svg viewBox="0 0 128 128" fill="none" xmlns="http://www.w3.org/2000/svg">
<path d="M16 6C16 2.68629 18.6863 0 22 0H106C109.314 0 112 2.68629 112 6V122C112 125.314 109.314 128 106 128H22C18.6863 128 16 125.314 16 122V6Z" fill="#FCFCFD"/>
<path d="M16.8 6C16.8 3.12812 19.1281 0.8 22 0.8H106C108.872 0.8 111.2 3.12812 111.2 6V122C111.2 124.872 108.872 127.2 106 127.2H22C19.1281 127.2 16.8 124.872 16.8 122V6Z" stroke="#EBECF0" stroke-width="1.6"/>
<path d="M22 128H106C109.314 128 112 125.314 112 122V118C112 121.314 109.314 124 106 124H22C18.6863 124 16 121.314 16 118V122C16 125.314 18.6863 128 22 128Z" fill="#EBECF0"/>
<path d="M56.5379 46.5672C52.6719 46.5672 50.8593 47.7255 51.0999 50.042L52.0025 58.8872C52.0476 59.2632 52.0702 59.6243 52.0702 59.9703C52.0702 61.5347 51.6716 62.7306 50.8743 63.5579C50.077 64.3703 48.8962 64.9193 47.3317 65.2051C48.9413 65.4759 50.1297 66.0024 50.8969 66.7846C51.6791 67.5518 52.0702 68.7251 52.0702 70.3046C52.0702 70.6807 52.0476 71.0868 52.0025 71.5231L51.0999 80.3682C51.0849 80.4585 51.0774 80.5863 51.0774 80.7518C51.0774 81.865 51.5663 82.6547 52.544 83.121C53.5218 83.6024 54.8531 83.8431 56.5379 83.8431V87.1374C50.2199 87.1374 47.061 85.054 47.061 80.8872C47.061 80.4509 47.076 80.12 47.1061 79.8944L47.9861 71.6585C48.0162 71.2673 48.0312 70.9966 48.0312 70.8462C48.0312 69.9586 47.8206 69.2291 47.3994 68.6574C46.9782 68.0858 46.2712 67.6571 45.2784 67.3713C44.3006 67.0855 42.9618 66.9426 41.262 66.9426V63.4677C42.9618 63.4677 44.3006 63.3323 45.2784 63.0615C46.2712 62.7757 46.9782 62.3545 47.3994 61.7979C47.8206 61.2263 48.0312 60.4968 48.0312 59.6092C48.0312 59.4438 48.0162 59.1655 47.9861 58.7744L47.1061 50.5159C47.076 50.2903 47.061 49.9593 47.061 49.5231C47.061 45.3562 50.2199 43.2728 56.5379 43.2728V46.5672ZM71.4687 43.2728C77.7867 43.2728 80.9456 45.3562 80.9456 49.5231C80.9456 49.9593 80.9306 50.2903 80.9005 50.5159L80.0205 58.7744C79.9904 59.1053 79.9754 59.3385 79.9754 59.4738C79.9754 60.8277 80.5019 61.8356 81.5549 62.4974C82.6229 63.1443 84.3528 63.4677 86.7446 63.4677V66.9426C84.3679 66.9426 82.6455 67.2735 81.5774 67.9354C80.5094 68.5973 79.9754 69.6051 79.9754 70.959C79.9754 71.0944 79.9904 71.3275 80.0205 71.6585L80.9005 79.8944C80.9306 80.12 80.9456 80.4509 80.9456 80.8872C80.9456 85.054 77.7867 87.1374 71.4687 87.1374V83.8431C73.2588 83.8431 74.6427 83.5798 75.6205 83.0533C76.5983 82.5268 77.027 81.6318 76.9067 80.3682L76.0041 71.5231C75.959 71.0868 75.9364 70.6882 75.9364 70.3272C75.9364 68.7326 76.3501 67.5518 77.1774 66.7846C78.0048 66.0174 79.3135 65.506 81.1036 65.2503C79.3586 64.9644 78.0574 64.4079 77.2 63.5805C76.3576 62.7532 75.9364 61.5497 75.9364 59.9703C75.9364 59.6243 75.959 59.2632 76.0041 58.8872L76.9067 50.042C76.9217 49.9518 76.9292 49.8239 76.9292 49.6585C76.9292 47.5976 75.1091 46.5672 71.4687 46.5672V43.2728Z" fill="#7A869A"/>
</svg>
