<svg viewBox="0 0 128 128" fill="none" xmlns="http://www.w3.org/2000/svg">
<path d="M16 6C16 2.68629 18.6863 0 22 0H64.6485C69.3943 0 73.9854 1.6876 77.6014 4.76121L104.953 28.01C109.424 31.81 112 37.3814 112 43.2488V122C112 125.314 109.314 128 106 128H22C18.6863 128 16 125.314 16 122V6Z" fill="#FCFCFD"/>
<path d="M106 127.2H22C19.1281 127.2 16.8 124.872 16.8 122V6C16.8 3.12812 19.1281 0.8 22 0.8H64.6485C69.2044 0.8 73.6119 2.4201 77.0833 5.37076L104.435 28.6196C108.727 32.2676 111.2 37.6161 111.2 43.2488V122C111.2 124.872 108.872 127.2 106 127.2Z" stroke="#DDE1E6" stroke-width="1.6"/>
<path d="M69.3337 2.45285C68.676 1.75132 67.7892 1.12466 66.8 0.89399V0.820616C70.1969 0.995829 73.4508 2.28303 76.0537 4.4955L105.386 29.4284C108.871 32.39 110.96 36.656 111.181 41.2H111.106C110.875 40.2108 110.249 39.324 109.547 38.6664C108.668 37.8426 107.482 37.2 106.4 37.2H76C73.1281 37.2 70.8 34.8719 70.8 32V5.6C70.8 4.51814 70.1575 3.3316 69.3337 2.45285Z" fill="#F2F4F8" stroke="#DDE1E6" stroke-width="1.6"/>
<path d="M22 128H106C109.314 128 112 125.314 112 122V118C112 121.314 109.314 124 106 124H22C18.6863 124 16 121.314 16 118V122C16 125.314 18.6863 128 22 128Z" fill="#DDE1E6"/>
</svg>
