<svg viewBox="0 0 128 128" fill="none" xmlns="http://www.w3.org/2000/svg">
<g clip-path="url(#clip0_1302_1893)">
<g filter="url(#filter0_i_1302_1893)">
<path d="M16 5.99951C16 2.6858 18.6863 -0.000488281 22 -0.000488281H106C109.314 -0.000488281 112 2.6858 112 5.99951V122C112 125.313 109.314 128 106 128H22C18.6863 128 16 125.313 16 122V5.99951Z" fill="#FCFCFD"/>
</g>
<path d="M16 5.99951C16 2.6858 18.6863 -0.000488281 22 -0.000488281H106C109.314 -0.000488281 112 2.6858 112 5.99951V122C112 125.313 109.314 128 106 128H22C18.6863 128 16 125.313 16 122V5.99951Z" fill="#FCFCFD"/>
<path d="M16.8 5.99951C16.8 3.12763 19.1281 0.799512 22 0.799512H106C108.872 0.799512 111.2 3.12763 111.2 5.99951V122C111.2 124.871 108.872 127.2 106 127.2H22C19.1281 127.2 16.8 124.871 16.8 122V5.99951Z" stroke="#EBECF0" stroke-width="1.6"/>
<path d="M22 128H106C109.314 128 112 125.313 112 122V118C112 121.313 109.314 124 106 124H22C18.6863 124 16 121.313 16 118V122C16 125.313 18.6863 128 22 128Z" fill="#EBECF0"/>
<path d="M43.3333 31.9995H84.6667C90.9333 31.9995 96 37.1961 96 43.6234V84.3756C96 90.8029 90.9333 95.9995 84.6667 95.9995H43.3333C37.0667 95.9995 32 90.8029 32 84.3756V43.6234C32 37.1961 37.0667 31.9995 43.3333 31.9995Z" fill="#49021F"/>
<path d="M54.0991 50.7118V78.8827C54.0991 79.1836 53.9624 79.3203 53.7162 79.3203H48.3556C48.1094 79.3203 48 79.1836 48 78.8827V50.7118C48 50.4656 48.1368 50.3562 48.3829 50.3562H53.7162C53.8803 50.3289 54.0444 50.4383 54.0718 50.6297C54.0991 50.6571 54.0991 50.6844 54.0991 50.7118Z" fill="#FF3366"/>
<path d="M69.9062 79.6482C67.8822 79.6756 65.8583 79.2653 64.0258 78.4174C62.3028 77.6243 60.8805 76.3115 59.8959 74.6978C58.884 73.0294 58.3917 70.9508 58.3917 68.4619C58.3643 66.438 58.884 64.4414 59.8959 62.6909C60.9352 60.9132 62.4395 59.4362 64.2446 58.4516C66.1592 57.385 68.4566 56.8653 71.1643 56.8653C71.3011 56.8653 71.4925 56.8653 71.7387 56.8927C71.9848 56.92 72.2583 56.92 72.5865 56.9474V48.3046C72.5865 48.1132 72.6686 48.0038 72.86 48.0038H78.4122C78.5489 47.9764 78.6583 48.0858 78.6857 48.1952V48.2499V74.2875C78.6857 74.7798 78.713 75.3268 78.7404 75.9285C78.7951 76.5029 78.8224 77.0499 78.8498 77.5149C78.8498 77.7063 78.7677 77.8704 78.5763 77.9525C77.154 78.5542 75.6498 78.9918 74.1181 79.2653C72.7506 79.5115 71.3284 79.6482 69.9062 79.6482ZM72.5865 74.1781V62.1439C72.3404 62.0892 72.0942 62.0345 71.8481 62.0072C71.5472 61.9798 71.2464 61.9525 70.9455 61.9525C69.8788 61.9525 68.8122 62.1713 67.8549 62.6636C66.925 63.1285 66.1318 63.8123 65.5301 64.6875C64.9284 65.5627 64.6275 66.7388 64.6275 68.161C64.6002 69.1183 64.7643 70.0756 65.0925 70.9781C65.366 71.7166 65.7763 72.373 66.3233 72.92C66.8429 73.4123 67.472 73.7952 68.1831 74.014C68.9216 74.2602 69.6874 74.3696 70.4532 74.3696C70.8634 74.3696 71.2464 74.3422 71.6019 74.3149C71.9575 74.3422 72.2857 74.2875 72.5865 74.1781Z" fill="#FF3366"/>
</g>
<defs>
<filter id="filter0_i_1302_1893" x="16" y="-0.000488281" width="96" height="128" filterUnits="userSpaceOnUse" color-interpolation-filters="sRGB">
<feFlood flood-opacity="0" result="BackgroundImageFix"/>
<feBlend mode="normal" in="SourceGraphic" in2="BackgroundImageFix" result="shape"/>
<feColorMatrix in="SourceAlpha" type="matrix" values="0 0 0 0 0 0 0 0 0 0 0 0 0 0 0 0 0 0 127 0" result="hardAlpha"/>
<feOffset dy="-4"/>
<feComposite in2="hardAlpha" operator="arithmetic" k2="-1" k3="1"/>
<feColorMatrix type="matrix" values="0 0 0 0 0 0 0 0 0 0 0 0 0 0 0 0 0 0 0.16 0"/>
<feBlend mode="normal" in2="shape" result="effect1_innerShadow_1302_1893"/>
</filter>
<clipPath id="clip0_1302_1893">
<rect width="128" height="128" fill="white"/>
</clipPath>
</defs>
</svg>
