<svg viewBox="0 0 128 128" fill="none" xmlns="http://www.w3.org/2000/svg">
<g filter="url(#filter0_i_1302_1873)">
<path d="M16 6C16 2.68629 18.6863 0 22 0H106C109.314 0 112 2.68629 112 6V122C112 125.314 109.314 128 106 128H22C18.6863 128 16 125.314 16 122V6Z" fill="#FCFCFD"/>
</g>
<path d="M16 6C16 2.68629 18.6863 0 22 0H106C109.314 0 112 2.68629 112 6V122C112 125.314 109.314 128 106 128H22C18.6863 128 16 125.314 16 122V6Z" fill="#FCFCFD"/>
<path d="M16.8 6C16.8 3.12812 19.1281 0.8 22 0.8H106C108.872 0.8 111.2 3.12812 111.2 6V122C111.2 124.872 108.872 127.2 106 127.2H22C19.1281 127.2 16.8 124.872 16.8 122V6Z" stroke="#EBECF0" stroke-width="1.6"/>
<path d="M22 128H106C109.314 128 112 125.314 112 122V118C112 121.314 109.314 124 106 124H22C18.6863 124 16 121.314 16 118V122C16 125.314 18.6863 128 22 128Z" fill="#EBECF0"/>
<path d="M43.3333 32H84.6667C90.9333 32 96 37.1966 96 43.6239V84.3761C96 90.8034 90.9333 96 84.6667 96H43.3333C37.0667 96 32 90.8034 32 84.3761V43.6239C32 37.1966 37.0667 32 43.3333 32Z" fill="#001E36"/>
<path d="M45.6211 76.882V48.7384C45.6211 48.5469 45.7031 48.4375 45.8944 48.4375C46.3591 48.4375 46.7964 48.4375 47.4251 48.4102C48.0811 48.3828 48.7644 48.3828 49.5024 48.3555C50.2404 48.3281 51.0331 48.3281 51.8804 48.3008C52.7278 48.2734 53.5478 48.2734 54.3678 48.2734C56.6091 48.2734 58.4678 48.5469 59.9984 49.1213C61.3651 49.5863 62.6224 50.3521 63.6611 51.364C64.5358 52.2393 65.2191 53.3059 65.6564 54.482C66.0664 55.6307 66.2851 56.8068 66.2851 58.0375C66.2851 60.3897 65.7384 62.3316 64.6451 63.8632C63.5518 65.3948 62.0211 66.5435 60.2444 67.1999C58.3858 67.8837 56.3358 68.1299 54.0944 68.1299C53.4384 68.1299 53.0011 68.1298 52.7278 68.1025C52.4544 68.0751 52.0718 68.0751 51.5524 68.0751V76.8546C51.5798 77.0461 51.4431 77.2102 51.2518 77.2375C51.2244 77.2375 51.1971 77.2375 51.1424 77.2375H45.9491C45.7304 77.2375 45.6211 77.1281 45.6211 76.882ZM51.5798 53.7162V62.9059C51.9624 62.9333 52.3178 62.9606 52.6458 62.9606H54.0944C55.1604 62.9606 56.2264 62.7965 57.2378 62.4683C58.1124 62.2222 58.8778 61.7025 59.4791 61.0187C60.0531 60.335 60.3264 59.4051 60.3264 58.2016C60.3538 57.3538 60.1351 56.5059 59.6978 55.7675C59.2331 55.0563 58.5771 54.5093 57.7844 54.2085C56.7731 53.7982 55.6798 53.6341 54.5591 53.6615C53.8484 53.6615 53.2198 53.6615 52.7004 53.6888C52.1538 53.6615 51.7711 53.6888 51.5798 53.7162Z" fill="#31A8FF"/>
<path d="M83.3438 61.2383C82.5238 60.8007 81.6491 60.4999 80.7198 60.3084C79.7085 60.0896 78.6971 59.9529 77.6585 59.9529C77.1118 59.9255 76.5378 60.0076 76.0185 60.1443C75.6631 60.2264 75.3625 60.4178 75.1711 60.6913C75.0345 60.9101 74.9525 61.1836 74.9525 61.4298C74.9525 61.6759 75.0618 61.9221 75.2258 62.1409C75.4718 62.4417 75.7998 62.6879 76.1551 62.8794C76.7838 63.2076 77.4398 63.5084 78.0958 63.7819C79.5718 64.2742 80.9931 64.958 82.3051 65.7785C83.2071 66.3529 83.9451 67.1187 84.4645 68.0486C84.9018 68.9238 85.1205 69.8811 85.0931 70.8657C85.1205 72.1511 84.7378 73.4366 84.0271 74.5033C83.2618 75.5973 82.1958 76.4452 80.9658 76.9375C79.6265 77.5118 77.9865 77.8127 76.0185 77.8127C74.7611 77.8127 73.5311 77.7033 72.3011 77.4571C71.3445 77.293 70.3878 76.9922 69.5131 76.5819C69.3218 76.4725 69.1851 76.2811 69.2125 76.0623V71.3033C69.2125 71.2212 69.2398 71.1118 69.3218 71.0571C69.4038 71.0024 69.4858 71.0298 69.5678 71.0845C70.6338 71.7135 71.7545 72.1511 72.9571 72.4246C73.9958 72.6982 75.0891 72.8349 76.1825 72.8349C77.2211 72.8349 77.9591 72.6982 78.4511 72.452C78.8885 72.2605 79.1891 71.7956 79.1891 71.3033C79.1891 70.9204 78.9705 70.5648 78.5331 70.2093C78.0958 69.8537 77.1938 69.4435 75.8545 68.9238C74.4605 68.4315 73.1758 67.7751 71.9731 66.9546C71.1258 66.3529 70.4151 65.5597 69.8958 64.6298C69.4585 63.7546 69.2398 62.7973 69.2671 61.84C69.2671 60.664 69.5951 59.5426 70.1965 58.5306C70.8798 57.4366 71.8911 56.5614 73.0665 56.0144C74.3511 55.358 75.9638 55.0571 77.9045 55.0571C79.0251 55.0571 80.1731 55.1392 81.2938 55.3033C82.1138 55.4127 82.9065 55.6315 83.6445 55.9323C83.7538 55.9597 83.8631 56.0691 83.9178 56.1785C83.9451 56.2879 83.9725 56.3973 83.9725 56.5067V60.9648C83.9725 61.0742 83.9178 61.1836 83.8358 61.2383C83.5898 61.293 83.4531 61.293 83.3438 61.2383Z" fill="#31A8FF"/>
<defs>
<filter id="filter0_i_1302_1873" x="16" y="0" width="96" height="128" filterUnits="userSpaceOnUse" color-interpolation-filters="sRGB">
<feFlood flood-opacity="0" result="BackgroundImageFix"/>
<feBlend mode="normal" in="SourceGraphic" in2="BackgroundImageFix" result="shape"/>
<feColorMatrix in="SourceAlpha" type="matrix" values="0 0 0 0 0 0 0 0 0 0 0 0 0 0 0 0 0 0 127 0" result="hardAlpha"/>
<feOffset dy="-4"/>
<feComposite in2="hardAlpha" operator="arithmetic" k2="-1" k3="1"/>
<feColorMatrix type="matrix" values="0 0 0 0 0 0 0 0 0 0 0 0 0 0 0 0 0 0 0.16 0"/>
<feBlend mode="normal" in2="shape" result="effect1_innerShadow_1302_1873"/>
</filter>
</defs>
</svg>
