<svg viewBox="0 0 128 128" fill="none" xmlns="http://www.w3.org/2000/svg">
<g clip-path="url(#clip0_1302_1816)">
<path d="M6 112C2.68629 112 0 109.314 0 106V22C0 18.6863 2.68629 16 6 16H122C125.314 16 128 18.6863 128 22V106C128 109.314 125.314 112 122 112H6Z" fill="#FCFCFD"/>
<path d="M86.8239 63.9878C87.4869 63.9878 88.0276 64.5257 87.9945 65.1879C87.7779 69.5159 86.3934 73.7128 83.9777 77.3282C81.3392 81.277 77.589 84.3547 73.2013 86.1722C68.8137 87.9896 63.9856 88.4651 59.3277 87.5386C54.6698 86.6121 50.3912 84.3251 47.033 80.967C43.6749 77.6088 41.3879 73.3302 40.4614 68.6723C39.5349 64.0144 40.0104 59.1863 41.8278 54.7987C43.6453 50.411 46.723 46.6608 50.6718 44.0223C54.2872 41.6066 58.4841 40.2221 62.8121 40.0055C63.4743 39.9724 64.0122 40.513 64.0122 41.1761V62.7871C64.0122 63.4502 64.5498 63.9878 65.2129 63.9878H86.8239Z" fill="#F65F31"/>
<path d="M94.8279 55.9837C95.491 55.9837 96.0317 55.4458 95.9986 54.7836C95.8613 52.0402 95.2541 49.3377 94.2007 46.7946C92.994 43.8813 91.2253 41.2342 88.9955 39.0045C86.7658 36.7747 84.1187 35.006 81.2054 33.7993C78.6623 32.7459 75.9598 32.1387 73.2164 32.0014C72.5542 31.9683 72.0163 32.509 72.0163 33.1721V54.7831C72.0163 55.4461 72.5539 55.9837 73.2169 55.9837H94.8279Z" fill="#F65F31"/>
<path d="M0.8 22C0.8 19.1281 3.12812 16.8 6 16.8H122C124.872 16.8 127.2 19.1281 127.2 22V106C127.2 108.872 124.872 111.2 122 111.2H6C3.12812 111.2 0.8 108.872 0.8 106V22Z" stroke="#EBECF0" stroke-width="1.6"/>
<path d="M6 112H122C125.314 112 128 109.314 128 106V102C128 105.314 125.314 108 122 108H6C2.68629 108 0 105.314 0 102V106C0 109.314 2.68629 112 6 112Z" fill="#EBECF0"/>
</g>
<defs>
<clipPath id="clip0_1302_1816">
<rect width="128" height="128" fill="white"/>
</clipPath>
</defs>
</svg>
