<svg viewBox="0 0 128 128" fill="none"
    xmlns="http://www.w3.org/2000/svg">
<path d="M16 6C16 2.68629 18.6863 0 22 0H106C109.314 0 112 2.68629 112 6V122C112 125.314 109.314 128 106 128H22C18.6863 128 16 125.314 16 122V6Z" fill="#F9FAFB"/>
<path d="M22 0.8H106C108.872 0.8 111.2 3.12812 111.2 6V122C111.2 124.872 108.872 127.2 106 127.2H22C19.1281 127.2 16.8 124.872 16.8 122V6C16.8 3.12812 19.1281 0.8 22 0.8Z" stroke="#DDE1E6" stroke-width="1.6"/>
<path d="M22 128H106C109.314 128 112 125.314 112 122V118C112 121.314 109.314 124 106 124H22C18.6863 124 16 121.314 16 118V122C16 125.314 18.6863 128 22 128Z" fill="#DDE1E6"/>
<path d="M64 6V0H54V4.8C54 5.46274 54.5373 6 55.2 6H64V12H55.2C54.5373 12 54 12.5373 54 13.2V16.8C54 17.4627 54.5373 18 55.2 18H64V24H55.2C54.5373 24 54 24.5373 54 25.2V28.8C54 29.4627 54.5373 30 55.2 30H64V36H55.2C54.5373 36 54 36.5373 54 37.2V40.8C54 41.4627 54.5373 42 55.2 42H64V48H72.8C73.4627 48 74 47.4627 74 46.8V43.2C74 42.5373 73.4627 42 72.8 42H64V36H72.8C73.4627 36 74 35.4627 74 34.8V31.2C74 30.5373 73.4627 30 72.8 30H64V24H72.8C73.4627 24 74 23.4627 74 22.8V19.2C74 18.5373 73.4627 18 72.8 18H64V12H72.8C73.4627 12 74 11.4627 74 10.8V7.2C74 6.53726 73.4627 6 72.8 6H64Z" fill="#7A869A"/>
<path fill-rule="evenodd" clip-rule="evenodd" d="M64 48H55.2C54.5373 48 54 48.5373 54 49.2V54V74.8C54 75.4627 54.5373 76 55.2 76H72.8C73.4627 76 74 75.4627 74 74.8V55.2C74 54.5373 73.4627 54 72.8 54H65.2C64.5372 54 64 53.4627 64 52.8V48ZM58 70.8C58 71.4627 58.5372 72 59.2 72H68.8C69.4627 72 70 71.4627 70 70.8V67.2C70 66.5373 69.4627 66 68.8 66H59.2C58.5372 66 58 66.5373 58 67.2V70.8Z" fill="#7A869A"/>
</svg>
