<svg width="322" height="362" viewBox="0 0 322 362" fill="none" xmlns="http://www.w3.org/2000/svg">
<circle cx="130.725" cy="182.361" r="100.242" stroke="#A6C8FF" stroke-miterlimit="16" stroke-dasharray="4 4"/>
<path d="M71.0829 179.258C71.2143 180.265 71.3031 181.286 71.3474 182.318L70.8479 182.339C70.8695 182.842 70.8804 183.347 70.8804 183.854C70.8804 184.362 70.8695 184.867 70.8479 185.369L71.3474 185.391C71.3031 186.423 71.2143 187.443 71.0829 188.45L70.5871 188.386C70.4557 189.394 70.281 190.388 70.0649 191.366L70.5532 191.474C70.3313 192.479 70.0664 193.469 69.7605 194.439L69.2836 194.289C68.979 195.256 68.6332 196.205 68.2483 197.133L68.7101 197.325C68.3166 198.274 67.8827 199.202 67.4107 200.107L66.9674 199.875C66.4995 200.772 65.9936 201.646 65.4517 202.495L65.8731 202.764C65.3214 203.628 64.733 204.467 64.1101 205.278L63.7136 204.973C63.0981 205.774 62.4485 206.547 61.7668 207.291L62.1354 207.628C61.4435 208.383 60.719 209.108 59.9643 209.8L59.6264 209.431C58.883 210.113 58.1097 210.762 57.3088 211.378L57.6134 211.774C56.8028 212.397 55.9643 212.986 55.1 213.537L54.831 213.116C53.9822 213.658 53.1082 214.164 52.2113 214.631L52.4426 215.075C51.5376 215.547 50.6096 215.981 49.6606 216.374L49.469 215.912C48.5407 216.297 47.592 216.643 46.6251 216.948L46.7753 217.425C45.8044 217.731 44.8153 217.995 43.81 218.217L43.7023 217.729C42.7237 217.945 41.7295 218.12 40.7217 218.251L40.7864 218.747C39.7792 218.878 38.7587 218.967 37.7267 219.012L37.7052 218.512C37.2029 218.534 36.6979 218.545 36.1902 218.545C35.6825 218.545 35.1774 218.534 34.6751 218.512L34.6537 219.012C33.6216 218.967 32.6011 218.878 31.594 218.747L31.6587 218.251C30.6509 218.12 29.6567 217.945 28.6781 217.729L28.5703 218.217C27.5651 217.995 26.576 217.731 25.6051 217.425L25.7553 216.948C24.7884 216.643 23.8397 216.297 22.9113 215.912L22.7198 216.374C21.7708 215.981 20.8428 215.547 19.9378 215.075L20.1691 214.631C19.2722 214.164 18.3982 213.658 17.5494 213.116L17.2804 213.537C16.4161 212.986 15.5776 212.397 14.767 211.774L15.0716 211.378C14.2707 210.762 13.4974 210.113 12.7539 209.431L12.416 209.8C11.6613 209.108 10.9369 208.383 10.245 207.628L10.6135 207.291C9.93189 206.547 9.28224 205.774 8.66678 204.973L8.27032 205.278C7.64738 204.467 7.05895 203.628 6.50723 202.764L6.92867 202.495C6.3868 201.646 5.88087 200.772 5.41301 199.875L4.9697 200.107C4.49764 199.202 4.06378 198.274 3.67025 197.325L4.13211 197.133C3.74714 196.205 3.40133 195.256 3.09674 194.289L2.61984 194.439C2.31399 193.468 2.0491 192.479 1.82719 191.474L2.31544 191.366C2.09941 190.388 1.9247 189.394 1.79324 188.386L1.29744 188.45C1.16607 187.443 1.07728 186.423 1.03294 185.391L1.53248 185.369C1.5109 184.867 1.5 184.362 1.5 183.854C1.5 183.347 1.5109 182.842 1.53248 182.339L1.03294 182.318C1.07728 181.286 1.16607 180.265 1.29744 179.258L1.79324 179.323C1.9247 178.315 2.09941 177.321 2.31544 176.342L1.82719 176.234C2.0491 175.229 2.31399 174.24 2.61984 173.269L3.09674 173.419C3.40134 172.452 3.74715 171.504 4.13211 170.575L3.67025 170.384C4.06378 169.435 4.49764 168.507 4.9697 167.602L5.41301 167.833C5.88087 166.936 6.3868 166.062 6.92867 165.214L6.50723 164.944C7.05895 164.08 7.64738 163.242 8.27031 162.431L8.66677 162.736C9.28224 161.935 9.93188 161.162 10.6135 160.418L10.245 160.08C10.9369 159.325 11.6613 158.601 12.416 157.909L12.7539 158.278C13.4974 157.596 14.2707 156.946 15.0716 156.331L14.767 155.934C15.5776 155.312 16.4161 154.723 17.2804 154.171L17.5494 154.593C18.3982 154.051 19.2722 153.545 20.1691 153.077L19.9378 152.634C20.8428 152.162 21.7708 151.728 22.7198 151.334L22.9113 151.796C23.8397 151.411 24.7884 151.065 25.7553 150.761L25.6051 150.284C26.576 149.978 27.5651 149.713 28.5703 149.491L28.6781 149.98C29.6567 149.764 30.6509 149.589 31.6587 149.457L31.594 148.962C32.6011 148.83 33.6217 148.741 34.6537 148.697L34.6751 149.197C35.1774 149.175 35.6825 149.164 36.1902 149.164C36.6979 149.164 37.2029 149.175 37.7052 149.197L37.7267 148.697C38.7587 148.741 39.7792 148.83 40.7864 148.962L40.7217 149.457C41.7295 149.589 42.7237 149.764 43.7023 149.98L43.81 149.491C44.8153 149.713 45.8044 149.978 46.7753 150.284L46.6251 150.761C47.592 151.065 48.5407 151.411 49.469 151.796L49.6606 151.334C50.6096 151.728 51.5376 152.162 52.4426 152.634L52.2113 153.077C53.1082 153.545 53.9822 154.051 54.831 154.593L55.1 154.171C55.9642 154.723 56.8028 155.311 57.6134 155.934L57.3088 156.331C58.1097 156.946 58.883 157.596 59.6264 158.278L59.9643 157.909C60.719 158.601 61.4435 159.325 62.1354 160.08L61.7668 160.418C62.4485 161.162 63.0981 161.935 63.7136 162.736L64.1101 162.431C64.733 163.242 65.3214 164.08 65.8731 164.944L65.4517 165.214C65.9936 166.062 66.4995 166.936 66.9674 167.833L67.4107 167.602C67.8827 168.507 68.3166 169.435 68.7101 170.384L68.2483 170.575C68.6332 171.504 68.979 172.452 69.2836 173.419L69.7605 173.269C70.0664 174.24 70.3313 175.229 70.5532 176.234L70.0649 176.342C70.281 177.321 70.4557 178.315 70.5871 179.323L71.0829 179.258Z" fill="white" stroke="#0F62FE" stroke-miterlimit="16" stroke-dasharray="3 3"/>
<path d="M62.5828 183.854C62.5828 198.431 50.7664 210.247 36.1902 210.247C21.6139 210.247 9.79755 198.431 9.79755 183.854C9.79755 169.278 21.6139 157.462 36.1902 157.462C50.7664 157.462 62.5828 169.278 62.5828 183.854Z" fill="#0F62FE"/>
<path fill-rule="evenodd" clip-rule="evenodd" d="M26.8847 171.477C27.4737 170.888 28.4286 170.888 29.0176 171.477L34.6033 177.062C35.1923 177.651 35.1923 178.606 34.6033 179.195C34.0143 179.784 33.0594 179.784 32.4705 179.195L29.4593 176.184V189.3C29.4593 190.133 28.7841 190.809 27.9511 190.809C27.1182 190.809 26.443 190.133 26.443 189.3V176.184L23.4318 179.195C22.8428 179.784 21.8879 179.784 21.299 179.195C20.71 178.606 20.71 177.651 21.299 177.062L26.8847 171.477ZM40.4073 191.245V178.129C40.4073 177.296 41.0826 176.621 41.9155 176.621C42.7484 176.621 43.4236 177.296 43.4236 178.129V191.245L46.4348 188.234C47.0238 187.645 47.9787 187.645 48.5677 188.234C49.1566 188.823 49.1566 189.778 48.5677 190.367L42.9819 195.953C42.393 196.541 41.438 196.541 40.8491 195.953L35.2633 190.367C34.6744 189.778 34.6744 188.823 35.2633 188.234C35.8523 187.645 36.8072 187.645 37.3962 188.234L40.4073 191.245Z" fill="white"/>
<rect x="114" width="180" height="172" rx="24" fill="white"/>
<path d="M187.137 64.108C188.177 64.108 189.105 63.9017 189.913 63.4719C190.721 63.0507 191.426 62.4747 192.011 61.744L190.868 60.7812C189.853 62.0277 188.615 62.6466 187.137 62.6466C186.604 62.6466 186.105 62.5779 185.641 62.4317C185.168 62.2942 184.738 62.0793 184.36 61.8042C183.982 61.5291 183.647 61.1938 183.372 60.807C183.096 60.4202 182.882 59.9731 182.727 59.4574C182.572 58.9502 182.503 58.4 182.503 57.8155C182.503 56.8527 182.684 56.0016 183.062 55.2537C183.432 54.5059 183.973 53.9213 184.678 53.4915C185.383 53.0703 186.2 52.8553 187.137 52.8553C187.85 52.8553 188.529 53.0187 189.174 53.3453C189.819 53.672 190.386 54.1362 190.868 54.738L192.011 53.7838C191.564 53.2422 191.074 52.7866 190.524 52.4255C189.974 52.0645 189.415 51.798 188.856 51.6347C188.297 51.4799 187.721 51.394 187.137 51.394C186.346 51.394 185.624 51.5057 184.953 51.7206C184.283 51.9441 183.698 52.245 183.208 52.6318C182.71 53.0273 182.288 53.4829 181.945 54.0159C181.592 54.5488 181.334 55.142 181.162 55.7867C180.99 56.4314 180.904 57.1106 180.904 57.8155C180.904 58.6149 181.008 59.3542 181.222 60.0333C181.437 60.721 181.738 61.3056 182.125 61.8042C182.503 62.3028 182.959 62.724 183.483 63.0678C183.999 63.4203 184.575 63.6782 185.194 63.8501C185.813 64.022 186.458 64.108 187.137 64.108Z" fill="#0F62FE"/>
<path d="M194.177 64.0134H195.596V51.0501H194.177V64.0134Z" fill="#0F62FE"/>
<path d="M202.352 64.1252C203.186 64.1252 203.943 63.9447 204.613 63.575C205.284 63.214 205.808 62.6896 206.186 62.0191C206.565 61.3486 206.762 60.5921 206.762 59.741C206.762 58.89 206.565 58.1249 206.186 57.4544C205.808 56.7839 205.284 56.2595 204.613 55.8899C203.943 55.5288 203.186 55.3397 202.352 55.3397C201.699 55.3397 201.089 55.4601 200.539 55.6836C199.98 55.9071 199.507 56.2165 199.129 56.612C198.75 57.0074 198.45 57.4716 198.235 58.0132C198.02 58.5547 197.917 59.1307 197.917 59.741C197.917 60.36 198.02 60.9359 198.235 61.4689C198.45 62.0019 198.75 62.4661 199.129 62.8615C199.507 63.257 199.98 63.5664 200.539 63.7899C201.089 64.0134 201.699 64.1252 202.352 64.1252ZM202.352 62.81C201.768 62.81 201.252 62.6724 200.796 62.3973C200.332 62.1222 199.98 61.7526 199.73 61.2884C199.481 60.8242 199.361 60.3084 199.361 59.741C199.361 59.1737 199.481 58.6579 199.73 58.1851C199.971 57.7209 200.324 57.3427 200.788 57.0676C201.243 56.7925 201.768 56.6549 202.352 56.6549C202.903 56.6549 203.401 56.7839 203.848 57.0418C204.295 57.2997 204.656 57.6693 204.923 58.1421C205.181 58.6149 205.318 59.1479 205.318 59.741C205.318 60.3342 205.181 60.8672 204.923 61.3314C204.656 61.8042 204.295 62.1652 203.848 62.4231C203.393 62.681 202.894 62.81 202.352 62.81Z" fill="#0F62FE"/>
<path d="M214.834 55.4429V59.5949C214.834 60.0935 214.766 60.5405 214.628 60.9531C214.49 61.3658 214.301 61.7096 214.069 61.9761C213.837 62.2426 213.571 62.4489 213.261 62.595C212.952 62.7412 212.634 62.81 212.29 62.81C211.585 62.81 211.061 62.6036 210.717 62.191C210.373 61.7784 210.201 61.0907 210.201 60.1365V55.4429H208.774V60.5491C208.774 61.744 209.049 62.638 209.616 63.2312C210.184 63.8329 210.975 64.1252 211.989 64.1252C212.539 64.1252 213.063 63.9963 213.562 63.7298C214.052 63.4719 214.465 63.0936 214.809 62.595H214.834V64.0134H216.261V55.4429H214.834Z" fill="#0F62FE"/>
<path d="M225.494 51.0501V56.7151H225.468C225.227 56.4228 224.961 56.165 224.651 55.9586C224.342 55.7523 224.015 55.5976 223.663 55.4944C223.302 55.3913 222.932 55.3397 222.554 55.3397C221.952 55.3397 221.393 55.4601 220.878 55.6836C220.353 55.9071 219.906 56.2165 219.545 56.612C219.175 57.0074 218.883 57.4716 218.677 58.0218C218.462 58.5719 218.359 59.1651 218.359 59.784C218.359 60.4288 218.462 61.0219 218.685 61.5635C218.9 62.1136 219.193 62.5693 219.571 62.9389C219.949 63.3171 220.396 63.6094 220.912 63.8157C221.428 64.022 221.978 64.1252 222.562 64.1252C222.975 64.1252 223.362 64.0736 223.732 63.9533C224.101 63.8329 224.436 63.6696 224.737 63.4461C225.03 63.2312 225.296 62.9647 225.528 62.6552H225.554V64.0134H226.921V51.0501H225.494ZM222.7 62.8185C221.84 62.8185 221.144 62.5349 220.611 61.9675C220.078 61.4001 219.812 60.6695 219.812 59.7926C219.812 58.8556 220.087 58.0991 220.637 57.5146C221.187 56.9386 221.883 56.6464 222.717 56.6464C223.113 56.6464 223.482 56.7323 223.835 56.8956C224.179 57.059 224.479 57.2825 224.729 57.5576C224.978 57.8412 225.176 58.1765 225.322 58.5633C225.468 58.9502 225.545 59.3628 225.545 59.7926C225.545 60.2396 225.468 60.6523 225.313 61.0305C225.159 61.4087 224.944 61.7354 224.686 61.9933C224.428 62.2512 224.118 62.4575 223.775 62.6036C223.431 62.7498 223.07 62.8185 222.7 62.8185Z" fill="#0F62FE"/>
<circle cx="204.08" cy="111.939" r="32.7546" stroke="#A6C8FF" stroke-miterlimit="16" stroke-dasharray="3 3"/>
<circle cx="204.08" cy="111.939" r="24.4519" fill="#EDF5FF"/>
<path d="M199.577 117.593L203.704 121.72L207.831 117.593" stroke="#0F62FE" stroke-width="2.5" stroke-linecap="round" stroke-linejoin="round"/>
<path d="M203.703 112.434V121.72" stroke="#0F62FE" stroke-width="2.5" stroke-linecap="round" stroke-linejoin="round"/>
<path d="M212.863 118.717C213.76 118.087 214.433 117.186 214.784 116.147C215.134 115.108 215.145 113.985 214.814 112.939C214.483 111.894 213.827 110.982 212.942 110.334C212.057 109.687 210.989 109.338 209.892 109.339H208.592C208.282 108.13 207.701 107.006 206.894 106.054C206.087 105.102 205.074 104.345 203.932 103.84C202.79 103.336 201.548 103.097 200.301 103.142C199.053 103.187 197.832 103.514 196.729 104.099C195.626 104.684 194.67 105.512 193.933 106.52C193.197 107.528 192.698 108.69 192.476 109.918C192.253 111.147 192.312 112.41 192.648 113.612C192.984 114.815 193.589 115.925 194.416 116.86" stroke="#0F62FE" stroke-width="2.5" stroke-linecap="round" stroke-linejoin="round"/>
<rect x="114" y="190" width="180" height="172" rx="24" fill="white"/>
<circle cx="203.102" cy="249.848" r="32.7546" stroke="#A6C8FF" stroke-miterlimit="16" stroke-dasharray="3 3"/>
<circle cx="203.102" cy="249.848" r="24.4519" fill="#EDF5FF"/>
<path d="M192.343 244.259V255.437C192.343 256.672 193.365 257.673 194.626 257.673H210.601C211.861 257.673 212.883 256.672 212.883 255.437V246.495C212.883 245.26 211.861 244.259 210.601 244.259H203.754L201.472 242.023H194.626C193.365 242.023 192.343 243.024 192.343 244.259Z" stroke="#0F62FE" stroke-width="3" stroke-linecap="round" stroke-linejoin="round"/>
<path d="M164.829 307.555H172.549V306.145H166.359V295.047H164.829V307.555Z" fill="#0F62FE"/>
<path d="M178.334 307.666C179.168 307.666 179.924 307.486 180.595 307.116C181.265 306.755 181.79 306.231 182.168 305.56C182.546 304.89 182.744 304.133 182.744 303.282C182.744 302.431 182.546 301.666 182.168 300.995C181.79 300.325 181.265 299.801 180.595 299.431C179.924 299.07 179.168 298.881 178.334 298.881C177.681 298.881 177.07 299.001 176.52 299.225C175.962 299.448 175.489 299.758 175.11 300.153C174.732 300.548 174.431 301.013 174.216 301.554C174.002 302.096 173.898 302.672 173.898 303.282C173.898 303.901 174.002 304.477 174.216 305.01C174.431 305.543 174.732 306.007 175.11 306.403C175.489 306.798 175.962 307.108 176.52 307.331C177.07 307.555 177.681 307.666 178.334 307.666ZM178.334 306.351C177.75 306.351 177.234 306.213 176.778 305.938C176.314 305.663 175.962 305.294 175.712 304.829C175.463 304.365 175.343 303.849 175.343 303.282C175.343 302.715 175.463 302.199 175.712 301.726C175.953 301.262 176.305 300.884 176.77 300.609C177.225 300.334 177.75 300.196 178.334 300.196C178.884 300.196 179.383 300.325 179.83 300.583C180.277 300.841 180.638 301.21 180.904 301.683C181.162 302.156 181.3 302.689 181.3 303.282C181.3 303.875 181.162 304.408 180.904 304.872C180.638 305.345 180.277 305.706 179.83 305.964C179.374 306.222 178.876 306.351 178.334 306.351Z" fill="#0F62FE"/>
<path d="M188.65 307.666C189.38 307.666 190.06 307.537 190.679 307.262C191.297 306.996 191.805 306.643 192.191 306.213L191.203 305.328C190.928 305.638 190.575 305.887 190.146 306.076C189.716 306.265 189.252 306.351 188.77 306.351C187.91 306.351 187.206 306.067 186.664 305.5C186.122 304.933 185.856 304.185 185.856 303.274C185.856 302.362 186.122 301.623 186.664 301.047C187.206 300.48 187.91 300.187 188.77 300.187C189.26 300.187 189.716 300.291 190.128 300.48C190.541 300.669 190.893 300.935 191.169 301.262L192.157 300.402C191.744 299.912 191.229 299.534 190.61 299.268C189.991 299.01 189.355 298.872 188.701 298.872C187.868 298.872 187.128 299.061 186.475 299.431C185.822 299.809 185.314 300.325 184.953 300.995C184.592 301.666 184.412 302.431 184.412 303.282C184.412 304.142 184.592 304.898 184.953 305.569C185.314 306.239 185.813 306.755 186.458 307.116C187.102 307.486 187.833 307.666 188.65 307.666Z" fill="#0F62FE"/>
<path d="M200.788 298.984V300.256H200.753C200.392 299.809 199.963 299.474 199.455 299.233C198.948 299.001 198.398 298.881 197.814 298.881C197.014 298.881 196.292 299.078 195.656 299.465C195.011 299.852 194.513 300.385 194.151 301.056C193.79 301.735 193.618 302.491 193.618 303.325C193.618 303.97 193.722 304.563 193.945 305.105C194.16 305.655 194.452 306.11 194.831 306.48C195.209 306.858 195.656 307.15 196.172 307.357C196.687 307.563 197.238 307.666 197.822 307.666C198.441 307.666 199.008 307.537 199.524 307.279C200.04 307.022 200.47 306.66 200.822 306.196H200.848V307.555H202.215V298.984H200.788ZM197.96 306.36C197.1 306.36 196.404 306.076 195.871 305.509C195.338 304.941 195.071 304.211 195.071 303.334C195.071 302.397 195.346 301.64 195.897 301.056C196.447 300.48 197.143 300.187 197.977 300.187C198.372 300.187 198.751 300.273 199.112 300.437C199.464 300.6 199.765 300.824 200.023 301.099C200.272 301.382 200.47 301.718 200.616 302.104C200.762 302.491 200.839 302.904 200.839 303.334C200.839 303.781 200.762 304.193 200.607 304.572C200.453 304.95 200.238 305.276 199.98 305.534C199.713 305.792 199.404 305.999 199.06 306.145C198.708 306.291 198.338 306.36 197.96 306.36Z" fill="#0F62FE"/>
<path d="M204.974 307.555H206.393V294.591H204.974V307.555Z" fill="#0F62FE"/>
<path d="M214.456 307.555H215.875V300.222H218.307V298.984H215.875V297.385C215.875 296.336 216.261 295.812 217.044 295.812C217.465 295.812 217.963 295.958 218.539 296.25L218.857 295.021C218.256 294.66 217.585 294.479 216.863 294.479C216.089 294.479 215.488 294.72 215.075 295.184C214.662 295.649 214.456 296.336 214.456 297.247V298.984H213.407V300.222H214.456V307.555Z" fill="#0F62FE"/>
<path d="M220.843 297.394C221.118 297.394 221.359 297.299 221.557 297.101C221.754 296.912 221.858 296.672 221.858 296.396C221.858 296.216 221.806 296.044 221.72 295.889C221.625 295.735 221.505 295.614 221.35 295.528C221.196 295.442 221.024 295.391 220.843 295.391C220.551 295.391 220.31 295.494 220.121 295.683C219.923 295.881 219.829 296.121 219.829 296.396C219.829 296.672 219.923 296.912 220.121 297.101C220.31 297.299 220.551 297.394 220.843 297.394ZM220.121 307.555H221.54V298.984H220.121V307.555Z" fill="#0F62FE"/>
<path d="M224.522 307.555H225.941V294.591H224.522V307.555Z" fill="#0F62FE"/>
<path d="M236.351 303.136C236.351 302.328 236.179 301.597 235.852 300.953C235.526 300.308 235.053 299.801 234.451 299.431C233.841 299.07 233.145 298.881 232.362 298.881C231.786 298.881 231.245 298.993 230.746 299.207C230.239 299.431 229.801 299.732 229.44 300.11C229.079 300.488 228.786 300.953 228.58 301.503C228.365 302.053 228.262 302.637 228.262 303.274C228.262 303.918 228.365 304.511 228.589 305.062C228.803 305.612 229.104 306.076 229.483 306.454C229.861 306.832 230.308 307.133 230.832 307.348C231.357 307.563 231.924 307.666 232.526 307.666C233.274 307.666 233.944 307.529 234.529 307.236C235.113 306.944 235.603 306.549 235.99 306.05L234.993 305.199C234.701 305.552 234.357 305.835 233.953 306.042C233.54 306.248 233.084 306.351 232.577 306.351C231.804 306.351 231.159 306.119 230.643 305.638C230.119 305.156 229.809 304.52 229.723 303.721H236.308C236.334 303.549 236.351 303.359 236.351 303.136ZM232.44 300.196C233.11 300.196 233.66 300.411 234.099 300.832C234.537 301.262 234.812 301.829 234.933 302.534H229.758C229.887 301.821 230.196 301.253 230.686 300.832C231.176 300.411 231.761 300.196 232.44 300.196Z" fill="#0F62FE"/>
<path d="M241.122 307.666C241.621 307.666 242.068 307.606 242.463 307.477C242.859 307.348 243.185 307.168 243.434 306.944C243.684 306.721 243.873 306.454 244.002 306.162C244.131 305.87 244.2 305.552 244.2 305.208C244.2 304.847 244.139 304.537 244.028 304.271C243.839 303.849 243.452 303.488 242.867 303.196C242.678 303.11 242.119 302.887 241.208 302.526C240.933 302.422 240.718 302.337 240.555 302.259C240.383 302.182 240.219 302.087 240.056 301.975C239.893 301.872 239.772 301.752 239.695 301.614C239.618 301.485 239.583 301.339 239.583 301.176C239.583 300.884 239.712 300.643 239.979 300.454C240.245 300.265 240.555 300.17 240.899 300.17C241.724 300.17 242.489 300.471 243.177 301.064L243.916 299.938C243.056 299.233 242.068 298.881 240.967 298.881C240.151 298.881 239.472 299.104 238.939 299.543C238.397 299.981 238.131 300.523 238.131 301.176C238.131 301.485 238.174 301.761 238.268 302.01C238.363 302.268 238.483 302.474 238.629 302.646C238.767 302.818 238.964 302.981 239.205 303.136C239.446 303.291 239.669 303.411 239.893 303.506C240.116 303.609 240.383 303.712 240.709 303.815C240.752 303.832 240.821 303.858 240.916 303.884C241.096 303.953 241.234 304.004 241.32 304.039C241.406 304.073 241.526 304.116 241.672 304.168C241.81 304.219 241.922 304.271 241.99 304.305C242.059 304.339 242.145 304.391 242.248 304.443C242.351 304.503 242.42 304.554 242.472 304.606C242.515 304.658 242.566 304.709 242.618 304.778C242.669 304.847 242.704 304.915 242.721 304.984C242.738 305.062 242.747 305.139 242.747 305.225C242.747 305.552 242.601 305.827 242.308 306.042C242.016 306.265 241.621 306.368 241.122 306.368C240.555 306.368 240.065 306.282 239.652 306.11C239.239 305.938 238.861 305.689 238.5 305.345L237.761 306.428C238.689 307.254 239.807 307.666 241.122 307.666Z" fill="#0F62FE"/>
<rect x="95.5736" y="148.664" width="225.318" height="62.6825" rx="12" fill="url(#paint0_linear)"/>
<path d="M167.404 171.427C167.705 171.427 167.999 171.397 168.287 171.331C168.569 171.265 168.834 171.162 169.08 171.024C169.326 170.886 169.543 170.718 169.729 170.526C169.909 170.334 170.053 170.105 170.161 169.835C170.269 169.565 170.323 169.27 170.323 168.958C170.323 168.622 170.269 168.321 170.161 168.057C169.975 167.625 169.603 167.258 169.05 166.958C168.816 166.838 168.341 166.633 167.62 166.351L167.614 166.345H167.608H167.602L167.596 166.339H167.59L167.584 166.333C166.954 166.093 166.533 165.901 166.323 165.757C165.939 165.504 165.746 165.186 165.752 164.789C165.752 164.525 165.824 164.297 165.975 164.105C166.119 163.912 166.311 163.768 166.539 163.672C166.767 163.576 167.026 163.528 167.302 163.528C167.638 163.528 167.987 163.6 168.359 163.744C168.732 163.888 169.086 164.105 169.428 164.381L170.071 163.552C169.651 163.222 169.206 162.969 168.738 162.789C168.263 162.615 167.789 162.531 167.308 162.531C166.816 162.531 166.365 162.633 165.957 162.837C165.548 163.042 165.224 163.318 164.99 163.672C164.755 164.027 164.641 164.417 164.641 164.844C164.641 165.054 164.665 165.252 164.719 165.438C164.773 165.624 164.839 165.787 164.923 165.925C165.008 166.069 165.116 166.201 165.26 166.333C165.404 166.465 165.542 166.573 165.674 166.664C165.806 166.754 165.969 166.844 166.167 166.94C166.365 167.036 166.539 167.114 166.689 167.174C166.84 167.234 167.026 167.306 167.248 167.39L167.26 167.396H167.266H167.272L167.278 167.402H167.284L167.29 167.408H167.296H167.302L167.308 167.414H167.314H167.32L167.326 167.42H167.332L167.338 167.426H167.344H167.35L167.356 167.432H167.362L167.368 167.438H167.374H167.38L167.386 167.444H167.392H167.398L167.404 167.45H167.41L167.416 167.456H167.422H167.428L167.434 167.462C168.035 167.691 168.443 167.877 168.66 168.027C169.02 168.285 169.206 168.634 169.206 169.078C169.206 169.493 169.038 169.817 168.714 170.057C168.389 170.297 167.957 170.412 167.416 170.412C166.972 170.412 166.533 170.316 166.101 170.117C165.668 169.919 165.296 169.631 164.99 169.252L164.311 170.075C164.731 170.532 165.206 170.868 165.746 171.09C166.281 171.319 166.834 171.427 167.404 171.427Z" fill="white"/>
<path d="M175.771 165.36L173.963 169.919H173.933L171.987 165.36H170.924L173.453 171.114L172.384 173.781H173.441L176.829 165.36H175.771Z" fill="white"/>
<path d="M181.273 165.288C180.823 165.288 180.408 165.384 180.036 165.576C179.658 165.769 179.345 166.039 179.099 166.393H179.081V165.36H178.084V171.349H179.081V168.357C179.081 167.697 179.249 167.168 179.592 166.784C179.934 166.399 180.39 166.201 180.961 166.201C181.189 166.201 181.387 166.237 181.562 166.297C181.73 166.363 181.886 166.465 182.018 166.609C182.15 166.754 182.246 166.952 182.319 167.192C182.391 167.438 182.427 167.733 182.427 168.075V171.355H183.424V167.799C183.424 166.97 183.232 166.339 182.847 165.919C182.463 165.498 181.94 165.288 181.273 165.288Z" fill="white"/>
<path d="M187.815 171.427C188.325 171.427 188.8 171.337 189.232 171.144C189.665 170.958 190.019 170.712 190.289 170.412L189.598 169.793C189.406 170.009 189.16 170.183 188.86 170.316C188.559 170.448 188.235 170.508 187.899 170.508C187.298 170.508 186.805 170.309 186.427 169.913C186.049 169.517 185.862 168.994 185.862 168.357C185.862 167.721 186.049 167.204 186.427 166.802C186.805 166.405 187.298 166.201 187.899 166.201C188.241 166.201 188.559 166.273 188.848 166.405C189.136 166.537 189.382 166.724 189.574 166.952L190.265 166.351C189.977 166.009 189.617 165.744 189.184 165.558C188.752 165.378 188.307 165.282 187.851 165.282C187.268 165.282 186.751 165.414 186.295 165.672C185.838 165.937 185.484 166.297 185.232 166.766C184.979 167.234 184.853 167.769 184.853 168.363C184.853 168.964 184.979 169.493 185.232 169.961C185.484 170.43 185.832 170.79 186.283 171.042C186.733 171.301 187.244 171.427 187.815 171.427Z" fill="white"/>
<path d="M194.872 165.288C194.644 165.288 194.422 165.312 194.212 165.354C194.001 165.402 193.803 165.468 193.617 165.552C193.425 165.642 193.25 165.751 193.094 165.883C192.932 166.015 192.788 166.165 192.668 166.333H192.644V162.291H191.647V171.349H192.644V168.333C192.644 167.667 192.812 167.144 193.16 166.766C193.509 166.393 193.983 166.201 194.584 166.201C195.557 166.201 196.05 166.814 196.05 168.039V171.355H197.047V167.757C197.047 166.934 196.848 166.315 196.464 165.907C196.08 165.498 195.545 165.288 194.872 165.288Z" fill="white"/>
<path d="M201.81 165.288C201.401 165.288 201.035 165.39 200.699 165.582C200.362 165.775 200.086 166.051 199.864 166.405H199.84V165.36H198.843V171.349H199.84V168.459C199.84 168.063 199.912 167.703 200.056 167.39C200.2 167.078 200.41 166.832 200.687 166.651C200.963 166.471 201.287 166.381 201.66 166.381C201.78 166.381 201.912 166.387 202.056 166.399V165.3C202.008 165.294 201.924 165.288 201.81 165.288Z" fill="white"/>
<path d="M205.762 171.427C206.345 171.427 206.873 171.301 207.342 171.042C207.81 170.79 208.177 170.424 208.441 169.955C208.705 169.487 208.844 168.958 208.844 168.363C208.844 167.769 208.705 167.234 208.441 166.766C208.177 166.297 207.81 165.931 207.342 165.672C206.873 165.42 206.345 165.288 205.762 165.288C205.306 165.288 204.879 165.372 204.495 165.528C204.104 165.684 203.774 165.901 203.51 166.177C203.245 166.453 203.035 166.778 202.885 167.156C202.735 167.534 202.663 167.937 202.663 168.363C202.663 168.796 202.735 169.198 202.885 169.571C203.035 169.943 203.245 170.267 203.51 170.544C203.774 170.82 204.104 171.036 204.495 171.192C204.879 171.349 205.306 171.427 205.762 171.427ZM205.762 170.508C205.354 170.508 204.993 170.412 204.675 170.219C204.351 170.027 204.104 169.769 203.93 169.445C203.756 169.12 203.672 168.76 203.672 168.363C203.672 167.967 203.756 167.607 203.93 167.276C204.098 166.952 204.345 166.688 204.669 166.495C204.987 166.303 205.354 166.207 205.762 166.207C206.147 166.207 206.495 166.297 206.807 166.477C207.12 166.657 207.372 166.916 207.558 167.246C207.738 167.577 207.834 167.949 207.834 168.363C207.834 168.778 207.738 169.15 207.558 169.475C207.372 169.805 207.12 170.057 206.807 170.237C206.489 170.418 206.141 170.508 205.762 170.508Z" fill="white"/>
<path d="M213.565 165.288C213.114 165.288 212.7 165.384 212.327 165.576C211.949 165.769 211.637 166.039 211.39 166.393H211.372V165.36H210.375V171.349H211.372V168.357C211.372 167.697 211.541 167.168 211.883 166.784C212.225 166.399 212.682 166.201 213.252 166.201C213.481 166.201 213.679 166.237 213.853 166.297C214.021 166.363 214.177 166.465 214.31 166.609C214.442 166.754 214.538 166.952 214.61 167.192C214.682 167.438 214.718 167.733 214.718 168.075V171.355H215.715V167.799C215.715 166.97 215.523 166.339 215.138 165.919C214.754 165.498 214.231 165.288 213.565 165.288Z" fill="white"/>
<path d="M221.433 165.36L219.625 169.919H219.595L217.649 165.36H216.586L219.115 171.114L218.046 173.781H219.103L222.491 165.36H221.433Z" fill="white"/>
<path d="M228.119 166.075V165.36H223.458V166.225H226.743V166.249L223.271 170.616V171.349H228.113V170.484H224.623V170.46L228.119 166.075Z" fill="white"/>
<path d="M230.191 164.249C230.383 164.249 230.551 164.183 230.69 164.045C230.828 163.912 230.9 163.744 230.9 163.552C230.9 163.426 230.864 163.306 230.804 163.198C230.738 163.09 230.653 163.005 230.545 162.945C230.437 162.885 230.317 162.849 230.191 162.849C229.987 162.849 229.819 162.921 229.686 163.054C229.548 163.192 229.482 163.36 229.482 163.552C229.482 163.744 229.548 163.912 229.686 164.045C229.819 164.183 229.987 164.249 230.191 164.249ZM229.686 171.349H230.677V165.36H229.686V171.349Z" fill="white"/>
<path d="M235.861 165.288C235.411 165.288 234.996 165.384 234.624 165.576C234.245 165.769 233.933 166.039 233.687 166.393H233.669V165.36H232.672V171.349H233.669V168.357C233.669 167.697 233.837 167.168 234.179 166.784C234.522 166.399 234.978 166.201 235.549 166.201C235.777 166.201 235.975 166.237 236.149 166.297C236.318 166.363 236.474 166.465 236.606 166.609C236.738 166.754 236.834 166.952 236.906 167.192C236.978 167.438 237.014 167.733 237.014 168.075V171.355H238.012V167.799C238.012 166.97 237.819 166.339 237.435 165.919C237.05 165.498 236.528 165.288 235.861 165.288Z" fill="white"/>
<path d="M244.354 165.36V166.189H244.33C244.072 165.901 243.766 165.678 243.405 165.522C243.045 165.366 242.667 165.288 242.264 165.288C241.724 165.288 241.237 165.42 240.805 165.678C240.372 165.943 240.03 166.297 239.783 166.754C239.537 167.21 239.417 167.715 239.417 168.267C239.417 168.706 239.489 169.114 239.645 169.487C239.795 169.859 240 170.177 240.264 170.43C240.528 170.682 240.835 170.88 241.189 171.024C241.537 171.168 241.916 171.235 242.312 171.235C243.165 171.235 243.838 170.934 244.342 170.322H244.372V171.156C244.372 171.409 244.33 171.637 244.246 171.847C244.162 172.057 244.036 172.244 243.874 172.4C243.706 172.562 243.496 172.688 243.237 172.778C242.973 172.874 242.679 172.916 242.354 172.916C241.952 172.916 241.585 172.868 241.261 172.766C240.931 172.664 240.576 172.502 240.204 172.286L239.964 173.205C240.672 173.637 241.489 173.853 242.402 173.853C242.907 173.853 243.351 173.781 243.736 173.637C244.12 173.493 244.427 173.289 244.655 173.024C244.883 172.76 245.057 172.448 245.171 172.093C245.286 171.739 245.346 171.343 245.346 170.898V165.36H244.354ZM242.39 170.303C242.174 170.303 241.97 170.273 241.772 170.213C241.573 170.153 241.393 170.063 241.231 169.943C241.069 169.823 240.931 169.685 240.811 169.517C240.69 169.354 240.594 169.162 240.528 168.94C240.462 168.724 240.432 168.49 240.432 168.237C240.432 167.661 240.612 167.174 240.985 166.79C241.351 166.405 241.82 166.213 242.39 166.213C242.961 166.213 243.435 166.399 243.82 166.772C244.198 167.144 244.391 167.631 244.391 168.225C244.391 168.832 244.204 169.33 243.838 169.721C243.466 170.111 242.985 170.303 242.39 170.303Z" fill="white"/>
<path d="M247.586 171.427C247.712 171.427 247.832 171.397 247.94 171.337C248.049 171.277 248.133 171.186 248.199 171.078C248.259 170.97 248.295 170.856 248.295 170.73C248.295 170.538 248.223 170.37 248.085 170.231C247.946 170.099 247.778 170.027 247.586 170.027C247.382 170.027 247.214 170.099 247.075 170.231C246.937 170.37 246.871 170.538 246.871 170.73C246.871 170.922 246.937 171.09 247.075 171.222C247.214 171.361 247.382 171.427 247.586 171.427Z" fill="white"/>
<path d="M250.553 171.427C250.679 171.427 250.8 171.397 250.908 171.337C251.016 171.277 251.1 171.186 251.166 171.078C251.226 170.97 251.262 170.856 251.262 170.73C251.262 170.538 251.19 170.37 251.052 170.231C250.914 170.099 250.745 170.027 250.553 170.027C250.349 170.027 250.181 170.099 250.043 170.231C249.905 170.37 249.838 170.538 249.838 170.73C249.838 170.922 249.905 171.09 250.043 171.222C250.181 171.361 250.349 171.427 250.553 171.427Z" fill="white"/>
<path d="M253.521 171.427C253.647 171.427 253.767 171.397 253.875 171.337C253.983 171.277 254.067 171.186 254.133 171.078C254.193 170.97 254.229 170.856 254.229 170.73C254.229 170.538 254.157 170.37 254.019 170.231C253.881 170.099 253.713 170.027 253.521 170.027C253.316 170.027 253.148 170.099 253.01 170.231C252.872 170.37 252.806 170.538 252.806 170.73C252.806 170.922 252.872 171.09 253.01 171.222C253.148 171.361 253.316 171.427 253.521 171.427Z" fill="white"/>
<path fill-rule="evenodd" clip-rule="evenodd" d="M117.597 182.112C117.597 180.839 118.14 179.806 118.809 179.806L292.574 179.806C293.243 179.806 293.786 180.839 293.786 182.112C293.786 183.386 293.243 184.419 292.574 184.419L118.809 184.419C118.14 184.419 117.597 183.386 117.597 182.112Z" fill="white"/>
<path fill-rule="evenodd" clip-rule="evenodd" d="M117.597 182.112C117.597 180.839 118.14 179.806 118.809 179.806L216.602 179.806C217.272 179.806 217.815 180.839 217.815 182.112C217.815 183.386 217.272 184.419 216.602 184.419L118.809 184.419C118.14 184.419 117.597 183.386 117.597 182.112Z" fill="#4589FF"/>
<path d="M175.387 196.774C175.123 196.774 174.864 196.804 174.612 196.865C174.36 196.925 174.125 197.015 173.909 197.123C173.693 197.237 173.495 197.369 173.321 197.525L173.309 197.519C173.399 197.159 173.531 196.822 173.699 196.51C173.867 196.198 174.059 195.921 174.276 195.681C174.492 195.441 174.732 195.231 174.996 195.039C175.261 194.846 175.537 194.69 175.825 194.564C176.114 194.438 176.414 194.336 176.732 194.252L176.42 193.369C175.969 193.453 175.537 193.597 175.117 193.807C174.696 194.017 174.306 194.288 173.945 194.624C173.585 194.96 173.266 195.339 172.996 195.759C172.72 196.186 172.51 196.672 172.353 197.213C172.197 197.753 172.125 198.324 172.125 198.913C172.125 199.393 172.197 199.838 172.353 200.246C172.504 200.655 172.714 201.003 172.978 201.285C173.242 201.568 173.561 201.79 173.927 201.946C174.294 202.102 174.684 202.18 175.105 202.18C175.651 202.18 176.15 202.066 176.594 201.826C177.039 201.592 177.393 201.267 177.645 200.847C177.898 200.432 178.024 199.97 178.024 199.453C178.024 198.907 177.91 198.426 177.681 198.018C177.453 197.609 177.141 197.303 176.744 197.093C176.348 196.883 175.891 196.774 175.387 196.774ZM175.092 201.207C174.516 201.207 174.047 201.003 173.681 200.595C173.315 200.186 173.134 199.646 173.134 198.979V198.895C173.339 198.564 173.621 198.288 173.969 198.066C174.318 197.844 174.714 197.729 175.159 197.729C175.711 197.729 176.156 197.892 176.492 198.204C176.822 198.516 176.991 198.931 176.991 199.447C176.991 199.94 176.81 200.354 176.456 200.697C176.096 201.039 175.645 201.207 175.092 201.207Z" fill="#EDF5FF"/>
<path d="M180.577 201.153V201.135L182.775 198.907C183.291 198.384 183.658 197.904 183.88 197.459C184.102 197.015 184.216 196.552 184.216 196.066C184.216 195.687 184.144 195.339 184 195.02C183.856 194.708 183.67 194.444 183.436 194.234C183.195 194.029 182.925 193.867 182.619 193.753C182.306 193.639 181.988 193.579 181.652 193.579C181.219 193.579 180.829 193.651 180.48 193.789C180.132 193.933 179.838 194.12 179.603 194.354C179.369 194.588 179.171 194.864 179.009 195.183L179.772 195.705C180.168 194.936 180.775 194.546 181.586 194.546C182.048 194.546 182.427 194.702 182.727 195.008C183.027 195.315 183.177 195.699 183.177 196.168C183.177 196.372 183.141 196.576 183.081 196.768C183.015 196.961 182.919 197.159 182.793 197.351C182.661 197.543 182.529 197.723 182.396 197.88C182.258 198.042 182.09 198.228 181.886 198.438L178.997 201.387L179.009 202.102H184.325V201.153H180.577Z" fill="#EDF5FF"/>
<path d="M189.574 202.312L193.395 193.573L192.578 193.219L188.751 201.964L189.574 202.312ZM187.923 198.126C188.283 198.126 188.613 198.066 188.926 197.934C189.232 197.808 189.49 197.633 189.7 197.417C189.911 197.201 190.079 196.943 190.199 196.642C190.319 196.348 190.379 196.036 190.379 195.699C190.379 195.231 190.265 194.81 190.043 194.438C189.821 194.065 189.526 193.783 189.154 193.585C188.781 193.393 188.373 193.291 187.923 193.291C187.442 193.291 187.01 193.399 186.637 193.615C186.259 193.831 185.97 194.126 185.772 194.492C185.568 194.858 185.472 195.261 185.472 195.699C185.472 196.174 185.58 196.594 185.802 196.967C186.018 197.339 186.319 197.627 186.691 197.826C187.064 198.03 187.472 198.126 187.923 198.126ZM187.929 197.339C187.478 197.339 187.1 197.189 186.799 196.883C186.499 196.582 186.349 196.186 186.349 195.705C186.349 195.249 186.493 194.864 186.787 194.552C187.076 194.246 187.46 194.089 187.929 194.089C188.379 194.089 188.757 194.24 189.064 194.54C189.364 194.84 189.52 195.231 189.52 195.705C189.52 196.168 189.37 196.558 189.076 196.871C188.781 197.183 188.397 197.339 187.929 197.339ZM194.157 202.18C194.638 202.18 195.064 202.072 195.443 201.856C195.821 201.64 196.11 201.345 196.314 200.973C196.518 200.607 196.62 200.198 196.62 199.754C196.62 199.285 196.506 198.871 196.284 198.498C196.061 198.126 195.767 197.844 195.395 197.645C195.022 197.447 194.608 197.345 194.157 197.345C193.677 197.345 193.25 197.459 192.878 197.675C192.5 197.892 192.211 198.186 192.013 198.546C191.809 198.913 191.713 199.315 191.713 199.754C191.713 200.228 191.821 200.649 192.043 201.021C192.265 201.393 192.56 201.682 192.932 201.88C193.304 202.084 193.713 202.18 194.157 202.18ZM194.163 201.387C193.947 201.387 193.737 201.351 193.545 201.273C193.353 201.195 193.184 201.087 193.04 200.943C192.896 200.805 192.788 200.631 192.704 200.426C192.62 200.222 192.578 200 192.578 199.76C192.578 199.303 192.722 198.925 193.016 198.612C193.31 198.3 193.695 198.144 194.163 198.144C194.452 198.144 194.722 198.21 194.962 198.342C195.203 198.474 195.395 198.666 195.539 198.913C195.683 199.165 195.755 199.447 195.755 199.76C195.755 200.222 195.605 200.607 195.311 200.919C195.016 201.231 194.632 201.387 194.163 201.387Z" fill="#EDF5FF"/>
<path d="M204.272 202.18C204.855 202.18 205.384 202.054 205.852 201.796C206.321 201.544 206.687 201.177 206.951 200.709C207.216 200.24 207.354 199.712 207.354 199.117C207.354 198.522 207.216 197.988 206.951 197.519C206.687 197.051 206.321 196.684 205.852 196.426C205.384 196.174 204.855 196.042 204.272 196.042C203.816 196.042 203.389 196.126 203.005 196.282C202.615 196.438 202.284 196.654 202.02 196.931C201.756 197.207 201.545 197.531 201.395 197.91C201.245 198.288 201.173 198.691 201.173 199.117C201.173 199.549 201.245 199.952 201.395 200.324C201.545 200.697 201.756 201.021 202.02 201.297C202.284 201.574 202.615 201.79 203.005 201.946C203.389 202.102 203.816 202.18 204.272 202.18ZM204.272 201.261C203.864 201.261 203.504 201.165 203.185 200.973C202.861 200.781 202.615 200.523 202.44 200.198C202.266 199.874 202.182 199.513 202.182 199.117C202.182 198.721 202.266 198.36 202.44 198.03C202.609 197.705 202.855 197.441 203.179 197.249C203.498 197.057 203.864 196.961 204.272 196.961C204.657 196.961 205.005 197.051 205.318 197.231C205.63 197.411 205.882 197.669 206.068 198C206.249 198.33 206.345 198.703 206.345 199.117C206.345 199.531 206.249 199.904 206.068 200.228C205.882 200.559 205.63 200.811 205.318 200.991C204.999 201.171 204.651 201.261 204.272 201.261Z" fill="#EDF5FF"/>
<path d="M209.09 202.102H210.081V196.979H211.781V196.114H210.081V194.996C210.081 194.264 210.351 193.897 210.898 193.897C211.192 193.897 211.54 193.999 211.943 194.204L212.165 193.345C211.745 193.092 211.276 192.966 210.772 192.966C210.231 192.966 209.811 193.134 209.522 193.459C209.234 193.783 209.09 194.264 209.09 194.9V196.114H208.357V196.979H209.09V202.102Z" fill="#EDF5FF"/>
<path d="M217.853 202.102H218.886V193.657H218.034L215.661 195.399L216.165 196.168L217.853 194.9V202.102Z" fill="#EDF5FF"/>
<path d="M223.884 202.18C224.376 202.18 224.827 202.078 225.229 201.862C225.626 201.646 225.962 201.351 226.227 200.967C226.491 200.589 226.695 200.138 226.839 199.61C226.983 199.087 227.055 198.51 227.055 197.886C227.055 197.207 226.971 196.594 226.815 196.048C226.659 195.501 226.437 195.051 226.154 194.69C225.872 194.33 225.536 194.059 225.151 193.867C224.767 193.675 224.34 193.579 223.884 193.579C223.391 193.579 222.941 193.687 222.538 193.903C222.136 194.12 221.806 194.414 221.541 194.792C221.277 195.177 221.073 195.627 220.929 196.156C220.785 196.684 220.712 197.261 220.712 197.886C220.712 198.564 220.791 199.177 220.947 199.718C221.103 200.264 221.325 200.715 221.607 201.075C221.89 201.436 222.226 201.706 222.611 201.898C222.995 202.09 223.421 202.18 223.884 202.18ZM223.89 201.219C223.247 201.219 222.731 200.925 222.34 200.336C221.95 199.748 221.758 198.931 221.758 197.886C221.758 196.859 221.944 196.042 222.322 195.441C222.695 194.84 223.217 194.54 223.89 194.54C224.527 194.54 225.037 194.834 225.428 195.423C225.812 196.012 226.01 196.828 226.01 197.886C226.01 198.558 225.926 199.147 225.764 199.646C225.596 200.144 225.356 200.529 225.037 200.805C224.713 201.081 224.334 201.219 223.89 201.219Z" fill="#EDF5FF"/>
<path d="M231.608 202.18C232.101 202.18 232.551 202.078 232.954 201.862C233.35 201.646 233.687 201.351 233.951 200.967C234.215 200.589 234.419 200.138 234.564 199.61C234.708 199.087 234.78 198.51 234.78 197.886C234.78 197.207 234.696 196.594 234.54 196.048C234.383 195.501 234.161 195.051 233.879 194.69C233.597 194.33 233.26 194.059 232.876 193.867C232.491 193.675 232.065 193.579 231.608 193.579C231.116 193.579 230.665 193.687 230.263 193.903C229.86 194.12 229.53 194.414 229.266 194.792C229.002 195.177 228.797 195.627 228.653 196.156C228.509 196.684 228.437 197.261 228.437 197.886C228.437 198.564 228.515 199.177 228.671 199.718C228.827 200.264 229.05 200.715 229.332 201.075C229.614 201.436 229.951 201.706 230.335 201.898C230.719 202.09 231.146 202.18 231.608 202.18ZM231.614 201.219C230.972 201.219 230.455 200.925 230.065 200.336C229.674 199.748 229.482 198.931 229.482 197.886C229.482 196.859 229.668 196.042 230.047 195.441C230.419 194.84 230.942 194.54 231.614 194.54C232.251 194.54 232.762 194.834 233.152 195.423C233.537 196.012 233.735 196.828 233.735 197.886C233.735 198.558 233.651 199.147 233.488 199.646C233.32 200.144 233.08 200.529 232.762 200.805C232.437 201.081 232.059 201.219 231.614 201.219Z" fill="#EDF5FF"/>
<path d="M240.126 202.312L243.946 193.573L243.129 193.219L239.303 201.964L240.126 202.312ZM238.474 198.126C238.834 198.126 239.165 198.066 239.477 197.934C239.783 197.808 240.042 197.633 240.252 197.417C240.462 197.201 240.63 196.943 240.75 196.642C240.871 196.348 240.931 196.036 240.931 195.699C240.931 195.231 240.817 194.81 240.594 194.438C240.372 194.065 240.078 193.783 239.705 193.585C239.333 193.393 238.924 193.291 238.474 193.291C237.993 193.291 237.561 193.399 237.189 193.615C236.81 193.831 236.522 194.126 236.324 194.492C236.119 194.858 236.023 195.261 236.023 195.699C236.023 196.174 236.131 196.594 236.354 196.967C236.57 197.339 236.87 197.627 237.243 197.826C237.615 198.03 238.023 198.126 238.474 198.126ZM238.48 197.339C238.029 197.339 237.651 197.189 237.351 196.883C237.05 196.582 236.9 196.186 236.9 195.705C236.9 195.249 237.044 194.864 237.339 194.552C237.627 194.246 238.011 194.089 238.48 194.089C238.93 194.089 239.309 194.24 239.615 194.54C239.916 194.84 240.072 195.231 240.072 195.705C240.072 196.168 239.922 196.558 239.627 196.871C239.333 197.183 238.948 197.339 238.48 197.339ZM244.709 202.18C245.189 202.18 245.616 202.072 245.994 201.856C246.373 201.64 246.661 201.345 246.865 200.973C247.069 200.607 247.171 200.198 247.171 199.754C247.171 199.285 247.057 198.871 246.835 198.498C246.613 198.126 246.319 197.844 245.946 197.645C245.574 197.447 245.159 197.345 244.709 197.345C244.228 197.345 243.802 197.459 243.429 197.675C243.051 197.892 242.763 198.186 242.564 198.546C242.36 198.913 242.264 199.315 242.264 199.754C242.264 200.228 242.372 200.649 242.594 201.021C242.817 201.393 243.111 201.682 243.483 201.88C243.856 202.084 244.264 202.18 244.709 202.18ZM244.715 201.387C244.499 201.387 244.288 201.351 244.096 201.273C243.904 201.195 243.736 201.087 243.592 200.943C243.447 200.805 243.339 200.631 243.255 200.426C243.171 200.222 243.129 200 243.129 199.76C243.129 199.303 243.273 198.925 243.568 198.612C243.862 198.3 244.246 198.144 244.715 198.144C245.003 198.144 245.273 198.21 245.514 198.342C245.754 198.474 245.946 198.666 246.09 198.913C246.234 199.165 246.307 199.447 246.307 199.76C246.307 200.222 246.156 200.607 245.862 200.919C245.568 201.231 245.183 201.387 244.715 201.387Z" fill="#EDF5FF"/>
<defs>
<linearGradient id="paint0_linear" x1="220.092" y1="129.888" x2="240.35" y2="232.664" gradientUnits="userSpaceOnUse">
<stop stop-color="#6929C4"/>
<stop offset="1" stop-color="#0F62FE"/>
</linearGradient>
</defs>
</svg>
