<svg width="87" height="12" viewBox="0 0 73 10" fill="none" xmlns="http://www.w3.org/2000/svg">
<path fill-rule="evenodd" clip-rule="evenodd" d="M9.93572 5.03219C9.93572 7.77586 7.71153 10 4.96786 10C2.22419 10 0 7.77586 0 5.03219C0 2.28852 2.22419 0.0643311 4.96786 0.0643311C7.71153 0.0643311 9.93572 2.28852 9.93572 5.03219ZM3.34893 2.46546H2.56671L6.22666 7.39311C6.26601 7.44611 6.31722 7.48917 6.3762 7.51884C6.43518 7.5485 6.50028 7.56395 6.56629 7.56394H7.36897L3.68789 2.6354C3.64851 2.58265 3.59736 2.53982 3.53852 2.51032C3.47967 2.48082 3.41476 2.46546 3.34893 2.46546ZM4.51898 6.30263L4.01162 5.62933L2.56671 7.56394H3.36938C3.4354 7.56394 3.5005 7.54849 3.55948 7.51883C3.61845 7.48916 3.66967 7.44611 3.70902 7.39311L4.51898 6.30263ZM5.9549 4.36937L7.36897 2.46546H6.58657C6.52074 2.46546 6.45582 2.48082 6.39698 2.51032C6.33813 2.53982 6.28699 2.58265 6.24761 2.6354L5.4514 3.70138L5.9549 4.36937Z" fill="#0043CE"/>
<path d="M18.2155 10H21.4388C22.2223 10 22.944 9.88316 23.59 9.63574C24.2361 9.39519 24.779 9.05842 25.2189 8.61856C25.6519 8.17869 25.9887 7.65636 26.2292 7.0378C26.4629 6.42612 26.5866 5.75258 26.5866 5.01718C26.5866 4.28866 26.4629 3.60825 26.2155 2.98969C25.968 2.37113 25.6244 1.84192 25.1845 1.40206C24.7378 0.962199 24.188 0.618557 23.5419 0.371134C22.889 0.123711 22.1742 0 21.3976 0H18.2155V10ZM19.913 8.47423V1.52577H21.4319C22.0849 1.52577 22.6691 1.67698 23.1914 1.97251C23.7137 2.27491 24.1124 2.68729 24.401 3.21649C24.6897 3.75258 24.834 4.35052 24.834 5.01718C24.834 5.51203 24.7447 5.96564 24.5797 6.39175C24.4148 6.81787 24.1811 7.189 23.8787 7.49141C23.5763 7.80069 23.212 8.04124 22.7722 8.21306C22.3323 8.39175 21.8512 8.47423 21.3357 8.47423H19.913Z" fill="#4D5358"/>
<path d="M39.5694 10L37.0127 6.28179V6.2543C37.7069 6.06186 38.2429 5.71821 38.6278 5.20962C39.0127 4.70103 39.2051 4.04811 39.2051 3.24399C39.2051 2.87285 39.157 2.52234 39.0746 2.19244C38.9921 1.86942 38.8615 1.57388 38.6828 1.29897C38.5041 1.03093 38.2773 0.797251 38.0161 0.604811C37.7481 0.412371 37.4251 0.268041 37.0471 0.158076C36.6691 0.0549828 36.2498 0 35.7893 0H32.0986V10H33.7962V6.43299H35.1433L37.5282 10H39.5694ZM33.7962 1.52577H35.535C36.1399 1.52577 36.6141 1.67698 36.944 1.97251C37.2739 2.27491 37.4457 2.68729 37.4457 3.20962C37.4457 3.73196 37.2739 4.14433 36.9302 4.44674C36.5866 4.75601 36.078 4.90722 35.4182 4.90722H33.7962V1.52577Z" fill="#4D5358"/>
<path d="M44.889 10H46.5935V0H44.889V10Z" fill="#4D5358"/>
<path d="M58.9509 0L56.3048 7.56014H56.2773L53.6519 0H51.8168L55.5488 10H57.0539L60.779 0H58.9509Z" fill="#4D5358"/>
<path d="M65.8718 10H72.456V8.47423H67.5694V5.80756H71.2807V4.28179H67.5694V1.52577H72.1605V0H65.8718V10Z" fill="#4D5358"/>
</svg>
