<svg width="128" height="14" viewBox="0 0 128 14" fill="none" xmlns="http://www.w3.org/2000/svg">
<path d="M2.77255 13.2931H0V0H2.77255V13.2931Z" fill="#091E42"/>
<path d="M20.4783 9.15322V0H23.2318V13.2931H20.4023L13.7178 4.12085V13.2931H10.9453V0H13.7748L20.4783 9.15322Z" fill="#091E42"/>
<path d="M30.3786 0H39.8927V2.44972H36.5124V13.2931H33.7589V2.44972H30.3786V0Z" fill="#091E42"/>
<path d="M55.1884 0V2.44972H49.7953V5.29823H54.4478V7.74796H49.7953V10.8433H55.1884V13.2931H47.0227V0H55.1884Z" fill="#091E42"/>
<path d="M73.6864 13.2931H70.3252L66.6031 7.82392H65.7106V13.2931H62.938V0H68.2932C69.6605 0 70.705 0.367142 71.4266 1.10143C72.1609 1.83571 72.528 2.79787 72.528 3.98792C72.528 5.92491 71.5659 7.10862 69.6415 7.53906L73.6864 13.2931ZM65.7106 5.5641H67.8944C68.5021 5.5641 68.9642 5.44383 69.2807 5.20328C69.6099 4.95008 69.7745 4.54496 69.7745 3.98792C69.7745 3.44354 69.6099 3.05107 69.2807 2.81053C68.9642 2.56999 68.5021 2.44972 67.8944 2.44972H65.7106V5.5641Z" fill="#091E42"/>
<path d="M90.3892 9.15322V0H93.1428V13.2931H90.3133L83.6288 4.12085V13.2931H80.8562V0H83.6857L90.3892 9.15322Z" fill="#091E42"/>
<path d="M107.81 6.43764L112.405 13.2931H109.215L106.309 8.73544L103.423 13.2931H100.252L104.828 6.45663L100.498 0H103.651L106.309 4.15883L108.987 0H112.158L107.81 6.43764Z" fill="#091E42"/>
<path d="M118.486 0H128V2.44972H124.62V13.2931H121.866V2.44972H118.486V0Z" fill="#091E42"/>
</svg>
