<svg fill="none" height="265" viewBox="0 0 247 265" width="247" xmlns="http://www.w3.org/2000/svg" xmlns:xlink="http://www.w3.org/1999/xlink"><filter id="a" color-interpolation-filters="sRGB" filterUnits="userSpaceOnUse" height="208" width="208" x="19.5" y="-8"><feFlood flood-opacity="0" result="BackgroundImageFix"/><feColorMatrix in="SourceAlpha" result="hardAlpha" type="matrix" values="0 0 0 0 0 0 0 0 0 0 0 0 0 0 0 0 0 0 127 0"/><feOffset dy="32"/><feGaussianBlur stdDeviation="20"/><feComposite in2="hardAlpha" operator="out"/><feColorMatrix type="matrix" values="0 0 0 0 0 0 0 0 0 0 0 0 0 0 0 0 0 0 0.04 0"/><feBlend in2="BackgroundImageFix" mode="normal" result="effect1_dropShadow_2970_19089"/><feBlend in="SourceGraphic" in2="effect1_dropShadow_2970_19089" mode="normal" result="shape"/></filter><filter id="b" color-interpolation-filters="sRGB" filterUnits="userSpaceOnUse" height="88" width="128" x="59.5" y="28"><feFlood flood-opacity="0" result="BackgroundImageFix"/><feBlend in="SourceGraphic" in2="BackgroundImageFix" mode="normal" result="shape"/><feColorMatrix in="SourceAlpha" result="hardAlpha" type="matrix" values="0 0 0 0 0 0 0 0 0 0 0 0 0 0 0 0 0 0 127 0"/><feOffset dy="-8"/><feGaussianBlur stdDeviation="4"/><feComposite in2="hardAlpha" k2="-1" k3="1" operator="arithmetic"/><feColorMatrix type="matrix" values="0 0 0 0 0.321569 0 0 0 0 0.686275 0 0 0 0 0.878431 0 0 0 0.32 0"/><feBlend in2="shape" mode="normal" result="effect1_innerShadow_2970_19089"/></filter><filter id="c" color-interpolation-filters="sRGB" filterUnits="userSpaceOnUse" height="66" width="66" x="140.5" y="73"><feFlood flood-opacity="0" result="BackgroundImageFix"/><feColorMatrix in="SourceAlpha" result="hardAlpha" type="matrix" values="0 0 0 0 0 0 0 0 0 0 0 0 0 0 0 0 0 0 127 0"/><feOffset dy="4"/><feGaussianBlur stdDeviation="6"/><feComposite in2="hardAlpha" operator="out"/><feColorMatrix type="matrix" values="0 0 0 0 0 0 0 0 0 0 0 0 0 0 0 0 0 0 0.25 0"/><feBlend in2="BackgroundImageFix" mode="normal" result="effect1_dropShadow_2970_19089"/><feBlend in="SourceGraphic" in2="effect1_dropShadow_2970_19089" mode="normal" result="shape"/></filter><filter id="d" color-interpolation-filters="sRGB" filterUnits="userSpaceOnUse" height="54" width="65.0254" x="90.9883" y="174"><feFlood flood-opacity="0" result="BackgroundImageFix"/><feColorMatrix in="SourceAlpha" result="hardAlpha" type="matrix" values="0 0 0 0 0 0 0 0 0 0 0 0 0 0 0 0 0 0 127 0"/><feOffset dy="8"/><feGaussianBlur stdDeviation="12"/><feComposite in2="hardAlpha" operator="out"/><feColorMatrix type="matrix" values="0 0 0 0 0 0 0 0 0 0 0 0 0 0 0 0 0 0 0.06 0"/><feBlend in2="BackgroundImageFix" mode="normal" result="effect1_dropShadow_2970_19089"/><feBlend in="SourceGraphic" in2="effect1_dropShadow_2970_19089" mode="normal" result="shape"/></filter><filter id="e" color-interpolation-filters="sRGB" filterUnits="userSpaceOnUse" height="81" width="247" x="0" y="184"><feFlood flood-opacity="0" result="BackgroundImageFix"/><feColorMatrix in="SourceAlpha" result="hardAlpha" type="matrix" values="0 0 0 0 0 0 0 0 0 0 0 0 0 0 0 0 0 0 127 0"/><feOffset dy="12"/><feGaussianBlur stdDeviation="12"/><feComposite in2="hardAlpha" operator="out"/><feColorMatrix type="matrix" values="0 0 0 0 0 0 0 0 0 0 0 0 0 0 0 0 0 0 0.06 0"/><feBlend in2="BackgroundImageFix" mode="normal" result="effect1_dropShadow_2970_19089"/><feBlend in="SourceGraphic" in2="effect1_dropShadow_2970_19089" mode="normal" result="shape"/></filter><linearGradient id="f" gradientUnits="userSpaceOnUse" x1="123.499" x2="123.499" y1="28" y2="52"><stop offset="0" stop-color="#52afe0"/><stop offset="1" stop-color="#00529e" stop-opacity=".1"/></linearGradient><radialGradient id="g" cx="0" cy="0" gradientTransform="matrix(0 48 -76.8001 0 123.5 52)" gradientUnits="userSpaceOnUse" r="1"><stop offset="0" stop-color="#fff"/><stop offset="1" stop-color="#fff" stop-opacity="0"/></radialGradient><g filter="url(#a)"><path d="m59.5 20c0-6.6274 5.3726-12 12-12h19.999c13.474 0 15.158 12 32 12h52.001c6.627 0 12 5.3726 12 12v72c0 6.627-5.373 12-12 12h-104c-6.6274 0-12-5.373-12-12z" fill="#52afe0"/><path d="m59.5 20c0-6.6274 5.3726-12 12-12h19.999c13.474 0 15.158 12 32 12h52.001c6.627 0 12 5.3726 12 12v72c0 6.627-5.373 12-12 12h-104c-6.6274 0-12-5.373-12-12z" fill="url(#f)" fill-opacity=".2"/><g filter="url(#b)"><path d="m59.5 104v-56c0-6.6274 5.3726-12 12-12h104c6.627 0 12 5.3726 12 12v56c0 6.627-5.373 12-12 12h-104c-6.6274 0-12-5.373-12-12z" fill="#73d0fa"/><path d="m59.5 104v-56c0-6.6274 5.3726-12 12-12h104c6.627 0 12 5.3726 12 12v56c0 6.627-5.373 12-12 12h-104c-6.6274 0-12-5.373-12-12z" fill="url(#g)" fill-opacity=".16"/></g></g><rect fill="#d1d1d7" height="24" rx="6" width="128" x="59.5" y="139"/><g filter="url(#c)"><path clip-rule="evenodd" d="m188.466 112c1.978-2.96 3.034-6.44 3.034-10-.005-4.7723-1.903-9.3476-5.278-12.7221-3.374-3.3745-7.95-5.2726-12.722-5.2779-3.56 0-7.04 1.0557-10 3.0335-2.96 1.9779-5.267 4.7891-6.63 8.0782-1.362 3.2891-1.719 6.9083-1.024 10.4003.694 3.491 2.409 6.699 4.926 9.216s5.725 4.232 9.216 4.926c3.492.695 7.111.338 10.4-1.024 3.289-1.363 6.101-3.67 8.078-6.63zm-6.449-14.7653c-.101-.2431-.249-.4639-.435-.6497-.186-.1863-.406-.3342-.649-.4353-.242-.101-.502-.1533-.765-.1538-.263-.0004-.523.0509-.766.1511s-.464.2474-.65.433l-7.919 7.92-2.585-2.582c-.186-.186-.407-.333-.65-.434s-.503-.152-.766-.152-.524.051-.767.152-.464.248-.65.434-.334.407-.434.65c-.101.243-.153.504-.153.767s.052.524.153.767c.1.243.248.464.434.65l4 4c.186.186.407.334.65.435s.503.153.767.153c.263 0 .524-.052.767-.153s.464-.249.649-.435l9.334-9.3337c.186-.1858.334-.4066.435-.6497s.153-.5037.153-.7669c0-.2633-.052-.5239-.153-.767z" fill="#2dae4d" fill-rule="evenodd"/><path d="m181.582 96.585c.186.1858.334.4066.435.6497s.153.5037.153.767c0 .2632-.052.5238-.153.7669s-.249.4639-.435.6497l-9.334 9.3337c-.185.186-.406.334-.649.435s-.504.153-.767.153c-.264 0-.524-.052-.767-.153s-.464-.249-.65-.435l-4-4c-.186-.186-.334-.407-.434-.65-.101-.243-.153-.504-.153-.767s.052-.524.153-.767c.1-.243.248-.464.434-.65s.407-.333.65-.434.504-.152.767-.152.523.051.766.152.464.248.65.434l2.585 2.582 7.919-7.92c.186-.1856.407-.3328.65-.433s.503-.1515.766-.1511c.263.0005.523.0528.765.1538.243.1011.463.249.649.4353z" fill="#fff"/><path d="m193 102v-.002c-.006-5.1692-2.062-10.1253-5.717-13.7807-3.656-3.6554-8.612-5.7116-13.781-5.7173h-.002c-3.857 0-7.627 1.1437-10.834 3.2863-3.206 2.1427-5.706 5.1882-7.182 8.7514-1.476 3.5631-1.862 7.4843-1.109 11.2663.752 3.783 2.609 7.257 5.336 9.985 2.728 2.727 6.202 4.584 9.985 5.336 3.782.753 7.703.367 11.266-1.109s6.609-3.976 8.752-7.182c2.142-3.207 3.286-6.977 3.286-10.834z" stroke="#fff" stroke-width="3"/></g><g filter="url(#d)"><path d="m130.428 195.449-5.343-4.898c-.801-.735-2.369-.735-3.17 0l-5.342 4.898c-.4.367-.992.551-1.585.551h17.025c-.592 0-1.185-.184-1.585-.551z" fill="#2c2c30"/></g><g filter="url(#e)"><rect fill="#2c2c30" height="33" rx="6" shape-rendering="crispEdges" width="199" x="24" y="196"/><path d="m45.324 217h-1.204l-.882-2.254h-4.9l-.896 2.254h-1.218l3.934-9.8h1.246zm-4.536-8.47-2.03 5.138h4.046zm7.5024 7.028 1.974-5.096h1.148l-2.618 6.538h-1.036l-2.618-6.538h1.162zm9.6382-5.096h1.064v6.538h-1.064v-.938c-.2987.336-.658.597-1.078.784-.4107.187-.8727.28-1.386.28-.5787 0-1.12-.149-1.624-.448-.4947-.308-.8913-.719-1.19-1.232-.2987-.523-.448-1.092-.448-1.708s.1493-1.185.448-1.708.6953-.933 1.19-1.232c.504-.308 1.0453-.462 1.624-.462.5133 0 .9753.093 1.386.28.42.187.7793.448 1.078.784zm-2.324 5.6c.42 0 .8073-.103 1.162-.308.3547-.215.6347-.499.84-.854.2147-.355.322-.742.322-1.162 0-.429-.1027-.821-.308-1.176s-.49-.635-.854-.84c-.3547-.205-.742-.308-1.162-.308s-.812.103-1.176.308c-.3547.205-.6393.485-.854.84-.2053.355-.308.747-.308 1.176 0 .42.1027.807.308 1.162.2147.355.4993.639.854.854.364.205.756.308 1.176.308zm6.2288.938h-1.078v-6.538h1.078zm-.532-8.484c-.196 0-.3687-.07-.518-.21s-.224-.308-.224-.504c0-.205.0747-.378.224-.518s.322-.21.518-.21.364.07.504.21c.1493.14.224.313.224.518 0 .196-.0747.364-.224.504-.14.14-.308.21-.504.21zm3.5671 8.484h-1.078v-9.8h1.078zm7.3472-6.538h1.064v6.538h-1.064v-.938c-.2987.336-.658.597-1.078.784-.4107.187-.8727.28-1.386.28-.5787 0-1.12-.149-1.624-.448-.4947-.308-.8913-.719-1.19-1.232-.2987-.523-.448-1.092-.448-1.708s.1493-1.185.448-1.708.6953-.933 1.19-1.232c.504-.308 1.0453-.462 1.624-.462.5133 0 .9753.093 1.386.28.42.187.7793.448 1.078.784zm-2.324 5.6c.42 0 .8073-.103 1.162-.308.3547-.215.6347-.499.84-.854.2147-.355.322-.742.322-1.162 0-.429-.1027-.821-.308-1.176s-.49-.635-.854-.84c-.3547-.205-.742-.308-1.162-.308s-.812.103-1.176.308c-.3547.205-.6393.485-.854.84-.2053.355-.308.747-.308 1.176 0 .42.1027.807.308 1.162.2147.355.4993.639.854.854.364.205.756.308 1.176.308zm8.8142-5.726c.5787 0 1.1153.154 1.61.462.504.299.9053.709 1.204 1.232s.448 1.092.448 1.708-.1493 1.185-.448 1.708c-.2987.513-.7.924-1.204 1.232-.4947.299-1.0313.448-1.61.448-.4947 0-.9427-.084-1.344-.252-.4013-.177-.7513-.425-1.05-.742v.868h-1.078v-9.8h1.078v4.13c.2987-.317.6487-.56 1.05-.728.4013-.177.8493-.266 1.344-.266zm-.14 5.726c.42 0 .8073-.103 1.162-.308.364-.215.6487-.499.854-.854.2147-.355.322-.742.322-1.162 0-.429-.1073-.821-.322-1.176-.2053-.355-.49-.635-.854-.84-.3547-.205-.742-.308-1.162-.308s-.812.103-1.176.308c-.3547.205-.6347.485-.84.84s-.308.747-.308 1.176c0 .42.1027.807.308 1.162.2147.355.4993.639.854.854.3547.205.742.308 1.162.308zm6.0995.938h-1.078v-9.8h1.078zm8.3972-3.094h-5.712c.028.392.1493.756.364 1.092.2146.327.4946.588.84.784.3453.187.7233.28 1.134.28.4013 0 .7746-.098 1.12-.294.3546-.205.6393-.481.854-.826l.98.392c-.28.551-.686.989-1.218 1.316-.5227.317-1.1014.476-1.736.476-.616 0-1.1854-.149-1.708-.448-.5227-.308-.938-.719-1.246-1.232-.2987-.523-.448-1.092-.448-1.708s.1493-1.185.448-1.708c.308-.523.7233-.933 1.246-1.232.5226-.308 1.092-.462 1.708-.462.6066 0 1.1666.149 1.68.448.5133.289.924.691 1.232 1.204s.4666 1.078.476 1.694zm-3.374-2.492c-.504 0-.9567.14-1.358.42-.392.28-.6674.644-.826 1.092h4.34c-.168-.448-.448-.812-.84-1.092-.3827-.28-.8214-.42-1.316-.42zm15.4264 4.312 1.68-5.264h1.176l-2.24 6.538h-1.176l-1.708-5.068-1.708 5.068h-1.1756l-2.254-6.538h1.218l1.6656 5.236 1.75-5.236h1.022zm6.835-5.39c.43 0 .822.107 1.176.322.364.215.654.504.868.868.215.355.322.747.322 1.176v4.298h-1.078v-4.228c0-.401-.14-.737-.42-1.008-.27-.28-.602-.42-.994-.42-.401 0-.742.135-1.022.406-.27.261-.41.583-.42.966v4.284h-1.078v-9.8h1.078v3.724c.448-.392.971-.588 1.568-.588zm5.323 6.664h-1.078v-6.538h1.078zm-.532-8.484c-.196 0-.369-.07-.518-.21s-.224-.308-.224-.504c0-.205.075-.378.224-.518s.322-.21.518-.21.364.07.504.21c.149.14.224.313.224.518 0 .196-.075.364-.224.504-.14.14-.308.21-.504.21zm3.567 8.484h-1.078v-9.8h1.078zm8.397-3.094h-5.712c.028.392.149.756.364 1.092.215.327.495.588.84.784.345.187.723.28 1.134.28.401 0 .775-.098 1.12-.294.355-.205.639-.481.854-.826l.98.392c-.28.551-.686.989-1.218 1.316-.523.317-1.101.476-1.736.476-.616 0-1.185-.149-1.708-.448-.523-.308-.938-.719-1.246-1.232-.299-.523-.448-1.092-.448-1.708s.149-1.185.448-1.708c.308-.523.723-.933 1.246-1.232.523-.308 1.092-.462 1.708-.462.607 0 1.167.149 1.68.448.513.289.924.691 1.232 1.204s.467 1.078.476 1.694zm-3.374-2.492c-.504 0-.957.14-1.358.42-.392.28-.667.644-.826 1.092h4.34c-.168-.448-.448-.812-.84-1.092-.383-.28-.821-.42-1.316-.42zm11.255 4.326 1.988-5.278h1.218l-2.828 7.056-1.106 2.744h-1.162l1.302-3.192-2.674-6.608h1.19zm7.38 1.386c-.616 0-1.185-.149-1.708-.448-.523-.308-.938-.719-1.246-1.232-.299-.523-.448-1.092-.448-1.708s.149-1.185.448-1.708c.308-.523.723-.933 1.246-1.232.523-.308 1.092-.462 1.708-.462s1.181.154 1.694.462c.523.299.933.709 1.232 1.232.308.523.462 1.092.462 1.708s-.154 1.185-.462 1.708c-.299.513-.709.924-1.232 1.232-.513.299-1.078.448-1.694.448zm0-1.064c.42 0 .807-.103 1.162-.308.355-.215.635-.499.84-.854.215-.355.322-.742.322-1.162 0-.429-.107-.821-.322-1.176-.205-.355-.485-.635-.84-.84s-.742-.308-1.162-.308c-.429 0-.821.103-1.176.308s-.639.485-.854.84c-.205.355-.308.747-.308 1.176 0 .42.103.807.308 1.162.215.355.499.639.854.854.355.205.747.308 1.176.308zm7.394 1.064c-.747 0-1.344-.224-1.792-.672s-.672-1.05-.672-1.806v-4.186h1.064v4.074c0 .467.131.84.392 1.12.261.271.597.406 1.008.406.42 0 .756-.135 1.008-.406.252-.28.378-.653.378-1.12v-4.074h1.078v4.186c0 .756-.224 1.358-.672 1.806s-1.045.672-1.792.672zm5.005-5.432h-.784l-.112-4.494h1.008zm4.616-1.358c.214 0 .429.042.644.126v1.106c-.178-.103-.383-.154-.616-.154-.495 0-.906.201-1.232.602-.327.401-.49.901-.49 1.498v3.486h-1.078v-6.538h1.078v1.036c.177-.373.406-.658.686-.854.28-.205.616-.308 1.008-.308zm8.166 3.57h-5.712c.028.392.149.756.364 1.092.214.327.494.588.84.784.345.187.723.28 1.134.28.401 0 .774-.098 1.12-.294.354-.205.639-.481.854-.826l.98.392c-.28.551-.686.989-1.218 1.316-.523.317-1.102.476-1.736.476-.616 0-1.186-.149-1.708-.448-.523-.308-.938-.719-1.246-1.232-.299-.523-.448-1.092-.448-1.708s.149-1.185.448-1.708c.308-.523.723-.933 1.246-1.232.522-.308 1.092-.462 1.708-.462.606 0 1.166.149 1.68.448.513.289.924.691 1.232 1.204s.466 1.078.476 1.694zm-3.374-2.492c-.504 0-.957.14-1.358.42-.392.28-.668.644-.826 1.092h4.34c-.168-.448-.448-.812-.84-1.092-.383-.28-.822-.42-1.316-.42zm11.716 5.712c-.616 0-1.185-.149-1.708-.448-.522-.308-.938-.719-1.246-1.232-.298-.523-.448-1.092-.448-1.708s.15-1.185.448-1.708c.308-.523.724-.933 1.246-1.232.523-.308 1.092-.462 1.708-.462s1.181.154 1.694.462c.523.299.934.709 1.232 1.232.308.523.462 1.092.462 1.708s-.154 1.185-.462 1.708c-.298.513-.709.924-1.232 1.232-.513.299-1.078.448-1.694.448zm0-1.064c.42 0 .808-.103 1.162-.308.355-.215.635-.499.84-.854.215-.355.322-.742.322-1.162 0-.429-.107-.821-.322-1.176-.205-.355-.485-.635-.84-.84-.354-.205-.742-.308-1.162-.308-.429 0-.821.103-1.176.308-.354.205-.639.485-.854.84-.205.355-.308.747-.308 1.176 0 .42.103.807.308 1.162.215.355.5.639.854.854.355.205.747.308 1.176.308zm8.21-5.6v1.008h-1.736v5.53h-1.078v-5.53h-1.092v-1.008h1.092v-1.4c0-.607.172-1.087.518-1.442.354-.364.821-.546 1.4-.546.177 0 .345.019.504.056.158.028.28.065.364.112v1.008c-.206-.103-.453-.154-.742-.154-.299 0-.537.103-.714.308-.168.196-.252.467-.252.812v1.246zm4.598-3.262h1.078v9.8h-1.078v-5.53h-2.506v5.53h-1.078v-5.53h-1.092v-1.008h1.092v-1.4c0-.607.173-1.087.518-1.442.355-.364.821-.546 1.4-.546.177 0 .345.019.504.056.159.028.28.065.364.112v1.008c-.205-.103-.453-.154-.742-.154-.299 0-.537.103-.714.308-.168.196-.252.467-.252.812v1.246h2.506zm4.113 9.8h-1.078v-6.538h1.078zm-.532-8.484c-.196 0-.369-.07-.518-.21-.15-.14-.224-.308-.224-.504 0-.205.074-.378.224-.518.149-.14.322-.21.518-.21s.364.07.504.21c.149.14.224.313.224.518 0 .196-.075.364-.224.504-.14.14-.308.21-.504.21zm4.943 1.82c.43 0 .822.107 1.176.322.364.215.654.504.868.868.215.355.322.747.322 1.176v4.298h-1.078v-4.228c0-.401-.14-.737-.42-1.008-.27-.28-.602-.42-.994-.42-.401 0-.742.135-1.022.406-.27.261-.41.583-.42.966v4.284h-1.078v-6.538h1.078v.462c.448-.392.971-.588 1.568-.588zm10.685 3.57h-5.712c.028.392.149.756.364 1.092.215.327.495.588.84.784.345.187.723.28 1.134.28.401 0 .775-.098 1.12-.294.355-.205.639-.481.854-.826l.98.392c-.28.551-.686.989-1.218 1.316-.523.317-1.101.476-1.736.476-.616 0-1.185-.149-1.708-.448-.523-.308-.938-.719-1.246-1.232-.299-.523-.448-1.092-.448-1.708s.149-1.185.448-1.708c.308-.523.723-.933 1.246-1.232.523-.308 1.092-.462 1.708-.462.607 0 1.167.149 1.68.448.513.289.924.691 1.232 1.204s.467 1.078.476 1.694zm-3.374-2.492c-.504 0-.957.14-1.358.42-.392.28-.667.644-.826 1.092h4.34c-.168-.448-.448-.812-.84-1.092-.383-.28-.821-.42-1.316-.42z" fill="#fff"/></g></svg>