<?xml version="1.0" encoding="UTF-8" standalone="no"?>
<svg
   xmlns:osb="http://www.openswatchbook.org/uri/2009/osb"
   xmlns:dc="http://purl.org/dc/elements/1.1/"
   xmlns:cc="http://creativecommons.org/ns#"
   xmlns:rdf="http://www.w3.org/1999/02/22-rdf-syntax-ns#"
   xmlns:svg="http://www.w3.org/2000/svg"
   xmlns="http://www.w3.org/2000/svg"
   xmlns:xlink="http://www.w3.org/1999/xlink"
   xmlns:sodipodi="http://sodipodi.sourceforge.net/DTD/sodipodi-0.dtd"
   xmlns:inkscape="http://www.inkscape.org/namespaces/inkscape"
   width="1094px"
   height="937px"
   viewBox="0 0 1094 937"
   version="1.1"
   id="svg35"
   sodipodi:docname="tray-icon-sync-inv.svg"
   inkscape:version="0.92.4 (5da689c313, 2019-01-14)">
  <metadata
     id="metadata39">
    <rdf:RDF>
      <cc:Work
         rdf:about="">
        <dc:format>image/svg+xml</dc:format>
        <dc:type
           rdf:resource="http://purl.org/dc/dcmitype/StillImage" />
        <dc:title>Group</dc:title>
      </cc:Work>
    </rdf:RDF>
  </metadata>
  <sodipodi:namedview
     pagecolor="#ffffff"
     bordercolor="#666666"
     borderopacity="1"
     objecttolerance="10"
     gridtolerance="10"
     guidetolerance="10"
     inkscape:pageopacity="0"
     inkscape:pageshadow="2"
     inkscape:window-width="1366"
     inkscape:window-height="715"
     id="namedview37"
     showgrid="false"
     inkscape:zoom="0.25186766"
     inkscape:cx="261.31962"
     inkscape:cy="290.81019"
     inkscape:window-x="-8"
     inkscape:window-y="-8"
     inkscape:window-maximized="1"
     inkscape:current-layer="svg35" />
  <!-- Generator: Sketch 58 (84663) - https://sketch.com -->
  <title
     id="title2">Group</title>
  <desc
     id="desc4">Created with Sketch.</desc>
  <defs
     id="defs24">
    <linearGradient
       id="linearGradient843"
       osb:paint="solid">
      <stop
         style="stop-color:#000000;stop-opacity:1;"
         offset="0"
         id="stop841" />
    </linearGradient>
    <linearGradient
       id="linearGradient2339"
       osb:paint="solid">
      <stop
         style="stop-color:#000000;stop-opacity:1;"
         offset="0"
         id="stop2337" />
    </linearGradient>
    <rect
       id="path-1"
       x="39.8430184"
       y="43.9960567"
       width="976"
       height="804"
       rx="105" />
    <linearGradient
       x1="597.04602"
       y1="794.12482"
       x2="359.44159"
       y2="191.39149"
       id="linearGradient-3"
       gradientTransform="matrix(1.1033546,0,0,0.90632697,362.45693,218.04172)"
       gradientUnits="userSpaceOnUse"
       spreadMethod="pad">
      <stop
         stop-color="#1B60E0"
         offset="0%"
         id="stop14" />
      <stop
         stop-color="#26B0FF"
         offset="100%"
         id="stop16" />
    </linearGradient>
    <linearGradient
       x1="362.9079"
       y1="191.39149"
       x2="575.73071"
       y2="792.29541"
       id="linearGradient-4"
       gradientTransform="matrix(1.1033546,0,0,0.90632697,-24.342079,49.689333)"
       gradientUnits="userSpaceOnUse"
       xlink:href="#linearGradient-3">
      <stop
         stop-color="#27B0FF"
         offset="0%"
         id="stop19" />
      <stop
         stop-color="#064CC4"
         offset="100%"
         id="stop21" />
    </linearGradient>
    <linearGradient
       inkscape:collect="always"
       xlink:href="#linearGradient843"
       id="linearGradient845"
       x1="9.757906"
       y1="496.28937"
       x2="995.35794"
       y2="496.28937"
       gradientUnits="userSpaceOnUse" />
  </defs>
  <g
     style="fill:#000000;fill-opacity:1;fill-rule:evenodd;stroke:none;stroke-width:1"
     transform="rotate(-5,582.15051,253.31401)"
     id="Rectangle">
    <use
       height="100%"
       width="100%"
       y="0"
       x="0"
       style=""
       id="use26"
       xlink:href="#path-1" />
  </g>
  <rect
     style="fill:url(#linearGradient845);fill-opacity:1;fill-rule:evenodd;stroke:#000000;stroke-width:44;stroke-opacity:1;stroke-miterlimit:3.7;stroke-dasharray:none"
     rx="105"
     height="765.60004"
     width="941.60004"
     y="113.48935"
     x="31.757906"
     transform="rotate(-5)"
     id="rect29" />
  <g
     id="g2418"
     transform="matrix(26.160857,0,0,26.160857,121.97772,34.333588)"
     style="fill:#ffffff;fill-opacity:1">
    <path
       id="path2414"
       d="m 25.444,4.291 c 0,0 -1.325,1.293 -2.243,2.201 C 18.514,3.068 11.909,3.456 7.676,7.689 c -2.47,2.47 -3.623,5.747 -3.484,8.983 h 4 C 8.051,14.46 8.81,12.205 10.5,10.514 c 2.663,-2.663 6.735,-3.043 9.812,-1.162 -1.042,1.032 -2.245,2.238 -2.245,2.238 -0.841,1.009 0.104,1.592 0.584,1.577 l 5.624,-10e-4 c 0.297,0 0.539,10e-4 0.539,10e-4 0,0 0.245,0 0.543,0 h 1.092 c 0.298,0 0.54,-0.243 0.54,-0.541 V 4.895 C 27.023,4.188 26.247,3.502 25.444,4.291 Z"
       inkscape:connector-curvature="0"
       style="fill:#ffffff;fill-opacity:1" />
    <path
       id="path2416"
       d="m 6.555,27.709 c 0,0 1.326,-1.293 2.243,-2.201 4.688,3.424 11.292,3.036 15.526,-1.197 2.47,-2.471 3.622,-5.747 3.484,-8.983 h -4.001 c 0.142,2.211 -0.617,4.467 -2.308,6.159 -2.663,2.662 -6.735,3.043 -9.812,1.161 1.042,-1.032 2.245,-2.238 2.245,-2.238 0.841,-1.01 -0.104,-1.592 -0.584,-1.577 l -5.624,0.002 c -0.297,0 -0.54,-0.002 -0.54,-0.002 0,0 -0.245,0 -0.543,0 h -1.09 c -0.298,0 -0.54,0.242 -0.541,0.541 v 7.732 c -0.033,0.706 0.743,1.392 1.545,0.603 z"
       inkscape:connector-curvature="0"
       style="fill:#ffffff;fill-opacity:1" />
  </g>
</svg>
