<svg xmlns="http://www.w3.org/2000/svg" fill="none" viewBox="0.98 0.7 18.02 17.38">
<path d="M14.8468 16.4845L14.8468 16.4845L14.8501 16.4808L17.6924 13.2871C17.6926 13.2868 17.6929 13.2865 17.6931 13.2863C17.9861 12.9598 18.203 12.6562 18.3374 12.2974C18.4713 11.9398 18.5078 11.5682 18.5078 11.1328V7.64062C18.5078 7.20523 18.4713 6.83366 18.3374 6.47599C18.203 6.11716 17.986 5.8135 17.6929 5.48684C17.6927 5.48667 17.6926 5.48651 17.6924 5.48635L14.8497 2.29995L14.849 2.29912C14.5546 1.97061 14.2325 1.68575 13.8226 1.48811C13.4106 1.28941 12.9444 1.19531 12.3828 1.19531H7.60156C7.04015 1.19531 6.57361 1.28936 6.16217 1.48836C5.75311 1.68622 5.43283 1.9714 5.14193 2.30061L2.29142 5.48694L2.29141 5.48693L2.28956 5.48903C2.00048 5.81581 1.78618 6.11928 1.6533 6.47744C1.5209 6.83428 1.48438 7.20508 1.48438 7.64062V11.1328C1.48438 11.5683 1.5209 11.9391 1.65329 12.296C1.78618 12.6542 2.00049 12.9576 2.28958 13.2844L2.29101 13.286L5.14257 16.4813L5.14299 16.4818C5.43402 16.8071 5.75434 17.09 6.16326 17.2866C6.57408 17.484 7.04009 17.5781 7.60156 17.5781H12.3828C12.9444 17.5781 13.4101 17.484 13.8216 17.2868C14.2308 17.0907 14.5526 16.8086 14.8468 16.4845ZM7.17384 11.8927L7.17387 11.8927L9.3145 9.75199L9.6674 9.39908L9.31514 9.04553L7.17451 6.89709L7.16915 6.89171L7.16362 6.8865C7.12482 6.84985 7.10156 6.79463 7.10156 6.74219C7.10156 6.60075 7.20152 6.50781 7.32812 6.50781C7.42616 6.50781 7.46067 6.53306 7.48804 6.56205L7.49326 6.56758L7.49865 6.57295L9.64709 8.71358L9.99936 9.06457L10.3523 8.71422L12.5164 6.56578L12.5177 6.56445C12.5771 6.50498 12.6159 6.49219 12.6797 6.49219C12.8142 6.49219 12.9141 6.59298 12.9141 6.72656C12.9141 6.78547 12.8992 6.8312 12.8418 6.88856L12.8411 6.88928L10.6927 9.04553L10.3398 9.39973L10.694 9.75264L12.8286 11.8794C12.8902 11.946 12.9062 11.9977 12.9062 12.0547C12.9062 12.1996 12.8028 12.2969 12.6719 12.2969C12.5993 12.2969 12.5415 12.2751 12.481 12.2192L10.3542 10.0846L9.99935 9.72845L9.64516 10.0852L7.52138 12.2246C7.52123 12.2248 7.52108 12.2249 7.52094 12.2251C7.47348 12.2724 7.42429 12.2969 7.32812 12.2969C7.20839 12.2969 7.10156 12.2031 7.10156 12.0547C7.10156 11.9997 7.12141 11.9451 7.17384 11.8927Z" fill="#DA1E28" stroke="#EDF5FF"/>
</svg>