<svg xmlns="http://www.w3.org/2000/svg" fill="none" viewBox="0.88 0.91 18.23 16.95">
<path d="M18.2898 13.6497L18.2898 13.6497L18.2879 13.6464L12.1487 2.68034C12.1484 2.67986 12.1482 2.67938 12.1479 2.6789C11.6789 1.83007 10.841 1.40625 10 1.40625C9.15777 1.40625 8.31326 1.83878 7.84476 2.678C7.84472 2.67807 7.84469 2.67813 7.84465 2.6782L1.71195 13.6545L1.71194 13.6545L1.71033 13.6574C1.50434 14.032 1.38281 14.4423 1.38281 14.8672C1.38281 16.2186 2.3698 17.3516 3.86719 17.3516H16.125C17.6314 17.3516 18.6094 16.2172 18.6094 14.8672C18.6094 14.4516 18.5005 14.0331 18.2898 13.6497ZM9.66387 6.82987L9.66387 6.82987L9.66379 6.82737C9.66022 6.7184 9.69562 6.65493 9.73452 6.61706C9.77575 6.57692 9.85723 6.53125 10 6.53125C10.2451 6.53125 10.3415 6.66746 10.3362 6.82737L10.3362 6.82885L10.219 10.7571C10.219 10.7573 10.219 10.7575 10.219 10.7578C10.2138 10.9116 10.1728 10.957 10.1665 10.9633L10.1664 10.9634C10.1625 10.9674 10.1302 11 10.0078 11C9.86984 11 9.83047 10.9631 9.82437 10.9571C9.81693 10.9498 9.77825 10.9075 9.7732 10.7657C9.77319 10.7652 9.77317 10.7648 9.77315 10.7643L9.66387 6.82987ZM10.0078 13.6875C9.7124 13.6875 9.54688 13.4906 9.54688 13.2969C9.54688 13.1057 9.71043 12.9062 10.0078 12.9062C10.2977 12.9062 10.4609 13.0981 10.4609 13.2969C10.4609 13.4931 10.2927 13.6875 10.0078 13.6875Z" fill="#F1C21B" stroke="#EDF5FF"/>
</svg>