<svg fill="none" height="265" viewBox="0 0 246 265" width="246" xmlns="http://www.w3.org/2000/svg" xmlns:xlink="http://www.w3.org/1999/xlink"><filter id="a" color-interpolation-filters="sRGB" filterUnits="userSpaceOnUse" height="208" width="208" x="19" y="-8"><feFlood flood-opacity="0" result="BackgroundImageFix"/><feColorMatrix in="SourceAlpha" result="hardAlpha" type="matrix" values="0 0 0 0 0 0 0 0 0 0 0 0 0 0 0 0 0 0 127 0"/><feOffset dy="32"/><feGaussianBlur stdDeviation="20"/><feComposite in2="hardAlpha" operator="out"/><feColorMatrix type="matrix" values="0 0 0 0 0 0 0 0 0 0 0 0 0 0 0 0 0 0 0.04 0"/><feBlend in2="BackgroundImageFix" mode="normal" result="effect1_dropShadow_2968_19020"/><feBlend in="SourceGraphic" in2="effect1_dropShadow_2968_19020" mode="normal" result="shape"/></filter><filter id="b" color-interpolation-filters="sRGB" filterUnits="userSpaceOnUse" height="88" width="128" x="59" y="28"><feFlood flood-opacity="0" result="BackgroundImageFix"/><feBlend in="SourceGraphic" in2="BackgroundImageFix" mode="normal" result="shape"/><feColorMatrix in="SourceAlpha" result="hardAlpha" type="matrix" values="0 0 0 0 0 0 0 0 0 0 0 0 0 0 0 0 0 0 127 0"/><feOffset dy="-8"/><feGaussianBlur stdDeviation="4"/><feComposite in2="hardAlpha" k2="-1" k3="1" operator="arithmetic"/><feColorMatrix type="matrix" values="0 0 0 0 0.321569 0 0 0 0 0.686275 0 0 0 0 0.878431 0 0 0 0.32 0"/><feBlend in2="shape" mode="normal" result="effect1_innerShadow_2968_19020"/></filter><filter id="c" color-interpolation-filters="sRGB" filterUnits="userSpaceOnUse" height="66" width="66" x="140" y="73"><feFlood flood-opacity="0" result="BackgroundImageFix"/><feColorMatrix in="SourceAlpha" result="hardAlpha" type="matrix" values="0 0 0 0 0 0 0 0 0 0 0 0 0 0 0 0 0 0 127 0"/><feOffset dy="4"/><feGaussianBlur stdDeviation="6"/><feComposite in2="hardAlpha" operator="out"/><feColorMatrix type="matrix" values="0 0 0 0 0 0 0 0 0 0 0 0 0 0 0 0 0 0 0.25 0"/><feBlend in2="BackgroundImageFix" mode="normal" result="effect1_dropShadow_2968_19020"/><feBlend in="SourceGraphic" in2="effect1_dropShadow_2968_19020" mode="normal" result="shape"/></filter><filter id="d" color-interpolation-filters="sRGB" filterUnits="userSpaceOnUse" height="54" width="65.0254" x="90.4883" y="174"><feFlood flood-opacity="0" result="BackgroundImageFix"/><feColorMatrix in="SourceAlpha" result="hardAlpha" type="matrix" values="0 0 0 0 0 0 0 0 0 0 0 0 0 0 0 0 0 0 127 0"/><feOffset dy="8"/><feGaussianBlur stdDeviation="12"/><feComposite in2="hardAlpha" operator="out"/><feColorMatrix type="matrix" values="0 0 0 0 0 0 0 0 0 0 0 0 0 0 0 0 0 0 0.06 0"/><feBlend in2="BackgroundImageFix" mode="normal" result="effect1_dropShadow_2968_19020"/><feBlend in="SourceGraphic" in2="effect1_dropShadow_2968_19020" mode="normal" result="shape"/></filter><filter id="e" color-interpolation-filters="sRGB" filterUnits="userSpaceOnUse" height="81" width="246" x="0" y="184"><feFlood flood-opacity="0" result="BackgroundImageFix"/><feColorMatrix in="SourceAlpha" result="hardAlpha" type="matrix" values="0 0 0 0 0 0 0 0 0 0 0 0 0 0 0 0 0 0 127 0"/><feOffset dy="12"/><feGaussianBlur stdDeviation="12"/><feComposite in2="hardAlpha" operator="out"/><feColorMatrix type="matrix" values="0 0 0 0 0 0 0 0 0 0 0 0 0 0 0 0 0 0 0.06 0"/><feBlend in2="BackgroundImageFix" mode="normal" result="effect1_dropShadow_2968_19020"/><feBlend in="SourceGraphic" in2="effect1_dropShadow_2968_19020" mode="normal" result="shape"/></filter><linearGradient id="f" gradientUnits="userSpaceOnUse" x1="122.999" x2="122.999" y1="28" y2="52"><stop offset="0" stop-color="#52afe0"/><stop offset="1" stop-color="#00529e" stop-opacity=".1"/></linearGradient><radialGradient id="g" cx="0" cy="0" gradientTransform="matrix(0 48 -76.8001 0 123 52)" gradientUnits="userSpaceOnUse" r="1"><stop offset="0" stop-color="#fff"/><stop offset="1" stop-color="#fff" stop-opacity="0"/></radialGradient><clipPath id="h"><path d="m176.268 136h31.4644v30h-31.4644z"/></clipPath><g filter="url(#a)"><path d="m59 20c0-6.6274 5.3726-12 12-12h19.999c13.474 0 15.158 12 32 12h52.001c6.627 0 12 5.3726 12 12v72c0 6.627-5.373 12-12 12h-104c-6.6274 0-12-5.373-12-12z" fill="#52afe0"/><path d="m59 20c0-6.6274 5.3726-12 12-12h19.999c13.474 0 15.158 12 32 12h52.001c6.627 0 12 5.3726 12 12v72c0 6.627-5.373 12-12 12h-104c-6.6274 0-12-5.373-12-12z" fill="url(#f)" fill-opacity=".2"/><g filter="url(#b)"><path d="m59 104v-56c0-6.6274 5.3726-12 12-12h104c6.627 0 12 5.3726 12 12v56c0 6.627-5.373 12-12 12h-104c-6.6274 0-12-5.373-12-12z" fill="#73d0fa"/><path d="m59 104v-56c0-6.6274 5.3726-12 12-12h104c6.627 0 12 5.3726 12 12v56c0 6.627-5.373 12-12 12h-104c-6.6274 0-12-5.373-12-12z" fill="url(#g)" fill-opacity=".16"/></g></g><rect fill="#d1d1d7" height="24" rx="6" width="128" x="38.2676" y="139"/><g clip-path="url(#h)"><path d="m195.327 156.547v2.015h6.258c3.842 0 6.145-2.315 6.145-5.344 0-2.528-1.514-4.606-3.955-5.594.025-5.582-3.992-9.612-9.111-9.612-3.392 0-5.808 1.814-7.31 4.005-2.841-.764-6.433 1.439-6.495 4.956-2.829.438-4.593 2.753-4.593 5.707 0 3.254 2.44 5.882 6.545 5.882h5.97v-2.015h-5.982c-2.966 0-4.518-1.714-4.518-3.867 0-2.39 1.514-4.168 4.167-4.168.176 0 .238-.1.238-.262 0-3.843 2.766-4.907 5.344-4.156.151.05.238.025.313-.112 1.214-2.166 3.079-3.955 6.321-3.955 4.105 0 6.946 3.254 7.159 6.983.037.564 0 1.24-.051 1.828-.012.162.051.263.201.288 2.278.5 3.742 1.927 3.742 4.092 0 1.928-1.402 3.329-4.143 3.329zm-3.267 9.45c.251 0 .451-.1.714-.338l4.23-3.955c.2-.175.3-.388.3-.664 0-.5-.4-.876-.913-.876-.238 0-.488.113-.676.301l-1.902 1.902-.839.876.075-1.865v-10.738c0-.526-.451-.976-.989-.976s-1.001.45-1.001.976v10.738l.075 1.878-.838-.889-1.903-1.902c-.187-.188-.45-.301-.688-.301-.526 0-.901.376-.901.876 0 .276.1.489.3.664l4.23 3.955c.263.238.463.338.726.338z" fill="#000" fill-opacity=".85"/></g><g filter="url(#c)"><rect fill="#06f" height="36" rx="18" width="36" x="155" y="84"/><path d="m179.619 109.414c2.995 0 5.381-2.212 5.381-4.978 0-1.996-1.118-3.81-2.977-4.5834 0-4.2312-3.068-7.2764-7.047-7.2764-2.372 0-4.291 1.1494-5.527 2.8986-2.427-.5586-4.85 1.1998-5.005 3.8099-2.134.4351-3.444 2.3863-3.444 4.7533 0 2.944 2.569 5.376 5.889 5.376zm.005-2.363h-12.726c-1.987 0-3.48-1.383-3.48-3.013 0-1.809 1.163-3.027 2.921-3.027.142 0 .206-.078.197-.22-.151-2.5961 1.695-3.6493 3.796-3.022.119.0321.202.0046.266-.1053.93-1.6027 2.216-2.7247 4.346-2.7247 2.706 0 4.689 2.1294 4.817 4.7075.032.5865-.014 1.1865-.069 1.6485-.013.142.042.211.179.234 1.658.251 2.711 1.35 2.711 2.907 0 1.452-1.296 2.615-2.958 2.615z" fill="#fff"/><path clip-rule="evenodd" d="m174.976 92.5762c-2.372 0-4.291 1.1494-5.527 2.8986-2.427-.5586-4.85 1.1998-5.005 3.8099-2.134.4351-3.444 2.3863-3.444 4.7533 0 2.944 2.569 5.376 5.889 5.376h12.73c2.995 0 5.381-2.212 5.381-4.978 0-1.996-1.118-3.81-2.977-4.5834 0-4.2312-3.068-7.2764-7.047-7.2764zm4.648 14.4748h-12.726c-1.987 0-3.48-1.383-3.48-3.013 0-1.809 1.163-3.027 2.921-3.027.142 0 .206-.078.197-.22-.151-2.5961 1.695-3.6493 3.796-3.022.119.0321.202.0046.266-.1053.93-1.6027 2.216-2.7247 4.346-2.7247 2.706 0 4.689 2.1294 4.817 4.7075.032.5865-.014 1.1865-.069 1.6485-.013.142.042.211.179.234 1.658.251 2.711 1.35 2.711 2.907 0 1.452-1.296 2.615-2.958 2.615z" fill="#fff" fill-rule="evenodd"/><rect height="39" rx="19.5" stroke="#fff" stroke-width="3" width="39" x="153.5" y="82.5"/></g><g filter="url(#d)"><path d="m129.928 195.449-5.343-4.898c-.801-.735-2.369-.735-3.17 0l-5.342 4.898c-.4.367-.992.551-1.585.551h17.025c-.592 0-1.185-.184-1.585-.551z" fill="#2c2c30"/></g><g filter="url(#e)"><rect fill="#2c2c30" height="33" rx="6" shape-rendering="crispEdges" width="198" x="24" y="196"/><path d="m45.324 217h-1.204l-.882-2.254h-4.9l-.896 2.254h-1.218l3.934-9.8h1.246zm-4.536-8.47-2.03 5.138h4.046zm7.5024 7.028 1.974-5.096h1.148l-2.618 6.538h-1.036l-2.618-6.538h1.162zm9.6382-5.096h1.064v6.538h-1.064v-.938c-.2987.336-.658.597-1.078.784-.4107.187-.8727.28-1.386.28-.5787 0-1.12-.149-1.624-.448-.4947-.308-.8913-.719-1.19-1.232-.2987-.523-.448-1.092-.448-1.708s.1493-1.185.448-1.708.6953-.933 1.19-1.232c.504-.308 1.0453-.462 1.624-.462.5133 0 .9753.093 1.386.28.42.187.7793.448 1.078.784zm-2.324 5.6c.42 0 .8073-.103 1.162-.308.3547-.215.6347-.499.84-.854.2147-.355.322-.742.322-1.162 0-.429-.1027-.821-.308-1.176s-.49-.635-.854-.84c-.3547-.205-.742-.308-1.162-.308s-.812.103-1.176.308c-.3547.205-.6393.485-.854.84-.2053.355-.308.747-.308 1.176 0 .42.1027.807.308 1.162.2147.355.4993.639.854.854.364.205.756.308 1.176.308zm6.2288.938h-1.078v-6.538h1.078zm-.532-8.484c-.196 0-.3687-.07-.518-.21s-.224-.308-.224-.504c0-.205.0747-.378.224-.518s.322-.21.518-.21.364.07.504.21c.1493.14.224.313.224.518 0 .196-.0747.364-.224.504-.14.14-.308.21-.504.21zm3.5671 8.484h-1.078v-9.8h1.078zm7.3472-6.538h1.064v6.538h-1.064v-.938c-.2987.336-.658.597-1.078.784-.4107.187-.8727.28-1.386.28-.5787 0-1.12-.149-1.624-.448-.4947-.308-.8913-.719-1.19-1.232-.2987-.523-.448-1.092-.448-1.708s.1493-1.185.448-1.708.6953-.933 1.19-1.232c.504-.308 1.0453-.462 1.624-.462.5133 0 .9753.093 1.386.28.42.187.7793.448 1.078.784zm-2.324 5.6c.42 0 .8073-.103 1.162-.308.3547-.215.6347-.499.84-.854.2147-.355.322-.742.322-1.162 0-.429-.1027-.821-.308-1.176s-.49-.635-.854-.84c-.3547-.205-.742-.308-1.162-.308s-.812.103-1.176.308c-.3547.205-.6393.485-.854.84-.2053.355-.308.747-.308 1.176 0 .42.1027.807.308 1.162.2147.355.4993.639.854.854.364.205.756.308 1.176.308zm8.8142-5.726c.5787 0 1.1153.154 1.61.462.504.299.9053.709 1.204 1.232s.448 1.092.448 1.708-.1493 1.185-.448 1.708c-.2987.513-.7.924-1.204 1.232-.4947.299-1.0313.448-1.61.448-.4947 0-.9427-.084-1.344-.252-.4013-.177-.7513-.425-1.05-.742v.868h-1.078v-9.8h1.078v4.13c.2987-.317.6487-.56 1.05-.728.4013-.177.8493-.266 1.344-.266zm-.14 5.726c.42 0 .8073-.103 1.162-.308.364-.215.6487-.499.854-.854.2147-.355.322-.742.322-1.162 0-.429-.1073-.821-.322-1.176-.2053-.355-.49-.635-.854-.84-.3547-.205-.742-.308-1.162-.308s-.812.103-1.176.308c-.3547.205-.6347.485-.84.84s-.308.747-.308 1.176c0 .42.1027.807.308 1.162.2147.355.4993.639.854.854.3547.205.742.308 1.162.308zm6.0995.938h-1.078v-9.8h1.078zm8.3972-3.094h-5.712c.028.392.1493.756.364 1.092.2146.327.4946.588.84.784.3453.187.7233.28 1.134.28.4013 0 .7746-.098 1.12-.294.3546-.205.6393-.481.854-.826l.98.392c-.28.551-.686.989-1.218 1.316-.5227.317-1.1014.476-1.736.476-.616 0-1.1854-.149-1.708-.448-.5227-.308-.938-.719-1.246-1.232-.2987-.523-.448-1.092-.448-1.708s.1493-1.185.448-1.708c.308-.523.7233-.933 1.246-1.232.5226-.308 1.092-.462 1.708-.462.6066 0 1.1666.149 1.68.448.5133.289.924.691 1.232 1.204s.4666 1.078.476 1.694zm-3.374-2.492c-.504 0-.9567.14-1.358.42-.392.28-.6674.644-.826 1.092h4.34c-.168-.448-.448-.812-.84-1.092-.3827-.28-.8214-.42-1.316-.42zm15.4264 4.312 1.68-5.264h1.176l-2.24 6.538h-1.176l-1.708-5.068-1.708 5.068h-1.1756l-2.254-6.538h1.218l1.6656 5.236 1.75-5.236h1.022zm6.835-5.39c.43 0 .822.107 1.176.322.364.215.654.504.868.868.215.355.322.747.322 1.176v4.298h-1.078v-4.228c0-.401-.14-.737-.42-1.008-.27-.28-.602-.42-.994-.42-.401 0-.742.135-1.022.406-.27.261-.41.583-.42.966v4.284h-1.078v-9.8h1.078v3.724c.448-.392.971-.588 1.568-.588zm5.323 6.664h-1.078v-6.538h1.078zm-.532-8.484c-.196 0-.369-.07-.518-.21s-.224-.308-.224-.504c0-.205.075-.378.224-.518s.322-.21.518-.21.364.07.504.21c.149.14.224.313.224.518 0 .196-.075.364-.224.504-.14.14-.308.21-.504.21zm3.567 8.484h-1.078v-9.8h1.078zm8.397-3.094h-5.712c.028.392.149.756.364 1.092.215.327.495.588.84.784.345.187.723.28 1.134.28.401 0 .775-.098 1.12-.294.355-.205.639-.481.854-.826l.98.392c-.28.551-.686.989-1.218 1.316-.523.317-1.101.476-1.736.476-.616 0-1.185-.149-1.708-.448-.523-.308-.938-.719-1.246-1.232-.299-.523-.448-1.092-.448-1.708s.149-1.185.448-1.708c.308-.523.723-.933 1.246-1.232.523-.308 1.092-.462 1.708-.462.607 0 1.167.149 1.68.448.513.289.924.691 1.232 1.204s.467 1.078.476 1.694zm-3.374-2.492c-.504 0-.957.14-1.358.42-.392.28-.667.644-.826 1.092h4.34c-.168-.448-.448-.812-.84-1.092-.383-.28-.821-.42-1.316-.42zm11.255 4.326 1.988-5.278h1.218l-2.828 7.056-1.106 2.744h-1.162l1.302-3.192-2.674-6.608h1.19zm7.38 1.386c-.616 0-1.185-.149-1.708-.448-.523-.308-.938-.719-1.246-1.232-.299-.523-.448-1.092-.448-1.708s.149-1.185.448-1.708c.308-.523.723-.933 1.246-1.232.523-.308 1.092-.462 1.708-.462s1.181.154 1.694.462c.523.299.933.709 1.232 1.232.308.523.462 1.092.462 1.708s-.154 1.185-.462 1.708c-.299.513-.709.924-1.232 1.232-.513.299-1.078.448-1.694.448zm0-1.064c.42 0 .807-.103 1.162-.308.355-.215.635-.499.84-.854.215-.355.322-.742.322-1.162 0-.429-.107-.821-.322-1.176-.205-.355-.485-.635-.84-.84s-.742-.308-1.162-.308c-.429 0-.821.103-1.176.308s-.639.485-.854.84c-.205.355-.308.747-.308 1.176 0 .42.103.807.308 1.162.215.355.499.639.854.854.355.205.747.308 1.176.308zm7.394 1.064c-.747 0-1.344-.224-1.792-.672s-.672-1.05-.672-1.806v-4.186h1.064v4.074c0 .467.131.84.392 1.12.261.271.597.406 1.008.406.42 0 .756-.135 1.008-.406.252-.28.378-.653.378-1.12v-4.074h1.078v4.186c0 .756-.224 1.358-.672 1.806s-1.045.672-1.792.672zm5.005-5.432h-.784l-.112-4.494h1.008zm4.616-1.358c.214 0 .429.042.644.126v1.106c-.178-.103-.383-.154-.616-.154-.495 0-.906.201-1.232.602-.327.401-.49.901-.49 1.498v3.486h-1.078v-6.538h1.078v1.036c.177-.373.406-.658.686-.854.28-.205.616-.308 1.008-.308zm8.166 3.57h-5.712c.028.392.149.756.364 1.092.214.327.494.588.84.784.345.187.723.28 1.134.28.401 0 .774-.098 1.12-.294.354-.205.639-.481.854-.826l.98.392c-.28.551-.686.989-1.218 1.316-.523.317-1.102.476-1.736.476-.616 0-1.186-.149-1.708-.448-.523-.308-.938-.719-1.246-1.232-.299-.523-.448-1.092-.448-1.708s.149-1.185.448-1.708c.308-.523.723-.933 1.246-1.232.522-.308 1.092-.462 1.708-.462.606 0 1.166.149 1.68.448.513.289.924.691 1.232 1.204s.466 1.078.476 1.694zm-3.374-2.492c-.504 0-.957.14-1.358.42-.392.28-.668.644-.826 1.092h4.34c-.168-.448-.448-.812-.84-1.092-.383-.28-.822-.42-1.316-.42zm11.716 5.712c-.616 0-1.185-.149-1.708-.448-.522-.308-.938-.719-1.246-1.232-.298-.523-.448-1.092-.448-1.708s.15-1.185.448-1.708c.308-.523.724-.933 1.246-1.232.523-.308 1.092-.462 1.708-.462s1.181.154 1.694.462c.523.299.934.709 1.232 1.232.308.523.462 1.092.462 1.708s-.154 1.185-.462 1.708c-.298.513-.709.924-1.232 1.232-.513.299-1.078.448-1.694.448zm0-1.064c.42 0 .808-.103 1.162-.308.355-.215.635-.499.84-.854.215-.355.322-.742.322-1.162 0-.429-.107-.821-.322-1.176-.205-.355-.485-.635-.84-.84-.354-.205-.742-.308-1.162-.308-.429 0-.821.103-1.176.308-.354.205-.639.485-.854.84-.205.355-.308.747-.308 1.176 0 .42.103.807.308 1.162.215.355.5.639.854.854.355.205.747.308 1.176.308zm7.66-5.726c.43 0 .822.107 1.176.322.364.215.654.504.868.868.215.355.322.747.322 1.176v4.298h-1.078v-4.228c0-.401-.14-.737-.42-1.008-.27-.28-.602-.42-.994-.42-.401 0-.742.135-1.022.406-.27.261-.41.583-.42.966v4.284h-1.078v-6.538h1.078v.462c.448-.392.971-.588 1.568-.588zm5.323 6.664h-1.078v-9.8h1.078zm3.035 0h-1.078v-6.538h1.078zm-.532-8.484c-.196 0-.368-.07-.518-.21-.149-.14-.224-.308-.224-.504 0-.205.075-.378.224-.518.15-.14.322-.21.518-.21s.364.07.504.21c.15.14.224.313.224.518 0 .196-.074.364-.224.504-.14.14-.308.21-.504.21zm4.944 1.82c.429 0 .821.107 1.176.322.364.215.653.504.868.868.215.355.322.747.322 1.176v4.298h-1.078v-4.228c0-.401-.14-.737-.42-1.008-.271-.28-.602-.42-.994-.42-.401 0-.742.135-1.022.406-.271.261-.411.583-.42.966v4.284h-1.078v-6.538h1.078v.462c.448-.392.971-.588 1.568-.588zm10.685 3.57h-5.712c.028.392.149.756.364 1.092.214.327.494.588.84.784.345.187.723.28 1.134.28.401 0 .774-.098 1.12-.294.354-.205.639-.481.854-.826l.98.392c-.28.551-.686.989-1.218 1.316-.523.317-1.102.476-1.736.476-.616 0-1.186-.149-1.708-.448-.523-.308-.938-.719-1.246-1.232-.299-.523-.448-1.092-.448-1.708s.149-1.185.448-1.708c.308-.523.723-.933 1.246-1.232.522-.308 1.092-.462 1.708-.462.606 0 1.166.149 1.68.448.513.289.924.691 1.232 1.204s.466 1.078.476 1.694zm-3.374-2.492c-.504 0-.957.14-1.358.42-.392.28-.668.644-.826 1.092h4.34c-.168-.448-.448-.812-.84-1.092-.383-.28-.822-.42-1.316-.42z" fill="#fff"/></g></svg>