<svg fill="none" height="80" viewBox="0 0 80 80" width="80" xmlns="http://www.w3.org/2000/svg" xmlns:xlink="http://www.w3.org/1999/xlink"><linearGradient id="a" gradientUnits="userSpaceOnUse" x1="40.0171" x2="40" y1="9.75304" y2="68.8099"><stop offset="0" stop-color="#97a0af"/><stop offset=".477123" stop-color="#b3bac5"/><stop offset=".505058" stop-color="#97a0af"/><stop offset="1" stop-color="#7a869a"/></linearGradient><clipPath id="b"><path d="m0 0h80v80h-80z"/></clipPath><g clip-path="url(#b)"><path d="m14.0693 35.8788h51.8956c3.4232 0 6.5383.7531 9.2084 2.1567l-8.4211-19.7861c-2.225-5.3059-6.8121-8.24989-12.9396-8.24989h-27.5909c-6.1276 0-10.7146 2.94399-12.9739 8.24989l-8.4211 19.7518c2.70432-1.3693 5.8194-2.1224 9.2426-2.1224zm0 32.9312h51.8956c8.3184 0 14.0351-5.6825 14.0351-13.9667 0-8.2841-5.7167-13.9666-14.0351-13.9666h-51.8956c-8.35257 0-14.0693 5.6825-14.0693 13.9666 0 8.2842 5.71673 13.9667 14.0693 13.9667zm48.3092-13.9667c-.0095-1.8389 1.5079-3.3315 3.3468-3.3125 1.8199.0188 3.2877 1.4925 3.2783 3.3125-.0094 1.8106-1.4679 3.2596-3.2783 3.2783-1.8295.0189-3.3373-1.4487-3.3468-3.2783z" fill="url(#a)"/></g></svg>
