<?xml version="1.0" encoding="UTF-8"?>
<svg id="Layer_1" data-name="Layer 1" xmlns="http://www.w3.org/2000/svg" xmlns:xlink="http://www.w3.org/1999/xlink" viewBox="0 0 112 134">
  <defs>
    <style>
      .cls-1 {
        fill: #071f35;
      }

      .cls-1, .cls-2, .cls-3, .cls-4, .cls-5, .cls-6, .cls-7, .cls-8, .cls-9, .cls-10, .cls-11, .cls-12, .cls-13, .cls-14, .cls-15, .cls-16, .cls-17, .cls-18, .cls-19, .cls-20, .cls-21, .cls-22, .cls-23, .cls-24, .cls-25, .cls-26, .cls-27, .cls-28, .cls-29, .cls-30, .cls-31, .cls-32, .cls-33, .cls-34 {
        stroke-width: 0px;
      }

      .cls-2 {
        fill: url(#radial-gradient);
      }

      .cls-2, .cls-13 {
        fill-opacity: .16;
      }

      .cls-35, .cls-6 {
        fill: none;
      }

      .cls-35, .cls-36 {
        stroke: #e5e5ea;
        stroke-width: .4px;
      }

      .cls-3 {
        fill: #f68e6d;
      }

      .cls-4 {
        fill: #d45330;
      }

      .cls-5 {
        fill: #157d41;
      }

      .cls-37 {
        clip-path: url(#clippath);
      }

      .cls-38 {
        mask: url(#mask);
      }

      .cls-7, .cls-14 {
        fill: #010101;
      }

      .cls-7, .cls-14, .cls-22, .cls-29 {
        isolation: isolate;
      }

      .cls-7, .cls-29 {
        opacity: .2;
      }

      .cls-8 {
        fill: #8e8e95;
      }

      .cls-9 {
        fill: #ed6c48;
      }

      .cls-10 {
        fill: #56a1d8;
      }

      .cls-11 {
        fill: url(#linear-gradient);
      }

      .cls-11, .cls-12 {
        fill-opacity: .2;
      }

      .cls-12 {
        fill: url(#linear-gradient-5);
      }

      .cls-13 {
        fill: url(#radial-gradient-2);
      }

      .cls-14, .cls-22 {
        opacity: .1;
      }

      .cls-39 {
        clip-path: url(#clippath-1);
      }

      .cls-40 {
        clip-path: url(#clippath-2);
      }

      .cls-36 {
        fill: #f3f3f8;
      }

      .cls-15 {
        fill: #f89a1c;
      }

      .cls-16 {
        fill: #20a366;
      }

      .cls-17 {
        fill: #301111;
      }

      .cls-18 {
        fill: #e5e5ea;
      }

      .cls-19 {
        fill: #1a5d38;
      }

      .cls-20 {
        fill: #20438e;
      }

      .cls-21 {
        fill: #fdfeff;
      }

      .cls-22 {
        fill: rgba(1, 1, 1, .5);
      }

      .cls-23 {
        fill: #2f5eab;
      }

      .cls-24 {
        fill: #78cff5;
      }

      .cls-25 {
        fill: url(#linear-gradient-4);
      }

      .cls-26 {
        fill: url(#linear-gradient-2);
      }

      .cls-27 {
        fill: url(#linear-gradient-3);
      }

      .cls-28 {
        fill: #ee2524;
      }

      .cls-29 {
        fill: rgba(1, 1, 1, .6);
      }

      .cls-30 {
        fill: #48ba80;
      }

      .cls-31 {
        fill: #52afde;
      }

      .cls-32 {
        fill: #52a2d9;
      }

      .cls-33 {
        fill: #fff;
      }

      .cls-41 {
        mask: url(#mask-3);
      }

      .cls-42 {
        mask: url(#mask-2);
      }

      .cls-43 {
        mask: url(#mask-1);
      }

      .cls-34 {
        fill: #3d7abe;
      }
    </style>
    <linearGradient id="linear-gradient" x1="92.07" y1="77.06" x2="92.07" y2="71.06" gradientTransform="translate(0 134.98) scale(1 -1)" gradientUnits="userSpaceOnUse">
      <stop offset="0" stop-color="#52afde"/>
      <stop offset="1" stop-color="#04539e" stop-opacity=".1"/>
    </linearGradient>
    <radialGradient id="radial-gradient" cx="-80.42" cy="277.59" fx="-80.42" fy="277.59" r="1" gradientTransform="translate(-5237.6 1028.98) rotate(90) scale(12 -19.2)" gradientUnits="userSpaceOnUse">
      <stop offset="0" stop-color="#fff"/>
      <stop offset="1" stop-color="#fff" stop-opacity="0"/>
    </radialGradient>
    <mask id="mask" x="-4.93" y="80.42" width="26" height="3.5" maskUnits="userSpaceOnUse">
      <g id="path-8-inside-2_2955_22582" data-name="path-8-inside-2 2955 22582">
        <path class="cls-33" d="M-2.43,82.92h21c.83,0,1.5-.67,1.5-1.5v-1c0,.83-.67,1.5-1.5,1.5H-2.43c-.83,0-1.5-.67-1.5-1.5v1c0,.83.67,1.5,1.5,1.5Z"/>
      </g>
    </mask>
    <mask id="mask-1" x="-4.93" y="122.42" width="26" height="3.5" maskUnits="userSpaceOnUse">
      <g id="path-21-inside-3_2955_22582" data-name="path-21-inside-3 2955 22582">
        <path class="cls-33" d="M-2.43,124.92h21c.83,0,1.5-.67,1.5-1.5v-1c0,.83-.67,1.5-1.5,1.5H-2.43c-.83,0-1.5-.67-1.5-1.5v1c0,.83.67,1.5,1.5,1.5Z"/>
      </g>
    </mask>
    <clipPath id="clippath">
      <rect class="cls-6" x="-.43" y="101.42" width="16" height="14.88"/>
    </clipPath>
    <linearGradient id="linear-gradient-2" x1=".99" y1="30.74" x2="6.33" y2="21.49" gradientTransform="translate(0 134.98) scale(1 -1)" gradientUnits="userSpaceOnUse">
      <stop offset="0" stop-color="#3569b2"/>
      <stop offset=".5" stop-color="#3060ad"/>
      <stop offset="1" stop-color="#234ca1"/>
    </linearGradient>
    <mask id="mask-2" x="37.07" y="101.42" width="26" height="3.5" maskUnits="userSpaceOnUse">
      <g id="path-34-inside-4_2955_22582" data-name="path-34-inside-4 2955 22582">
        <path class="cls-33" d="M39.57,103.92h21c.83,0,1.5-.67,1.5-1.5v-1c0,.83-.67,1.5-1.5,1.5h-21c-.83,0-1.5-.67-1.5-1.5v1c0,.83.67,1.5,1.5,1.5Z"/>
      </g>
    </mask>
    <clipPath id="clippath-1">
      <rect class="cls-6" x="41.57" y="80.42" width="16" height="14.88"/>
    </clipPath>
    <linearGradient id="linear-gradient-3" x1="42.99" y1="51.74" x2="48.33" y2="42.49" gradientTransform="translate(0 134.98) scale(1 -1)" gradientUnits="userSpaceOnUse">
      <stop offset="0" stop-color="#198950"/>
      <stop offset=".5" stop-color="#137f43"/>
      <stop offset="1" stop-color="#0d6735"/>
    </linearGradient>
    <mask id="mask-3" x="75.07" y="34.42" width="34" height="3.5" maskUnits="userSpaceOnUse">
      <g id="path-63-inside-5_2955_22582" data-name="path-63-inside-5 2955 22582">
        <path class="cls-33" d="M77.57,36.92h29c.83,0,1.5-.67,1.5-1.5v-1c0,.83-.67,1.5-1.5,1.5h-29c-.83,0-1.5-.67-1.5-1.5v1c0,.83.67,1.5,1.5,1.5Z"/>
      </g>
    </mask>
    <clipPath id="clippath-2">
      <rect class="cls-6" x="84.07" y="17.42" width="16" height="14.88"/>
    </clipPath>
    <linearGradient id="linear-gradient-4" x1="85.49" y1="114.74" x2="90.83" y2="105.49" gradientTransform="translate(0 134.98) scale(1 -1)" gradientUnits="userSpaceOnUse">
      <stop offset="0" stop-color="#cb4d28"/>
      <stop offset=".5" stop-color="#c54227"/>
      <stop offset="1" stop-color="#b63325"/>
    </linearGradient>
    <linearGradient id="linear-gradient-5" x1="8.07" y1="119.06" x2="8.07" y2="113.06" xlink:href="#linear-gradient"/>
    <radialGradient id="radial-gradient-2" cy="277.59" fy="277.59" r="1" gradientTransform="translate(-5321.6 986.98) rotate(90) scale(12 -19.2)" xlink:href="#radial-gradient"/>
  </defs>
  <path class="cls-31" d="M76.07,55.92c0-1.66,1.34-3,3-3h5c3.37,0,3.79,3,8,3h13c1.66,0,3,1.34,3,3v18c0,1.66-1.34,3-3,3h-26c-1.66,0-3-1.34-3-3v-21Z"/>
  <path class="cls-11" d="M76.07,55.92c0-1.66,1.34-3,3-3h5c3.37,0,3.79,3,8,3h13c1.66,0,3,1.34,3,3v18c0,1.66-1.34,3-3,3h-26c-1.66,0-3-1.34-3-3v-21Z"/>
  <g>
    <path class="cls-24" d="M76.07,76.92v-14c0-1.66,1.34-3,3-3h26c1.66,0,3,1.34,3,3v14c0,1.66-1.34,3-3,3h-26c-1.66,0-3-1.34-3-3Z"/>
    <path class="cls-2" d="M76.07,76.92v-14c0-1.66,1.34-3,3-3h26c1.66,0,3,1.34,3,3v14c0,1.66-1.34,3-3,3h-26c-1.66,0-3-1.34-3-3Z"/>
  </g>
  <path class="cls-21" d="M-3.93,52.42c0-.83.67-1.5,1.5-1.5h21c.83,0,1.5.67,1.5,1.5v29c0,.83-.67,1.5-1.5,1.5H-2.43c-.83,0-1.5-.67-1.5-1.5v-29Z"/>
  <path class="cls-21" d="M-3.93,52.42c0-.83.67-1.5,1.5-1.5h21c.83,0,1.5.67,1.5,1.5v29c0,.83-.67,1.5-1.5,1.5H-2.43c-.83,0-1.5-.67-1.5-1.5v-29Z"/>
  <path class="cls-35" d="M-3.73,52.42c0-.72.58-1.3,1.3-1.3h21c.72,0,1.3.58,1.3,1.3v29c0,.72-.58,1.3-1.3,1.3H-2.43c-.72,0-1.3-.58-1.3-1.3v-29Z"/>
  <path class="cls-18" d="M-2.43,82.92h21c.83,0,1.5-.67,1.5-1.5v-1c0,.83-.67,1.5-1.5,1.5H-2.43c-.83,0-1.5-.67-1.5-1.5v1c0,.83.67,1.5,1.5,1.5Z"/>
  <g class="cls-38">
    <path class="cls-18" d="M18.57,81.92H-2.43v2h21v-2ZM-2.43,81.92c-.28,0-.5-.22-.5-.5h-2c0,1.38,1.12,2.5,2.5,2.5v-2ZM19.07,81.42c0,.28-.22.5-.5.5v2c1.38,0,2.5-1.12,2.5-2.5h-2ZM18.57,80.92H-2.43v2h21v-2ZM-2.43,80.92c-.28,0-.5-.22-.5-.5h-2c0,1.38,1.12,2.5,2.5,2.5v-2ZM19.07,80.42c0,.28-.22.5-.5.5v2c1.38,0,2.5-1.12,2.5-2.5h-2ZM-2.93,81.42v-1h-2v1h2ZM21.07,81.42v-1h-2v1h2Z"/>
  </g>
  <path class="cls-28" d="M.56,69.92v-5.76h2.74c.43,0,.79.07,1.1.22.31.15.55.36.71.62.17.27.26.58.26.94s-.09.67-.26.94c-.17.27-.41.49-.72.64-.3.15-.67.22-1.09.22h-1.76v-.94h1.7c.28,0,.5-.08.66-.23.16-.16.24-.37.24-.62s-.08-.46-.24-.62c-.15-.15-.37-.23-.66-.23h-1.44v4.82H.56ZM6.53,69.92v-.96h1.46c.42,0,.77-.08,1.06-.25.29-.17.51-.4.66-.7.15-.29.23-.63.23-1.01s-.07-.7-.22-.98c-.15-.28-.37-.5-.66-.66-.29-.16-.64-.24-1.06-.24h-1.43v-.96h1.43c.65,0,1.21.12,1.69.35.48.23.85.56,1.11.99.27.43.4.93.4,1.52s-.13,1.1-.4,1.54c-.27.43-.64.77-1.12,1.01-.47.23-1.03.35-1.67.35h-1.46ZM5.77,69.92v-5.76h1.23v5.76h-1.23ZM11.66,69.92v-5.76h1.23v5.76h-1.23ZM12.24,67.69v-.94h3.3v.94h-3.3ZM12.24,65.1v-.94h3.49v.94h-3.49Z"/>
  <path class="cls-21" d="M80.07,94.42c0-.83.67-1.5,1.5-1.5h21c.83,0,1.5.67,1.5,1.5v29c0,.83-.67,1.5-1.5,1.5h-21c-.83,0-1.5-.67-1.5-1.5v-29Z"/>
  <path class="cls-21" d="M80.07,94.42c0-.83.67-1.5,1.5-1.5h21c.83,0,1.5.67,1.5,1.5v29c0,.83-.67,1.5-1.5,1.5h-21c-.83,0-1.5-.67-1.5-1.5v-29Z"/>
  <path class="cls-35" d="M80.27,94.42c0-.72.58-1.3,1.3-1.3h21c.72,0,1.3.58,1.3,1.3v29c0,.72-.58,1.3-1.3,1.3h-21c-.72,0-1.3-.58-1.3-1.3v-29Z"/>
  <path class="cls-18" d="M81.57,124.92h21c.83,0,1.5-.67,1.5-1.5v-1c0,.83-.67,1.5-1.5,1.5h-21c-.83,0-1.5-.67-1.5-1.5v1c0,.83.67,1.5,1.5,1.5Z"/>
  <path class="cls-1" d="M86.9,100.92h10.33c1.57,0,2.83,1.3,2.83,2.91v10.19c0,1.61-1.27,2.91-2.83,2.91h-10.33c-1.57,0-2.83-1.3-2.83-2.91v-10.19c0-1.61,1.27-2.91,2.83-2.91Z"/>
  <path class="cls-10" d="M87.47,112.14v-7.04s.02-.08.07-.08c.12,0,.23,0,.38,0,.16,0,.33,0,.52-.01.18,0,.38,0,.59-.01.21,0,.42,0,.62,0,.56,0,1.03.07,1.41.21.34.12.66.31.92.56.22.22.39.48.5.78.1.29.16.58.16.89,0,.59-.14,1.07-.41,1.46-.27.38-.66.67-1.1.83-.46.17-.98.23-1.54.23-.16,0-.27,0-.34,0-.07,0-.16,0-.29,0v2.19s-.03.09-.08.1h-1.33c-.05,0-.08-.03-.08-.09ZM88.96,106.35v2.3c.1,0,.18.01.27.01h.36c.27,0,.53-.04.79-.12.22-.06.41-.19.56-.36.14-.17.21-.4.21-.7,0-.21-.05-.42-.16-.61-.12-.18-.28-.32-.48-.39-.25-.1-.53-.14-.81-.14-.18,0-.33,0-.46,0-.14,0-.23,0-.28,0Z"/>
  <path class="cls-10" d="M96.9,108.23c-.21-.11-.42-.18-.66-.23-.25-.06-.51-.09-.77-.09-.14,0-.28.01-.41.05-.09.02-.16.07-.21.14-.03.05-.05.12-.05.18s.03.12.07.18c.06.07.14.14.23.18.16.08.32.16.49.22.37.12.72.29,1.05.5.23.14.41.33.54.57.11.22.16.46.16.7,0,.32-.09.64-.27.91-.19.27-.46.49-.76.61-.34.14-.75.22-1.24.22-.31,0-.62-.03-.93-.09-.24-.04-.48-.12-.7-.22-.05-.03-.08-.07-.08-.13v-1.19s0-.05.03-.06.04,0,.06,0c.27.16.55.27.85.33.26.07.53.1.81.1s.44-.03.57-.1c.11-.05.18-.16.18-.29,0-.1-.05-.18-.16-.27-.11-.09-.33-.19-.67-.32-.35-.12-.67-.29-.97-.49-.21-.15-.39-.35-.52-.58-.11-.22-.16-.46-.16-.7,0-.29.08-.57.23-.83.17-.27.42-.49.72-.63.32-.16.72-.24,1.21-.24.28,0,.57.02.85.06.21.03.4.08.59.16.03,0,.05.03.07.06,0,.03.01.05.01.08v1.11s-.01.06-.03.07c-.06.01-.1.01-.12,0Z"/>
  <path class="cls-21" d="M-3.93,94.42c0-.83.67-1.5,1.5-1.5h21c.83,0,1.5.67,1.5,1.5v29c0,.83-.67,1.5-1.5,1.5H-2.43c-.83,0-1.5-.67-1.5-1.5v-29Z"/>
  <path class="cls-21" d="M-3.93,94.42c0-.83.67-1.5,1.5-1.5h21c.83,0,1.5.67,1.5,1.5v29c0,.83-.67,1.5-1.5,1.5H-2.43c-.83,0-1.5-.67-1.5-1.5v-29Z"/>
  <path class="cls-35" d="M-3.73,94.42c0-.72.58-1.3,1.3-1.3h21c.72,0,1.3.58,1.3,1.3v29c0,.72-.58,1.3-1.3,1.3H-2.43c-.72,0-1.3-.58-1.3-1.3v-29Z"/>
  <path class="cls-18" d="M-2.43,124.92h21c.83,0,1.5-.67,1.5-1.5v-1c0,.83-.67,1.5-1.5,1.5H-2.43c-.83,0-1.5-.67-1.5-1.5v1c0,.83.67,1.5,1.5,1.5Z"/>
  <g class="cls-43">
    <path class="cls-18" d="M18.57,123.92H-2.43v2h21v-2ZM-2.43,123.92c-.28,0-.5-.22-.5-.5h-2c0,1.38,1.12,2.5,2.5,2.5v-2ZM19.07,123.42c0,.28-.22.5-.5.5v2c1.38,0,2.5-1.12,2.5-2.5h-2ZM18.57,122.92H-2.43v2h21v-2ZM-2.43,122.92c-.28,0-.5-.22-.5-.5h-2c0,1.38,1.12,2.5,2.5,2.5v-2ZM19.07,122.42c0,.28-.22.5-.5.5v2c1.38,0,2.5-1.12,2.5-2.5h-2ZM-2.93,123.42v-1h-2v1h2ZM21.07,123.42v-1h-2v1h2Z"/>
  </g>
  <g class="cls-37">
    <g>
      <path class="cls-32" d="M14.89,101.42H3.97c-.38,0-.68.31-.68.68v3.04l6.33,1.86,5.95-1.86v-3.04c0-.38-.31-.68-.68-.68Z"/>
      <path class="cls-34" d="M15.57,105.14H3.29v3.72l6.33,1.12,5.95-1.12v-3.72Z"/>
      <path class="cls-23" d="M3.29,108.86v3.72l5.95.74,6.33-.74v-3.72H3.29Z"/>
      <path class="cls-20" d="M3.97,116.3h10.91c.38,0,.68-.31.68-.68v-3.04H3.29v3.04c0,.38.31.68.68.68Z"/>
      <path class="cls-22" d="M7.82,104.39H3.29v9.3h4.53c.38,0,.68-.31.68-.68v-7.94c0-.38-.31-.68-.68-.68Z"/>
      <path class="cls-29" d="M7.07,104.77h-3.78v8.56h3.78c.38,0,.68-.31.68-.68v-7.19c0-.38-.31-.68-.68-.68Z"/>
      <path class="cls-26" d="M.25,104.77h6.82c.38,0,.68.31.68.68v6.82c0,.38-.31.68-.68.68H.25c-.38,0-.68-.31-.68-.68v-6.82c0-.38.31-.68.68-.68Z"/>
      <path class="cls-33" d="M2.37,110c.01.1.02.2.03.28h.02c0-.07.02-.16.04-.27.02-.1.04-.19.05-.27l.72-3.1h.93l.74,3.05c.04.19.07.38.09.58h.01c.01-.19.04-.37.08-.56l.59-3.07h.84l-1.04,4.44h-.99l-.71-2.94c-.02-.08-.04-.19-.07-.33-.03-.14-.04-.24-.05-.3h-.01c0,.07-.02.18-.05.32-.02.14-.04.25-.06.32l-.66,2.93h-1l-1.05-4.43h.86l.65,3.1c.01.06.03.15.04.25Z"/>
    </g>
  </g>
  <path class="cls-21" d="M38.07,73.42c0-.83.67-1.5,1.5-1.5h21c.83,0,1.5.67,1.5,1.5v29c0,.83-.67,1.5-1.5,1.5h-21c-.83,0-1.5-.67-1.5-1.5v-29Z"/>
  <path class="cls-21" d="M38.07,73.42c0-.83.67-1.5,1.5-1.5h21c.83,0,1.5.67,1.5,1.5v29c0,.83-.67,1.5-1.5,1.5h-21c-.83,0-1.5-.67-1.5-1.5v-29Z"/>
  <path class="cls-35" d="M38.27,73.42c0-.72.58-1.3,1.3-1.3h21c.72,0,1.3.58,1.3,1.3v29c0,.72-.58,1.3-1.3,1.3h-21c-.72,0-1.3-.58-1.3-1.3v-29Z"/>
  <path class="cls-18" d="M39.57,103.92h21c.83,0,1.5-.67,1.5-1.5v-1c0,.83-.67,1.5-1.5,1.5h-21c-.83,0-1.5-.67-1.5-1.5v1c0,.83.67,1.5,1.5,1.5Z"/>
  <g class="cls-42">
    <path class="cls-18" d="M60.57,102.92h-21v2h21v-2ZM39.57,102.92c-.28,0-.5-.22-.5-.5h-2c0,1.38,1.12,2.5,2.5,2.5v-2ZM61.07,102.42c0,.28-.22.5-.5.5v2c1.38,0,2.5-1.12,2.5-2.5h-2ZM60.57,101.92h-21v2h21v-2ZM39.57,101.92c-.28,0-.5-.22-.5-.5h-2c0,1.38,1.12,2.5,2.5,2.5v-2ZM61.07,101.42c0,.28-.22.5-.5.5v2c1.38,0,2.5-1.12,2.5-2.5h-2ZM39.07,102.42v-1h-2v1h2ZM63.07,102.42v-1h-2v1h2Z"/>
  </g>
  <g class="cls-39">
    <g>
      <path class="cls-19" d="M51.61,87.49l-6.33-1.12v8.25c0,.38.31.68.68.68h10.92c.38,0,.68-.31.68-.68v-3.04l-5.95-4.09Z"/>
      <path class="cls-16" d="M51.61,80.42h-5.64c-.38,0-.68.31-.68.68v3.04l6.33,3.72,3.35,1.12,2.6-1.12v-3.72l-5.95-3.72Z"/>
      <path class="cls-5" d="M45.29,84.14h6.33v3.72h-6.33v-3.72Z"/>
      <path class="cls-14" d="M49.82,83.39h-4.53v9.3h4.53c.38,0,.68-.31.68-.68v-7.94c0-.38-.31-.68-.68-.68Z"/>
      <path class="cls-7" d="M49.44,83.77h-4.16v9.3h4.16c.38,0,.68-.31.68-.68v-7.94c0-.38-.31-.68-.68-.68Z"/>
      <path class="cls-7" d="M49.44,83.77h-4.16v8.56h4.16c.38,0,.68-.31.68-.68v-7.19c0-.38-.31-.68-.68-.68Z"/>
      <path class="cls-7" d="M49.07,83.77h-3.78v8.56h3.78c.38,0,.68-.31.68-.68v-7.19c0-.38-.31-.68-.68-.68Z"/>
      <path class="cls-27" d="M42.25,83.77h6.82c.38,0,.68.31.68.68v6.82c0,.38-.31.68-.68.68h-6.82c-.38,0-.68-.31-.68-.68v-6.82c0-.38.31-.68.68-.68Z"/>
      <path class="cls-33" d="M43.68,90.08l1.43-2.22-1.31-2.21h1.06l.72,1.41c.07.13.11.23.14.3h0c.05-.11.1-.21.15-.31l.77-1.4h.97l-1.35,2.2,1.38,2.24h-1.03l-.83-1.55c-.04-.07-.07-.14-.1-.21h-.01c-.02.07-.06.14-.1.2l-.85,1.56h-1.04Z"/>
      <path class="cls-30" d="M56.89,80.42h-5.27v3.72h5.95v-3.04c0-.38-.31-.68-.68-.68Z"/>
      <path class="cls-5" d="M51.61,87.86h5.95v3.72h-5.95v-3.72Z"/>
    </g>
  </g>
  <path class="cls-21" d="M35.57,57.92c-.83,0-1.5-.67-1.5-1.5v-21c0-.83.67-1.5,1.5-1.5h29c.83,0,1.5.67,1.5,1.5v21c0,.83-.67,1.5-1.5,1.5h-29Z"/>
  <path class="cls-35" d="M34.27,35.42c0-.72.58-1.3,1.3-1.3h29c.72,0,1.3.58,1.3,1.3v21c0,.72-.58,1.3-1.3,1.3h-29c-.72,0-1.3-.58-1.3-1.3v-21Z"/>
  <path class="cls-18" d="M35.57,57.92h29c.83,0,1.5-.67,1.5-1.5v-1c0,.83-.67,1.5-1.5,1.5h-29c-.83,0-1.5-.67-1.5-1.5v1c0,.83.67,1.5,1.5,1.5Z"/>
  <path class="cls-8" d="M46.5,41.13l9.03,4.51c.22.11.22.43,0,.54l-9.03,4.51c-.2.1-.43-.05-.43-.27v-9.03c0-.22.23-.37.43-.27Z"/>
  <path class="cls-21" d="M38.07-10.58c0-.83.67-1.5,1.5-1.5h21c.83,0,1.5.67,1.5,1.5v29c0,.83-.67,1.5-1.5,1.5h-21c-.83,0-1.5-.67-1.5-1.5V-10.58Z"/>
  <path class="cls-21" d="M38.07-10.58c0-.83.67-1.5,1.5-1.5h21c.83,0,1.5.67,1.5,1.5v29c0,.83-.67,1.5-1.5,1.5h-21c-.83,0-1.5-.67-1.5-1.5V-10.58Z"/>
  <path class="cls-35" d="M38.27-10.58c0-.72.58-1.3,1.3-1.3h21c.72,0,1.3.58,1.3,1.3v29c0,.72-.58,1.3-1.3,1.3h-21c-.72,0-1.3-.58-1.3-1.3V-10.58Z"/>
  <path class="cls-18" d="M39.57,19.92h21c.83,0,1.5-.67,1.5-1.5v-1c0,.83-.67,1.5-1.5,1.5h-21c-.83,0-1.5-.67-1.5-1.5v1c0,.83.67,1.5,1.5,1.5Z"/>
  <path class="cls-17" d="M44.9-4.08h10.33c1.57,0,2.83,1.3,2.83,2.91v10.19c0,1.61-1.27,2.91-2.83,2.91h-10.33c-1.57,0-2.83-1.3-2.83-2.91V-1.18c0-1.61,1.27-2.91,2.83-2.91Z"/>
  <path class="cls-15" d="M49.78,5.94h-2.54l-.52,1.61c-.01.06-.07.1-.13.1h-1.29c-.08,0-.1-.04-.08-.12l2.2-6.34c.02-.07.04-.14.07-.23.03-.14.04-.29.04-.44,0-.03.02-.07.05-.08h1.77c.05,0,.08.02.09.05l2.5,7.04c.02.08,0,.11-.07.11h-1.43s-.1-.03-.11-.08l-.56-1.63ZM47.63,4.55h1.74c-.04-.14-.1-.31-.16-.49-.06-.18-.12-.38-.18-.59-.07-.21-.13-.42-.2-.63-.07-.21-.13-.41-.18-.61-.05-.19-.1-.37-.15-.53h-.01c-.06.29-.14.59-.23.88-.1.33-.21.67-.31,1.01-.1.35-.2.67-.3.96Z"/>
  <path class="cls-15" d="M53.47,1.63c-.23,0-.44-.08-.61-.24-.16-.17-.24-.4-.23-.63,0-.23.08-.45.25-.61s.38-.24.61-.24c.27,0,.47.08.62.24.15.16.23.38.23.61,0,.23-.08.46-.24.63-.16.16-.39.25-.62.24ZM52.7,7.57V2.3c0-.07.03-.1.09-.1h1.35c.06,0,.09.03.09.1v5.26c0,.08-.03.11-.09.11h-1.34c-.07,0-.1-.04-.1-.11Z"/>
  <path class="cls-21" d="M38.07,115.42c0-.83.67-1.5,1.5-1.5h10.66c1.19,0,2.33.42,3.24,1.19l6.84,5.81c1.12.95,1.76,2.34,1.76,3.81v19.69c0,.83-.67,1.5-1.5,1.5h-21c-.83,0-1.5-.67-1.5-1.5v-29Z"/>
  <path class="cls-35" d="M38.27,115.42c0-.72.58-1.3,1.3-1.3h10.66c1.14,0,2.24.41,3.11,1.14l6.84,5.81c1.07.91,1.69,2.25,1.69,3.66v19.69c0,.72-.58,1.3-1.3,1.3h-21c-.72,0-1.3-.58-1.3-1.3v-29Z"/>
  <path class="cls-36" d="M50.77,114.14v-.02c.85.04,1.66.37,2.31.92l7.33,6.23c.87.74,1.39,1.81,1.45,2.94h-.02c-.06-.25-.21-.47-.39-.63-.22-.21-.52-.37-.79-.37h-7.6c-.72,0-1.3-.58-1.3-1.3v-6.6c0-.27-.16-.57-.37-.79-.16-.17-.39-.33-.63-.39Z"/>
  <path class="cls-21" d="M77.57,36.92c-.83,0-1.5-.67-1.5-1.5V14.42c0-.83.67-1.5,1.5-1.5h29c.83,0,1.5.67,1.5,1.5v21c0,.83-.67,1.5-1.5,1.5h-29Z"/>
  <path class="cls-35" d="M76.27,14.42c0-.72.58-1.3,1.3-1.3h29c.72,0,1.3.58,1.3,1.3v21c0,.72-.58,1.3-1.3,1.3h-29c-.72,0-1.3-.58-1.3-1.3V14.42Z"/>
  <path class="cls-18" d="M77.57,36.92h29c.83,0,1.5-.67,1.5-1.5v-1c0,.83-.67,1.5-1.5,1.5h-29c-.83,0-1.5-.67-1.5-1.5v1c0,.83.67,1.5,1.5,1.5Z"/>
  <g class="cls-41">
    <path class="cls-18" d="M106.57,35.92h-29v2h29v-2ZM77.57,35.92c-.28,0-.5-.22-.5-.5h-2c0,1.38,1.12,2.5,2.5,2.5v-2ZM107.07,35.42c0,.28-.22.5-.5.5v2c1.38,0,2.5-1.12,2.5-2.5h-2ZM106.57,34.92h-29v2h29v-2ZM77.57,34.92c-.28,0-.5-.22-.5-.5h-2c0,1.38,1.12,2.5,2.5,2.5v-2ZM107.07,34.42c0,.28-.22.5-.5.5v2c1.38,0,2.5-1.12,2.5-2.5h-2ZM77.07,35.42v-1h-2v1h2ZM109.07,35.42v-1h-2v1h2Z"/>
  </g>
  <g class="cls-40">
    <g>
      <path class="cls-9" d="M93.74,25.6l-1.12-8.19h-.08c-4.06.01-7.35,3.3-7.36,7.36v.08l8.56.74Z"/>
      <path class="cls-3" d="M92.71,17.42h-.08v7.44l3.72,1.49,3.72-1.49v-.08c-.01-4.06-3.3-7.35-7.36-7.36Z"/>
      <path class="cls-4" d="M100.07,24.86v.08c-.01,4.06-3.3,7.35-7.36,7.36h-.16c-4.06-.01-7.35-3.3-7.36-7.36v-.08h14.88Z"/>
      <path class="cls-14" d="M93,21.08v7.94c0,.28-.17.52-.42.63-.08.03-.17.05-.26.05h-5.38c-.1-.12-.2-.25-.3-.37-.95-1.26-1.46-2.8-1.46-4.38v-.16c0-1.43.41-2.82,1.2-4.01.08-.13.17-.25.26-.37h5.67c.37,0,.68.31.68.68Z"/>
      <path class="cls-7" d="M92.63,21.45v7.94c0,.09-.02.18-.05.26-.11.26-.35.42-.63.42h-4.67c-.12-.12-.23-.24-.34-.37-.1-.12-.2-.25-.3-.37-.95-1.26-1.46-2.8-1.46-4.38v-.16c0-1.43.41-2.82,1.2-4.01h5.56c.37,0,.68.31.68.68Z"/>
      <path class="cls-7" d="M92.63,21.45v7.2c0,.37-.31.68-.68.68h-5.3c-.95-1.26-1.46-2.8-1.46-4.38v-.16c0-1.43.41-2.82,1.2-4.01h5.56c.37,0,.68.31.68.68Z"/>
      <path class="cls-7" d="M92.25,21.45v7.2c0,.37-.31.68-.68.68h-4.93c-.95-1.26-1.46-2.8-1.46-4.38v-.16c0-1.43.41-2.82,1.2-4.01h5.19c.37,0,.68.31.68.68Z"/>
      <path class="cls-25" d="M84.75,20.77h6.82c.38,0,.68.31.68.68v6.82c0,.38-.31.68-.68.68h-6.82c-.38,0-.68-.31-.68-.68v-6.82c0-.38.31-.68.68-.68Z"/>
      <path class="cls-33" d="M88.24,22.59c.44-.03.88.1,1.24.36.3.27.46.66.43,1.05,0,.28-.07.55-.21.79-.15.23-.36.42-.61.54-.28.13-.6.2-.91.19h-.86v1.6h-.88v-4.54h1.8ZM87.32,24.82h.76c.24.02.48-.05.67-.2.16-.15.24-.37.23-.59,0-.5-.29-.75-.87-.75h-.79v1.54h0Z"/>
    </g>
  </g>
  <path class="cls-31" d="M-7.93,13.92c0-1.66,1.34-3,3-3H.07c3.37,0,3.79,3,8,3h13c1.66,0,3,1.34,3,3v18c0,1.66-1.34,3-3,3H-4.93c-1.66,0-3-1.34-3-3V13.92Z"/>
  <path class="cls-12" d="M-7.93,13.92c0-1.66,1.34-3,3-3H.07c3.37,0,3.79,3,8,3h13c1.66,0,3,1.34,3,3v18c0,1.66-1.34,3-3,3H-4.93c-1.66,0-3-1.34-3-3V13.92Z"/>
  <g>
    <path class="cls-24" d="M-7.93,34.92v-14c0-1.66,1.34-3,3-3h26c1.66,0,3,1.34,3,3v14c0,1.66-1.34,3-3,3H-4.93c-1.66,0-3-1.34-3-3Z"/>
    <path class="cls-13" d="M-7.93,34.92v-14c0-1.66,1.34-3,3-3h26c1.66,0,3,1.34,3,3v14c0,1.66-1.34,3-3,3H-4.93c-1.66,0-3-1.34-3-3Z"/>
  </g>
</svg>