<svg fill="none" height="265" viewBox="0 0 332 265" width="332" xmlns="http://www.w3.org/2000/svg" xmlns:xlink="http://www.w3.org/1999/xlink"><filter id="a" color-interpolation-filters="sRGB" filterUnits="userSpaceOnUse" height="208" width="208" x="62" y="-8"><feFlood flood-opacity="0" result="BackgroundImageFix"/><feColorMatrix in="SourceAlpha" result="hardAlpha" type="matrix" values="0 0 0 0 0 0 0 0 0 0 0 0 0 0 0 0 0 0 127 0"/><feOffset dy="32"/><feGaussianBlur stdDeviation="20"/><feComposite in2="hardAlpha" operator="out"/><feColorMatrix type="matrix" values="0 0 0 0 0 0 0 0 0 0 0 0 0 0 0 0 0 0 0.04 0"/><feBlend in2="BackgroundImageFix" mode="normal" result="effect1_dropShadow_2970_19125"/><feBlend in="SourceGraphic" in2="effect1_dropShadow_2970_19125" mode="normal" result="shape"/></filter><filter id="b" color-interpolation-filters="sRGB" filterUnits="userSpaceOnUse" height="88" width="128" x="102" y="28"><feFlood flood-opacity="0" result="BackgroundImageFix"/><feBlend in="SourceGraphic" in2="BackgroundImageFix" mode="normal" result="shape"/><feColorMatrix in="SourceAlpha" result="hardAlpha" type="matrix" values="0 0 0 0 0 0 0 0 0 0 0 0 0 0 0 0 0 0 127 0"/><feOffset dy="-8"/><feGaussianBlur stdDeviation="4"/><feComposite in2="hardAlpha" k2="-1" k3="1" operator="arithmetic"/><feColorMatrix type="matrix" values="0 0 0 0 0.321569 0 0 0 0 0.686275 0 0 0 0 0.878431 0 0 0 0.32 0"/><feBlend in2="shape" mode="normal" result="effect1_innerShadow_2970_19125"/></filter><filter id="c" color-interpolation-filters="sRGB" filterUnits="userSpaceOnUse" height="66" width="66" x="183" y="73"><feFlood flood-opacity="0" result="BackgroundImageFix"/><feColorMatrix in="SourceAlpha" result="hardAlpha" type="matrix" values="0 0 0 0 0 0 0 0 0 0 0 0 0 0 0 0 0 0 127 0"/><feOffset dy="4"/><feGaussianBlur stdDeviation="6"/><feComposite in2="hardAlpha" operator="out"/><feColorMatrix type="matrix" values="0 0 0 0 0 0 0 0 0 0 0 0 0 0 0 0 0 0 0.25 0"/><feBlend in2="BackgroundImageFix" mode="normal" result="effect1_dropShadow_2970_19125"/><feBlend in="SourceGraphic" in2="effect1_dropShadow_2970_19125" mode="normal" result="shape"/></filter><filter id="d" color-interpolation-filters="sRGB" filterUnits="userSpaceOnUse" height="54" width="65.0254" x="133.488" y="174"><feFlood flood-opacity="0" result="BackgroundImageFix"/><feColorMatrix in="SourceAlpha" result="hardAlpha" type="matrix" values="0 0 0 0 0 0 0 0 0 0 0 0 0 0 0 0 0 0 127 0"/><feOffset dy="8"/><feGaussianBlur stdDeviation="12"/><feComposite in2="hardAlpha" operator="out"/><feColorMatrix type="matrix" values="0 0 0 0 0 0 0 0 0 0 0 0 0 0 0 0 0 0 0.06 0"/><feBlend in2="BackgroundImageFix" mode="normal" result="effect1_dropShadow_2970_19125"/><feBlend in="SourceGraphic" in2="effect1_dropShadow_2970_19125" mode="normal" result="shape"/></filter><filter id="e" color-interpolation-filters="sRGB" filterUnits="userSpaceOnUse" height="81" width="332" x="0" y="184"><feFlood flood-opacity="0" result="BackgroundImageFix"/><feColorMatrix in="SourceAlpha" result="hardAlpha" type="matrix" values="0 0 0 0 0 0 0 0 0 0 0 0 0 0 0 0 0 0 127 0"/><feOffset dy="12"/><feGaussianBlur stdDeviation="12"/><feComposite in2="hardAlpha" operator="out"/><feColorMatrix type="matrix" values="0 0 0 0 0 0 0 0 0 0 0 0 0 0 0 0 0 0 0.06 0"/><feBlend in2="BackgroundImageFix" mode="normal" result="effect1_dropShadow_2970_19125"/><feBlend in="SourceGraphic" in2="effect1_dropShadow_2970_19125" mode="normal" result="shape"/></filter><linearGradient id="f" gradientUnits="userSpaceOnUse" x1="165.999" x2="165.999" y1="28" y2="52"><stop offset="0" stop-color="#52afe0"/><stop offset="1" stop-color="#00529e" stop-opacity=".1"/></linearGradient><radialGradient id="g" cx="0" cy="0" gradientTransform="matrix(0 48 -76.8001 0 166 52)" gradientUnits="userSpaceOnUse" r="1"><stop offset="0" stop-color="#fff"/><stop offset="1" stop-color="#fff" stop-opacity="0"/></radialGradient><g filter="url(#a)"><path d="m102 20c0-6.6274 5.373-12 12-12h19.999c13.474 0 15.158 12 32 12h52.001c6.627 0 12 5.3726 12 12v72c0 6.627-5.373 12-12 12h-104c-6.627 0-12-5.373-12-12z" fill="#52afe0"/><path d="m102 20c0-6.6274 5.373-12 12-12h19.999c13.474 0 15.158 12 32 12h52.001c6.627 0 12 5.3726 12 12v72c0 6.627-5.373 12-12 12h-104c-6.627 0-12-5.373-12-12z" fill="url(#f)" fill-opacity=".2"/><g filter="url(#b)"><path d="m102 104v-56c0-6.6274 5.373-12 12-12h104c6.627 0 12 5.3726 12 12v56c0 6.627-5.373 12-12 12h-104c-6.627 0-12-5.373-12-12z" fill="#73d0fa"/><path d="m102 104v-56c0-6.6274 5.373-12 12-12h104c6.627 0 12 5.3726 12 12v56c0 6.627-5.373 12-12 12h-104c-6.627 0-12-5.373-12-12z" fill="url(#g)" fill-opacity=".16"/></g></g><rect fill="#d1d1d7" height="24" rx="6" width="128" x="102" y="139"/><g filter="url(#c)"><path clip-rule="evenodd" d="m230.966 112c1.978-2.96 3.034-6.44 3.034-10-.005-4.7723-1.903-9.3476-5.278-12.7221-3.374-3.3745-7.95-5.2726-12.722-5.2779-3.56 0-7.04 1.0557-10 3.0335-2.96 1.9779-5.267 4.7891-6.63 8.0782-1.362 3.2891-1.719 6.9083-1.024 10.4003.694 3.491 2.409 6.699 4.926 9.216s5.725 4.232 9.216 4.926c3.492.695 7.111.338 10.4-1.024 3.289-1.363 6.101-3.67 8.078-6.63zm-6.449-14.7653c-.101-.2431-.249-.4639-.435-.6497-.186-.1863-.406-.3342-.649-.4353-.242-.101-.502-.1533-.765-.1538-.263-.0004-.523.0509-.766.1511s-.464.2474-.65.433l-7.919 7.92-2.585-2.582c-.186-.186-.407-.333-.65-.434s-.503-.152-.766-.152-.524.051-.767.152-.464.248-.65.434-.334.407-.434.65c-.101.243-.153.504-.153.767s.052.524.153.767c.1.243.248.464.434.65l4 4c.186.186.407.334.65.435s.503.153.767.153c.263 0 .524-.052.767-.153s.464-.249.649-.435l9.334-9.3337c.186-.1858.334-.4066.435-.6497s.153-.5037.153-.7669c0-.2633-.052-.5239-.153-.767z" fill="#2dae4d" fill-rule="evenodd"/><path d="m224.082 96.585c.186.1858.334.4066.435.6497s.153.5037.153.767c0 .2632-.052.5238-.153.7669s-.249.4639-.435.6497l-9.334 9.3337c-.185.186-.406.334-.649.435s-.504.153-.767.153c-.264 0-.524-.052-.767-.153s-.464-.249-.65-.435l-4-4c-.186-.186-.334-.407-.434-.65-.101-.243-.153-.504-.153-.767s.052-.524.153-.767c.1-.243.248-.464.434-.65s.407-.333.65-.434.504-.152.767-.152.523.051.766.152.464.248.65.434l2.585 2.582 7.919-7.92c.186-.1856.407-.3328.65-.433s.503-.1515.766-.1511c.263.0005.523.0528.765.1538.243.1011.463.249.649.4353z" fill="#fff"/><path d="m235.5 102v-.002c-.006-5.1692-2.062-10.1253-5.717-13.7807-3.656-3.6554-8.612-5.7116-13.781-5.7173h-.002c-3.857 0-7.627 1.1437-10.834 3.2863-3.206 2.1427-5.706 5.1882-7.182 8.7514-1.476 3.5631-1.862 7.4843-1.109 11.2663.752 3.783 2.609 7.257 5.336 9.985 2.728 2.727 6.202 4.584 9.985 5.336 3.782.753 7.703.367 11.266-1.109s6.609-3.976 8.752-7.182c2.142-3.207 3.286-6.977 3.286-10.834z" stroke="#fff" stroke-width="3"/></g><g filter="url(#d)"><path d="m172.928 195.449-5.343-4.898c-.801-.735-2.369-.735-3.17 0l-5.342 4.898c-.4.367-.992.551-1.585.551h17.025c-.592 0-1.185-.184-1.585-.551z" fill="#2c2c30"/></g><g filter="url(#e)"><rect fill="#2c2c30" height="33" rx="6" shape-rendering="crispEdges" width="284" x="24" y="196"/><path d="m36.98 217v-9.8h2.184c1.2413 0 2.268.215 3.08.644s1.4047 1.013 1.778 1.75c.3827.728.574 1.563.574 2.506s-.1913 1.783-.574 2.52c-.3733.728-.966 1.307-1.778 1.736s-1.8387.644-3.08.644zm2.17-1.078c1.5587 0 2.6693-.336 3.332-1.008.6627-.681.994-1.619.994-2.814s-.3313-2.128-.994-2.8c-.6627-.681-1.7733-1.022-3.332-1.022h-1.064v7.644zm8.1502 1.078h-1.078v-6.538h1.078zm-.532-8.484c-.196 0-.3687-.07-.518-.21s-.224-.308-.224-.504c0-.205.0747-.378.224-.518s.322-.21.518-.21.364.07.504.21c.1493.14.224.313.224.518 0 .196-.0747.364-.224.504-.14.14-.308.21-.504.21zm4.1877 8.61c-.532 0-1.0173-.135-1.456-.406-.4293-.28-.7093-.621-.84-1.022l1.036-.322c.252.513.6487.77 1.19.77.3454 0 .6114-.084.798-.252.1867-.177.28-.401.28-.672 0-.224-.084-.401-.252-.532s-.4713-.289-.91-.476c-.6346-.233-1.1013-.504-1.4-.812-.2986-.308-.448-.705-.448-1.19 0-.579.1914-1.036.574-1.372.392-.336.868-.504 1.428-.504.4294 0 .8074.103 1.134.308.336.205.5694.471.7.798l-.938.49c-.0746-.187-.196-.331-.364-.434-.1586-.112-.3453-.168-.56-.168-.2706 0-.49.075-.658.224-.1586.14-.238.35-.238.63 0 .252.0794.443.238.574.168.121.4807.275.938.462.5694.233 1.0174.495 1.344.784.3267.28.49.681.49 1.204 0 .56-.2006 1.022-.602 1.386-.4013.355-.896.532-1.484.532zm7.2012-6.79c.5786 0 1.1153.154 1.61.462.504.299.9053.709 1.204 1.232.2986.523.448 1.092.448 1.708s-.1494 1.185-.448 1.708c-.2987.513-.7.924-1.204 1.232-.4947.299-1.0314.448-1.61.448-.4947 0-.9427-.084-1.344-.252-.4014-.177-.7514-.425-1.05-.742v4.13h-1.078v-9.8h1.078v.868c.2986-.317.6486-.56 1.05-.728.4013-.177.8493-.266 1.344-.266zm-.14 5.726c.42 0 .8073-.103 1.162-.308.364-.215.6486-.499.854-.854.2146-.355.322-.742.322-1.162 0-.429-.1074-.821-.322-1.176-.2054-.355-.49-.635-.854-.84-.3547-.205-.742-.308-1.162-.308s-.812.103-1.176.308c-.3547.205-.6347.485-.84.84-.2054.355-.308.747-.308 1.176 0 .42.1026.807.308 1.162.2146.355.4993.639.854.854.3546.205.742.308 1.162.308zm8.0875 1.064c-.616 0-1.1853-.149-1.708-.448-.5227-.308-.938-.719-1.246-1.232-.2987-.523-.448-1.092-.448-1.708s.1493-1.185.448-1.708c.308-.523.7233-.933 1.246-1.232.5227-.308 1.092-.462 1.708-.462s1.1807.154 1.694.462c.5227.299.9333.709 1.232 1.232.308.523.462 1.092.462 1.708s-.154 1.185-.462 1.708c-.2987.513-.7093.924-1.232 1.232-.5133.299-1.078.448-1.694.448zm0-1.064c.42 0 .8073-.103 1.162-.308.3547-.215.6347-.499.84-.854.2147-.355.322-.742.322-1.162 0-.429-.1073-.821-.322-1.176-.2053-.355-.4853-.635-.84-.84s-.742-.308-1.162-.308c-.4293 0-.8213.103-1.176.308s-.6393.485-.854.84c-.2053.355-.308.747-.308 1.176 0 .42.1027.807.308 1.162.2147.355.4993.639.854.854.3547.205.7467.308 1.176.308zm7.6601-5.726c.4293 0 .8213.107 1.176.322.364.215.6533.504.868.868.2146.355.322.747.322 1.176v4.298h-1.078v-4.228c0-.401-.14-.737-.42-1.008-.2707-.28-.602-.42-.994-.42-.4014 0-.742.135-1.022.406-.2707.261-.4107.583-.42.966v4.284h-1.078v-6.538h1.078v.462c.448-.392.9706-.588 1.568-.588zm5.1859 6.664h-1.078v-6.538h1.078zm-.532-8.484c-.196 0-.3687-.07-.518-.21-.1494-.14-.224-.308-.224-.504 0-.205.0746-.378.224-.518.1493-.14.322-.21.518-.21s.364.07.504.21c.1493.14.224.313.224.518 0 .196-.0747.364-.224.504-.14.14-.308.21-.504.21zm5.9611 1.82c.5787 0 1.1154.154 1.61.462.504.299.9054.709 1.204 1.232.2987.523.448 1.092.448 1.708s-.1493 1.185-.448 1.708c-.2986.513-.7.924-1.204 1.232-.4946.299-1.0313.448-1.61.448-.4946 0-.9426-.084-1.344-.252-.4013-.177-.7513-.425-1.05-.742v.868h-1.078v-9.8h1.078v4.13c.2987-.317.6487-.56 1.05-.728.4014-.177.8494-.266 1.344-.266zm-.14 5.726c.42 0 .8074-.103 1.162-.308.364-.215.6487-.499.854-.854.2147-.355.322-.742.322-1.162 0-.429-.1073-.821-.322-1.176-.2053-.355-.49-.635-.854-.84-.3546-.205-.742-.308-1.162-.308s-.812.103-1.176.308c-.3546.205-.6346.485-.84.84-.2053.355-.308.747-.308 1.176 0 .42.1027.807.308 1.162.2147.355.4994.639.854.854.3547.205.742.308 1.162.308zm6.0995.938h-1.0779v-9.8h1.0779zm8.3972-3.094h-5.712c.028.392.1493.756.364 1.092.2147.327.4947.588.84.784.3453.187.7233.28 1.134.28.4013 0 .7747-.098 1.12-.294.3547-.205.6393-.481.854-.826l.98.392c-.28.551-.686.989-1.218 1.316-.5227.317-1.1013.476-1.736.476-.616 0-1.1853-.149-1.708-.448-.5227-.308-.938-.719-1.246-1.232-.2987-.523-.448-1.092-.448-1.708s.1493-1.185.448-1.708c.308-.523.7233-.933 1.246-1.232.5227-.308 1.092-.462 1.708-.462.6067 0 1.1667.149 1.68.448.5133.289.924.691 1.232 1.204s.4667 1.078.476 1.694zm-3.374-2.492c-.504 0-.9567.14-1.358.42-.392.28-.6673.644-.826 1.092h4.34c-.168-.448-.448-.812-.84-1.092-.3827-.28-.8213-.42-1.316-.42zm9.7286 5.586h-1.078v-9.8h1.078zm5.023.126c-.616 0-1.185-.149-1.708-.448-.522-.308-.938-.719-1.246-1.232-.298-.523-.448-1.092-.448-1.708s.15-1.185.448-1.708c.308-.523.724-.933 1.246-1.232.523-.308 1.092-.462 1.708-.462s1.181.154 1.694.462c.523.299.934.709 1.232 1.232.308.523.462 1.092.462 1.708s-.154 1.185-.462 1.708c-.298.513-.709.924-1.232 1.232-.513.299-1.078.448-1.694.448zm0-1.064c.42 0 .808-.103 1.162-.308.355-.215.635-.499.84-.854.215-.355.322-.742.322-1.162 0-.429-.107-.821-.322-1.176-.205-.355-.485-.635-.84-.84-.354-.205-.742-.308-1.162-.308-.429 0-.821.103-1.176.308-.354.205-.639.485-.854.84-.205.355-.308.747-.308 1.176 0 .42.103.807.308 1.162.215.355.5.639.854.854.355.205.747.308 1.176.308zm7.786-5.726c.215 0 .43.042.644.126v1.106c-.177-.103-.382-.154-.616-.154-.494 0-.905.201-1.232.602-.326.401-.49.901-.49 1.498v3.486h-1.078v-6.538h1.078v1.036c.178-.373.406-.658.686-.854.28-.205.616-.308 1.008-.308zm3.863 6.79c-.532 0-1.018-.135-1.456-.406-.43-.28-.71-.621-.84-1.022l1.036-.322c.252.513.648.77 1.19.77.345 0 .611-.084.798-.252.186-.177.28-.401.28-.672 0-.224-.084-.401-.252-.532s-.472-.289-.91-.476c-.635-.233-1.102-.504-1.4-.812-.299-.308-.448-.705-.448-1.19 0-.579.191-1.036.574-1.372.392-.336.868-.504 1.428-.504.429 0 .807.103 1.134.308.336.205.569.471.7.798l-.938.49c-.075-.187-.196-.331-.364-.434-.159-.112-.346-.168-.56-.168-.271 0-.49.075-.658.224-.159.14-.238.35-.238.63 0 .252.079.443.238.574.168.121.48.275.938.462.569.233 1.017.495 1.344.784.326.28.49.681.49 1.204 0 .56-.201 1.022-.602 1.386-.402.355-.896.532-1.484.532zm9.049-6.664h1.078v9.8h-1.078v-4.13c-.29.317-.64.565-1.05.742-.402.168-.85.252-1.344.252-.579 0-1.12-.149-1.624-.448-.495-.308-.892-.719-1.19-1.232-.299-.523-.448-1.092-.448-1.708s.149-1.185.448-1.708c.298-.523.695-.933 1.19-1.232.504-.308 1.045-.462 1.624-.462.494 0 .942.089 1.344.266.41.168.76.411 1.05.728zm-2.254 5.6c.42 0 .807-.103 1.162-.308.354-.215.634-.499.84-.854.214-.355.322-.742.322-1.162 0-.429-.103-.821-.308-1.176-.206-.355-.49-.635-.854-.84-.355-.205-.742-.308-1.162-.308s-.812.103-1.176.308c-.355.205-.64.485-.854.84-.206.355-.308.747-.308 1.176 0 .42.102.807.308 1.162.214.355.499.639.854.854.364.205.756.308 1.176.308zm7.667 1.064c-.746 0-1.344-.224-1.792-.672s-.672-1.05-.672-1.806v-4.186h1.064v4.074c0 .467.131.84.392 1.12.262.271.598.406 1.008.406.42 0 .756-.135 1.008-.406.252-.28.378-.653.378-1.12v-4.074h1.078v4.186c0 .756-.224 1.358-.672 1.806s-1.045.672-1.792.672zm10.787-3.22h-5.712c.028.392.149.756.364 1.092.214.327.494.588.84.784.345.187.723.28 1.134.28.401 0 .774-.098 1.12-.294.354-.205.639-.481.854-.826l.98.392c-.28.551-.686.989-1.218 1.316-.523.317-1.102.476-1.736.476-.616 0-1.186-.149-1.708-.448-.523-.308-.938-.719-1.246-1.232-.299-.523-.448-1.092-.448-1.708s.149-1.185.448-1.708c.308-.523.723-.933 1.246-1.232.522-.308 1.092-.462 1.708-.462.606 0 1.166.149 1.68.448.513.289.924.691 1.232 1.204s.466 1.078.476 1.694zm-3.374-2.492c-.504 0-.957.14-1.358.42-.392.28-.668.644-.826 1.092h4.34c-.168-.448-.448-.812-.84-1.092-.383-.28-.822-.42-1.316-.42zm11.143 4.144 1.974-5.096h1.148l-2.618 6.538h-1.036l-2.618-6.538h1.162zm7.314 1.568c-.616 0-1.186-.149-1.708-.448-.523-.308-.938-.719-1.246-1.232-.299-.523-.448-1.092-.448-1.708s.149-1.185.448-1.708c.308-.523.723-.933 1.246-1.232.522-.308 1.092-.462 1.708-.462s1.18.154 1.694.462c.522.299.933.709 1.232 1.232.308.523.462 1.092.462 1.708s-.154 1.185-.462 1.708c-.299.513-.71.924-1.232 1.232-.514.299-1.078.448-1.694.448zm0-1.064c.42 0 .807-.103 1.162-.308.354-.215.634-.499.84-.854.214-.355.322-.742.322-1.162 0-.429-.108-.821-.322-1.176-.206-.355-.486-.635-.84-.84-.355-.205-.742-.308-1.162-.308-.43 0-.822.103-1.176.308-.355.205-.64.485-.854.84-.206.355-.308.747-.308 1.176 0 .42.102.807.308 1.162.214.355.499.639.854.854.354.205.746.308 1.176.308zm7.394 1.064c-.747 0-1.344-.224-1.792-.672s-.672-1.05-.672-1.806v-4.186h1.064v4.074c0 .467.131.84.392 1.12.261.271.597.406 1.008.406.42 0 .756-.135 1.008-.406.252-.28.378-.653.378-1.12v-4.074h1.078v4.186c0 .756-.224 1.358-.672 1.806s-1.045.672-1.792.672zm6.236 0c-.532 0-1.017-.135-1.456-.406-.429-.28-.709-.621-.84-1.022l1.036-.322c.252.513.649.77 1.19.77.346 0 .612-.084.798-.252.187-.177.28-.401.28-.672 0-.224-.084-.401-.252-.532s-.471-.289-.91-.476c-.634-.233-1.101-.504-1.4-.812-.298-.308-.448-.705-.448-1.19 0-.579.192-1.036.574-1.372.392-.336.868-.504 1.428-.504.43 0 .808.103 1.134.308.336.205.57.471.7.798l-.938.49c-.074-.187-.196-.331-.364-.434-.158-.112-.345-.168-.56-.168-.27 0-.49.075-.658.224-.158.14-.238.35-.238.63 0 .252.08.443.238.574.168.121.481.275.938.462.57.233 1.018.495 1.344.784.327.28.49.681.49 1.204 0 .56-.2 1.022-.602 1.386-.401.355-.896.532-1.484.532zm10.012-6.79c.43 0 .822.107 1.176.322.364.215.654.504.868.868.215.355.322.747.322 1.176v4.298h-1.078v-4.228c0-.401-.14-.737-.42-1.008-.27-.28-.602-.42-.994-.42-.401 0-.742.135-1.022.406-.27.261-.41.583-.42.966v4.284h-1.078v-6.538h1.078v.462c.448-.392.971-.588 1.568-.588zm4.903 1.358h-.784l-.112-4.494h1.008zm8.284 2.212h-5.712c.028.392.149.756.364 1.092.215.327.495.588.84.784.345.187.723.28 1.134.28.401 0 .775-.098 1.12-.294.355-.205.639-.481.854-.826l.98.392c-.28.551-.686.989-1.218 1.316-.523.317-1.101.476-1.736.476-.616 0-1.185-.149-1.708-.448-.523-.308-.938-.719-1.246-1.232-.299-.523-.448-1.092-.448-1.708s.149-1.185.448-1.708c.308-.523.723-.933 1.246-1.232.523-.308 1.092-.462 1.708-.462.607 0 1.167.149 1.68.448.513.289.924.691 1.232 1.204s.467 1.078.476 1.694zm-3.374-2.492c-.504 0-.957.14-1.358.42-.392.28-.667.644-.826 1.092h4.34c-.168-.448-.448-.812-.84-1.092-.383-.28-.821-.42-1.316-.42zm.056-3.556-1.302 1.526-.546-.336 1.288-1.89h1.092l1.302 1.89-.56.336zm6.71 2.604h1.386v1.008h-1.386v5.53h-1.092v-5.53h-1.386v-1.008h1.386v-2.352h1.092zm9.008 3.444h-5.712c.028.392.15.756.364 1.092.215.327.495.588.84.784.346.187.724.28 1.134.28.402 0 .775-.098 1.12-.294.355-.205.64-.481.854-.826l.98.392c-.28.551-.686.989-1.218 1.316-.522.317-1.101.476-1.736.476-.616 0-1.185-.149-1.708-.448-.522-.308-.938-.719-1.246-1.232-.298-.523-.448-1.092-.448-1.708s.15-1.185.448-1.708c.308-.523.724-.933 1.246-1.232.523-.308 1.092-.462 1.708-.462.607 0 1.167.149 1.68.448.514.289.924.691 1.232 1.204s.467 1.078.476 1.694zm-3.374-2.492c-.504 0-.956.14-1.358.42-.392.28-.667.644-.826 1.092h4.34c-.168-.448-.448-.812-.84-1.092-.382-.28-.821-.42-1.316-.42zm6.904 5.712c-.532 0-1.017-.135-1.456-.406-.429-.28-.709-.621-.84-1.022l1.036-.322c.252.513.649.77 1.19.77.346 0 .612-.084.798-.252.187-.177.28-.401.28-.672 0-.224-.084-.401-.252-.532s-.471-.289-.91-.476c-.634-.233-1.101-.504-1.4-.812-.298-.308-.448-.705-.448-1.19 0-.579.192-1.036.574-1.372.392-.336.868-.504 1.428-.504.43 0 .808.103 1.134.308.336.205.57.471.7.798l-.938.49c-.074-.187-.196-.331-.364-.434-.158-.112-.345-.168-.56-.168-.27 0-.49.075-.658.224-.158.14-.238.35-.238.63 0 .252.08.443.238.574.168.121.481.275.938.462.57.233 1.018.495 1.344.784.327.28.49.681.49 1.204 0 .56-.2 1.022-.602 1.386-.401.355-.896.532-1.484.532zm10.838-6.79c.579 0 1.116.154 1.61.462.504.299.906.709 1.204 1.232.299.523.448 1.092.448 1.708s-.149 1.185-.448 1.708c-.298.513-.7.924-1.204 1.232-.494.299-1.031.448-1.61.448-.494 0-.942-.084-1.344-.252-.401-.177-.751-.425-1.05-.742v4.13h-1.078v-9.8h1.078v.868c.299-.317.649-.56 1.05-.728.402-.177.85-.266 1.344-.266zm-.14 5.726c.42 0 .808-.103 1.162-.308.364-.215.649-.499.854-.854.215-.355.322-.742.322-1.162 0-.429-.107-.821-.322-1.176-.205-.355-.49-.635-.854-.84-.354-.205-.742-.308-1.162-.308s-.812.103-1.176.308c-.354.205-.634.485-.84.84-.205.355-.308.747-.308 1.176 0 .42.103.807.308 1.162.215.355.5.639.854.854.355.205.742.308 1.162.308zm10.412-5.6h1.064v6.538h-1.064v-.938c-.299.336-.658.597-1.078.784-.411.187-.873.28-1.386.28-.579 0-1.12-.149-1.624-.448-.495-.308-.892-.719-1.19-1.232-.299-.523-.448-1.092-.448-1.708s.149-1.185.448-1.708c.298-.523.695-.933 1.19-1.232.504-.308 1.045-.462 1.624-.462.513 0 .975.093 1.386.28.42.187.779.448 1.078.784zm-2.324 5.6c.42 0 .807-.103 1.162-.308.354-.215.634-.499.84-.854.214-.355.322-.742.322-1.162 0-.429-.103-.821-.308-1.176-.206-.355-.49-.635-.854-.84-.355-.205-.742-.308-1.162-.308s-.812.103-1.176.308c-.355.205-.64.485-.854.84-.206.355-.308.747-.308 1.176 0 .42.102.807.308 1.162.214.355.499.639.854.854.364.205.756.308 1.176.308zm7.232 1.064c-.532 0-1.017-.135-1.456-.406-.429-.28-.709-.621-.84-1.022l1.036-.322c.252.513.649.77 1.19.77.345 0 .611-.084.798-.252.187-.177.28-.401.28-.672 0-.224-.084-.401-.252-.532s-.471-.289-.91-.476c-.635-.233-1.101-.504-1.4-.812s-.448-.705-.448-1.19c0-.579.191-1.036.574-1.372.392-.336.868-.504 1.428-.504.429 0 .807.103 1.134.308.336.205.569.471.7.798l-.938.49c-.075-.187-.196-.331-.364-.434-.159-.112-.345-.168-.56-.168-.271 0-.49.075-.658.224-.159.14-.238.35-.238.63 0 .252.079.443.238.574.168.121.481.275.938.462.569.233 1.017.495 1.344.784.327.28.49.681.49 1.204 0 .56-.201 1.022-.602 1.386-.401.355-.896.532-1.484.532zm13.806-3.22h-5.712c.028.392.149.756.364 1.092.214.327.494.588.84.784.345.187.723.28 1.134.28.401 0 .774-.098 1.12-.294.354-.205.639-.481.854-.826l.98.392c-.28.551-.686.989-1.218 1.316-.523.317-1.102.476-1.736.476-.616 0-1.186-.149-1.708-.448-.523-.308-.938-.719-1.246-1.232-.299-.523-.448-1.092-.448-1.708s.149-1.185.448-1.708c.308-.523.723-.933 1.246-1.232.522-.308 1.092-.462 1.708-.462.606 0 1.166.149 1.68.448.513.289.924.691 1.232 1.204s.466 1.078.476 1.694zm-3.374-2.492c-.504 0-.957.14-1.358.42-.392.28-.668.644-.826 1.092h4.34c-.168-.448-.448-.812-.84-1.092-.383-.28-.822-.42-1.316-.42zm7.66-1.078c.429 0 .821.107 1.176.322.364.215.653.504.868.868.215.355.322.747.322 1.176v4.298h-1.078v-4.228c0-.401-.14-.737-.42-1.008-.271-.28-.602-.42-.994-.42-.401 0-.742.135-1.022.406-.271.261-.411.583-.42.966v4.284h-1.078v-6.538h1.078v.462c.448-.392.971-.588 1.568-.588zm8.959 6.664h-1.078v-9.8h1.078zm3.035 0h-1.078v-6.538h1.078zm-.532-8.484c-.196 0-.368-.07-.518-.21-.149-.14-.224-.308-.224-.504 0-.205.075-.378.224-.518.15-.14.322-.21.518-.21s.364.07.504.21c.15.14.224.313.224.518 0 .196-.074.364-.224.504-.14.14-.308.21-.504.21zm7.756 1.946h1.078v6.552c0 .7-.149 1.302-.448 1.806-.298.513-.704.905-1.218 1.176-.513.271-1.087.406-1.722.406-.728 0-1.376-.177-1.946-.532-.56-.345-.98-.807-1.26-1.386l.91-.588c.178.439.467.789.868 1.05.411.261.887.392 1.428.392.672 0 1.223-.201 1.652-.602.439-.401.658-.975.658-1.722v-.938c-.298.336-.658.597-1.078.784-.41.177-.868.266-1.372.266-.578 0-1.12-.149-1.624-.448-.494-.308-.891-.719-1.19-1.232-.298-.523-.448-1.092-.448-1.708s.15-1.185.448-1.708c.299-.523.696-.933 1.19-1.232.504-.308 1.046-.462 1.624-.462.504 0 .962.093 1.372.28.42.177.78.434 1.078.77zm-2.31 5.6c.42 0 .808-.103 1.162-.308.355-.215.635-.499.84-.854.215-.355.322-.742.322-1.162 0-.429-.107-.821-.322-1.176-.205-.355-.485-.635-.84-.84-.354-.205-.742-.308-1.162-.308-.429 0-.821.103-1.176.308-.354.205-.639.485-.854.84-.205.355-.308.747-.308 1.176 0 .42.103.807.308 1.162.215.355.5.639.854.854.355.205.747.308 1.176.308zm7.988-5.726c.43 0 .822.107 1.176.322.364.215.654.504.868.868.215.355.322.747.322 1.176v4.298h-1.078v-4.228c0-.401-.14-.737-.42-1.008-.27-.28-.602-.42-.994-.42-.401 0-.742.135-1.022.406-.27.261-.41.583-.42.966v4.284h-1.078v-6.538h1.078v.462c.448-.392.971-.588 1.568-.588zm10.685 3.57h-5.712c.028.392.149.756.364 1.092.215.327.495.588.84.784.345.187.723.28 1.134.28.401 0 .775-.098 1.12-.294.355-.205.639-.481.854-.826l.98.392c-.28.551-.686.989-1.218 1.316-.523.317-1.101.476-1.736.476-.616 0-1.185-.149-1.708-.448-.523-.308-.938-.719-1.246-1.232-.299-.523-.448-1.092-.448-1.708s.149-1.185.448-1.708c.308-.523.723-.933 1.246-1.232.523-.308 1.092-.462 1.708-.462.607 0 1.167.149 1.68.448.513.289.924.691 1.232 1.204s.467 1.078.476 1.694zm-3.374-2.492c-.504 0-.957.14-1.358.42-.392.28-.667.644-.826 1.092h4.34c-.168-.448-.448-.812-.84-1.092-.383-.28-.821-.42-1.316-.42z" fill="#fff"/></g></svg>