<svg viewBox="0 0 128 128" fill="none" xmlns="http://www.w3.org/2000/svg">
<path d="M16 6C16 2.68629 18.6863 0 22 0H106C109.314 0 112 2.68629 112 6V122C112 125.314 109.314 128 106 128H22C18.6863 128 16 125.314 16 122V6Z" fill="#FCFCFD"/>
<path d="M16.8 6C16.8 3.12812 19.1281 0.8 22 0.8H106C108.872 0.8 111.2 3.12812 111.2 6V122C111.2 124.872 108.872 127.2 106 127.2H22C19.1281 127.2 16.8 124.872 16.8 122V6Z" stroke="#EBECF0" stroke-width="1.6"/>
<path d="M22 128H106C109.314 128 112 125.314 112 122V118C112 121.314 109.314 124 106 124H22C18.6863 124 16 121.314 16 118V122C16 125.314 18.6863 128 22 128Z" fill="#EBECF0"/>
<path d="M50 50.8V41.2C50 40.5373 49.4627 40 48.8 40H33.2C32.5373 40 32 40.5373 32 41.2V50.8C32 51.4627 32.5373 52 33.2 52H48.8C49.4627 52 50 51.4627 50 50.8Z" fill="#24A148"/>
<path d="M50 68.8V59.2C50 58.5373 49.4627 58 48.8 58H33.2C32.5373 58 32 58.5373 32 59.2V68.8C32 69.4627 32.5373 70 33.2 70H48.8C49.4627 70 50 69.4627 50 68.8Z" fill="#24A148"/>
<path d="M73.0001 50.8V41.2C73.0001 40.5373 72.4629 40 71.8001 40H56.2042C55.5415 40 55.0042 40.5373 55.0042 41.2V50.8C55.0042 51.4627 55.5415 52 56.2042 52H71.8001C72.4629 52 73.0001 51.4627 73.0001 50.8Z" fill="#24A148"/>
<path d="M72.9961 68.8004L72.9997 59.2004C72.9999 58.5375 72.4626 58 71.7997 58H56.2038C55.5412 58 55.004 58.537 55.0038 59.1996L55.0002 68.7996C54.9999 69.4625 55.5372 70 56.2002 70H71.7961C72.4586 70 72.9958 69.463 72.9961 68.8004Z" fill="#24A148"/>
<path d="M50 86.8V77.2C50 76.5373 49.4627 76 48.8 76H33.2C32.5373 76 32 76.5373 32 77.2V86.8C32 87.4627 32.5373 88 33.2 88H48.8C49.4627 88 50 87.4627 50 86.8Z" fill="#24A148"/>
<path d="M72.9961 86.8004L72.9997 77.2005C72.9999 76.5375 72.4626 76 71.7997 76H56.2038C55.5412 76 55.004 76.537 55.0038 77.1996L55.0002 86.7995C54.9999 87.4625 55.5372 88 56.2002 88H71.7961C72.4586 88 72.9958 87.463 72.9961 86.8004Z" fill="#24A148"/>
<path d="M96 50.8V41.2C96 40.5373 95.4627 40 94.8 40H79.2C78.5373 40 78 40.5373 78 41.2V50.8C78 51.4627 78.5373 52 79.2 52H94.8C95.4627 52 96 51.4627 96 50.8Z" fill="#24A148"/>
<path d="M96 68.8V59.2C96 58.5373 95.4627 58 94.8 58H79.2C78.5373 58 78 58.5373 78 59.2V68.8C78 69.4627 78.5373 70 79.2 70H94.8C95.4627 70 96 69.4627 96 68.8Z" fill="#24A148"/>
<path d="M96 86.8V77.2C96 76.5373 95.4627 76 94.8 76H79.2C78.5373 76 78 76.5373 78 77.2V86.8C78 87.4627 78.5373 88 79.2 88H94.8C95.4627 88 96 87.4627 96 86.8Z" fill="#24A148"/>
</svg>
