<svg viewBox="0 0 128 128" fill="none" xmlns="http://www.w3.org/2000/svg">
<g filter="url(#filter0_i_1302_1849)">
<path d="M16 6C16 2.68629 18.6863 0 22 0H106C109.314 0 112 2.68629 112 6V122C112 125.314 109.314 128 106 128H22C18.6863 128 16 125.314 16 122V6Z" fill="#FCFCFD"/>
</g>
<path d="M16 6C16 2.68629 18.6863 0 22 0H106C109.314 0 112 2.68629 112 6V122C112 125.314 109.314 128 106 128H22C18.6863 128 16 125.314 16 122V6Z" fill="#FCFCFD"/>
<path d="M16.8 6C16.8 3.12812 19.1281 0.8 22 0.8H106C108.872 0.8 111.2 3.12812 111.2 6V122C111.2 124.872 108.872 127.2 106 127.2H22C19.1281 127.2 16.8 124.872 16.8 122V6Z" stroke="#EBECF0" stroke-width="1.6"/>
<path d="M22 128H106C109.314 128 112 125.314 112 122V118C112 121.314 109.314 124 106 124H22C18.6863 124 16 121.314 16 118V122C16 125.314 18.6863 128 22 128Z" fill="#EBECF0"/>
<g clip-path="url(#clip0_1302_1849)">
<path d="M64 64C64 61.3478 65.0536 58.8043 66.9289 56.9289C68.8043 55.0536 71.3478 54 74 54C76.6522 54 79.1957 55.0536 81.0711 56.9289C82.9464 58.8043 84 61.3478 84 64C84 66.6522 82.9464 69.1957 81.0711 71.0711C79.1957 72.9464 76.6522 74 74 74C71.3478 74 68.8043 72.9464 66.9289 71.0711C65.0536 69.1957 64 66.6522 64 64Z" fill="#1ABCFE"/>
<path d="M44 84C44 81.3478 45.0536 78.8043 46.9289 76.9289C48.8043 75.0536 51.3478 74 54 74H64V84C64 86.6522 62.9464 89.1957 61.0711 91.0711C59.1957 92.9464 56.6522 94 54 94C51.3478 94 48.8043 92.9464 46.9289 91.0711C45.0536 89.1957 44 86.6522 44 84V84Z" fill="#0ACF83"/>
<path d="M64 34V54H74C76.6522 54 79.1957 52.9464 81.0711 51.0711C82.9464 49.1957 84 46.6522 84 44C84 41.3478 82.9464 38.8043 81.0711 36.9289C79.1957 35.0536 76.6522 34 74 34H64Z" fill="#FF7262"/>
<path d="M44 44C44 46.6522 45.0536 49.1957 46.9289 51.0711C48.8043 52.9464 51.3478 54 54 54H64V34H54C51.3478 34 48.8043 35.0536 46.9289 36.9289C45.0536 38.8043 44 41.3478 44 44V44Z" fill="#F24E1E"/>
<path d="M44 64C44 66.6522 45.0536 69.1957 46.9289 71.0711C48.8043 72.9464 51.3478 74 54 74H64V54H54C51.3478 54 48.8043 55.0536 46.9289 56.9289C45.0536 58.8043 44 61.3478 44 64V64Z" fill="#A259FF"/>
</g>
<defs>
<filter id="filter0_i_1302_1849" x="16" y="0" width="96" height="128" filterUnits="userSpaceOnUse" color-interpolation-filters="sRGB">
<feFlood flood-opacity="0" result="BackgroundImageFix"/>
<feBlend mode="normal" in="SourceGraphic" in2="BackgroundImageFix" result="shape"/>
<feColorMatrix in="SourceAlpha" type="matrix" values="0 0 0 0 0 0 0 0 0 0 0 0 0 0 0 0 0 0 127 0" result="hardAlpha"/>
<feOffset dy="-4"/>
<feComposite in2="hardAlpha" operator="arithmetic" k2="-1" k3="1"/>
<feColorMatrix type="matrix" values="0 0 0 0 0 0 0 0 0 0 0 0 0 0 0 0 0 0 0.16 0"/>
<feBlend mode="normal" in2="shape" result="effect1_innerShadow_1302_1849"/>
</filter>
<clipPath id="clip0_1302_1849">
<rect width="40" height="60" fill="white" transform="translate(44 34)"/>
</clipPath>
</defs>
</svg>
