<svg xmlns="http://www.w3.org/2000/svg" fill="none" viewBox="0 0.33 16 13.5">
<path d="M0 1.83325C0 1.00482 0.671571 0.333252 1.49999 0.333252H3.99986C5.68407 0.333252 5.8946 1.83325 7.99985 1.83325H14.4999C15.3284 1.83325 15.9999 2.50482 15.9999 3.33324V12.3332C15.9999 13.1616 15.3284 13.8332 14.4999 13.8332H1.49999C0.67157 13.8332 0 13.1616 0 12.3332V1.83325Z" fill="#52AFE0"/>
<path d="M0 1.83325C0 1.00482 0.671571 0.333252 1.49999 0.333252H3.99986C5.68407 0.333252 5.8946 1.83325 7.99985 1.83325H14.4999C15.3284 1.83325 15.9999 2.50482 15.9999 3.33324V12.3332C15.9999 13.1616 15.3284 13.8332 14.4999 13.8332H1.49999C0.67157 13.8332 0 13.1616 0 12.3332V1.83325Z" fill="url(#paint0_linear_1422_5516)" fill-opacity="0.2"/>
<g filter="url(#filter0_i_1422_5516)">
<path d="M0 12.3332V5.33325C0 4.50482 0.671569 3.83325 1.49999 3.83325L14.4999 3.83325C15.3284 3.83325 15.9999 4.50482 15.9999 5.33325V12.3332C15.9999 13.1616 15.3284 13.8332 14.4999 13.8332H1.49999C0.67157 13.8332 0 13.1616 0 12.3332Z" fill="#73D0FA"/>
<path d="M0 12.3332V5.33325C0 4.50482 0.671569 3.83325 1.49999 3.83325L14.4999 3.83325C15.3284 3.83325 15.9999 4.50482 15.9999 5.33325V12.3332C15.9999 13.1616 15.3284 13.8332 14.4999 13.8332H1.49999C0.67157 13.8332 0 13.1616 0 12.3332Z" fill="url(#paint1_radial_1422_5516)" fill-opacity="0.16"/>
</g>
<defs>
<filter id="filter0_i_1422_5516" x="0" y="2.83326" width="16" height="11" filterUnits="userSpaceOnUse" color-interpolation-filters="sRGB">
<feFlood flood-opacity="0" result="BackgroundImageFix"/>
<feBlend mode="normal" in="SourceGraphic" in2="BackgroundImageFix" result="shape"/>
<feColorMatrix in="SourceAlpha" type="matrix" values="0 0 0 0 0 0 0 0 0 0 0 0 0 0 0 0 0 0 127 0" result="hardAlpha"/>
<feOffset dy="-0.999997"/>
<feGaussianBlur stdDeviation="0.499998"/>
<feComposite in2="hardAlpha" operator="arithmetic" k2="-1" k3="1"/>
<feColorMatrix type="matrix" values="0 0 0 0 0.321569 0 0 0 0 0.686275 0 0 0 0 0.878431 0 0 0 0.32 0"/>
<feBlend mode="normal" in2="shape" result="effect1_innerShadow_1422_5516"/>
</filter>
<linearGradient id="paint0_linear_1422_5516" x1="7.99985" y1="2.83324" x2="7.99985" y2="5.83323" gradientUnits="userSpaceOnUse">
<stop stop-color="#52AFE0"/>
<stop offset="1" stop-color="#00529E" stop-opacity="0.1"/>
</linearGradient>
<radialGradient id="paint1_radial_1422_5516" cx="0" cy="0" r="1" gradientUnits="userSpaceOnUse" gradientTransform="translate(7.99997 5.83325) rotate(90) scale(5.99998 9.59999)">
<stop stop-color="white"/>
<stop offset="1" stop-color="white" stop-opacity="0"/>
</radialGradient>
</defs>
</svg>