<svg viewBox="0 0 128 128" fill="none" xmlns="http://www.w3.org/2000/svg">
<g filter="url(#filter0_i_1302_1883)">
<path d="M16 6C16 2.68629 18.6863 0 22 0H106C109.314 0 112 2.68629 112 6V122C112 125.314 109.314 128 106 128H22C18.6863 128 16 125.314 16 122V6Z" fill="#FCFCFD"/>
</g>
<path d="M16 6C16 2.68629 18.6863 0 22 0H106C109.314 0 112 2.68629 112 6V122C112 125.314 109.314 128 106 128H22C18.6863 128 16 125.314 16 122V6Z" fill="#FCFCFD"/>
<path d="M16.8 6C16.8 3.12812 19.1281 0.8 22 0.8H106C108.872 0.8 111.2 3.12812 111.2 6V122C111.2 124.872 108.872 127.2 106 127.2H22C19.1281 127.2 16.8 124.872 16.8 122V6Z" stroke="#EBECF0" stroke-width="1.6"/>
<path d="M22 128H106C109.314 128 112 125.314 112 122V118C112 121.314 109.314 124 106 124H22C18.6863 124 16 121.314 16 118V122C16 125.314 18.6863 128 22 128Z" fill="#EBECF0"/>
<path d="M43.3333 32H84.6667C90.9333 32 96 37.1966 96 43.6239V84.3761C96 90.8034 90.9333 96 84.6667 96H43.3333C37.0667 96 32 90.8034 32 84.3761V43.6239C32 37.1966 37.0667 32 43.3333 32Z" fill="#330000"/>
<path d="M62.8391 72.0947H52.6647L50.5861 78.5221C50.5314 78.7682 50.3126 78.9323 50.0665 78.905H44.9246C44.6237 78.905 44.5417 78.7409 44.6237 78.4127L53.4306 53.0588C53.5126 52.7853 53.5947 52.4845 53.7041 52.1563C53.8135 51.5819 53.8682 50.9802 53.8682 50.3785C53.8408 50.2417 53.9502 50.105 54.087 50.0776H54.169H61.1707C61.3895 50.0776 61.4989 50.1597 61.5263 50.2964L71.5092 78.4674C71.5912 78.7682 71.5092 78.905 71.2357 78.905H65.5194C65.328 78.9323 65.1365 78.7956 65.0818 78.6041L62.8391 72.0947ZM54.2511 66.5426H61.1981C61.034 65.9682 60.8152 65.2845 60.569 64.5734C60.3229 63.8349 60.0767 63.0417 59.8306 62.2212C59.557 61.3734 59.3109 60.5528 59.0374 59.705C58.7639 58.8571 58.5177 58.064 58.2989 57.2708C58.0801 56.505 57.8887 55.7939 57.6972 55.1375H57.6425C57.3964 56.3135 57.0955 57.4896 56.7126 58.6657C56.3023 59.9785 55.8921 61.346 55.4545 62.7135C55.0716 64.1084 54.6613 65.3939 54.2511 66.5426Z" fill="#FF9A00"/>
<path d="M77.6059 54.865C76.7034 54.8923 75.8281 54.5368 75.1717 53.9077C74.5427 53.2239 74.2145 52.3214 74.2418 51.3915C74.2145 50.4615 74.57 49.5863 75.2264 48.9573C75.8828 48.3282 76.7581 48 77.6606 48C78.7273 48 79.5478 48.3282 80.1495 48.9573C80.7512 49.6137 81.0794 50.4889 81.0521 51.3915C81.0794 52.3214 80.7512 53.2239 80.0948 53.9077C79.4657 54.5641 78.5358 54.9197 77.6059 54.865ZM74.5427 78.6051V57.5453C74.5427 57.2718 74.6521 57.1624 74.8982 57.1624H80.3136C80.5598 57.1624 80.6692 57.2991 80.6692 57.5453V78.6051C80.6692 78.906 80.5598 79.0427 80.3136 79.0427H74.9529C74.6794 79.0427 74.5427 78.8786 74.5427 78.6051Z" fill="#FF9A00"/>
<defs>
<filter id="filter0_i_1302_1883" x="16" y="0" width="96" height="128" filterUnits="userSpaceOnUse" color-interpolation-filters="sRGB">
<feFlood flood-opacity="0" result="BackgroundImageFix"/>
<feBlend mode="normal" in="SourceGraphic" in2="BackgroundImageFix" result="shape"/>
<feColorMatrix in="SourceAlpha" type="matrix" values="0 0 0 0 0 0 0 0 0 0 0 0 0 0 0 0 0 0 127 0" result="hardAlpha"/>
<feOffset dy="-4"/>
<feComposite in2="hardAlpha" operator="arithmetic" k2="-1" k3="1"/>
<feColorMatrix type="matrix" values="0 0 0 0 0 0 0 0 0 0 0 0 0 0 0 0 0 0 0.16 0"/>
<feBlend mode="normal" in2="shape" result="effect1_innerShadow_1302_1883"/>
</filter>
</defs>
</svg>
