<svg viewBox="0 0 255.5 60" class="cws-logo">
            <symbol id="cws-logo" viewBox="0 0 255.5 60">
                <path class="cws-logo-icon" d="M44.4 0h-38.8c-3.1 0-5.6 2.5-5.6 5.5v35.2c0 1.9.8 3.5 2.5 4.6l22.5 14.7 22.5-14.7c1.4-1.1 2.5-2.7 2.5-4.6v-35.2c0-3-2.5-5.5-5.6-5.5zm-8.7 37h-19c-4.8 0-8.7-4.4-8.7-9.8 0-5 3.4-9.1 7.9-9.8 1.8-3.9 5.4-6.5 9.6-6.5 5.4 0 9.8 4.2 10.8 9.8 3.6.3 6.7 3.9 6.7 8.1 0 4.6-3.2 8.2-7.3 8.2z"></path><path class="cws-logo-text" d="M63.9 29.7c0-6.3 3.7-12.3 10.4-12.9 3.1-.3 6 .8 8.1 3.1 0 .3-1 1.1-1.2 1.3-.4.5-.9 1-1.3 1.4-2.3-2.3-5.8-2.8-8.4-.8-2.7 2.1-3.3 5.9-3 9.1.2 2.7 1.2 5.7 3.8 7 2.8 1.5 6.1.5 8.1-1.8l1.2 1.3c.2.2 1.2 1 1.2 1.3-2.2 2.5-5.2 3.8-8.5 3.6-3.1-.2-5.9-1.5-7.8-4-1.9-2.3-2.6-5.5-2.6-8.6zM86.6 15.2h3.6c.7 0 .8-.1.8.6v21.6c0 1 .5 1.7 1.6 1.4.2 1.1.4 2.2.6 3.2.1.4-3 .4-3.3.3-1.1-.2-2.1-.7-2.6-1.8-1-1.8-.7-4.2-.7-6.2v-19.099999999999998zM95.7 32.7c0-5.1 3.4-9.8 8.8-9.8s8.9 4.7 8.9 9.8c0 5.1-3.5 9.7-8.9 9.7s-8.8-4.6-8.8-9.7zm4.4 0c0 2.7 1.1 6.2 4.4 6.2 3.3 0 4.4-3.4 4.4-6.2 0-2.7-1.1-6.2-4.4-6.2-3.3 0-4.4 3.5-4.4 6.2zM117.5 23.4h3.6c.1 0 .8-.1.8 0v9.7c0 1.1-.1 2.2.1 3.3.5 2.5 3.1 3 5.1 1.6.4-.3 1.8-1.3 1.8-1.9v-12.6c0-.3 2.2-.1 2.6-.1.4 0 1.8-.3 1.8.3v17.900000000000002c0 .6-.1.4-.7.4-.2 0-2.8.1-2.9 0l-.3-2.7c-.6.2-1.2 1.2-1.7 1.6-.8.6-1.7 1.2-2.7 1.4-1.7.4-3.8.2-5.2-.9-2.1-1.6-2.2-4.6-2.2-7-.1-3.7-.1-7.4-.1-11zM137.6 32.7c0-3.2 1.2-6.6 3.9-8.5 2.9-2.1 6.3-1.5 8.9.7-.1-2.2-.2-4.4-.2-6.6v-2.1c0-.1-.1-1 0-1.1.1-.1 1.1 0 1.2 0h2.4c.7 0 .8-.2.8.5v26c0 .7-.6.4-1.2.4h-2.1c-.5 0-.4-.5-.5-1-.1-.9 0-1.3-.8-.6-1.1.9-2.4 1.7-3.8 1.9-2.4.4-4.8-.5-6.4-2.3-1.7-1.9-2.2-4.7-2.2-7.3zm4.5 0c0 1.7.2 3.7 1.4 5 1.2 1.3 3.3 1.5 4.8.6.4-.2 1.9-1.1 1.9-1.6v-8.3c0-.5-.4-.7-.8-.9-1.6-1.1-3.9-1.3-5.4 0-1.5 1.3-1.9 3.3-1.9 5.2zM158.2 23.4h3.6c.1 0 .7-.1.8 0 .1.4.2.7.2 1.1.6 2.7 1.2 5.4 1.9 8.1l1.1 5.8c.3 0 .8-3 .9-3.4l.5-2.2 2-7.9c.2-.6.1-1.5.8-1.5h2.1c.3 0 1.3-.2 1.5 0l.2.6.4 1.8 1.2 4.5.7 2.7c.3 1.2.6 2.4.9 3.7.1.2.3 1.7.5 1.7s.4-1.8.5-2c.5-2.9 1.2-5.8 1.9-8.7l1-4.2c0-.2 3.7 0 4.1 0l-3.6 14.1c-.1.4-.9 4.5-1.2 4.5h-4c-.2 0-1 .1-1.1 0-.1-.1-.2-.7-.2-.8l-1.9-7.7c-.2-.8-.4-1.6-.5-2.4l-.4-2.1c-.2-.8-.3-1.7-.5-.4-.3 1.8-.7 3.6-1.1 5.4l-1.9 7.7c-.1.6-1.8.2-2.3.2-.3 0-2.8.1-2.8 0-2-6.2-3.6-12.4-5.3-18.6zM187.3 37c0-4.3 4.4-5.8 7.9-6.4l1.6-.3c.4-.1.7-.1 1.1-.1.5-.1.4-.3.3-.7-.2-1.1-.7-2.2-1.8-2.6-2.2-1-5 .4-6.8 1.5l-1.6-2.9c-.1-.2 3.2-1.6 3.5-1.7 1.4-.5 3-.8 4.5-.7 2.3.1 4.5 1 5.6 3.1.8 1.6 1 3.4 1 5.2v10.7h-3.3c-.6 0-.5-1.5-.6-2-.4.1-.8.5-1.1.8-.6.4-1.3.8-1.9 1.1-1.3.6-2.7.7-4 .5-2.8-.6-4.4-2.9-4.4-5.5zm4.2-.4c0 1.6 1.1 2.4 2.7 2.4.8 0 1.6-.2 2.3-.7.3-.2 1.7-1 1.7-1.4v-4.2c-2.2.4-6.7.9-6.7 3.9zM207.9 23.4c.4 0 3.6-.1 3.6 0l.2 2c.1.8-.1 1.8.6.7.8-1.2 1.8-2.3 3.2-2.8.7-.3 1.4-.4 2.1-.3.2 0 1.8.2 1.8.4l-.8 3.8c-2.5-.8-4.7.3-5.9 2.6-.5 1-.4 1.6-.4 2.7v8.6c0 .9.2 1-.8 1h-2.2c-.2 0-1.3.2-1.4 0-.2-.2 0-1.3 0-1.5v-17.2zM220.5 32.7c0-3.2 1.2-6.6 3.9-8.5 2.9-2.1 6.3-1.5 8.9.7-.1-2.2-.2-4.4-.2-6.6v-2.1c0-.1-.1-1 0-1.1.1-.1 1.1 0 1.2 0h2.4c.7 0 .8-.2.8.5v26c0 .7-.6.4-1.2.4h-2.1c-.5 0-.4-.5-.5-1-.1-.9 0-1.3-.8-.6-1.1.9-2.4 1.7-3.8 1.9-2.4.4-4.8-.5-6.4-2.3-1.7-1.9-2.2-4.7-2.2-7.3zm4.5 0c0 1.7.2 3.7 1.4 5 1.2 1.3 3.3 1.5 4.8.6.4-.2 1.9-1.1 1.9-1.6v-8.3c0-.5-.4-.7-.8-.9-1.6-1.1-3.9-1.3-5.4 0-1.5 1.3-1.9 3.3-1.9 5.2zM243.2 37.1c1.4 1.1 3 2 4.8 2.1 1.4.1 3.1-.3 3.3-2 .2-1.8-1.9-2.4-3.2-3-1.8-.7-3.7-1.4-4.9-2.9-2.1-2.6-.7-6.4 2.2-7.7 3.2-1.5 7.1-.5 9.8 1.5l-1.9 2.5c-.2.2-.1.2-.4 0-.5-.4-1.1-.7-1.7-1-1.1-.5-2.5-.6-3.6-.2-.9.4-1.5 1.4-1.2 2.3.4 1.1 1.9 1.6 2.9 1.9 2.2.8 4.9 1.6 5.9 4 .9 2.1.2 4.6-1.5 6.1-1.8 1.5-4.5 1.9-6.8 1.6-.7-.1-6.1-1.9-5.5-2.6.5-.9 1.2-1.8 1.8-2.6z"></path>
            </symbol>

        </svg>
