<svg width="20" height="19" viewBox="0 0 20 19" fill="none" xmlns="http://www.w3.org/2000/svg">
<path d="M8.76968 12.4977L8.76982 12.4976L8.76123 12.4872L6.84792 10.1599C6.84782 10.1598 6.84773 10.1597 6.84764 10.1596C6.77142 10.0663 6.75 9.98835 6.75 9.92188C6.75 9.78893 6.84918 9.69531 6.96875 9.69531C7.02056 9.69531 7.04406 9.70413 7.06178 9.71367C7.08467 9.726 7.13021 9.75789 7.19973 9.84689L7.20098 9.84847L8.70879 11.7625L9.14862 12.3209L9.52549 11.7182L12.7599 6.54636L12.7599 6.54641L12.7647 6.5385C12.8586 6.38198 12.9304 6.375 12.9688 6.375C13.0501 6.375 13.1172 6.404 13.1578 6.43945C13.1934 6.47047 13.2109 6.50618 13.2109 6.55469C13.2109 6.58314 13.1866 6.67495 13.0863 6.83255C13.0862 6.83274 13.0861 6.83293 13.086 6.83312L9.43437 12.529C9.33199 12.6781 9.22728 12.7188 9.13281 12.7188C9.02246 12.7188 8.91542 12.6851 8.76968 12.4977ZM10 17.9297C14.6899 17.9297 18.5703 14.0577 18.5703 9.35938C18.5703 4.66886 14.6899 0.789062 9.99219 0.789062C5.30135 0.789062 1.42969 4.6698 1.42969 9.35938C1.42969 14.0577 5.31011 17.9297 10 17.9297Z" fill="#42BE65" stroke="#EDF5FF"/>
</svg>
