<svg width="18" height="17" viewBox="0 0 18 17" fill="none" xmlns="http://www.w3.org/2000/svg">
<path d="M9 16.4297C13.4141 16.4297 17.0703 12.7812 17.0703 8.35938C17.0703 3.94531 13.4141 0.289062 8.99219 0.289062C4.57812 0.289062 0.929688 3.94531 0.929688 8.35938C0.929688 12.7812 4.58594 16.4297 9 16.4297ZM8.13281 12.2188C7.83594 12.2188 7.59375 12.0859 7.375 11.8047L5.46094 9.47656C5.32031 9.30469 5.25 9.11719 5.25 8.92188C5.25 8.52344 5.5625 8.19531 5.96875 8.19531C6.21094 8.19531 6.39844 8.28906 6.59375 8.53906L8.10156 10.4531L11.3359 5.28125C11.5 5.00781 11.7188 4.875 11.9688 4.875C12.3594 4.875 12.7109 5.14844 12.7109 5.55469C12.7109 5.73438 12.6172 5.92969 12.5078 6.10156L8.85156 11.8047C8.67188 12.0703 8.42188 12.2188 8.13281 12.2188Z" fill="#42BE65"/>
</svg>
