<svg width="18" height="17" viewBox="0 0 18 17" fill="none" xmlns="http://www.w3.org/2000/svg">
<path d="M6.60156 16.0781H11.3828C12.3906 16.0781 12.9375 15.7422 13.4766 15.1484L16.3203 11.9531C16.8672 11.3438 17.0078 10.9531 17.0078 10.1328V6.64062C17.0078 5.82031 16.8672 5.42969 16.3203 4.82031L13.4766 1.63281C12.9375 1.03125 12.3906 0.695312 11.3828 0.695312H6.60156C5.59375 0.695312 5.04688 1.03125 4.51562 1.63281L1.66406 4.82031C1.125 5.42969 0.984375 5.82031 0.984375 6.64062V10.1328C0.984375 10.9531 1.125 11.3438 1.66406 11.9531L4.51562 15.1484C5.04688 15.7422 5.59375 16.0781 6.60156 16.0781ZM6.32812 11.7969C5.92188 11.7969 5.60156 11.4688 5.60156 11.0547C5.60156 10.8594 5.67969 10.6797 5.82031 10.5391L7.96094 8.39844L5.82031 6.25C5.67969 6.11719 5.60156 5.92969 5.60156 5.74219C5.60156 5.32812 5.92188 5.00781 6.32812 5.00781C6.54688 5.00781 6.71875 5.07812 6.85156 5.21875L9 7.35938L11.1641 5.21094C11.3125 5.0625 11.4766 4.99219 11.6797 4.99219C12.0938 4.99219 12.4141 5.32031 12.4141 5.72656C12.4141 5.92188 12.3438 6.09375 12.1953 6.24219L10.0469 8.39844L12.1875 10.5312C12.3281 10.6797 12.4062 10.8516 12.4062 11.0547C12.4062 11.4688 12.0859 11.7969 11.6719 11.7969C11.4609 11.7969 11.2812 11.7188 11.1328 11.5781L9 9.4375L6.875 11.5781C6.72656 11.7266 6.54688 11.7969 6.32812 11.7969Z" fill="#DA1E28"/>
</svg>
