<svg width="40" height="40" viewBox="0 0 40 40" fill="none" xmlns="http://www.w3.org/2000/svg">
<path d="M0.000244141 7.08336C0.000244141 5.0123 1.67917 3.33337 3.75023 3.33337H9.99991C14.2104 3.33337 14.7367 7.08336 19.9999 7.08336H36.2501C38.3212 7.08336 40.0001 8.76229 40.0001 10.8333V33.3332C40.0001 35.4043 38.3212 37.0832 36.2501 37.0832H3.75023C1.67917 37.0832 0.000244141 35.4043 0.000244141 33.3332V7.08336Z" fill="#52AFE0"/>
<path d="M0.000244141 7.08336C0.000244141 5.0123 1.67917 3.33337 3.75023 3.33337H9.99991C14.2104 3.33337 14.7367 7.08336 19.9999 7.08336H36.2501C38.3212 7.08336 40.0001 8.76229 40.0001 10.8333V33.3332C40.0001 35.4043 38.3212 37.0832 36.2501 37.0832H3.75023C1.67917 37.0832 0.000244141 35.4043 0.000244141 33.3332V7.08336Z" fill="url(#paint0_linear)" fill-opacity="0.2"/>
<g filter="url(#filter0_i)">
<path d="M0 33.3332V15.8334C0 13.7623 1.67892 12.0834 3.74999 12.0834L36.2499 12.0834C38.3209 12.0834 39.9998 13.7623 39.9998 15.8334V33.3332C39.9998 35.4043 38.3209 37.0832 36.2499 37.0832H3.74999C1.67893 37.0832 0 35.4043 0 33.3332Z" fill="#73D0FA"/>
<path d="M0 33.3332V15.8334C0 13.7623 1.67892 12.0834 3.74999 12.0834L36.2499 12.0834C38.3209 12.0834 39.9998 13.7623 39.9998 15.8334V33.3332C39.9998 35.4043 38.3209 37.0832 36.2499 37.0832H3.74999C1.67893 37.0832 0 35.4043 0 33.3332Z" fill="url(#paint1_radial)" fill-opacity="0.16"/>
</g>
<defs>
<filter id="filter0_i" x="0" y="9.58338" width="39.9998" height="27.4998" filterUnits="userSpaceOnUse" color-interpolation-filters="sRGB">
<feFlood flood-opacity="0" result="BackgroundImageFix"/>
<feBlend mode="normal" in="SourceGraphic" in2="BackgroundImageFix" result="shape"/>
<feColorMatrix in="SourceAlpha" type="matrix" values="0 0 0 0 0 0 0 0 0 0 0 0 0 0 0 0 0 0 127 0" result="hardAlpha"/>
<feOffset dy="-2.49999"/>
<feGaussianBlur stdDeviation="1.25"/>
<feComposite in2="hardAlpha" operator="arithmetic" k2="-1" k3="1"/>
<feColorMatrix type="matrix" values="0 0 0 0 0.321569 0 0 0 0 0.686275 0 0 0 0 0.878431 0 0 0 0.32 0"/>
<feBlend mode="normal" in2="shape" result="effect1_innerShadow"/>
</filter>
<linearGradient id="paint0_linear" x1="19.9999" y1="9.58335" x2="19.9999" y2="17.0833" gradientUnits="userSpaceOnUse">
<stop stop-color="#52AFE0"/>
<stop offset="1" stop-color="#00529E" stop-opacity="0.1"/>
</linearGradient>
<radialGradient id="paint1_radial" cx="0" cy="0" r="1" gradientUnits="userSpaceOnUse" gradientTransform="translate(19.9999 17.0834) rotate(90) scale(14.9999 24)">
<stop stop-color="white"/>
<stop offset="1" stop-color="white" stop-opacity="0"/>
</radialGradient>
</defs>
</svg>
