<svg width="20" height="17" viewBox="0 0 20 17" fill="none" xmlns="http://www.w3.org/2000/svg">
<path d="M16.5938 15.1875C16.8359 15.4297 17.2344 15.4297 17.4688 15.1875C17.7109 14.9453 17.7109 14.5547 17.4688 14.3125L4.28125 1.125C4.03906 0.882812 3.63281 0.875 3.39062 1.11719C3.15625 1.35938 3.15625 1.77344 3.39062 2L16.5938 15.1875ZM9.77344 5.26562C9.86719 5.25 9.97656 5.25 10.0781 5.25C12.9688 5.29688 15.3984 6.40625 17.3203 8.375C17.4766 8.53906 17.7266 8.53125 17.8906 8.35938L18.9844 7.26562C19.1406 7.10938 19.1406 6.91406 19.0156 6.75781C17.1016 4.46875 13.6328 2.78125 10 2.78125C9.20312 2.78125 8.41406 2.86719 7.54688 3.03906L9.77344 5.26562ZM4.22656 4.21875C2.92969 4.89844 1.80469 5.76562 0.976562 6.75781C0.859375 6.91406 0.851562 7.10938 1.00781 7.26562L2.10156 8.36719C2.27344 8.53906 2.52344 8.53125 2.6875 8.35156C3.66406 7.32812 4.78125 6.54688 6.03125 6.03125L4.22656 4.21875ZM15.3906 10.8828L15.8516 10.4219C16.0078 10.2734 16.0156 10.0859 15.8828 9.92969C15.0859 8.94531 13.7109 8.09375 12.2188 7.71094L15.3906 10.8828ZM7.73438 7.71875C6.22656 8.13281 4.94531 8.94531 4.10938 9.92969C3.97656 10.0859 3.99219 10.2734 4.14062 10.4219L5.36719 11.625C5.55469 11.7969 5.79688 11.7812 5.97656 11.5938C6.90625 10.5781 8.35938 9.875 9.85156 9.83594L7.73438 7.71875ZM10 11.9688C8.88281 11.9688 7.875 12.5547 7.33594 13.2812C7.25 13.4219 7.28906 13.5859 7.42188 13.7188L9.33594 15.5625C9.64844 15.8594 9.8125 15.9531 10 15.9531C10.1953 15.9531 10.3516 15.8594 10.6719 15.5625L12.5859 13.7188C12.7188 13.5859 12.75 13.375 12.625 13.2188C12.0859 12.5234 11.1016 11.9688 10 11.9688Z" fill="#DA1E28"/>
</svg>
