<svg width="18" height="17" viewBox="0 0 18 17" fill="none" xmlns="http://www.w3.org/2000/svg">
<path d="M9 16.4375C13.4141 16.4375 17.0703 12.7812 17.0703 8.36719C17.0703 3.94531 13.4141 0.289062 8.99219 0.289062C4.57812 0.289062 0.929688 3.94531 0.929688 8.36719C0.929688 12.7812 4.58594 16.4375 9 16.4375ZM9.01562 3.91406C11.2656 3.91406 13.0469 5.41406 13.4375 7.58594H14.1875C14.5859 7.58594 14.6875 7.96875 14.4609 8.28125L13.1797 10.0547C12.9375 10.3828 12.5469 10.3672 12.3203 10.0547L11.0234 8.28125C10.7969 7.97656 10.8984 7.58594 11.2969 7.58594H12.1016C11.75 6.25781 10.5078 5.27344 9.01562 5.27344C8.30469 5.27344 7.76562 5.49219 7.21875 5.90625C6.85938 6.16406 6.46875 6.15625 6.19531 5.83594C5.92969 5.52344 6.01562 5.08594 6.42969 4.77344C7.09375 4.23438 8.03906 3.91406 9.01562 3.91406ZM9.03125 12.7891C6.78125 12.7891 5.00781 11.2891 4.60938 9.11719H3.82031C3.42188 9.11719 3.32812 8.72656 3.55469 8.42188L4.83594 6.64062C5.07031 6.3125 5.46094 6.32812 5.69531 6.64062L6.99219 8.42188C7.21094 8.72656 7.11719 9.11719 6.71875 9.11719H5.94531C6.30469 10.4375 7.53906 11.4219 9.03125 11.4219C9.74219 11.4219 10.2891 11.2031 10.8359 10.7969C11.1953 10.5391 11.5781 10.5391 11.8516 10.8594C12.125 11.1719 12.0391 11.6094 11.625 11.9297C10.9609 12.4609 10.0078 12.7891 9.03125 12.7891Z" fill="#0F62FE"/>
</svg>
