<svg width="20" height="19" viewBox="0 0 20 19" fill="none" xmlns="http://www.w3.org/2000/svg">
<path d="M13.9454 8.67444L14.0194 9.08594H14.4375H14.9852L13.7763 10.7593C13.7654 10.7738 13.7562 10.783 13.7496 10.7887C13.7434 10.7833 13.7349 10.7747 13.7251 10.7612L13.7239 10.7596L12.5 9.08594H13.1016H13.7512L13.5849 8.45798C13.1742 6.90646 11.7304 5.77344 10.0156 5.77344C9.18111 5.77344 8.5399 6.03736 7.92283 6.50316C7.81479 6.57951 7.73907 6.59068 7.70239 6.58865C7.67479 6.58713 7.63229 6.57754 7.57596 6.51174C7.54311 6.47293 7.53926 6.44345 7.54659 6.40911C7.5562 6.36413 7.59735 6.27332 7.73089 6.17254L7.73795 6.16721L7.74481 6.16164C8.30987 5.70294 9.14038 5.41406 10.0156 5.41406C12.0249 5.41406 13.5979 6.74198 13.9454 8.67444ZM6.10117 10.027L6.026 9.61719H5.60938H5.03011L6.24184 7.93259L6.24281 7.93124C6.25094 7.91985 6.25794 7.91207 6.26331 7.90688C6.27077 7.91263 6.2814 7.92244 6.29373 7.93854L7.51591 9.61719H6.94531H6.29102L6.46286 10.2485C6.88189 11.7879 8.31502 12.9219 10.0312 12.9219C10.8648 12.9219 11.513 12.6587 12.1302 12.2011C12.2433 12.1207 12.3196 12.1093 12.3536 12.1109C12.3762 12.1119 12.4151 12.1182 12.4714 12.1841L12.4713 12.1841L12.4753 12.1886C12.5102 12.2285 12.5134 12.257 12.5065 12.2902C12.4971 12.3355 12.4556 12.4286 12.3191 12.5342L12.319 12.5342L12.3127 12.5392C11.7449 12.9934 10.9045 13.2891 10.0312 13.2891C8.0234 13.2891 6.4562 11.9623 6.10117 10.027ZM10 17.9375C14.6902 17.9375 18.5703 14.0573 18.5703 9.36719C18.5703 4.66917 14.6902 0.789062 9.99219 0.789062C5.30103 0.789062 1.42969 4.67011 1.42969 9.36719C1.42969 14.0573 5.3098 17.9375 10 17.9375Z" fill="#0F62FE" stroke="#EDF5FF"/>
</svg>
