<svg width="18" height="17" viewBox="0 0 18 17" fill="none" xmlns="http://www.w3.org/2000/svg">
<path d="M9 16.4297C13.4141 16.4297 17.0703 12.7812 17.0703 8.35938C17.0703 3.94531 13.4141 0.289062 8.99219 0.289062C4.57812 0.289062 0.929688 3.94531 0.929688 8.35938C0.929688 12.7812 4.58594 16.4297 9 16.4297ZM9.00781 12.4609C8.58594 12.4609 8.28125 12.1719 8.28125 11.7578V7.9375L8.35938 6.26562L7.625 7.17188L6.71875 8.11719C6.60156 8.25 6.42188 8.32812 6.22656 8.32812C5.84375 8.32812 5.5625 8.05469 5.5625 7.67188C5.5625 7.47656 5.61719 7.32031 5.75 7.17969L8.4375 4.46875C8.61719 4.28125 8.78906 4.19531 9.00781 4.19531C9.23438 4.19531 9.40625 4.28125 9.58594 4.46875L12.2656 7.17969C12.3984 7.32031 12.4609 7.47656 12.4609 7.67188C12.4609 8.05469 12.1719 8.32812 11.7891 8.32812C11.5938 8.32812 11.4219 8.25781 11.2969 8.11719L10.3984 7.17969L9.65625 6.25781L9.73438 7.9375V11.7578C9.73438 12.1719 9.42969 12.4609 9.00781 12.4609Z" fill="#42BE65"/>
</svg>
