<svg width="18" height="18" viewBox="0 0 18 18" fill="none" xmlns="http://www.w3.org/2000/svg">
<path d="M9 0C4.1211 0 0 4.1211 0 9C0 11.8701 1.4328 14.4702 3.6 16.1316V16.2H3.6918C5.193 17.3205 7.0317 18 9 18C10.9683 18 12.807 17.3205 14.3082 16.2H14.4V16.1316C16.5672 14.4702 18 11.871 18 9C18 4.1211 13.8789 0 9 0ZM5.4666 15.2343C5.7339 14.0238 6.8112 13.1157 8.1 13.1157H9.9C11.1888 13.1157 12.2661 14.0247 12.5334 15.2343C11.4822 15.8436 10.2744 16.2 9 16.2C7.7256 16.2 6.5178 15.8436 5.4666 15.2343ZM14.049 14.0769C13.3677 12.4569 11.7648 11.3157 9.9 11.3157H8.1C6.2352 11.3157 4.6314 12.4578 3.951 14.0769C2.6307 12.7638 1.8 10.9584 1.8 9C1.8 5.0967 5.0967 1.8 9 1.8C12.9033 1.8 16.2 5.0967 16.2 9C16.2 10.9584 15.3693 12.7638 14.049 14.0769Z" fill="#0F62FE"/>
<path d="M9.00002 3.60013C6.94802 3.60013 5.40002 5.14813 5.40002 7.20013C5.40002 9.25213 6.94802 10.8001 9.00002 10.8001C11.052 10.8001 12.6 9.25213 12.6 7.20013C12.6 5.14813 11.052 3.60013 9.00002 3.60013ZM9.00002 9.00013C7.93982 9.00013 7.20002 8.26033 7.20002 7.20013C7.20002 6.13993 7.93982 5.40013 9.00002 5.40013C10.0602 5.40013 10.8 6.13993 10.8 7.20013C10.8 8.26033 10.0602 9.00013 9.00002 9.00013Z" fill="#0F62FE"/>
</svg>
