<svg width="18" height="16" viewBox="0 0 18 16" fill="none" xmlns="http://www.w3.org/2000/svg">
<path d="M2.86719 15.8516H15.125C16.3359 15.8516 17.1094 14.9609 17.1094 13.8672C17.1094 13.5391 17.0234 13.2031 16.8516 12.8906L10.7109 1.92188C10.3359 1.24219 9.67188 0.90625 9 0.90625C8.32812 0.90625 7.65625 1.25 7.28125 1.92188L1.14844 12.8984C0.976562 13.2109 0.882812 13.5391 0.882812 13.8672C0.882812 14.9609 1.66406 15.8516 2.86719 15.8516ZM9.00781 10.5C8.54688 10.5 8.28906 10.2422 8.27344 9.78125L8.16406 5.84375C8.14844 5.36719 8.49219 5.03125 9 5.03125C9.49219 5.03125 9.85156 5.36719 9.83594 5.84375L9.71875 9.77344C9.70312 10.25 9.44531 10.5 9.00781 10.5ZM9.00781 13.1875C8.48438 13.1875 8.04688 12.8125 8.04688 12.2969C8.04688 11.7891 8.47656 11.4062 9.00781 11.4062C9.53125 11.4062 9.96094 11.7812 9.96094 12.2969C9.96094 12.8125 9.52344 13.1875 9.00781 13.1875Z" fill="#F1C21B"/>
</svg>
