<svg width="208" height="281" viewBox="0 0 208 281" fill="none" xmlns="http://www.w3.org/2000/svg">
<g filter="url(#filter0_d_5821_31392)">
<path d="M40 24C40 17.3726 45.3726 12 52 12H71.999C85.4727 12 87.1569 24 103.999 24H156C162.627 24 168 29.3726 168 36V108C168 114.627 162.627 120 156 120H52C45.3726 120 40 114.627 40 108V24Z" fill="#52AFE0"/>
<path d="M40 24C40 17.3726 45.3726 12 52 12H71.999C85.4727 12 87.1569 24 103.999 24H156C162.627 24 168 29.3726 168 36V108C168 114.627 162.627 120 156 120H52C45.3726 120 40 114.627 40 108V24Z" fill="url(#paint0_linear_5821_31392)" fill-opacity="0.2"/>
<g filter="url(#filter1_i_5821_31392)">
<path d="M40 108V52C40 45.3726 45.3726 40 52 40L156 40C162.627 40 168 45.3726 168 52V108C168 114.627 162.627 120 156 120H52C45.3726 120 40 114.627 40 108Z" fill="#73D0FA"/>
<path d="M40 108V52C40 45.3726 45.3726 40 52 40L156 40C162.627 40 168 45.3726 168 52V108C168 114.627 162.627 120 156 120H52C45.3726 120 40 114.627 40 108Z" fill="url(#paint1_radial_5821_31392)" fill-opacity="0.16"/>
</g>
</g>
<rect x="40" y="140" width="128" height="4" rx="2" fill="#E5E5EB"/>
<rect x="40" y="140" width="95" height="4" rx="2" fill="#0066FF"/>
<rect x="40" y="155" width="128" height="24" rx="6" fill="#48484B"/>
<g filter="url(#filter2_d_5821_31392)">
<path d="M110.928 211.449L105.585 206.551C104.784 205.816 103.216 205.816 102.415 206.551L97.0731 211.449C96.6728 211.816 96.0805 212 95.4883 212L112.513 212C111.921 212 111.328 211.816 110.928 211.449Z" fill="white"/>
</g>
<g filter="url(#filter3_d_5821_31392)">
<rect x="43.5" y="212" width="121" height="33" rx="6" fill="white" shape-rendering="crispEdges"/>
<path d="M60.12 234.126C58.944 234.126 58.006 233.837 57.306 233.258C56.6153 232.679 56.2093 231.853 56.088 230.78H57.208C57.3107 231.555 57.6047 232.138 58.09 232.53C58.5753 232.922 59.2473 233.118 60.106 233.118C60.834 233.118 61.38 232.983 61.744 232.712C62.1173 232.432 62.304 232.026 62.304 231.494C62.304 231.037 62.178 230.673 61.926 230.402C61.674 230.131 61.282 229.907 60.75 229.73L59.056 229.142C58.1973 228.843 57.5627 228.484 57.152 228.064C56.7413 227.635 56.536 227.093 56.536 226.44C56.536 225.899 56.6713 225.432 56.942 225.04C57.2127 224.639 57.5953 224.326 58.09 224.102C58.5847 223.878 59.1587 223.766 59.812 223.766C60.82 223.766 61.6273 224.032 62.234 224.564C62.8407 225.087 63.1907 225.833 63.284 226.804H62.164C62.0427 226.104 61.7907 225.591 61.408 225.264C61.0347 224.937 60.4933 224.774 59.784 224.774C59.112 224.774 58.5893 224.909 58.216 225.18C57.8427 225.451 57.656 225.833 57.656 226.328C57.656 226.748 57.7867 227.084 58.048 227.336C58.3093 227.588 58.7153 227.807 59.266 227.994L61.072 228.624C61.856 228.895 62.444 229.263 62.836 229.73C63.228 230.187 63.424 230.771 63.424 231.48C63.424 232.32 63.1347 232.973 62.556 233.44C61.9867 233.897 61.1747 234.126 60.12 234.126ZM68.6656 234.126C67.9936 234.126 67.4289 233.963 66.9716 233.636C66.5142 233.309 66.2016 232.847 66.0336 232.25L66.2576 232.222V236.87H65.1376V226.86H66.1876V228.526L66.0336 228.484C66.2109 227.933 66.5469 227.504 67.0416 227.196C67.5362 226.879 68.1102 226.72 68.7636 226.72C69.3982 226.72 69.9489 226.874 70.4156 227.182C70.8916 227.49 71.2602 227.919 71.5216 228.47C71.7829 229.021 71.9136 229.665 71.9136 230.402C71.9136 231.149 71.7782 231.802 71.5076 232.362C71.2369 232.922 70.8589 233.356 70.3736 233.664C69.8882 233.972 69.3189 234.126 68.6656 234.126ZM68.4976 233.146C69.2069 233.146 69.7622 232.903 70.1636 232.418C70.5649 231.923 70.7656 231.251 70.7656 230.402C70.7656 229.562 70.5649 228.904 70.1636 228.428C69.7622 227.943 69.2069 227.7 68.4976 227.7C67.7882 227.7 67.2282 227.947 66.8176 228.442C66.4069 228.927 66.2016 229.595 66.2016 230.444C66.2016 231.275 66.4069 231.933 66.8176 232.418C67.2282 232.903 67.7882 233.146 68.4976 233.146ZM78.0372 234C77.9998 233.841 77.9718 233.659 77.9532 233.454C77.9438 233.249 77.9392 232.987 77.9392 232.67H77.8692V229.254C77.8692 228.713 77.7432 228.316 77.4912 228.064C77.2485 227.803 76.8518 227.672 76.3012 227.672C75.7598 227.672 75.3258 227.784 74.9992 228.008C74.6818 228.223 74.5045 228.531 74.4672 228.932H73.3892C73.4358 228.241 73.7252 227.7 74.2572 227.308C74.7892 226.916 75.4845 226.72 76.3432 226.72C77.2298 226.72 77.8878 226.93 78.3172 227.35C78.7465 227.77 78.9612 228.4 78.9612 229.24V232.67C78.9612 232.875 78.9752 233.09 79.0032 233.314C79.0312 233.529 79.0685 233.757 79.1152 234H78.0372ZM75.5872 234.14C74.8498 234.14 74.2618 233.963 73.8232 233.608C73.3938 233.244 73.1792 232.749 73.1792 232.124C73.1792 231.499 73.3938 231.013 73.8232 230.668C74.2525 230.323 74.8778 230.08 75.6992 229.94L78.1912 229.52V230.444L75.8672 230.808C75.3445 230.892 74.9478 231.032 74.6772 231.228C74.4065 231.424 74.2712 231.709 74.2712 232.082C74.2712 232.446 74.3925 232.721 74.6352 232.908C74.8872 233.095 75.2558 233.188 75.7412 233.188C76.3665 233.188 76.8752 233.048 77.2672 232.768C77.6685 232.479 77.8692 232.105 77.8692 231.648L78.0512 232.642C77.9018 233.118 77.6078 233.487 77.1692 233.748C76.7398 234.009 76.2125 234.14 75.5872 234.14ZM83.948 234.14C83.2947 234.14 82.7113 233.981 82.198 233.664C81.694 233.337 81.2927 232.894 80.994 232.334C80.7047 231.765 80.56 231.121 80.56 230.402C80.56 229.683 80.7047 229.049 80.994 228.498C81.2927 227.947 81.694 227.513 82.198 227.196C82.7113 226.879 83.29 226.72 83.934 226.72C84.466 226.72 84.942 226.823 85.362 227.028C85.7913 227.233 86.1413 227.527 86.412 227.91C86.692 228.283 86.8693 228.722 86.944 229.226H85.908C85.8147 228.769 85.6 228.395 85.264 228.106C84.928 227.817 84.494 227.672 83.962 227.672C83.5047 227.672 83.108 227.784 82.772 228.008C82.436 228.232 82.1747 228.549 81.988 228.96C81.8013 229.371 81.708 229.851 81.708 230.402C81.708 230.953 81.8013 231.438 81.988 231.858C82.1747 232.278 82.436 232.605 82.772 232.838C83.1173 233.071 83.5187 233.188 83.976 233.188C84.4893 233.188 84.9187 233.048 85.264 232.768C85.6093 232.479 85.8287 232.105 85.922 231.648H86.958C86.874 232.143 86.6873 232.581 86.398 232.964C86.118 233.337 85.768 233.627 85.348 233.832C84.928 234.037 84.4613 234.14 83.948 234.14ZM91.4835 234.14C90.8022 234.14 90.2002 233.981 89.6775 233.664C89.1548 233.337 88.7442 232.894 88.4455 232.334C88.1468 231.774 87.9975 231.13 87.9975 230.402C87.9975 229.674 88.1422 229.035 88.4315 228.484C88.7302 227.924 89.1455 227.49 89.6775 227.182C90.2095 226.874 90.8208 226.72 91.5115 226.72C92.1742 226.72 92.7482 226.865 93.2335 227.154C93.7282 227.443 94.1062 227.849 94.3675 228.372C94.6382 228.895 94.7735 229.511 94.7735 230.22C94.7735 230.313 94.7688 230.402 94.7595 230.486C94.7595 230.57 94.7502 230.663 94.7315 230.766H88.8375V229.828H94.0455L93.6815 230.346C93.6815 229.487 93.4902 228.829 93.1075 228.372C92.7342 227.905 92.2022 227.672 91.5115 227.672C90.8022 227.672 90.2282 227.919 89.7895 228.414C89.3602 228.899 89.1455 229.557 89.1455 230.388C89.1455 231.237 89.3602 231.919 89.7895 232.432C90.2282 232.936 90.8115 233.188 91.5395 233.188C91.9968 233.188 92.3982 233.09 92.7435 232.894C93.0888 232.689 93.3408 232.399 93.4995 232.026H94.5635C94.3302 232.679 93.9382 233.197 93.3875 233.58C92.8462 233.953 92.2115 234.14 91.4835 234.14ZM99.8506 234V225.852C99.8506 225.199 100.037 224.69 100.411 224.326C100.793 223.962 101.372 223.78 102.147 223.78C102.333 223.78 102.478 223.789 102.581 223.808C102.693 223.827 102.786 223.85 102.861 223.878V224.76C102.795 224.741 102.702 224.723 102.581 224.704C102.469 224.685 102.347 224.676 102.217 224.676C101.787 224.676 101.47 224.783 101.265 224.998C101.069 225.213 100.971 225.516 100.971 225.908V234H99.8506ZM98.3806 227.812V226.86H102.707V227.812H98.3806ZM104.212 234V226.86H105.262V228.68H105.332V234H104.212ZM105.332 230.276L105.15 228.582C105.318 227.975 105.616 227.513 106.046 227.196C106.475 226.879 106.97 226.72 107.53 226.72C107.763 226.72 107.922 226.739 108.006 226.776V227.854C107.959 227.835 107.894 227.826 107.81 227.826C107.726 227.817 107.623 227.812 107.502 227.812C106.792 227.812 106.251 228.027 105.878 228.456C105.514 228.876 105.332 229.483 105.332 230.276ZM112.142 234.14C111.46 234.14 110.858 233.981 110.336 233.664C109.813 233.337 109.402 232.894 109.104 232.334C108.805 231.774 108.656 231.13 108.656 230.402C108.656 229.674 108.8 229.035 109.09 228.484C109.388 227.924 109.804 227.49 110.336 227.182C110.868 226.874 111.479 226.72 112.17 226.72C112.832 226.72 113.406 226.865 113.892 227.154C114.386 227.443 114.764 227.849 115.026 228.372C115.296 228.895 115.432 229.511 115.432 230.22C115.432 230.313 115.427 230.402 115.418 230.486C115.418 230.57 115.408 230.663 115.39 230.766H109.496V229.828H114.704L114.34 230.346C114.34 229.487 114.148 228.829 113.766 228.372C113.392 227.905 112.86 227.672 112.17 227.672C111.46 227.672 110.886 227.919 110.448 228.414C110.018 228.899 109.804 229.557 109.804 230.388C109.804 231.237 110.018 231.919 110.448 232.432C110.886 232.936 111.47 233.188 112.198 233.188C112.655 233.188 113.056 233.09 113.402 232.894C113.747 232.689 113.999 232.399 114.158 232.026H115.222C114.988 232.679 114.596 233.197 114.046 233.58C113.504 233.953 112.87 234.14 112.142 234.14ZM120.044 234.14C119.363 234.14 118.761 233.981 118.238 233.664C117.715 233.337 117.305 232.894 117.006 232.334C116.707 231.774 116.558 231.13 116.558 230.402C116.558 229.674 116.703 229.035 116.992 228.484C117.291 227.924 117.706 227.49 118.238 227.182C118.77 226.874 119.381 226.72 120.072 226.72C120.735 226.72 121.309 226.865 121.794 227.154C122.289 227.443 122.667 227.849 122.928 228.372C123.199 228.895 123.334 229.511 123.334 230.22C123.334 230.313 123.329 230.402 123.32 230.486C123.32 230.57 123.311 230.663 123.292 230.766H117.398V229.828H122.606L122.242 230.346C122.242 229.487 122.051 228.829 121.668 228.372C121.295 227.905 120.763 227.672 120.072 227.672C119.363 227.672 118.789 227.919 118.35 228.414C117.921 228.899 117.706 229.557 117.706 230.388C117.706 231.237 117.921 231.919 118.35 232.432C118.789 232.936 119.372 233.188 120.1 233.188C120.557 233.188 120.959 233.09 121.304 232.894C121.649 232.689 121.901 232.399 122.06 232.026H123.124C122.891 232.679 122.499 233.197 121.948 233.58C121.407 233.953 120.772 234.14 120.044 234.14ZM130.214 234V232.334L130.354 232.376C130.177 232.917 129.85 233.347 129.374 233.664C128.908 233.981 128.348 234.14 127.694 234.14C127.05 234.14 126.486 233.986 126 233.678C125.524 233.37 125.151 232.941 124.88 232.39C124.619 231.839 124.488 231.195 124.488 230.458C124.488 229.711 124.624 229.058 124.894 228.498C125.165 227.938 125.543 227.504 126.028 227.196C126.514 226.888 127.083 226.734 127.736 226.734C128.408 226.734 128.973 226.897 129.43 227.224C129.888 227.551 130.2 228.013 130.368 228.61L130.144 228.638V223.92H131.264V234H130.214ZM127.904 233.16C128.623 233.16 129.183 232.917 129.584 232.432C129.995 231.937 130.2 231.265 130.2 230.416C130.2 229.585 129.995 228.927 129.584 228.442C129.174 227.957 128.614 227.714 127.904 227.714C127.195 227.714 126.64 227.957 126.238 228.442C125.837 228.927 125.636 229.599 125.636 230.458C125.636 231.298 125.837 231.961 126.238 232.446C126.64 232.922 127.195 233.16 127.904 233.16ZM138.637 234.14C138.171 234.14 137.755 234.047 137.391 233.86C137.027 233.664 136.743 233.393 136.537 233.048C136.332 232.693 136.229 232.287 136.229 231.83V226.86H137.349V231.536C137.349 232.077 137.48 232.483 137.741 232.754C138.012 233.025 138.395 233.16 138.889 233.16C139.337 233.16 139.734 233.057 140.079 232.852C140.425 232.647 140.695 232.362 140.891 231.998C141.097 231.625 141.199 231.2 141.199 230.724L141.381 232.418C141.148 232.95 140.784 233.37 140.289 233.678C139.795 233.986 139.244 234.14 138.637 234.14ZM141.269 234V232.32H141.199V226.86H142.319V234H141.269ZM148.086 234.126C147.414 234.126 146.849 233.963 146.392 233.636C145.934 233.309 145.622 232.847 145.454 232.25L145.678 232.222V236.87H144.558V226.86H145.608V228.526L145.454 228.484C145.631 227.933 145.967 227.504 146.462 227.196C146.956 226.879 147.53 226.72 148.184 226.72C148.818 226.72 149.369 226.874 149.836 227.182C150.312 227.49 150.68 227.919 150.942 228.47C151.203 229.021 151.334 229.665 151.334 230.402C151.334 231.149 151.198 231.802 150.928 232.362C150.657 232.922 150.279 233.356 149.794 233.664C149.308 233.972 148.739 234.126 148.086 234.126ZM147.918 233.146C148.627 233.146 149.182 232.903 149.584 232.418C149.985 231.923 150.186 231.251 150.186 230.402C150.186 229.562 149.985 228.904 149.584 228.428C149.182 227.943 148.627 227.7 147.918 227.7C147.208 227.7 146.648 227.947 146.238 228.442C145.827 228.927 145.622 229.595 145.622 230.444C145.622 231.275 145.827 231.933 146.238 232.418C146.648 232.903 147.208 233.146 147.918 233.146Z" fill="#262626"/>
</g>
<path d="M180.5 22.5C180.504 23.0097 180.349 23.5078 180.057 23.9258C179.766 24.3439 179.352 24.6613 178.872 24.8344L170.813 27.8125L167.844 35.8781C167.668 36.3557 167.35 36.7679 166.933 37.0591C166.516 37.3502 166.019 37.5064 165.51 37.5064C165.001 37.5064 164.504 37.3502 164.087 37.0591C163.669 36.7679 163.351 36.3557 163.175 35.8781L160.188 27.8125L152.122 24.8438C151.645 24.6679 151.233 24.3499 150.941 23.9324C150.65 23.515 150.494 23.0183 150.494 22.5094C150.494 22.0004 150.65 21.5037 150.941 21.0863C151.233 20.6689 151.645 20.3508 152.122 20.175L160.188 17.1875L163.157 9.12188C163.333 8.64426 163.651 8.23207 164.068 7.94092C164.485 7.64976 164.982 7.49365 165.491 7.49365C166 7.49365 166.497 7.64976 166.914 7.94092C167.332 8.23207 167.65 8.64426 167.825 9.12188L170.813 17.1875L178.879 20.1562C179.358 20.3309 179.772 20.6502 180.063 21.07C180.353 21.4898 180.506 21.9895 180.5 22.5ZM171.75 7.5H174.25V10C174.25 10.3315 174.382 10.6495 174.617 10.8839C174.851 11.1183 175.169 11.25 175.5 11.25C175.832 11.25 176.15 11.1183 176.384 10.8839C176.619 10.6495 176.75 10.3315 176.75 10V7.5H179.25C179.582 7.5 179.9 7.3683 180.134 7.13388C180.369 6.89946 180.5 6.58152 180.5 6.25C180.5 5.91848 180.369 5.60054 180.134 5.36612C179.9 5.1317 179.582 5 179.25 5H176.75V2.5C176.75 2.16848 176.619 1.85054 176.384 1.61612C176.15 1.3817 175.832 1.25 175.5 1.25C175.169 1.25 174.851 1.3817 174.617 1.61612C174.382 1.85054 174.25 2.16848 174.25 2.5V5H171.75C171.419 5 171.101 5.1317 170.867 5.36612C170.632 5.60054 170.5 5.91848 170.5 6.25C170.5 6.58152 170.632 6.89946 170.867 7.13388C171.101 7.3683 171.419 7.5 171.75 7.5ZM185.5 12.5H184.25V11.25C184.25 10.9185 184.119 10.6005 183.884 10.3661C183.65 10.1317 183.332 10 183 10C182.669 10 182.351 10.1317 182.117 10.3661C181.882 10.6005 181.75 10.9185 181.75 11.25V12.5H180.5C180.169 12.5 179.851 12.6317 179.617 12.8661C179.382 13.1005 179.25 13.4185 179.25 13.75C179.25 14.0815 179.382 14.3995 179.617 14.6339C179.851 14.8683 180.169 15 180.5 15H181.75V16.25C181.75 16.5815 181.882 16.8995 182.117 17.1339C182.351 17.3683 182.669 17.5 183 17.5C183.332 17.5 183.65 17.3683 183.884 17.1339C184.119 16.8995 184.25 16.5815 184.25 16.25V15H185.5C185.832 15 186.15 14.8683 186.384 14.6339C186.619 14.3995 186.75 14.0815 186.75 13.75C186.75 13.4185 186.619 13.1005 186.384 12.8661C186.15 12.6317 185.832 12.5 185.5 12.5Z" fill="#1472FF"/>
<defs>
<filter id="filter0_d_5821_31392" x="0" y="-4" width="208" height="208" filterUnits="userSpaceOnUse" color-interpolation-filters="sRGB">
<feFlood flood-opacity="0" result="BackgroundImageFix"/>
<feColorMatrix in="SourceAlpha" type="matrix" values="0 0 0 0 0 0 0 0 0 0 0 0 0 0 0 0 0 0 127 0" result="hardAlpha"/>
<feOffset dy="32"/>
<feGaussianBlur stdDeviation="20"/>
<feComposite in2="hardAlpha" operator="out"/>
<feColorMatrix type="matrix" values="0 0 0 0 0 0 0 0 0 0 0 0 0 0 0 0 0 0 0.04 0"/>
<feBlend mode="normal" in2="BackgroundImageFix" result="effect1_dropShadow_5821_31392"/>
<feBlend mode="normal" in="SourceGraphic" in2="effect1_dropShadow_5821_31392" result="shape"/>
</filter>
<filter id="filter1_i_5821_31392" x="40" y="32" width="128" height="87.9998" filterUnits="userSpaceOnUse" color-interpolation-filters="sRGB">
<feFlood flood-opacity="0" result="BackgroundImageFix"/>
<feBlend mode="normal" in="SourceGraphic" in2="BackgroundImageFix" result="shape"/>
<feColorMatrix in="SourceAlpha" type="matrix" values="0 0 0 0 0 0 0 0 0 0 0 0 0 0 0 0 0 0 127 0" result="hardAlpha"/>
<feOffset dy="-8"/>
<feGaussianBlur stdDeviation="4"/>
<feComposite in2="hardAlpha" operator="arithmetic" k2="-1" k3="1"/>
<feColorMatrix type="matrix" values="0 0 0 0 0.321569 0 0 0 0 0.686275 0 0 0 0 0.878431 0 0 0 0.32 0"/>
<feBlend mode="normal" in2="shape" result="effect1_innerShadow_5821_31392"/>
</filter>
<filter id="filter2_d_5821_31392" x="71.4883" y="190" width="65.0254" height="54" filterUnits="userSpaceOnUse" color-interpolation-filters="sRGB">
<feFlood flood-opacity="0" result="BackgroundImageFix"/>
<feColorMatrix in="SourceAlpha" type="matrix" values="0 0 0 0 0 0 0 0 0 0 0 0 0 0 0 0 0 0 127 0" result="hardAlpha"/>
<feOffset dy="8"/>
<feGaussianBlur stdDeviation="12"/>
<feComposite in2="hardAlpha" operator="out"/>
<feColorMatrix type="matrix" values="0 0 0 0 0 0 0 0 0 0 0 0 0 0 0 0 0 0 0.06 0"/>
<feBlend mode="normal" in2="BackgroundImageFix" result="effect1_dropShadow_5821_31392"/>
<feBlend mode="normal" in="SourceGraphic" in2="effect1_dropShadow_5821_31392" result="shape"/>
</filter>
<filter id="filter3_d_5821_31392" x="19.5" y="200" width="169" height="81" filterUnits="userSpaceOnUse" color-interpolation-filters="sRGB">
<feFlood flood-opacity="0" result="BackgroundImageFix"/>
<feColorMatrix in="SourceAlpha" type="matrix" values="0 0 0 0 0 0 0 0 0 0 0 0 0 0 0 0 0 0 127 0" result="hardAlpha"/>
<feOffset dy="12"/>
<feGaussianBlur stdDeviation="12"/>
<feComposite in2="hardAlpha" operator="out"/>
<feColorMatrix type="matrix" values="0 0 0 0 0 0 0 0 0 0 0 0 0 0 0 0 0 0 0.06 0"/>
<feBlend mode="normal" in2="BackgroundImageFix" result="effect1_dropShadow_5821_31392"/>
<feBlend mode="normal" in="SourceGraphic" in2="effect1_dropShadow_5821_31392" result="shape"/>
</filter>
<linearGradient id="paint0_linear_5821_31392" x1="103.999" y1="32" x2="103.999" y2="56" gradientUnits="userSpaceOnUse">
<stop stop-color="#52AFE0"/>
<stop offset="1" stop-color="#00529E" stop-opacity="0.1"/>
</linearGradient>
<radialGradient id="paint1_radial_5821_31392" cx="0" cy="0" r="1" gradientUnits="userSpaceOnUse" gradientTransform="translate(104 56) rotate(90) scale(48 76.8001)">
<stop stop-color="white"/>
<stop offset="1" stop-color="white" stop-opacity="0"/>
</radialGradient>
</defs>
</svg>
