<svg width="208" height="281" viewBox="0 0 208 281" fill="none" xmlns="http://www.w3.org/2000/svg">
<g filter="url(#filter0_d_5821_31404)">
<path d="M40 24C40 17.3726 45.3726 12 52 12H71.999C85.4727 12 87.1569 24 103.999 24H156C162.627 24 168 29.3726 168 36V108C168 114.627 162.627 120 156 120H52C45.3726 120 40 114.627 40 108V24Z" fill="#52AFE0"/>
<path d="M40 24C40 17.3726 45.3726 12 52 12H71.999C85.4727 12 87.1569 24 103.999 24H156C162.627 24 168 29.3726 168 36V108C168 114.627 162.627 120 156 120H52C45.3726 120 40 114.627 40 108V24Z" fill="url(#paint0_linear_5821_31404)" fill-opacity="0.2"/>
<g filter="url(#filter1_i_5821_31404)">
<path d="M40 108V52C40 45.3726 45.3726 40 52 40L156 40C162.627 40 168 45.3726 168 52V108C168 114.627 162.627 120 156 120H52C45.3726 120 40 114.627 40 108Z" fill="#73D0FA"/>
<path d="M40 108V52C40 45.3726 45.3726 40 52 40L156 40C162.627 40 168 45.3726 168 52V108C168 114.627 162.627 120 156 120H52C45.3726 120 40 114.627 40 108Z" fill="url(#paint1_radial_5821_31404)" fill-opacity="0.16"/>
</g>
</g>
<rect x="40" y="140" width="128" height="4" rx="2" fill="#E5E5EB"/>
<rect x="40" y="140" width="95" height="4" rx="2" fill="#0066FF"/>
<rect x="40" y="155" width="128" height="24" rx="6" fill="#48484B"/>
<g filter="url(#filter2_d_5821_31404)">
<path d="M110.928 211.449L105.585 206.551C104.784 205.816 103.216 205.816 102.415 206.551L97.0731 211.449C96.6728 211.816 96.0805 212 95.4883 212L112.513 212C111.921 212 111.328 211.816 110.928 211.449Z" fill="white"/>
</g>
<g filter="url(#filter3_d_5821_31404)">
<rect x="39" y="212" width="130" height="33" rx="6" fill="white" shape-rendering="crispEdges"/>
<path d="M52.204 234V223.92H53.352V234H52.204ZM52.792 234V232.992H58.952V234H52.792ZM52.792 229.254V228.246H58.448V229.254H52.792ZM52.792 224.928V223.92H58.84V224.928H52.792ZM63.0049 234.14C62.1276 234.14 61.4276 233.939 60.9049 233.538C60.3822 233.127 60.0836 232.549 60.0089 231.802H61.0869C61.1522 232.259 61.3529 232.609 61.6889 232.852C62.0249 233.095 62.4729 233.216 63.0329 233.216C63.5276 233.216 63.9149 233.123 64.1949 232.936C64.4749 232.749 64.6149 232.483 64.6149 232.138C64.6149 231.895 64.5356 231.685 64.3769 231.508C64.2182 231.321 63.9009 231.167 63.4249 231.046L62.2769 230.752C61.6236 230.584 61.1336 230.327 60.8069 229.982C60.4802 229.627 60.3169 229.207 60.3169 228.722C60.3169 228.106 60.5456 227.621 61.0029 227.266C61.4602 226.902 62.0809 226.72 62.8649 226.72C63.6396 226.72 64.2696 226.907 64.7549 227.28C65.2402 227.653 65.5156 228.171 65.5809 228.834H64.5029C64.4376 228.451 64.2602 228.157 63.9709 227.952C63.6816 227.747 63.2989 227.644 62.8229 227.644C62.3656 227.644 62.0109 227.733 61.7589 227.91C61.5069 228.078 61.3809 228.321 61.3809 228.638C61.3809 228.881 61.4696 229.091 61.6469 229.268C61.8336 229.445 62.1416 229.595 62.5709 229.716L63.6909 230.024C64.3536 230.201 64.8529 230.472 65.1889 230.836C65.5249 231.2 65.6929 231.639 65.6929 232.152C65.6929 232.777 65.4549 233.267 64.9789 233.622C64.5029 233.967 63.8449 234.14 63.0049 234.14ZM70.7281 234.126C70.0561 234.126 69.4914 233.963 69.0341 233.636C68.5767 233.309 68.2641 232.847 68.0961 232.25L68.3201 232.222V236.87H67.2001V226.86H68.2501V228.526L68.0961 228.484C68.2734 227.933 68.6094 227.504 69.1041 227.196C69.5987 226.879 70.1727 226.72 70.8261 226.72C71.4607 226.72 72.0114 226.874 72.4781 227.182C72.9541 227.49 73.3227 227.919 73.5841 228.47C73.8454 229.021 73.9761 229.665 73.9761 230.402C73.9761 231.149 73.8407 231.802 73.5701 232.362C73.2994 232.922 72.9214 233.356 72.4361 233.664C71.9507 233.972 71.3814 234.126 70.7281 234.126ZM70.5601 233.146C71.2694 233.146 71.8247 232.903 72.2261 232.418C72.6274 231.923 72.8281 231.251 72.8281 230.402C72.8281 229.562 72.6274 228.904 72.2261 228.428C71.8247 227.943 71.2694 227.7 70.5601 227.7C69.8507 227.7 69.2907 227.947 68.8801 228.442C68.4694 228.927 68.2641 229.595 68.2641 230.444C68.2641 231.275 68.4694 231.933 68.8801 232.418C69.2907 232.903 69.8507 233.146 70.5601 233.146ZM80.0997 234C80.0623 233.841 80.0343 233.659 80.0157 233.454C80.0063 233.249 80.0017 232.987 80.0017 232.67H79.9317V229.254C79.9317 228.713 79.8057 228.316 79.5537 228.064C79.311 227.803 78.9143 227.672 78.3637 227.672C77.8223 227.672 77.3883 227.784 77.0617 228.008C76.7443 228.223 76.567 228.531 76.5297 228.932H75.4517C75.4983 228.241 75.7877 227.7 76.3197 227.308C76.8517 226.916 77.547 226.72 78.4057 226.72C79.2923 226.72 79.9503 226.93 80.3797 227.35C80.809 227.77 81.0237 228.4 81.0237 229.24V232.67C81.0237 232.875 81.0377 233.09 81.0657 233.314C81.0937 233.529 81.131 233.757 81.1777 234H80.0997ZM77.6497 234.14C76.9123 234.14 76.3243 233.963 75.8857 233.608C75.4563 233.244 75.2417 232.749 75.2417 232.124C75.2417 231.499 75.4563 231.013 75.8857 230.668C76.315 230.323 76.9403 230.08 77.7617 229.94L80.2537 229.52V230.444L77.9297 230.808C77.407 230.892 77.0103 231.032 76.7397 231.228C76.469 231.424 76.3337 231.709 76.3337 232.082C76.3337 232.446 76.455 232.721 76.6977 232.908C76.9497 233.095 77.3183 233.188 77.8037 233.188C78.429 233.188 78.9377 233.048 79.3297 232.768C79.731 232.479 79.9317 232.105 79.9317 231.648L80.1137 232.642C79.9643 233.118 79.6703 233.487 79.2317 233.748C78.8023 234.009 78.275 234.14 77.6497 234.14ZM86.0105 234.14C85.3572 234.14 84.7738 233.981 84.2605 233.664C83.7565 233.337 83.3552 232.894 83.0565 232.334C82.7672 231.765 82.6225 231.121 82.6225 230.402C82.6225 229.683 82.7672 229.049 83.0565 228.498C83.3552 227.947 83.7565 227.513 84.2605 227.196C84.7738 226.879 85.3525 226.72 85.9965 226.72C86.5285 226.72 87.0045 226.823 87.4245 227.028C87.8538 227.233 88.2038 227.527 88.4745 227.91C88.7545 228.283 88.9318 228.722 89.0065 229.226H87.9705C87.8772 228.769 87.6625 228.395 87.3265 228.106C86.9905 227.817 86.5565 227.672 86.0245 227.672C85.5672 227.672 85.1705 227.784 84.8345 228.008C84.4985 228.232 84.2372 228.549 84.0505 228.96C83.8638 229.371 83.7705 229.851 83.7705 230.402C83.7705 230.953 83.8638 231.438 84.0505 231.858C84.2372 232.278 84.4985 232.605 84.8345 232.838C85.1798 233.071 85.5812 233.188 86.0385 233.188C86.5518 233.188 86.9812 233.048 87.3265 232.768C87.6718 232.479 87.8912 232.105 87.9845 231.648H89.0205C88.9365 232.143 88.7498 232.581 88.4605 232.964C88.1805 233.337 87.8305 233.627 87.4105 233.832C86.9905 234.037 86.5238 234.14 86.0105 234.14ZM90.5927 234V226.86H91.7127V234H90.5927ZM90.5087 225.236V223.92H91.7967V225.236H90.5087ZM96.8966 234.14C96.1966 234.14 95.5806 233.977 95.0486 233.65C94.5166 233.323 94.1013 232.88 93.8026 232.32C93.5133 231.751 93.3686 231.111 93.3686 230.402C93.3686 229.683 93.5179 229.049 93.8166 228.498C94.1153 227.947 94.5259 227.513 95.0486 227.196C95.5806 226.879 96.1966 226.72 96.8966 226.72C97.6059 226.72 98.2219 226.879 98.7446 227.196C99.2766 227.513 99.6873 227.947 99.9766 228.498C100.275 229.049 100.425 229.683 100.425 230.402C100.425 231.111 100.275 231.751 99.9766 232.32C99.6873 232.88 99.2766 233.323 98.7446 233.65C98.2219 233.977 97.6059 234.14 96.8966 234.14ZM96.8966 233.188C97.3819 233.188 97.8019 233.071 98.1566 232.838C98.5113 232.595 98.7866 232.264 98.9826 231.844C99.1786 231.424 99.2766 230.939 99.2766 230.388C99.2766 229.567 99.0573 228.909 98.6186 228.414C98.1893 227.919 97.6153 227.672 96.8966 227.672C96.1873 227.672 95.6133 227.919 95.1746 228.414C94.7359 228.909 94.5166 229.567 94.5166 230.388C94.5166 230.939 94.6146 231.424 94.8106 231.844C95.0066 232.264 95.2819 232.595 95.6366 232.838C96.0006 233.071 96.4206 233.188 96.8966 233.188ZM104.907 234V223.92H106.027V234H104.907ZM108.27 234V226.86H109.39V234H108.27ZM108.186 225.236V223.92H109.474V225.236H108.186ZM115.162 234.126C114.49 234.126 113.925 233.963 113.468 233.636C113.01 233.309 112.698 232.847 112.53 232.25L112.684 232.222V234H111.634V223.92H112.754V228.526L112.6 228.484C112.777 227.933 113.099 227.504 113.566 227.196C114.042 226.879 114.606 226.72 115.26 226.72C115.894 226.72 116.445 226.874 116.912 227.182C117.388 227.49 117.756 227.919 118.018 228.47C118.279 229.021 118.41 229.665 118.41 230.402C118.41 231.149 118.274 231.802 118.004 232.362C117.733 232.922 117.355 233.356 116.87 233.664C116.384 233.972 115.815 234.126 115.162 234.126ZM114.994 233.146C115.703 233.146 116.258 232.903 116.66 232.418C117.061 231.923 117.262 231.251 117.262 230.402C117.262 229.562 117.061 228.904 116.66 228.428C116.258 227.943 115.703 227.7 114.994 227.7C114.284 227.7 113.724 227.947 113.314 228.442C112.903 228.927 112.698 229.595 112.698 230.444C112.698 231.275 112.903 231.933 113.314 232.418C113.724 232.903 114.284 233.146 114.994 233.146ZM123.05 234.14C122.369 234.14 121.767 233.981 121.244 233.664C120.721 233.337 120.311 232.894 120.012 232.334C119.713 231.774 119.564 231.13 119.564 230.402C119.564 229.674 119.709 229.035 119.998 228.484C120.297 227.924 120.712 227.49 121.244 227.182C121.776 226.874 122.387 226.72 123.078 226.72C123.741 226.72 124.315 226.865 124.8 227.154C125.295 227.443 125.673 227.849 125.934 228.372C126.205 228.895 126.34 229.511 126.34 230.22C126.34 230.313 126.335 230.402 126.326 230.486C126.326 230.57 126.317 230.663 126.298 230.766H120.404V229.828H125.612L125.248 230.346C125.248 229.487 125.057 228.829 124.674 228.372C124.301 227.905 123.769 227.672 123.078 227.672C122.369 227.672 121.795 227.919 121.356 228.414C120.927 228.899 120.712 229.557 120.712 230.388C120.712 231.237 120.927 231.919 121.356 232.432C121.795 232.936 122.378 233.188 123.106 233.188C123.563 233.188 123.965 233.09 124.31 232.894C124.655 232.689 124.907 232.399 125.066 232.026H126.13C125.897 232.679 125.505 233.197 124.954 233.58C124.413 233.953 123.778 234.14 123.05 234.14ZM128.026 234V226.86H129.076V228.68H129.146V234H128.026ZM129.146 230.276L128.964 228.582C129.132 227.975 129.431 227.513 129.86 227.196C130.29 226.879 130.784 226.72 131.344 226.72C131.578 226.72 131.736 226.739 131.82 226.776V227.854C131.774 227.835 131.708 227.826 131.624 227.826C131.54 227.817 131.438 227.812 131.316 227.812C130.607 227.812 130.066 228.027 129.692 228.456C129.328 228.876 129.146 229.483 129.146 230.276ZM137.453 234C137.416 233.841 137.388 233.659 137.369 233.454C137.36 233.249 137.355 232.987 137.355 232.67H137.285V229.254C137.285 228.713 137.159 228.316 136.907 228.064C136.665 227.803 136.268 227.672 135.717 227.672C135.176 227.672 134.742 227.784 134.415 228.008C134.098 228.223 133.921 228.531 133.883 228.932H132.805C132.852 228.241 133.141 227.7 133.673 227.308C134.205 226.916 134.901 226.72 135.759 226.72C136.646 226.72 137.304 226.93 137.733 227.35C138.163 227.77 138.377 228.4 138.377 229.24V232.67C138.377 232.875 138.391 233.09 138.419 233.314C138.447 233.529 138.485 233.757 138.531 234H137.453ZM135.003 234.14C134.266 234.14 133.678 233.963 133.239 233.608C132.81 233.244 132.595 232.749 132.595 232.124C132.595 231.499 132.81 231.013 133.239 230.668C133.669 230.323 134.294 230.08 135.115 229.94L137.607 229.52V230.444L135.283 230.808C134.761 230.892 134.364 231.032 134.093 231.228C133.823 231.424 133.687 231.709 133.687 232.082C133.687 232.446 133.809 232.721 134.051 232.908C134.303 233.095 134.672 233.188 135.157 233.188C135.783 233.188 136.291 233.048 136.683 232.768C137.085 232.479 137.285 232.105 137.285 231.648L137.467 232.642C137.318 233.118 137.024 233.487 136.585 233.748C136.156 234.009 135.629 234.14 135.003 234.14ZM145.73 234V232.334L145.87 232.376C145.693 232.917 145.366 233.347 144.89 233.664C144.423 233.981 143.863 234.14 143.21 234.14C142.566 234.14 142.001 233.986 141.516 233.678C141.04 233.37 140.667 232.941 140.396 232.39C140.135 231.839 140.004 231.195 140.004 230.458C140.004 229.711 140.139 229.058 140.41 228.498C140.681 227.938 141.059 227.504 141.544 227.196C142.029 226.888 142.599 226.734 143.252 226.734C143.924 226.734 144.489 226.897 144.946 227.224C145.403 227.551 145.716 228.013 145.884 228.61L145.66 228.638V223.92H146.78V234H145.73ZM143.42 233.16C144.139 233.16 144.699 232.917 145.1 232.432C145.511 231.937 145.716 231.265 145.716 230.416C145.716 229.585 145.511 228.927 145.1 228.442C144.689 227.957 144.129 227.714 143.42 227.714C142.711 227.714 142.155 227.957 141.754 228.442C141.353 228.927 141.152 229.599 141.152 230.458C141.152 231.298 141.353 231.961 141.754 232.446C142.155 232.922 142.711 233.16 143.42 233.16ZM151.994 234.14C151.294 234.14 150.678 233.977 150.146 233.65C149.614 233.323 149.199 232.88 148.9 232.32C148.611 231.751 148.466 231.111 148.466 230.402C148.466 229.683 148.616 229.049 148.914 228.498C149.213 227.947 149.624 227.513 150.146 227.196C150.678 226.879 151.294 226.72 151.994 226.72C152.704 226.72 153.32 226.879 153.842 227.196C154.374 227.513 154.785 227.947 155.074 228.498C155.373 229.049 155.522 229.683 155.522 230.402C155.522 231.111 155.373 231.751 155.074 232.32C154.785 232.88 154.374 233.323 153.842 233.65C153.32 233.977 152.704 234.14 151.994 234.14ZM151.994 233.188C152.48 233.188 152.9 233.071 153.254 232.838C153.609 232.595 153.884 232.264 154.08 231.844C154.276 231.424 154.374 230.939 154.374 230.388C154.374 229.567 154.155 228.909 153.716 228.414C153.287 227.919 152.713 227.672 151.994 227.672C151.285 227.672 150.711 227.919 150.272 228.414C149.834 228.909 149.614 229.567 149.614 230.388C149.614 230.939 149.712 231.424 149.908 231.844C150.104 232.264 150.38 232.595 150.734 232.838C151.098 233.071 151.518 233.188 151.994 233.188Z" fill="#262626"/>
</g>
<path d="M181.5 22.5C181.504 23.0097 181.349 23.5078 181.057 23.9258C180.766 24.3439 180.352 24.6613 179.872 24.8344L171.813 27.8125L168.844 35.8781C168.668 36.3557 168.35 36.7679 167.933 37.0591C167.516 37.3502 167.019 37.5064 166.51 37.5064C166.001 37.5064 165.504 37.3502 165.087 37.0591C164.669 36.7679 164.351 36.3557 164.175 35.8781L161.188 27.8125L153.122 24.8438C152.645 24.6679 152.233 24.3499 151.941 23.9324C151.65 23.515 151.494 23.0183 151.494 22.5094C151.494 22.0004 151.65 21.5037 151.941 21.0863C152.233 20.6689 152.645 20.3508 153.122 20.175L161.188 17.1875L164.157 9.12188C164.333 8.64426 164.651 8.23207 165.068 7.94092C165.485 7.64976 165.982 7.49365 166.491 7.49365C167 7.49365 167.497 7.64976 167.914 7.94092C168.332 8.23207 168.65 8.64426 168.825 9.12188L171.813 17.1875L179.879 20.1562C180.358 20.3309 180.772 20.6502 181.063 21.07C181.353 21.4898 181.506 21.9895 181.5 22.5ZM172.75 7.5H175.25V10C175.25 10.3315 175.382 10.6495 175.617 10.8839C175.851 11.1183 176.169 11.25 176.5 11.25C176.832 11.25 177.15 11.1183 177.384 10.8839C177.619 10.6495 177.75 10.3315 177.75 10V7.5H180.25C180.582 7.5 180.9 7.3683 181.134 7.13388C181.369 6.89946 181.5 6.58152 181.5 6.25C181.5 5.91848 181.369 5.60054 181.134 5.36612C180.9 5.1317 180.582 5 180.25 5H177.75V2.5C177.75 2.16848 177.619 1.85054 177.384 1.61612C177.15 1.3817 176.832 1.25 176.5 1.25C176.169 1.25 175.851 1.3817 175.617 1.61612C175.382 1.85054 175.25 2.16848 175.25 2.5V5H172.75C172.419 5 172.101 5.1317 171.867 5.36612C171.632 5.60054 171.5 5.91848 171.5 6.25C171.5 6.58152 171.632 6.89946 171.867 7.13388C172.101 7.3683 172.419 7.5 172.75 7.5ZM186.5 12.5H185.25V11.25C185.25 10.9185 185.119 10.6005 184.884 10.3661C184.65 10.1317 184.332 10 184 10C183.669 10 183.351 10.1317 183.117 10.3661C182.882 10.6005 182.75 10.9185 182.75 11.25V12.5H181.5C181.169 12.5 180.851 12.6317 180.617 12.8661C180.382 13.1005 180.25 13.4185 180.25 13.75C180.25 14.0815 180.382 14.3995 180.617 14.6339C180.851 14.8683 181.169 15 181.5 15H182.75V16.25C182.75 16.5815 182.882 16.8995 183.117 17.1339C183.351 17.3683 183.669 17.5 184 17.5C184.332 17.5 184.65 17.3683 184.884 17.1339C185.119 16.8995 185.25 16.5815 185.25 16.25V15H186.5C186.832 15 187.15 14.8683 187.384 14.6339C187.619 14.3995 187.75 14.0815 187.75 13.75C187.75 13.4185 187.619 13.1005 187.384 12.8661C187.15 12.6317 186.832 12.5 186.5 12.5Z" fill="#1472FF"/>
<defs>
<filter id="filter0_d_5821_31404" x="0" y="-4" width="208" height="208" filterUnits="userSpaceOnUse" color-interpolation-filters="sRGB">
<feFlood flood-opacity="0" result="BackgroundImageFix"/>
<feColorMatrix in="SourceAlpha" type="matrix" values="0 0 0 0 0 0 0 0 0 0 0 0 0 0 0 0 0 0 127 0" result="hardAlpha"/>
<feOffset dy="32"/>
<feGaussianBlur stdDeviation="20"/>
<feComposite in2="hardAlpha" operator="out"/>
<feColorMatrix type="matrix" values="0 0 0 0 0 0 0 0 0 0 0 0 0 0 0 0 0 0 0.04 0"/>
<feBlend mode="normal" in2="BackgroundImageFix" result="effect1_dropShadow_5821_31404"/>
<feBlend mode="normal" in="SourceGraphic" in2="effect1_dropShadow_5821_31404" result="shape"/>
</filter>
<filter id="filter1_i_5821_31404" x="40" y="32" width="128" height="87.9998" filterUnits="userSpaceOnUse" color-interpolation-filters="sRGB">
<feFlood flood-opacity="0" result="BackgroundImageFix"/>
<feBlend mode="normal" in="SourceGraphic" in2="BackgroundImageFix" result="shape"/>
<feColorMatrix in="SourceAlpha" type="matrix" values="0 0 0 0 0 0 0 0 0 0 0 0 0 0 0 0 0 0 127 0" result="hardAlpha"/>
<feOffset dy="-8"/>
<feGaussianBlur stdDeviation="4"/>
<feComposite in2="hardAlpha" operator="arithmetic" k2="-1" k3="1"/>
<feColorMatrix type="matrix" values="0 0 0 0 0.321569 0 0 0 0 0.686275 0 0 0 0 0.878431 0 0 0 0.32 0"/>
<feBlend mode="normal" in2="shape" result="effect1_innerShadow_5821_31404"/>
</filter>
<filter id="filter2_d_5821_31404" x="71.4883" y="190" width="65.0254" height="54" filterUnits="userSpaceOnUse" color-interpolation-filters="sRGB">
<feFlood flood-opacity="0" result="BackgroundImageFix"/>
<feColorMatrix in="SourceAlpha" type="matrix" values="0 0 0 0 0 0 0 0 0 0 0 0 0 0 0 0 0 0 127 0" result="hardAlpha"/>
<feOffset dy="8"/>
<feGaussianBlur stdDeviation="12"/>
<feComposite in2="hardAlpha" operator="out"/>
<feColorMatrix type="matrix" values="0 0 0 0 0 0 0 0 0 0 0 0 0 0 0 0 0 0 0.06 0"/>
<feBlend mode="normal" in2="BackgroundImageFix" result="effect1_dropShadow_5821_31404"/>
<feBlend mode="normal" in="SourceGraphic" in2="effect1_dropShadow_5821_31404" result="shape"/>
</filter>
<filter id="filter3_d_5821_31404" x="15" y="200" width="178" height="81" filterUnits="userSpaceOnUse" color-interpolation-filters="sRGB">
<feFlood flood-opacity="0" result="BackgroundImageFix"/>
<feColorMatrix in="SourceAlpha" type="matrix" values="0 0 0 0 0 0 0 0 0 0 0 0 0 0 0 0 0 0 127 0" result="hardAlpha"/>
<feOffset dy="12"/>
<feGaussianBlur stdDeviation="12"/>
<feComposite in2="hardAlpha" operator="out"/>
<feColorMatrix type="matrix" values="0 0 0 0 0 0 0 0 0 0 0 0 0 0 0 0 0 0 0.06 0"/>
<feBlend mode="normal" in2="BackgroundImageFix" result="effect1_dropShadow_5821_31404"/>
<feBlend mode="normal" in="SourceGraphic" in2="effect1_dropShadow_5821_31404" result="shape"/>
</filter>
<linearGradient id="paint0_linear_5821_31404" x1="103.999" y1="32" x2="103.999" y2="56" gradientUnits="userSpaceOnUse">
<stop stop-color="#52AFE0"/>
<stop offset="1" stop-color="#00529E" stop-opacity="0.1"/>
</linearGradient>
<radialGradient id="paint1_radial_5821_31404" cx="0" cy="0" r="1" gradientUnits="userSpaceOnUse" gradientTransform="translate(104 56) rotate(90) scale(48 76.8001)">
<stop stop-color="white"/>
<stop offset="1" stop-color="white" stop-opacity="0"/>
</radialGradient>
</defs>
</svg>
