<svg width="208" height="281" viewBox="0 0 208 281" fill="none" xmlns="http://www.w3.org/2000/svg">
<g filter="url(#filter0_d_5821_31416)">
<path d="M40 24C40 17.3726 45.3726 12 52 12H71.999C85.4727 12 87.1569 24 103.999 24H156C162.627 24 168 29.3726 168 36V108C168 114.627 162.627 120 156 120H52C45.3726 120 40 114.627 40 108V24Z" fill="#52AFE0"/>
<path d="M40 24C40 17.3726 45.3726 12 52 12H71.999C85.4727 12 87.1569 24 103.999 24H156C162.627 24 168 29.3726 168 36V108C168 114.627 162.627 120 156 120H52C45.3726 120 40 114.627 40 108V24Z" fill="url(#paint0_linear_5821_31416)" fill-opacity="0.2"/>
<g filter="url(#filter1_i_5821_31416)">
<path d="M40 108V52C40 45.3726 45.3726 40 52 40L156 40C162.627 40 168 45.3726 168 52V108C168 114.627 162.627 120 156 120H52C45.3726 120 40 114.627 40 108Z" fill="#73D0FA"/>
<path d="M40 108V52C40 45.3726 45.3726 40 52 40L156 40C162.627 40 168 45.3726 168 52V108C168 114.627 162.627 120 156 120H52C45.3726 120 40 114.627 40 108Z" fill="url(#paint1_radial_5821_31416)" fill-opacity="0.16"/>
</g>
</g>
<rect x="40" y="140" width="128" height="4" rx="2" fill="#E5E5EB"/>
<rect x="40" y="140" width="95" height="4" rx="2" fill="#0066FF"/>
<rect x="40" y="155" width="128" height="24" rx="6" fill="#48484B"/>
<g filter="url(#filter2_d_5821_31416)">
<path d="M110.928 211.449L105.585 206.551C104.784 205.816 103.216 205.816 102.415 206.551L97.0731 211.449C96.6728 211.816 96.0805 212 95.4883 212L112.513 212C111.921 212 111.328 211.816 110.928 211.449Z" fill="white"/>
</g>
<g filter="url(#filter3_d_5821_31416)">
<rect x="49" y="212" width="110" height="33" rx="6" fill="white" shape-rendering="crispEdges"/>
<path d="M62.204 234V223.92H63.352V234H62.204ZM62.792 234V232.992H68.952V234H62.792ZM62.792 229.254V228.246H68.448V229.254H62.792ZM62.792 224.928V223.92H68.84V224.928H62.792ZM73.0049 234.14C72.1276 234.14 71.4276 233.939 70.9049 233.538C70.3822 233.127 70.0836 232.549 70.0089 231.802H71.0869C71.1522 232.259 71.3529 232.609 71.6889 232.852C72.0249 233.095 72.4729 233.216 73.0329 233.216C73.5276 233.216 73.9149 233.123 74.1949 232.936C74.4749 232.749 74.6149 232.483 74.6149 232.138C74.6149 231.895 74.5356 231.685 74.3769 231.508C74.2182 231.321 73.9009 231.167 73.4249 231.046L72.2769 230.752C71.6236 230.584 71.1336 230.327 70.8069 229.982C70.4802 229.627 70.3169 229.207 70.3169 228.722C70.3169 228.106 70.5456 227.621 71.0029 227.266C71.4602 226.902 72.0809 226.72 72.8649 226.72C73.6396 226.72 74.2696 226.907 74.7549 227.28C75.2402 227.653 75.5156 228.171 75.5809 228.834H74.5029C74.4376 228.451 74.2602 228.157 73.9709 227.952C73.6816 227.747 73.2989 227.644 72.8229 227.644C72.3656 227.644 72.0109 227.733 71.7589 227.91C71.5069 228.078 71.3809 228.321 71.3809 228.638C71.3809 228.881 71.4696 229.091 71.6469 229.268C71.8336 229.445 72.1416 229.595 72.5709 229.716L73.6909 230.024C74.3536 230.201 74.8529 230.472 75.1889 230.836C75.5249 231.2 75.6929 231.639 75.6929 232.152C75.6929 232.777 75.4549 233.267 74.9789 233.622C74.5029 233.967 73.8449 234.14 73.0049 234.14ZM80.7281 234.126C80.0561 234.126 79.4914 233.963 79.0341 233.636C78.5767 233.309 78.2641 232.847 78.0961 232.25L78.3201 232.222V236.87H77.2001V226.86H78.2501V228.526L78.0961 228.484C78.2734 227.933 78.6094 227.504 79.1041 227.196C79.5987 226.879 80.1727 226.72 80.8261 226.72C81.4607 226.72 82.0114 226.874 82.4781 227.182C82.9541 227.49 83.3227 227.919 83.5841 228.47C83.8454 229.021 83.9761 229.665 83.9761 230.402C83.9761 231.149 83.8407 231.802 83.5701 232.362C83.2994 232.922 82.9214 233.356 82.4361 233.664C81.9507 233.972 81.3814 234.126 80.7281 234.126ZM80.5601 233.146C81.2694 233.146 81.8247 232.903 82.2261 232.418C82.6274 231.923 82.8281 231.251 82.8281 230.402C82.8281 229.562 82.6274 228.904 82.2261 228.428C81.8247 227.943 81.2694 227.7 80.5601 227.7C79.8507 227.7 79.2907 227.947 78.8801 228.442C78.4694 228.927 78.2641 229.595 78.2641 230.444C78.2641 231.275 78.4694 231.933 78.8801 232.418C79.2907 232.903 79.8507 233.146 80.5601 233.146ZM90.0997 234C90.0623 233.841 90.0343 233.659 90.0157 233.454C90.0063 233.249 90.0017 232.987 90.0017 232.67H89.9317V229.254C89.9317 228.713 89.8057 228.316 89.5537 228.064C89.311 227.803 88.9143 227.672 88.3637 227.672C87.8223 227.672 87.3883 227.784 87.0617 228.008C86.7443 228.223 86.567 228.531 86.5297 228.932H85.4517C85.4983 228.241 85.7877 227.7 86.3197 227.308C86.8517 226.916 87.547 226.72 88.4057 226.72C89.2923 226.72 89.9503 226.93 90.3797 227.35C90.809 227.77 91.0237 228.4 91.0237 229.24V232.67C91.0237 232.875 91.0377 233.09 91.0657 233.314C91.0937 233.529 91.131 233.757 91.1777 234H90.0997ZM87.6497 234.14C86.9123 234.14 86.3243 233.963 85.8857 233.608C85.4563 233.244 85.2417 232.749 85.2417 232.124C85.2417 231.499 85.4563 231.013 85.8857 230.668C86.315 230.323 86.9403 230.08 87.7617 229.94L90.2537 229.52V230.444L87.9297 230.808C87.407 230.892 87.0103 231.032 86.7397 231.228C86.469 231.424 86.3337 231.709 86.3337 232.082C86.3337 232.446 86.455 232.721 86.6977 232.908C86.9497 233.095 87.3183 233.188 87.8037 233.188C88.429 233.188 88.9377 233.048 89.3297 232.768C89.731 232.479 89.9317 232.105 89.9317 231.648L90.1137 232.642C89.9643 233.118 89.6703 233.487 89.2317 233.748C88.8023 234.009 88.275 234.14 87.6497 234.14ZM96.0105 234.14C95.3572 234.14 94.7738 233.981 94.2605 233.664C93.7565 233.337 93.3552 232.894 93.0565 232.334C92.7672 231.765 92.6225 231.121 92.6225 230.402C92.6225 229.683 92.7672 229.049 93.0565 228.498C93.3552 227.947 93.7565 227.513 94.2605 227.196C94.7738 226.879 95.3525 226.72 95.9965 226.72C96.5285 226.72 97.0045 226.823 97.4245 227.028C97.8538 227.233 98.2038 227.527 98.4745 227.91C98.7545 228.283 98.9318 228.722 99.0065 229.226H97.9705C97.8772 228.769 97.6625 228.395 97.3265 228.106C96.9905 227.817 96.5565 227.672 96.0245 227.672C95.5672 227.672 95.1705 227.784 94.8345 228.008C94.4985 228.232 94.2372 228.549 94.0505 228.96C93.8638 229.371 93.7705 229.851 93.7705 230.402C93.7705 230.953 93.8638 231.438 94.0505 231.858C94.2372 232.278 94.4985 232.605 94.8345 232.838C95.1798 233.071 95.5812 233.188 96.0385 233.188C96.5518 233.188 96.9812 233.048 97.3265 232.768C97.6718 232.479 97.8912 232.105 97.9845 231.648H99.0205C98.9365 232.143 98.7498 232.581 98.4605 232.964C98.1805 233.337 97.8305 233.627 97.4105 233.832C96.9905 234.037 96.5238 234.14 96.0105 234.14ZM103.546 234.14C102.865 234.14 102.263 233.981 101.74 233.664C101.217 233.337 100.807 232.894 100.508 232.334C100.209 231.774 100.06 231.13 100.06 230.402C100.06 229.674 100.205 229.035 100.494 228.484C100.793 227.924 101.208 227.49 101.74 227.182C102.272 226.874 102.883 226.72 103.574 226.72C104.237 226.72 104.811 226.865 105.296 227.154C105.791 227.443 106.169 227.849 106.43 228.372C106.701 228.895 106.836 229.511 106.836 230.22C106.836 230.313 106.831 230.402 106.822 230.486C106.822 230.57 106.813 230.663 106.794 230.766H100.9V229.828H106.108L105.744 230.346C105.744 229.487 105.553 228.829 105.17 228.372C104.797 227.905 104.265 227.672 103.574 227.672C102.865 227.672 102.291 227.919 101.852 228.414C101.423 228.899 101.208 229.557 101.208 230.388C101.208 231.237 101.423 231.919 101.852 232.432C102.291 232.936 102.874 233.188 103.602 233.188C104.059 233.188 104.461 233.09 104.806 232.894C105.151 232.689 105.403 232.399 105.562 232.026H106.626C106.393 232.679 106.001 233.197 105.45 233.58C104.909 233.953 104.274 234.14 103.546 234.14ZM111.325 234V223.92H112.445V234H111.325ZM114.688 234V226.86H115.808V234H114.688ZM114.604 225.236V223.92H115.892V225.236H114.604ZM121.58 234.126C120.908 234.126 120.343 233.963 119.886 233.636C119.428 233.309 119.116 232.847 118.948 232.25L119.102 232.222V234H118.052V223.92H119.172V228.526L119.018 228.484C119.195 227.933 119.517 227.504 119.984 227.196C120.46 226.879 121.024 226.72 121.678 226.72C122.312 226.72 122.863 226.874 123.33 227.182C123.806 227.49 124.174 227.919 124.436 228.47C124.697 229.021 124.828 229.665 124.828 230.402C124.828 231.149 124.692 231.802 124.422 232.362C124.151 232.922 123.773 233.356 123.288 233.664C122.802 233.972 122.233 234.126 121.58 234.126ZM121.412 233.146C122.121 233.146 122.676 232.903 123.078 232.418C123.479 231.923 123.68 231.251 123.68 230.402C123.68 229.562 123.479 228.904 123.078 228.428C122.676 227.943 122.121 227.7 121.412 227.7C120.702 227.7 120.142 227.947 119.732 228.442C119.321 228.927 119.116 229.595 119.116 230.444C119.116 231.275 119.321 231.933 119.732 232.418C120.142 232.903 120.702 233.146 121.412 233.146ZM129.468 234.14C128.787 234.14 128.185 233.981 127.662 233.664C127.139 233.337 126.729 232.894 126.43 232.334C126.131 231.774 125.982 231.13 125.982 230.402C125.982 229.674 126.127 229.035 126.416 228.484C126.715 227.924 127.13 227.49 127.662 227.182C128.194 226.874 128.805 226.72 129.496 226.72C130.159 226.72 130.733 226.865 131.218 227.154C131.713 227.443 132.091 227.849 132.352 228.372C132.623 228.895 132.758 229.511 132.758 230.22C132.758 230.313 132.753 230.402 132.744 230.486C132.744 230.57 132.735 230.663 132.716 230.766H126.822V229.828H132.03L131.666 230.346C131.666 229.487 131.475 228.829 131.092 228.372C130.719 227.905 130.187 227.672 129.496 227.672C128.787 227.672 128.213 227.919 127.774 228.414C127.345 228.899 127.13 229.557 127.13 230.388C127.13 231.237 127.345 231.919 127.774 232.432C128.213 232.936 128.796 233.188 129.524 233.188C129.981 233.188 130.383 233.09 130.728 232.894C131.073 232.689 131.325 232.399 131.484 232.026H132.548C132.315 232.679 131.923 233.197 131.372 233.58C130.831 233.953 130.196 234.14 129.468 234.14ZM129.468 225.838H128.404L129.986 223.64H131.708L129.468 225.838ZM134.444 234V226.86H135.494V228.68H135.564V234H134.444ZM135.564 230.276L135.382 228.582C135.55 227.975 135.849 227.513 136.278 227.196C136.708 226.879 137.202 226.72 137.762 226.72C137.996 226.72 138.154 226.739 138.238 226.776V227.854C138.192 227.835 138.126 227.826 138.042 227.826C137.958 227.817 137.856 227.812 137.734 227.812C137.025 227.812 136.484 228.027 136.11 228.456C135.746 228.876 135.564 229.483 135.564 230.276ZM142.374 234.14C141.693 234.14 141.091 233.981 140.568 233.664C140.045 233.337 139.635 232.894 139.336 232.334C139.037 231.774 138.888 231.13 138.888 230.402C138.888 229.674 139.033 229.035 139.322 228.484C139.621 227.924 140.036 227.49 140.568 227.182C141.1 226.874 141.711 226.72 142.402 226.72C143.065 226.72 143.639 226.865 144.124 227.154C144.619 227.443 144.997 227.849 145.258 228.372C145.529 228.895 145.664 229.511 145.664 230.22C145.664 230.313 145.659 230.402 145.65 230.486C145.65 230.57 145.641 230.663 145.622 230.766H139.728V229.828H144.936L144.572 230.346C144.572 229.487 144.381 228.829 143.998 228.372C143.625 227.905 143.093 227.672 142.402 227.672C141.693 227.672 141.119 227.919 140.68 228.414C140.251 228.899 140.036 229.557 140.036 230.388C140.036 231.237 140.251 231.919 140.68 232.432C141.119 232.936 141.702 233.188 142.43 233.188C142.887 233.188 143.289 233.09 143.634 232.894C143.979 232.689 144.231 232.399 144.39 232.026H145.454C145.221 232.679 144.829 233.197 144.278 233.58C143.737 233.953 143.102 234.14 142.374 234.14ZM142.374 225.838H141.31L142.892 223.64H144.614L142.374 225.838Z" fill="#262626"/>
</g>
<path d="M180.5 22.5C180.504 23.0097 180.349 23.5078 180.057 23.9258C179.766 24.3439 179.352 24.6613 178.872 24.8344L170.813 27.8125L167.844 35.8781C167.668 36.3557 167.35 36.7679 166.933 37.0591C166.516 37.3502 166.019 37.5064 165.51 37.5064C165.001 37.5064 164.504 37.3502 164.087 37.0591C163.669 36.7679 163.351 36.3557 163.175 35.8781L160.188 27.8125L152.122 24.8438C151.645 24.6679 151.233 24.3499 150.941 23.9324C150.65 23.515 150.494 23.0183 150.494 22.5094C150.494 22.0004 150.65 21.5037 150.941 21.0863C151.233 20.6689 151.645 20.3508 152.122 20.175L160.188 17.1875L163.157 9.12188C163.333 8.64426 163.651 8.23207 164.068 7.94092C164.485 7.64976 164.982 7.49365 165.491 7.49365C166 7.49365 166.497 7.64976 166.914 7.94092C167.332 8.23207 167.65 8.64426 167.825 9.12188L170.813 17.1875L178.879 20.1562C179.358 20.3309 179.772 20.6502 180.063 21.07C180.353 21.4898 180.506 21.9895 180.5 22.5ZM171.75 7.5H174.25V10C174.25 10.3315 174.382 10.6495 174.617 10.8839C174.851 11.1183 175.169 11.25 175.5 11.25C175.832 11.25 176.15 11.1183 176.384 10.8839C176.619 10.6495 176.75 10.3315 176.75 10V7.5H179.25C179.582 7.5 179.9 7.3683 180.134 7.13388C180.369 6.89946 180.5 6.58152 180.5 6.25C180.5 5.91848 180.369 5.60054 180.134 5.36612C179.9 5.1317 179.582 5 179.25 5H176.75V2.5C176.75 2.16848 176.619 1.85054 176.384 1.61612C176.15 1.3817 175.832 1.25 175.5 1.25C175.169 1.25 174.851 1.3817 174.617 1.61612C174.382 1.85054 174.25 2.16848 174.25 2.5V5H171.75C171.419 5 171.101 5.1317 170.867 5.36612C170.632 5.60054 170.5 5.91848 170.5 6.25C170.5 6.58152 170.632 6.89946 170.867 7.13388C171.101 7.3683 171.419 7.5 171.75 7.5ZM185.5 12.5H184.25V11.25C184.25 10.9185 184.119 10.6005 183.884 10.3661C183.65 10.1317 183.332 10 183 10C182.669 10 182.351 10.1317 182.117 10.3661C181.882 10.6005 181.75 10.9185 181.75 11.25V12.5H180.5C180.169 12.5 179.851 12.6317 179.617 12.8661C179.382 13.1005 179.25 13.4185 179.25 13.75C179.25 14.0815 179.382 14.3995 179.617 14.6339C179.851 14.8683 180.169 15 180.5 15H181.75V16.25C181.75 16.5815 181.882 16.8995 182.117 17.1339C182.351 17.3683 182.669 17.5 183 17.5C183.332 17.5 183.65 17.3683 183.884 17.1339C184.119 16.8995 184.25 16.5815 184.25 16.25V15H185.5C185.832 15 186.15 14.8683 186.384 14.6339C186.619 14.3995 186.75 14.0815 186.75 13.75C186.75 13.4185 186.619 13.1005 186.384 12.8661C186.15 12.6317 185.832 12.5 185.5 12.5Z" fill="#1472FF"/>
<defs>
<filter id="filter0_d_5821_31416" x="0" y="-4" width="208" height="208" filterUnits="userSpaceOnUse" color-interpolation-filters="sRGB">
<feFlood flood-opacity="0" result="BackgroundImageFix"/>
<feColorMatrix in="SourceAlpha" type="matrix" values="0 0 0 0 0 0 0 0 0 0 0 0 0 0 0 0 0 0 127 0" result="hardAlpha"/>
<feOffset dy="32"/>
<feGaussianBlur stdDeviation="20"/>
<feComposite in2="hardAlpha" operator="out"/>
<feColorMatrix type="matrix" values="0 0 0 0 0 0 0 0 0 0 0 0 0 0 0 0 0 0 0.04 0"/>
<feBlend mode="normal" in2="BackgroundImageFix" result="effect1_dropShadow_5821_31416"/>
<feBlend mode="normal" in="SourceGraphic" in2="effect1_dropShadow_5821_31416" result="shape"/>
</filter>
<filter id="filter1_i_5821_31416" x="40" y="32" width="128" height="87.9998" filterUnits="userSpaceOnUse" color-interpolation-filters="sRGB">
<feFlood flood-opacity="0" result="BackgroundImageFix"/>
<feBlend mode="normal" in="SourceGraphic" in2="BackgroundImageFix" result="shape"/>
<feColorMatrix in="SourceAlpha" type="matrix" values="0 0 0 0 0 0 0 0 0 0 0 0 0 0 0 0 0 0 127 0" result="hardAlpha"/>
<feOffset dy="-8"/>
<feGaussianBlur stdDeviation="4"/>
<feComposite in2="hardAlpha" operator="arithmetic" k2="-1" k3="1"/>
<feColorMatrix type="matrix" values="0 0 0 0 0.321569 0 0 0 0 0.686275 0 0 0 0 0.878431 0 0 0 0.32 0"/>
<feBlend mode="normal" in2="shape" result="effect1_innerShadow_5821_31416"/>
</filter>
<filter id="filter2_d_5821_31416" x="71.4883" y="190" width="65.0254" height="54" filterUnits="userSpaceOnUse" color-interpolation-filters="sRGB">
<feFlood flood-opacity="0" result="BackgroundImageFix"/>
<feColorMatrix in="SourceAlpha" type="matrix" values="0 0 0 0 0 0 0 0 0 0 0 0 0 0 0 0 0 0 127 0" result="hardAlpha"/>
<feOffset dy="8"/>
<feGaussianBlur stdDeviation="12"/>
<feComposite in2="hardAlpha" operator="out"/>
<feColorMatrix type="matrix" values="0 0 0 0 0 0 0 0 0 0 0 0 0 0 0 0 0 0 0.06 0"/>
<feBlend mode="normal" in2="BackgroundImageFix" result="effect1_dropShadow_5821_31416"/>
<feBlend mode="normal" in="SourceGraphic" in2="effect1_dropShadow_5821_31416" result="shape"/>
</filter>
<filter id="filter3_d_5821_31416" x="25" y="200" width="158" height="81" filterUnits="userSpaceOnUse" color-interpolation-filters="sRGB">
<feFlood flood-opacity="0" result="BackgroundImageFix"/>
<feColorMatrix in="SourceAlpha" type="matrix" values="0 0 0 0 0 0 0 0 0 0 0 0 0 0 0 0 0 0 127 0" result="hardAlpha"/>
<feOffset dy="12"/>
<feGaussianBlur stdDeviation="12"/>
<feComposite in2="hardAlpha" operator="out"/>
<feColorMatrix type="matrix" values="0 0 0 0 0 0 0 0 0 0 0 0 0 0 0 0 0 0 0.06 0"/>
<feBlend mode="normal" in2="BackgroundImageFix" result="effect1_dropShadow_5821_31416"/>
<feBlend mode="normal" in="SourceGraphic" in2="effect1_dropShadow_5821_31416" result="shape"/>
</filter>
<linearGradient id="paint0_linear_5821_31416" x1="103.999" y1="32" x2="103.999" y2="56" gradientUnits="userSpaceOnUse">
<stop stop-color="#52AFE0"/>
<stop offset="1" stop-color="#00529E" stop-opacity="0.1"/>
</linearGradient>
<radialGradient id="paint1_radial_5821_31416" cx="0" cy="0" r="1" gradientUnits="userSpaceOnUse" gradientTransform="translate(104 56) rotate(90) scale(48 76.8001)">
<stop stop-color="white"/>
<stop offset="1" stop-color="white" stop-opacity="0"/>
</radialGradient>
</defs>
</svg>
